<svg width="387" height="260" viewBox="0 0 387 260" fill="none" xmlns="http://www.w3.org/2000/svg">
<path d="M231.782 248.774L169.146 247.975L169.329 246.371L172.359 219.924H227.367L231.413 246.371L231.723 248.374L231.782 248.774Z" fill="#2F2E41"/>
<path opacity="0.1" d="M231.723 248.374H200.462L169.146 247.975L169.329 246.371H231.413L231.723 248.374Z" fill="black"/>
<path d="M241.822 246.771H158.706V248.774H241.822V246.771Z" fill="#3F3D56"/>
<path d="M321.124 61.078C321.127 60.393 320.995 59.714 320.735 59.0799C320.475 58.4458 320.093 57.8689 319.61 57.3822C319.127 56.8956 318.552 56.5086 317.92 56.2435C317.287 55.9784 316.608 55.8403 315.921 55.837H83.8084C83.122 55.8403 82.443 55.9784 81.81 56.2435C81.1771 56.5086 80.6027 56.8956 80.1196 57.3822C79.6365 57.8689 79.2542 58.4458 78.9945 59.0799C78.7348 59.714 78.6028 60.393 78.606 61.078V201.49H321.124V61.078Z" fill="#3F3D56"/>
<path d="M78.606 200.09V216.536C78.606 217.913 79.1541 219.233 80.1297 220.207C81.1054 221.181 82.4286 221.728 83.8084 221.728H315.921C317.301 221.728 318.624 221.181 319.6 220.207C320.575 219.233 321.123 217.913 321.123 216.536V200.09H78.606Z" fill="#3F3D56"/>
<path d="M312.286 64.6527H88.6416V190.875H312.286V64.6527Z" fill="#2F2E41"/>
<path d="M201.056 215.487C201.877 215.488 202.688 215.302 203.427 214.944C204.166 214.586 204.813 214.065 205.32 213.421C205.475 213.224 205.616 213.016 205.742 212.8L202.768 212.312L205.984 212.337C206.292 211.667 206.46 210.941 206.479 210.204C206.497 209.467 206.364 208.734 206.09 208.05L201.773 210.284L205.752 207.366C205.379 206.725 204.877 206.167 204.278 205.728C203.68 205.289 202.997 204.977 202.272 204.812C201.548 204.647 200.797 204.633 200.066 204.77C199.336 204.907 198.642 205.192 198.027 205.608C197.411 206.024 196.888 206.562 196.49 207.188C196.092 207.814 195.827 208.516 195.712 209.248C195.597 209.981 195.634 210.729 195.821 211.447C196.008 212.165 196.341 212.837 196.799 213.421V213.421C197.306 214.064 197.952 214.585 198.69 214.943C199.427 215.301 200.236 215.487 201.056 215.487Z" fill="white"/>
<path opacity="0.1" d="M206.487 221.728L231.477 246.771L227.642 221.728H206.487Z" fill="black"/>
<path d="M273.602 238.819L280.334 234.89C279.422 233.34 278.259 231.952 276.892 230.782L264.199 234.721L274.143 228.884C271.681 227.538 268.91 226.855 266.102 226.902C263.295 226.949 260.548 227.725 258.132 229.153C255.717 230.582 253.716 232.613 252.326 235.048C250.936 237.483 250.205 240.237 250.205 243.039C250.205 251.953 257.447 252.261 266.375 252.261C275.303 252.261 282.545 251.953 282.545 243.039C282.547 240.784 282.076 238.554 281.16 236.493L273.602 238.819Z" fill="#57B894"/>
<path opacity="0.1" d="M275.317 247.484C274.599 246.768 273.798 246.14 272.93 245.614C271.711 244.803 270.445 243.979 269.004 243.702C267.742 243.46 266.434 243.663 265.137 243.593C262.899 243.456 260.793 242.492 259.228 240.888C258.307 239.941 257.587 238.784 256.48 238.05C255.288 237.272 253.776 237.103 252.367 237.296C251.956 237.357 251.549 237.442 251.147 237.549C250.512 239.304 250.189 241.156 250.191 243.021C250.191 251.935 257.432 252.244 266.361 252.244C270.695 252.244 274.632 252.17 277.535 251.076L277.05 250.171C276.589 249.205 276.006 248.303 275.317 247.484V247.484Z" fill="black"/>
<path opacity="0.3" d="M106.01 113.348H98.5754V115.6H106.01V113.348Z" fill="white"/>
<path opacity="0.3" d="M304.388 113.414H296.953V115.666H304.388V113.414Z" fill="white"/>
<path opacity="0.3" d="M106.077 129.179H98.6423V131.431H106.077V129.179Z" fill="white"/>
<path opacity="0.3" d="M106.144 145.011H98.709V147.263H106.144V145.011Z" fill="white"/>
<path opacity="0.3" d="M106.21 160.839H98.7759V163.091H106.21V160.839Z" fill="white"/>
<g opacity="0.2">
<path opacity="0.2" d="M108.119 114.431H106.01V114.519H108.119V114.431Z" fill="#F2F2F2"/>
<path opacity="0.2" d="M290.566 114.519H286.422V114.431H290.566V114.519ZM282.274 114.519H278.129V114.431H282.274V114.519ZM273.982 114.519H269.834V114.431H273.982V114.519ZM265.689 114.519H261.541V114.431H265.689V114.519ZM257.397 114.519H253.249V114.431H257.397V114.519ZM249.101 114.519H244.957V114.431H249.101V114.519ZM240.809 114.519H236.661V114.431H240.809V114.519ZM232.517 114.519H228.369V114.431H232.517V114.519ZM224.225 114.519H220.077V114.431H224.225V114.519ZM215.929 114.519H211.784V114.431H215.929V114.519ZM207.637 114.519H203.489V114.431H207.637V114.519ZM199.344 114.519H195.196V114.431H199.344V114.519ZM191.052 114.519H186.904V114.431H191.052V114.519ZM182.756 114.519H178.612V114.431H182.756V114.519ZM174.464 114.519H170.32V114.431H174.464V114.519ZM166.172 114.519H162.038V114.431H166.186L166.172 114.519ZM157.88 114.519H153.732V114.431H157.88V114.519ZM149.584 114.519H145.439V114.431H149.584V114.519ZM141.291 114.519H137.147V114.431H141.299L141.291 114.519ZM132.999 114.519H128.851V114.431H132.999V114.519ZM124.707 114.519H120.559V114.431H124.707V114.519ZM116.411 114.519H112.267V114.431H116.411V114.519Z" fill="#F2F2F2"/>
<path opacity="0.2" d="M296.823 114.431H294.714V114.519H296.823V114.431Z" fill="#F2F2F2"/>
<path opacity="0.2" d="M108.119 114.431H106.01V114.519H108.119V114.431Z" fill="#F2F2F2"/>
<path opacity="0.2" d="M290.566 114.519H286.422V114.431H290.566V114.519ZM282.274 114.519H278.129V114.431H282.274V114.519ZM273.982 114.519H269.834V114.431H273.982V114.519ZM265.689 114.519H261.541V114.431H265.689V114.519ZM257.397 114.519H253.249V114.431H257.397V114.519ZM249.101 114.519H244.957V114.431H249.101V114.519ZM240.809 114.519H236.661V114.431H240.809V114.519ZM232.517 114.519H228.369V114.431H232.517V114.519ZM224.225 114.519H220.077V114.431H224.225V114.519ZM215.929 114.519H211.784V114.431H215.929V114.519ZM207.637 114.519H203.489V114.431H207.637V114.519ZM199.344 114.519H195.196V114.431H199.344V114.519ZM191.052 114.519H186.904V114.431H191.052V114.519ZM182.756 114.519H178.612V114.431H182.756V114.519ZM174.464 114.519H170.32V114.431H174.464V114.519ZM166.172 114.519H162.038V114.431H166.186L166.172 114.519ZM157.88 114.519H153.732V114.431H157.88V114.519ZM149.584 114.519H145.439V114.431H149.584V114.519ZM141.291 114.519H137.147V114.431H141.299L141.291 114.519ZM132.999 114.519H128.851V114.431H132.999V114.519ZM124.707 114.519H120.559V114.431H124.707V114.519ZM116.411 114.519H112.267V114.431H116.411V114.519Z" fill="#F2F2F2"/>
<path opacity="0.2" d="M296.823 114.431H294.714V114.519H296.823V114.431Z" fill="#F2F2F2"/>
</g>
<path opacity="0.3" d="M106.01 97.5615H98.5754V99.8137H106.01V97.5615Z" fill="white"/>
<path opacity="0.3" d="M304.388 97.6281H296.953V99.8802H304.388V97.6281Z" fill="white"/>
<g opacity="0.2">
<path opacity="0.2" d="M108.119 98.6454H106.01V98.7331H108.119V98.6454Z" fill="#F2F2F2"/>
<path opacity="0.2" d="M290.566 98.7331H286.422V98.6454H290.566V98.7331ZM282.274 98.7331H278.129V98.6454H282.274V98.7331ZM273.982 98.7331H269.834V98.6454H273.982V98.7331ZM265.689 98.7331H261.541V98.6454H265.689V98.7331ZM257.397 98.7331H253.249V98.6454H257.397V98.7331ZM249.101 98.7331H244.957V98.6454H249.101V98.7331ZM240.809 98.7331H236.661V98.6454H240.809V98.7331ZM232.517 98.7331H228.369V98.6454H232.517V98.7331ZM224.225 98.7331H220.077V98.6454H224.225V98.7331ZM215.929 98.7331H211.784V98.6454H215.929V98.7331ZM207.637 98.7331H203.489V98.6454H207.637V98.7331ZM199.344 98.7331H195.196V98.6454H199.344V98.7331ZM191.052 98.7331H186.904V98.6454H191.052V98.7331ZM182.756 98.7331H178.612V98.6454H182.756V98.7331ZM174.464 98.7331H170.32V98.6454H174.464V98.7331ZM166.172 98.7331H162.038V98.6454H166.186L166.172 98.7331ZM157.88 98.7331H153.732V98.6454H157.88V98.7331ZM149.584 98.7331H145.439V98.6454H149.584V98.7331ZM141.291 98.7331H137.147V98.6454H141.299L141.291 98.7331ZM132.999 98.7331H128.851V98.6454H132.999V98.7331ZM124.707 98.7331H120.559V98.6454H124.707V98.7331ZM116.411 98.7331H112.267V98.6454H116.411V98.7331Z" fill="#F2F2F2"/>
<path opacity="0.2" d="M296.823 98.6454H294.714V98.7331H296.823V98.6454Z" fill="#F2F2F2"/>
</g>
<path opacity="0.3" d="M304.388 129.179H296.953V131.431H304.388V129.179Z" fill="white"/>
<g opacity="0.2">
<path opacity="0.2" d="M108.119 130.196H106.01V130.284H108.119V130.196Z" fill="#F2F2F2"/>
<path opacity="0.2" d="M290.566 130.281H286.422V130.193H290.566V130.281ZM282.274 130.281H278.129V130.193H282.274V130.281ZM273.982 130.281H269.834V130.193H273.982V130.281ZM265.689 130.281H261.541V130.193H265.689V130.281ZM257.397 130.281H253.249V130.193H257.397V130.281ZM249.101 130.281H244.957V130.193H249.101V130.281ZM240.809 130.281H236.661V130.193H240.809V130.281ZM232.517 130.281H228.369V130.193H232.517V130.281ZM224.225 130.281H220.077V130.193H224.225V130.281ZM215.929 130.281H211.784V130.193H215.929V130.281ZM207.637 130.281H203.489V130.193H207.637V130.281ZM199.344 130.281H195.196V130.193H199.344V130.281ZM191.052 130.281H186.904V130.193H191.052V130.281ZM182.756 130.281H178.612V130.193H182.756V130.281ZM174.464 130.281H170.32V130.193H174.464V130.281ZM166.172 130.281H162.038V130.193H166.186L166.172 130.281ZM157.88 130.281H153.732V130.193H157.88V130.281ZM149.584 130.281H145.439V130.193H149.584V130.281ZM141.291 130.281H137.147V130.193H141.299L141.291 130.281ZM132.999 130.281H128.851V130.193H132.999V130.281ZM124.707 130.281H120.559V130.193H124.707V130.281ZM116.411 130.281H112.267V130.193H116.411V130.281Z" fill="#F2F2F2"/>
<path opacity="0.2" d="M296.823 130.197H294.714V130.284H296.823V130.197Z" fill="#F2F2F2"/>
<path opacity="0.2" d="M108.119 130.196H106.01V130.284H108.119V130.196Z" fill="#F2F2F2"/>
<path opacity="0.2" d="M290.566 130.281H286.422V130.193H290.566V130.281ZM282.274 130.281H278.129V130.193H282.274V130.281ZM273.982 130.281H269.834V130.193H273.982V130.281ZM265.689 130.281H261.541V130.193H265.689V130.281ZM257.397 130.281H253.249V130.193H257.397V130.281ZM249.101 130.281H244.957V130.193H249.101V130.281ZM240.809 130.281H236.661V130.193H240.809V130.281ZM232.517 130.281H228.369V130.193H232.517V130.281ZM224.225 130.281H220.077V130.193H224.225V130.281ZM215.929 130.281H211.784V130.193H215.929V130.281ZM207.637 130.281H203.489V130.193H207.637V130.281ZM199.344 130.281H195.196V130.193H199.344V130.281ZM191.052 130.281H186.904V130.193H191.052V130.281ZM182.756 130.281H178.612V130.193H182.756V130.281ZM174.464 130.281H170.32V130.193H174.464V130.281ZM166.172 130.281H162.038V130.193H166.186L166.172 130.281ZM157.88 130.281H153.732V130.193H157.88V130.281ZM149.584 130.281H145.439V130.193H149.584V130.281ZM141.291 130.281H137.147V130.193H141.299L141.291 130.281ZM132.999 130.281H128.851V130.193H132.999V130.281ZM124.707 130.281H120.559V130.193H124.707V130.281ZM116.411 130.281H112.267V130.193H116.411V130.281Z" fill="#F2F2F2"/>
<path opacity="0.2" d="M296.823 130.197H294.714V130.284H296.823V130.197Z" fill="#F2F2F2"/>
</g>
<path opacity="0.3" d="M304.388 144.944H296.953V147.196H304.388V144.944Z" fill="white"/>
<g opacity="0.2">
<path opacity="0.2" d="M108.119 145.958H106.01V146.046H108.119V145.958Z" fill="#F2F2F2"/>
<path opacity="0.2" d="M290.566 146.046H286.422V145.958H290.566V146.046ZM282.274 146.046H278.129V145.958H282.274V146.046ZM273.982 146.046H269.834V145.958H273.982V146.046ZM265.689 146.046H261.541V145.958H265.689V146.046ZM257.397 146.046H253.249V145.958H257.397V146.046ZM249.101 146.046H244.957V145.958H249.101V146.046ZM240.809 146.046H236.661V145.958H240.809V146.046ZM232.517 146.046H228.369V145.958H232.517V146.046ZM224.225 146.046H220.077V145.958H224.225V146.046ZM215.929 146.046H211.784V145.958H215.929V146.046ZM207.637 146.046H203.489V145.958H207.637V146.046ZM199.344 146.046H195.196V145.958H199.344V146.046ZM191.052 146.046H186.904V145.958H191.052V146.046ZM182.756 146.046H178.612V145.958H182.756V146.046ZM174.464 146.046H170.32V145.958H174.464V146.046ZM166.172 146.046H162.038V145.958H166.186L166.172 146.046ZM157.88 146.046H153.732V145.958H157.88V146.046ZM149.584 146.046H145.439V145.958H149.584V146.046ZM141.291 146.046H137.147V145.958H141.299L141.291 146.046ZM132.999 146.046H128.851V145.958H132.999V146.046ZM124.707 146.046H120.559V145.958H124.707V146.046ZM116.411 146.046H112.267V145.958H116.411V146.046Z" fill="#F2F2F2"/>
<path opacity="0.2" d="M296.823 145.958H294.714V146.046H296.823V145.958Z" fill="#F2F2F2"/>
<path opacity="0.2" d="M108.119 145.958H106.01V146.046H108.119V145.958Z" fill="#F2F2F2"/>
<path opacity="0.2" d="M290.566 146.046H286.422V145.958H290.566V146.046ZM282.274 146.046H278.129V145.958H282.274V146.046ZM273.982 146.046H269.834V145.958H273.982V146.046ZM265.689 146.046H261.541V145.958H265.689V146.046ZM257.397 146.046H253.249V145.958H257.397V146.046ZM249.101 146.046H244.957V145.958H249.101V146.046ZM240.809 146.046H236.661V145.958H240.809V146.046ZM232.517 146.046H228.369V145.958H232.517V146.046ZM224.225 146.046H220.077V145.958H224.225V146.046ZM215.929 146.046H211.784V145.958H215.929V146.046ZM207.637 146.046H203.489V145.958H207.637V146.046ZM199.344 146.046H195.196V145.958H199.344V146.046ZM191.052 146.046H186.904V145.958H191.052V146.046ZM182.756 146.046H178.612V145.958H182.756V146.046ZM174.464 146.046H170.32V145.958H174.464V146.046ZM166.172 146.046H162.038V145.958H166.186L166.172 146.046ZM157.88 146.046H153.732V145.958H157.88V146.046ZM149.584 146.046H145.439V145.958H149.584V146.046ZM141.291 146.046H137.147V145.958H141.299L141.291 146.046ZM132.999 146.046H128.851V145.958H132.999V146.046ZM124.707 146.046H120.559V145.958H124.707V146.046ZM116.411 146.046H112.267V145.958H116.411V146.046Z" fill="#F2F2F2"/>
<path opacity="0.2" d="M296.823 145.958H294.714V146.046H296.823V145.958Z" fill="#F2F2F2"/>
</g>
<path opacity="0.3" d="M304.388 160.706H296.953V162.958H304.388V160.706Z" fill="white"/>
<g opacity="0.2">
<path opacity="0.2" d="M108.119 161.723H106.01V161.811H108.119V161.723Z" fill="#F2F2F2"/>
<path opacity="0.2" d="M290.566 161.811H286.422V161.723H290.566V161.811ZM282.274 161.811H278.129V161.723H282.274V161.811ZM273.982 161.811H269.834V161.723H273.982V161.811ZM265.689 161.811H261.541V161.723H265.689V161.811ZM257.397 161.811H253.249V161.723H257.397V161.811ZM249.101 161.811H244.957V161.723H249.101V161.811ZM240.809 161.811H236.661V161.723H240.809V161.811ZM232.517 161.811H228.369V161.723H232.517V161.811ZM224.225 161.811H220.077V161.723H224.225V161.811ZM215.929 161.811H211.784V161.723H215.929V161.811ZM207.637 161.811H203.489V161.723H207.637V161.811ZM199.344 161.811H195.196V161.723H199.344V161.811ZM191.052 161.811H186.904V161.723H191.052V161.811ZM182.756 161.811H178.612V161.723H182.756V161.811ZM174.464 161.811H170.32V161.723H174.464V161.811ZM166.172 161.811H162.038V161.723H166.186L166.172 161.811ZM157.88 161.811H153.732V161.723H157.88V161.811ZM149.584 161.811H145.439V161.723H149.584V161.811ZM141.291 161.811H137.147V161.723H141.299L141.291 161.811ZM132.999 161.811H128.851V161.723H132.999V161.811ZM124.707 161.811H120.559V161.723H124.707V161.811ZM116.411 161.811H112.267V161.723H116.411V161.811Z" fill="#F2F2F2"/>
<path opacity="0.2" d="M296.823 161.723H294.714V161.811H296.823V161.723Z" fill="#F2F2F2"/>
<path opacity="0.2" d="M108.119 161.723H106.01V161.811H108.119V161.723Z" fill="#F2F2F2"/>
<path opacity="0.2" d="M290.566 161.811H286.422V161.723H290.566V161.811ZM282.274 161.811H278.129V161.723H282.274V161.811ZM273.982 161.811H269.834V161.723H273.982V161.811ZM265.689 161.811H261.541V161.723H265.689V161.811ZM257.397 161.811H253.249V161.723H257.397V161.811ZM249.101 161.811H244.957V161.723H249.101V161.811ZM240.809 161.811H236.661V161.723H240.809V161.811ZM232.517 161.811H228.369V161.723H232.517V161.811ZM224.225 161.811H220.077V161.723H224.225V161.811ZM215.929 161.811H211.784V161.723H215.929V161.811ZM207.637 161.811H203.489V161.723H207.637V161.811ZM199.344 161.811H195.196V161.723H199.344V161.811ZM191.052 161.811H186.904V161.723H191.052V161.811ZM182.756 161.811H178.612V161.723H182.756V161.811ZM174.464 161.811H170.32V161.723H174.464V161.811ZM166.172 161.811H162.038V161.723H166.186L166.172 161.811ZM157.88 161.811H153.732V161.723H157.88V161.811ZM149.584 161.811H145.439V161.723H149.584V161.811ZM141.291 161.811H137.147V161.723H141.299L141.291 161.811ZM132.999 161.811H128.851V161.723H132.999V161.811ZM124.707 161.811H120.559V161.723H124.707V161.811ZM116.411 161.811H112.267V161.723H116.411V161.811Z" fill="#F2F2F2"/>
<path opacity="0.2" d="M296.823 161.723H294.714V161.811H296.823V161.723Z" fill="#F2F2F2"/>
</g>
<path d="M130.247 98.7542V161.965" stroke="#F2F2F2" stroke-width="0.1" stroke-miterlimit="10"/>
<path d="M155.908 98.7542V161.965" stroke="#F2F2F2" stroke-width="0.1" stroke-miterlimit="10"/>
<path d="M181.568 98.7542V161.965" stroke="#F2F2F2" stroke-width="0.1" stroke-miterlimit="10"/>
<path d="M207.229 98.7542V161.965" stroke="#F2F2F2" stroke-width="0.1" stroke-miterlimit="10"/>
<path d="M232.89 98.7542V161.965" stroke="#F2F2F2" stroke-width="0.1" stroke-miterlimit="10"/>
<path d="M258.55 98.7542V161.965" stroke="#F2F2F2" stroke-width="0.1" stroke-miterlimit="10"/>
<path d="M284.211 98.7542V161.965" stroke="#F2F2F2" stroke-width="0.1" stroke-miterlimit="10"/>
<path opacity="0.3" d="M289.761 94.4884L286.826 97.5404C286.767 97.6042 286.717 97.6763 286.679 97.7544L284.858 101.497C284.785 101.648 284.669 101.773 284.524 101.856C284.379 101.939 284.212 101.977 284.046 101.964L283.462 101.918C283.293 101.906 283.131 101.843 282.999 101.736C282.867 101.629 282.771 101.485 282.724 101.322L282.162 99.3786C282.113 99.2086 282.01 99.0587 281.87 98.9506C281.73 98.8426 281.559 98.782 281.381 98.7777C281.204 98.7734 281.03 98.8256 280.885 98.9267C280.739 99.0278 280.63 99.1726 280.573 99.34L279.627 102.104C279.571 102.269 279.465 102.413 279.323 102.514C279.181 102.615 279.011 102.669 278.836 102.669H275.226C275.028 102.668 274.837 102.597 274.686 102.469C274.535 102.34 274.435 102.163 274.404 101.968L273.384 95.6005C273.357 95.4263 273.275 95.2653 273.151 95.1406C273.026 95.0159 272.865 94.9339 272.69 94.9066C272.516 94.8793 272.337 94.908 272.18 94.9886C272.023 95.0691 271.896 95.1974 271.817 95.3549L266.589 105.651C266.536 105.758 266.459 105.851 266.366 105.926C266.272 106 266.164 106.054 266.048 106.083C265.932 106.112 265.811 106.115 265.693 106.094C265.576 106.072 265.464 106.025 265.366 105.956L262.259 103.767C262.089 103.648 261.882 103.596 261.676 103.621C261.47 103.645 261.281 103.745 261.145 103.9L259.967 105.258C259.932 105.298 259.902 105.342 259.876 105.388L256.733 110.815C256.653 110.954 256.535 111.067 256.392 111.14C256.249 111.212 256.088 111.242 255.928 111.225L254.012 111.036C253.878 111.023 253.743 111.042 253.619 111.092L251.903 111.776C251.705 111.851 251.485 111.847 251.289 111.765C251.093 111.684 250.935 111.531 250.849 111.337L250.473 110.478C250.405 110.324 250.292 110.194 250.149 110.105C250.006 110.016 249.839 109.973 249.671 109.98L247.71 110.071C247.588 110.076 247.469 110.108 247.362 110.164C247.254 110.221 247.161 110.3 247.087 110.397L246.532 111.12C246.441 111.239 246.319 111.331 246.179 111.387C246.039 111.443 245.887 111.459 245.739 111.436C245.59 111.412 245.451 111.348 245.336 111.252C245.22 111.156 245.133 111.03 245.084 110.888L244.381 108.906C244.337 108.783 244.265 108.672 244.171 108.581C244.076 108.491 243.962 108.424 243.836 108.386C243.711 108.348 243.579 108.34 243.45 108.363C243.321 108.386 243.199 108.438 243.094 108.517L239.755 111.015L236.064 113.986C235.938 114.087 235.785 114.149 235.624 114.166C235.463 114.182 235.301 114.151 235.157 114.077L232.292 112.593C232.138 112.515 231.964 112.485 231.793 112.509L225.989 113.319C225.821 113.342 225.664 113.415 225.538 113.529C225.413 113.643 225.325 113.793 225.286 113.958L224.256 118.424C224.224 118.563 224.157 118.692 224.06 118.797C223.964 118.903 223.842 118.982 223.706 119.027C223.57 119.072 223.424 119.081 223.284 119.053C223.143 119.025 223.012 118.962 222.903 118.869V118.869C222.807 118.787 222.693 118.728 222.57 118.696C222.447 118.664 222.319 118.661 222.195 118.686C222.071 118.711 221.954 118.764 221.853 118.84C221.752 118.917 221.67 119.016 221.613 119.129L220.822 120.711C220.763 120.828 220.677 120.929 220.571 121.007C220.466 121.085 220.343 121.137 220.214 121.16L218.418 121.458C218.302 121.478 218.192 121.522 218.094 121.588L215.265 123.468C215.129 123.56 214.968 123.608 214.804 123.608H213.479C213.316 123.609 213.157 123.561 213.021 123.472C212.884 123.383 212.777 123.256 212.713 123.107L212.361 122.268C212.316 122.167 212.252 122.075 212.171 121.999C212.09 121.923 211.995 121.863 211.891 121.824C211.786 121.785 211.675 121.768 211.564 121.772C211.453 121.777 211.344 121.804 211.243 121.851L208.171 123.286C208.047 123.344 207.911 123.371 207.774 123.364C207.638 123.357 207.505 123.317 207.387 123.247L205.981 122.402C205.852 122.324 205.703 122.283 205.552 122.282H202.448C202.284 122.283 202.124 122.332 201.988 122.423L198.891 124.475C198.772 124.554 198.634 124.601 198.491 124.611C198.348 124.622 198.205 124.595 198.076 124.535L196.67 123.872C196.506 123.795 196.321 123.774 196.144 123.811C195.968 123.849 195.808 123.942 195.689 124.079L195.021 124.84C194.934 124.941 194.823 125.019 194.699 125.068C194.575 125.117 194.44 125.136 194.308 125.122C194.175 125.108 194.047 125.062 193.936 124.989C193.824 124.915 193.732 124.816 193.668 124.699L193.467 124.349C193.413 124.252 193.34 124.167 193.252 124.098C193.164 124.03 193.063 123.98 192.956 123.951C192.849 123.923 192.736 123.916 192.626 123.931C192.516 123.946 192.41 123.983 192.314 124.04L189.878 125.482C189.752 125.554 189.609 125.592 189.463 125.592C189.318 125.592 189.175 125.554 189.049 125.482L188.043 124.924C187.93 124.86 187.803 124.824 187.673 124.819C187.543 124.813 187.413 124.838 187.295 124.892L186.339 125.327C186.231 125.375 186.115 125.4 185.997 125.401C185.879 125.401 185.762 125.377 185.654 125.329C185.547 125.281 185.45 125.212 185.371 125.124C185.292 125.037 185.233 124.934 185.196 124.822L184.577 122.984C184.525 122.815 184.419 122.668 184.276 122.564C184.133 122.46 183.96 122.404 183.783 122.405H182.883C182.741 122.406 182.602 122.369 182.479 122.3L179.023 120.409C178.883 120.333 178.723 120.299 178.564 120.311C178.404 120.323 178.252 120.38 178.124 120.476L175.589 122.37C175.445 122.478 175.27 122.536 175.09 122.535H171.902C171.738 122.535 171.577 122.584 171.441 122.675L170.844 123.072C170.745 123.137 170.634 123.182 170.517 123.201C170.401 123.221 170.281 123.215 170.167 123.185C170.052 123.155 169.946 123.1 169.854 123.026C169.762 122.951 169.687 122.858 169.634 122.753L169.49 122.468C169.422 122.329 169.316 122.212 169.184 122.13C169.052 122.049 168.9 122.005 168.745 122.005H167.146C167.019 122.006 166.894 122.035 166.78 122.091C166.666 122.147 166.566 122.228 166.488 122.328L165.497 123.594C165.415 123.699 165.309 123.783 165.187 123.839C165.066 123.894 164.933 123.92 164.8 123.913C164.666 123.907 164.536 123.868 164.421 123.801C164.306 123.734 164.208 123.64 164.137 123.528L163.856 123.089C163.74 122.906 163.556 122.775 163.344 122.725C163.133 122.675 162.91 122.71 162.724 122.823L161.901 123.314C161.761 123.397 161.6 123.438 161.437 123.431C161.274 123.424 161.116 123.37 160.984 123.275L157.669 120.879C157.61 120.837 157.546 120.802 157.479 120.774L154.888 119.781C154.687 119.708 154.464 119.715 154.268 119.801C154.072 119.888 153.916 120.046 153.834 120.244L152.031 124.629C152.004 124.691 151.987 124.756 151.978 124.822L151.394 128.772C151.369 128.939 151.293 129.095 151.176 129.218L149.943 130.54C149.815 130.675 149.646 130.764 149.462 130.792C149.278 130.821 149.09 130.788 148.927 130.698L146.786 129.512C146.679 129.453 146.561 129.417 146.439 129.409C146.318 129.4 146.195 129.418 146.081 129.461C145.967 129.505 145.864 129.573 145.78 129.66C145.695 129.748 145.63 129.853 145.591 129.968L144.234 133.929C144.203 134.016 144.188 134.107 144.188 134.199V136.697C144.188 136.859 144.14 137.017 144.051 137.152C143.962 137.288 143.835 137.394 143.686 137.458L141.51 138.419C141.389 138.471 141.257 138.494 141.126 138.485C140.995 138.477 140.867 138.437 140.754 138.37L139.116 137.409C138.953 137.314 138.762 137.276 138.575 137.304L135.703 137.714C135.538 137.738 135.371 137.711 135.222 137.639C135.073 137.566 134.949 137.451 134.866 137.307L134.381 136.479C134.276 136.301 134.108 136.168 133.91 136.108L132.606 135.701C132.454 135.652 132.291 135.649 132.137 135.69C131.983 135.732 131.844 135.817 131.738 135.936L129.927 137.942C129.784 138.1 129.587 138.197 129.375 138.216L126.704 138.44C126.58 138.447 126.46 138.483 126.352 138.546L121.695 141.219C121.549 141.301 121.383 141.338 121.216 141.325C121.049 141.312 120.89 141.249 120.76 141.145L119.438 140.093C119.29 139.975 119.107 139.911 118.918 139.91H113.912C113.787 139.911 113.664 139.883 113.551 139.829C113.438 139.775 113.34 139.696 113.262 139.598L112 138.026C111.924 137.932 111.829 137.856 111.721 137.802C111.613 137.749 111.494 137.719 111.374 137.716C111.253 137.713 111.133 137.736 111.022 137.783C110.911 137.831 110.812 137.902 110.731 137.991L109.212 139.675C109.075 139.827 108.999 140.025 108.998 140.229V161.151C108.998 161.372 109.086 161.583 109.242 161.739C109.398 161.895 109.61 161.983 109.831 161.983H290.415C290.525 161.983 290.634 161.961 290.735 161.919C290.836 161.877 290.928 161.815 291.006 161.738C291.083 161.66 291.144 161.568 291.186 161.467C291.228 161.366 291.249 161.257 291.248 161.148L291.199 95.0813C291.202 94.914 291.154 94.7498 291.061 94.61C290.969 94.4702 290.837 94.3613 290.682 94.2974C290.527 94.2335 290.356 94.2175 290.192 94.2516C290.028 94.2857 289.878 94.3682 289.761 94.4884V94.4884Z" fill="white"/>
<path opacity="0.3" d="M289.6 121.581L286.879 123.391C286.783 123.455 286.699 123.534 286.629 123.626L284.938 125.853C284.836 125.985 284.703 126.091 284.552 126.162C284.4 126.233 284.234 126.266 284.067 126.26L283.515 126.232C283.325 126.223 283.142 126.162 282.985 126.055C282.828 125.949 282.704 125.801 282.625 125.629L282.274 124.882C282.195 124.706 282.069 124.556 281.909 124.449C281.749 124.342 281.562 124.282 281.37 124.275C281.177 124.269 280.987 124.317 280.821 124.414C280.654 124.511 280.518 124.652 280.428 124.822L279.725 126.166C279.638 126.33 279.507 126.468 279.346 126.564C279.186 126.66 279.002 126.71 278.815 126.709H275.328C275.098 126.71 274.875 126.634 274.693 126.493C274.512 126.352 274.384 126.153 274.33 125.931L273.493 122.587C273.447 122.401 273.349 122.232 273.21 122.098C273.072 121.964 272.899 121.872 272.711 121.831C272.523 121.791 272.327 121.804 272.146 121.869C271.965 121.933 271.806 122.048 271.686 122.198L266.66 128.541C266.518 128.721 266.319 128.848 266.096 128.902C265.873 128.957 265.638 128.934 265.429 128.839L262.199 127.383C262.03 127.304 261.842 127.272 261.656 127.291C261.471 127.311 261.294 127.38 261.144 127.492L259.988 128.344C259.933 128.385 259.882 128.432 259.837 128.484L256.786 131.856C256.683 131.973 256.555 132.066 256.411 132.126C256.268 132.187 256.112 132.215 255.956 132.206L253.963 132.08C253.854 132.074 253.745 132.083 253.639 132.108L251.843 132.568C251.638 132.621 251.422 132.61 251.224 132.536C251.026 132.462 250.855 132.328 250.736 132.154L250.532 131.852C250.435 131.71 250.303 131.595 250.15 131.518C249.996 131.44 249.825 131.402 249.653 131.407L247.65 131.466C247.418 131.47 247.196 131.554 247.02 131.705L246.528 132.115C246.412 132.213 246.275 132.283 246.128 132.322C245.981 132.361 245.827 132.366 245.677 132.338C245.528 132.311 245.386 132.25 245.263 132.161C245.14 132.072 245.037 131.957 244.964 131.824L244.444 130.884C244.317 130.654 244.107 130.481 243.857 130.401C243.606 130.321 243.335 130.339 243.098 130.452L239.726 132.07L235.997 133.992C235.875 134.054 235.742 134.092 235.606 134.102C235.469 134.112 235.332 134.095 235.202 134.052L232.232 133.069C232.099 133.026 231.958 133.009 231.817 133.02L226.067 133.508C225.872 133.528 225.686 133.602 225.531 133.722C225.375 133.841 225.257 134.002 225.188 134.185L224.355 136.507C224.304 136.647 224.224 136.774 224.12 136.88C224.016 136.985 223.89 137.067 223.751 137.12C223.612 137.173 223.464 137.195 223.315 137.185C223.167 137.175 223.023 137.133 222.892 137.062L222.857 137.044C222.644 136.926 222.395 136.888 222.156 136.937C221.917 136.986 221.703 137.118 221.553 137.311L220.899 138.146C220.726 138.363 220.473 138.503 220.196 138.535L218.397 138.728C218.295 138.738 218.196 138.763 218.101 138.801L215.25 140.019C215.122 140.071 214.985 140.099 214.846 140.099H213.475C213.308 140.099 213.142 140.058 212.994 139.98C212.846 139.902 212.719 139.789 212.625 139.65L212.428 139.363C212.304 139.183 212.127 139.047 211.921 138.974C211.715 138.902 211.491 138.897 211.282 138.959L208.087 139.924C207.867 139.99 207.632 139.981 207.419 139.9L205.935 139.331C205.823 139.287 205.704 139.263 205.584 139.261H202.399C202.261 139.261 202.125 139.29 201.998 139.345L198.835 140.685C198.612 140.781 198.363 140.795 198.132 140.724L196.567 140.257C196.415 140.212 196.254 140.202 196.098 140.229C195.941 140.256 195.793 140.318 195.664 140.412L194.979 140.913C194.771 141.065 194.514 141.133 194.258 141.105C194.003 141.078 193.767 140.955 193.597 140.762L193.495 140.647C193.357 140.489 193.174 140.378 192.97 140.327C192.767 140.276 192.552 140.289 192.356 140.363L189.808 141.334C189.581 141.417 189.332 141.417 189.105 141.334L187.987 140.934C187.783 140.864 187.562 140.858 187.354 140.917L186.3 141.222C186.069 141.288 185.822 141.272 185.602 141.176C185.381 141.08 185.202 140.91 185.094 140.696L184.7 139.907C184.614 139.736 184.483 139.593 184.32 139.492C184.158 139.392 183.97 139.339 183.779 139.338H182.865C182.746 139.34 182.627 139.321 182.514 139.282L178.967 138.04C178.84 137.995 178.704 137.975 178.569 137.982C178.434 137.989 178.301 138.024 178.18 138.082L175.589 139.324C175.449 139.39 175.297 139.425 175.143 139.426H171.87C171.731 139.427 171.594 139.454 171.466 139.507L170.798 139.794C170.589 139.883 170.357 139.9 170.137 139.844C169.917 139.787 169.722 139.66 169.582 139.482V139.482C169.486 139.359 169.362 139.259 169.222 139.19C169.081 139.121 168.926 139.085 168.77 139.086H167.117C166.879 139.085 166.648 139.167 166.464 139.317L165.504 140.103C165.307 140.266 165.055 140.349 164.8 140.336C164.544 140.323 164.302 140.215 164.123 140.033L163.905 139.815C163.764 139.674 163.585 139.576 163.389 139.535C163.194 139.493 162.991 139.509 162.804 139.58L161.848 139.949C161.587 140.046 161.297 140.036 161.043 139.921L157.679 138.363C157.62 138.335 157.557 138.313 157.493 138.3L154.853 137.651C154.645 137.599 154.426 137.614 154.226 137.693C154.027 137.772 153.858 137.912 153.742 138.093L152.083 140.675C152.02 140.774 151.973 140.883 151.946 140.998L151.443 143.19C151.383 143.44 151.233 143.66 151.022 143.807L149.925 144.558C149.791 144.65 149.638 144.709 149.477 144.729C149.316 144.75 149.153 144.732 149 144.677L146.744 143.878C146.508 143.794 146.249 143.8 146.017 143.893C145.785 143.986 145.595 144.16 145.482 144.383L144.294 146.6C144.215 146.749 144.174 146.915 144.174 147.084V148.084C144.173 148.308 144.099 148.526 143.962 148.705C143.826 148.883 143.635 149.013 143.418 149.073L141.443 149.62C141.233 149.679 141.01 149.67 140.806 149.592L139.084 148.943C138.939 148.887 138.782 148.866 138.627 148.88L135.657 149.15C135.499 149.165 135.339 149.144 135.191 149.086C135.042 149.029 134.909 148.938 134.803 148.82L134.451 148.431C134.305 148.267 134.108 148.156 133.892 148.115L132.539 147.842C132.401 147.815 132.258 147.817 132.121 147.847C131.983 147.876 131.853 147.933 131.737 148.014L129.955 149.28C129.796 149.392 129.608 149.457 129.414 149.469L126.683 149.613C126.579 149.62 126.477 149.641 126.38 149.676L121.638 151.43C121.506 151.481 121.364 151.502 121.222 151.494C121.08 151.485 120.942 151.447 120.816 151.381L119.445 150.68C119.3 150.606 119.14 150.567 118.977 150.567H113.88C113.645 150.567 113.417 150.487 113.234 150.339L112 149.354C111.825 149.214 111.609 149.135 111.385 149.129C111.161 149.122 110.941 149.189 110.759 149.319L109.437 150.259C109.304 150.354 109.195 150.48 109.119 150.626C109.044 150.772 109.005 150.933 109.005 151.097V160.958C109.005 161.231 109.113 161.492 109.307 161.685C109.5 161.878 109.762 161.986 110.035 161.986H290.218C290.491 161.986 290.753 161.878 290.946 161.685C291.14 161.492 291.248 161.231 291.248 160.958L291.199 122.451C291.201 122.264 291.153 122.079 291.058 121.918C290.963 121.757 290.826 121.624 290.662 121.535C290.497 121.445 290.312 121.402 290.124 121.41C289.937 121.418 289.756 121.477 289.6 121.581V121.581Z" fill="white"/>
<path d="M290.327 123.777C291.686 123.777 292.788 122.677 292.788 121.321C292.788 119.965 291.686 118.865 290.327 118.865C288.968 118.865 287.867 119.965 287.867 121.321C287.867 122.677 288.968 123.777 290.327 123.777Z" fill="white"/>
<path opacity="0.3" d="M290.169 145.614L286.826 146.726C286.762 146.748 286.701 146.778 286.643 146.814L284.808 148.024C284.675 148.111 284.518 148.155 284.358 148.151L283.216 148.122C283.11 148.12 283.005 148.096 282.908 148.052C282.812 148.008 282.725 147.945 282.654 147.866L281.95 147.095C281.881 147.018 281.796 146.955 281.702 146.911C281.607 146.867 281.505 146.842 281.401 146.838C281.297 146.834 281.193 146.85 281.096 146.886C280.998 146.923 280.909 146.978 280.833 147.049L279.648 148.158C279.504 148.295 279.313 148.371 279.114 148.372H275.008C274.862 148.372 274.718 148.332 274.594 148.255C274.469 148.178 274.369 148.068 274.305 147.937L273.366 146.067C273.318 145.969 273.249 145.883 273.164 145.814C273.08 145.744 272.982 145.693 272.877 145.664C272.772 145.634 272.661 145.627 272.553 145.643C272.445 145.658 272.341 145.697 272.249 145.755L266.438 149.427C266.262 149.537 266.05 149.574 265.848 149.529L261.868 148.635C261.721 148.6 261.567 148.61 261.425 148.663L259.974 149.199C259.936 149.211 259.899 149.228 259.865 149.249L256.655 151.024C256.532 151.091 256.392 151.125 256.251 151.122L253.875 151.045C253.834 151.041 253.793 151.041 253.752 151.045L251.467 151.336C251.268 151.36 251.067 151.309 250.905 151.192L250.441 150.841C250.303 150.74 250.137 150.687 249.966 150.69L247.46 150.725C247.359 150.725 247.26 150.746 247.168 150.785L246.043 151.259C245.905 151.315 245.754 151.332 245.607 151.307C245.461 151.281 245.324 151.215 245.214 151.115L244.293 150.301C244.199 150.217 244.086 150.156 243.963 150.125C243.841 150.094 243.713 150.093 243.59 150.122L239.744 151.048L235.789 152.069C235.683 152.092 235.573 152.092 235.466 152.069L232.127 151.515C232.073 151.511 232.019 151.511 231.965 151.515L225.789 151.792C225.67 151.797 225.555 151.829 225.451 151.886C225.346 151.942 225.257 152.022 225.188 152.118L224.256 153.399C224.163 153.529 224.032 153.627 223.882 153.68C223.731 153.734 223.567 153.739 223.413 153.697L222.418 153.423C222.312 153.395 222.201 153.39 222.093 153.407C221.985 153.423 221.881 153.462 221.789 153.521L220.794 154.156C220.679 154.227 220.549 154.268 220.414 154.276L218.305 154.391C218.265 154.388 218.225 154.388 218.186 154.391L215.141 155.04C215.087 155.051 215.032 155.057 214.976 155.058H213.191C213.025 155.058 212.863 155.005 212.73 154.907L212.266 154.556C212.184 154.495 212.091 154.451 211.992 154.426C211.893 154.402 211.79 154.397 211.69 154.412L207.89 154.981C207.802 154.995 207.713 154.995 207.626 154.981L205.84 154.63C205.791 154.625 205.742 154.625 205.693 154.63H202.265C202.212 154.625 202.157 154.625 202.104 154.63L198.627 155.367C198.534 155.384 198.439 155.384 198.346 155.367L196.276 155.054C196.145 155.037 196.012 155.051 195.889 155.096L194.56 155.58C194.453 155.62 194.339 155.636 194.225 155.626C194.112 155.617 194.001 155.582 193.903 155.524L193.274 155.174C193.114 155.079 192.925 155.047 192.743 155.082L189.579 155.682C189.485 155.7 189.389 155.7 189.294 155.682L187.772 155.412C187.69 155.4 187.606 155.4 187.523 155.412L185.843 155.654C185.723 155.673 185.6 155.662 185.484 155.625C185.369 155.587 185.264 155.522 185.178 155.437L184.623 154.907C184.474 154.762 184.275 154.68 184.067 154.679H182.735C182.691 154.683 182.646 154.683 182.602 154.679L178.714 153.998C178.608 153.976 178.499 153.976 178.394 153.998L175.455 154.7C175.395 154.714 175.334 154.721 175.273 154.721H171.733C171.679 154.716 171.625 154.716 171.571 154.721L170.372 154.977C170.171 155.033 169.955 155.008 169.771 154.907L169.441 154.693C169.315 154.613 169.169 154.57 169.019 154.57H166.878C166.777 154.571 166.677 154.591 166.583 154.63L165.086 155.24C164.983 155.283 164.871 155.303 164.76 155.299C164.648 155.295 164.538 155.266 164.439 155.216L163.644 154.816C163.49 154.739 163.315 154.714 163.145 154.746L161.578 155.047C161.471 155.07 161.361 155.07 161.254 155.047L157.619 154.205H157.539L154.449 153.823C154.243 153.8 154.036 153.858 153.872 153.984L152.115 155.345C152.016 155.421 151.938 155.52 151.886 155.633L151.493 156.507C151.448 156.603 151.385 156.689 151.306 156.76C151.228 156.831 151.136 156.886 151.036 156.921L149.686 157.38C149.561 157.425 149.426 157.436 149.296 157.412L146.294 156.878C146.174 156.858 146.051 156.865 145.934 156.9C145.818 156.934 145.711 156.996 145.622 157.078L144.431 158.19C144.352 158.264 144.29 158.352 144.248 158.451C144.205 158.549 144.184 158.655 144.185 158.762C144.185 158.951 144.116 159.133 143.992 159.274C143.868 159.416 143.697 159.509 143.51 159.534L141.256 159.846C141.173 159.86 141.087 159.86 141.003 159.846L138.965 159.46C138.904 159.453 138.842 159.453 138.782 159.46L135.376 159.615C135.232 159.62 135.09 159.588 134.964 159.52L134.367 159.194C134.275 159.141 134.173 159.109 134.068 159.099L132.279 158.92C132.16 158.908 132.04 158.922 131.927 158.962L129.818 159.709C129.74 159.737 129.658 159.752 129.576 159.755L126.577 159.836C126.536 159.832 126.495 159.832 126.454 159.836L121.375 160.772C121.265 160.795 121.151 160.795 121.041 160.772L119.311 160.33C119.247 160.315 119.181 160.307 119.114 160.306H113.662C113.562 160.307 113.463 160.288 113.371 160.25L111.662 159.569C111.483 159.501 111.286 159.501 111.107 159.569L109.518 160.134C109.366 160.187 109.234 160.286 109.141 160.418C109.047 160.549 108.998 160.706 108.998 160.867V161.218C108.997 161.32 109.017 161.422 109.056 161.517C109.095 161.612 109.153 161.698 109.225 161.771C109.298 161.844 109.384 161.901 109.479 161.941C109.574 161.98 109.675 162 109.778 162H290.457C290.56 162 290.662 161.98 290.757 161.941C290.851 161.901 290.938 161.844 291.01 161.771C291.083 161.698 291.14 161.612 291.179 161.517C291.218 161.422 291.238 161.32 291.238 161.218L291.192 146.39C291.197 146.264 291.171 146.139 291.117 146.025C291.064 145.911 290.983 145.812 290.883 145.736C290.782 145.66 290.665 145.609 290.541 145.588C290.416 145.567 290.289 145.576 290.169 145.614V145.614Z" fill="white"/>
<path d="M154.994 140.264C156.353 140.264 157.454 139.165 157.454 137.809C157.454 136.453 156.353 135.353 154.994 135.353C153.635 135.353 152.533 136.453 152.533 137.809C152.533 139.165 153.635 140.264 154.994 140.264Z" fill="white"/>
<path d="M273.103 124.829C274.462 124.829 275.564 123.73 275.564 122.374C275.564 121.017 274.462 119.918 273.103 119.918C271.744 119.918 270.642 121.017 270.642 122.374C270.642 123.73 271.744 124.829 273.103 124.829Z" fill="white"/>
<path d="M211.939 141.317C213.298 141.317 214.4 140.217 214.4 138.861C214.4 137.505 213.298 136.406 211.939 136.406C210.58 136.406 209.479 137.505 209.479 138.861C209.479 140.217 210.58 141.317 211.939 141.317Z" fill="white"/>
<path d="M243.927 132.547C245.286 132.547 246.388 131.447 246.388 130.091C246.388 128.735 245.286 127.636 243.927 127.636C242.568 127.636 241.467 128.735 241.467 130.091C241.467 131.447 242.568 132.547 243.927 132.547Z" fill="white"/>
<path d="M291.55 122.43C291.55 122.244 291.499 122.062 291.403 121.903C291.307 121.745 291.17 121.614 291.006 121.527C290.842 121.44 290.657 121.398 290.471 121.407C290.286 121.416 290.106 121.475 289.951 121.577L287.23 123.387C287.135 123.452 287.05 123.531 286.981 123.622L285.29 125.85C285.187 125.982 285.055 126.088 284.903 126.159C284.752 126.229 284.585 126.263 284.418 126.257L283.866 126.229C283.677 126.219 283.494 126.158 283.337 126.052C283.18 125.945 283.055 125.798 282.977 125.626L282.625 124.878C282.547 124.703 282.42 124.553 282.261 124.446C282.101 124.339 281.914 124.278 281.721 124.272C281.529 124.266 281.339 124.314 281.172 124.411C281.006 124.507 280.87 124.649 280.78 124.819L280.077 126.162C279.989 126.327 279.858 126.465 279.698 126.561C279.537 126.656 279.354 126.707 279.167 126.706H275.679C275.45 126.707 275.226 126.631 275.045 126.489C274.864 126.348 274.736 126.15 274.681 125.927L273.845 122.584C273.798 122.398 273.7 122.228 273.562 122.095C273.424 121.961 273.251 121.869 273.063 121.828C272.875 121.788 272.679 121.8 272.498 121.865C272.317 121.93 272.157 122.044 272.038 122.195L267.011 128.537C266.869 128.717 266.671 128.845 266.448 128.899C266.225 128.953 265.99 128.931 265.781 128.835L262.55 127.38C262.381 127.301 262.194 127.269 262.008 127.288C261.822 127.307 261.645 127.376 261.496 127.488L260.339 128.341C260.284 128.382 260.233 128.429 260.188 128.481L257.137 131.852C257.034 131.97 256.906 132.062 256.763 132.123C256.619 132.184 256.463 132.211 256.307 132.203L254.314 132.077C254.206 132.07 254.097 132.08 253.991 132.105L252.195 132.564C251.99 132.618 251.774 132.607 251.575 132.533C251.377 132.458 251.207 132.325 251.087 132.15L250.884 131.849C250.786 131.707 250.655 131.592 250.501 131.514C250.348 131.436 250.177 131.398 250.005 131.403L248.001 131.463C247.77 131.467 247.547 131.551 247.372 131.701L246.88 132.112C246.763 132.209 246.627 132.28 246.479 132.319C246.332 132.357 246.178 132.363 246.029 132.335C245.879 132.307 245.738 132.247 245.614 132.158C245.491 132.069 245.389 131.954 245.316 131.821L244.795 130.881C244.669 130.651 244.458 130.478 244.208 130.398C243.958 130.318 243.686 130.336 243.449 130.449L240.078 132.066L236.348 133.989C236.227 134.051 236.094 134.089 235.957 134.099C235.821 134.109 235.684 134.092 235.554 134.048L232.584 133.066C232.45 133.022 232.309 133.006 232.169 133.017L226.418 133.508C226.223 133.528 226.037 133.602 225.882 133.722C225.727 133.841 225.608 134.002 225.539 134.185L224.706 136.507C224.656 136.647 224.576 136.774 224.472 136.88C224.368 136.986 224.242 137.068 224.103 137.12C223.964 137.173 223.815 137.195 223.667 137.185C223.519 137.175 223.374 137.133 223.244 137.062L223.209 137.044C222.995 136.926 222.746 136.888 222.507 136.937C222.268 136.986 222.054 137.118 221.905 137.311L221.251 138.146C221.077 138.363 220.824 138.503 220.548 138.535L218.748 138.728C218.647 138.738 218.547 138.763 218.453 138.802L215.602 140.019C215.474 140.072 215.336 140.099 215.198 140.1H213.827C213.659 140.1 213.494 140.059 213.346 139.98C213.197 139.902 213.071 139.789 212.976 139.651L212.779 139.363C212.656 139.183 212.478 139.047 212.272 138.975C212.066 138.902 211.843 138.897 211.633 138.959L208.438 139.924C208.219 139.99 207.984 139.981 207.77 139.9L206.287 139.331C206.175 139.287 206.056 139.263 205.935 139.261H202.751C202.613 139.261 202.476 139.29 202.35 139.345L199.186 140.685C198.964 140.781 198.715 140.795 198.483 140.724L196.919 140.257C196.767 140.212 196.606 140.202 196.449 140.229C196.292 140.256 196.144 140.318 196.016 140.412L195.33 140.913C195.123 141.065 194.866 141.133 194.61 141.106C194.354 141.078 194.118 140.955 193.949 140.763L193.847 140.647C193.708 140.489 193.525 140.378 193.322 140.327C193.118 140.276 192.904 140.289 192.708 140.363L190.159 141.334C189.932 141.417 189.683 141.417 189.456 141.334L188.338 140.934C188.134 140.864 187.913 140.858 187.706 140.917L186.651 141.222C186.42 141.289 186.173 141.272 185.953 141.176C185.733 141.08 185.553 140.91 185.445 140.696L185.052 139.907C184.966 139.736 184.834 139.593 184.672 139.492C184.509 139.392 184.322 139.339 184.131 139.338H183.217C183.097 139.34 182.978 139.321 182.865 139.282L179.319 138.04C179.191 137.995 179.056 137.975 178.921 137.982C178.785 137.99 178.653 138.024 178.531 138.082L175.94 139.324C175.801 139.39 175.649 139.425 175.494 139.426H172.221C172.083 139.427 171.945 139.454 171.817 139.507L171.149 139.794C170.94 139.883 170.708 139.9 170.488 139.844C170.268 139.787 170.073 139.66 169.933 139.482C169.837 139.359 169.714 139.259 169.573 139.19C169.432 139.121 169.278 139.086 169.121 139.086H167.469C167.231 139.085 167 139.167 166.815 139.317L165.856 140.103C165.658 140.266 165.407 140.349 165.151 140.336C164.895 140.323 164.654 140.215 164.474 140.033L164.256 139.815C164.115 139.674 163.936 139.576 163.741 139.535C163.546 139.493 163.342 139.509 163.156 139.58L162.2 139.949C161.938 140.046 161.649 140.036 161.395 139.921L158.031 138.363C157.971 138.335 157.909 138.314 157.844 138.3L155.205 137.651C154.996 137.599 154.777 137.614 154.578 137.693C154.378 137.772 154.209 137.912 154.094 138.093L152.435 140.675C152.371 140.774 152.325 140.883 152.298 140.998L151.795 143.19C151.735 143.441 151.585 143.66 151.373 143.808L150.276 144.558C150.143 144.65 149.989 144.709 149.829 144.73C149.668 144.75 149.504 144.732 149.352 144.678L147.095 143.878C146.859 143.795 146.601 143.8 146.369 143.893C146.137 143.986 145.946 144.16 145.833 144.383L144.645 146.6C144.567 146.749 144.526 146.915 144.526 147.084V148.084C144.525 148.308 144.45 148.526 144.314 148.705C144.178 148.884 143.987 149.013 143.77 149.073L141.794 149.62C141.585 149.68 141.362 149.67 141.158 149.592L139.436 148.943C139.29 148.887 139.134 148.866 138.979 148.88L136.008 149.15C135.85 149.166 135.69 149.144 135.542 149.087C135.394 149.029 135.261 148.938 135.154 148.82L134.803 148.431C134.656 148.267 134.46 148.156 134.244 148.115L132.89 147.842C132.752 147.816 132.61 147.817 132.472 147.847C132.335 147.876 132.204 147.933 132.089 148.014L130.307 149.28C130.147 149.392 129.96 149.457 129.765 149.469L127.034 149.613C126.931 149.62 126.829 149.641 126.732 149.676L121.99 151.43C121.857 151.481 121.715 151.502 121.573 151.494C121.432 151.485 121.293 151.447 121.167 151.381L119.796 150.68C119.652 150.606 119.491 150.568 119.329 150.567H114.232C113.997 150.567 113.768 150.487 113.585 150.339L112.351 149.354C112.176 149.214 111.961 149.135 111.737 149.129C111.513 149.122 111.293 149.189 111.111 149.319L109.789 150.259C109.655 150.354 109.546 150.48 109.471 150.626C109.396 150.772 109.357 150.933 109.356 151.097" stroke="white" stroke-miterlimit="10"/>
<path opacity="0.2" d="M304.388 176.38H98.7512V176.415H304.388V176.38Z" fill="#F2F2F2"/>
<path opacity="0.3" d="M130.388 178.151C131.358 178.151 132.145 177.366 132.145 176.397C132.145 175.428 131.358 174.643 130.388 174.643C129.417 174.643 128.63 175.428 128.63 176.397C128.63 177.366 129.417 178.151 130.388 178.151Z" fill="white"/>
<path opacity="0.3" d="M156.048 178.151C157.019 178.151 157.806 177.366 157.806 176.397C157.806 175.428 157.019 174.643 156.048 174.643C155.078 174.643 154.291 175.428 154.291 176.397C154.291 177.366 155.078 178.151 156.048 178.151Z" fill="white"/>
<path opacity="0.3" d="M181.709 178.151C182.68 178.151 183.467 177.366 183.467 176.397C183.467 175.428 182.68 174.643 181.709 174.643C180.738 174.643 179.951 175.428 179.951 176.397C179.951 177.366 180.738 178.151 181.709 178.151Z" fill="white"/>
<path opacity="0.3" d="M207.369 178.151C208.34 178.151 209.127 177.366 209.127 176.397C209.127 175.428 208.34 174.643 207.369 174.643C206.399 174.643 205.612 175.428 205.612 176.397C205.612 177.366 206.399 178.151 207.369 178.151Z" fill="white"/>
<path opacity="0.3" d="M233.03 178.151C234.001 178.151 234.788 177.366 234.788 176.397C234.788 175.428 234.001 174.643 233.03 174.643C232.06 174.643 231.273 175.428 231.273 176.397C231.273 177.366 232.06 178.151 233.03 178.151Z" fill="white"/>
<path opacity="0.3" d="M258.691 178.151C259.662 178.151 260.448 177.366 260.448 176.397C260.448 175.428 259.662 174.643 258.691 174.643C257.72 174.643 256.933 175.428 256.933 176.397C256.933 177.366 257.72 178.151 258.691 178.151Z" fill="white"/>
<path opacity="0.3" d="M284.351 178.151C285.322 178.151 286.109 177.366 286.109 176.397C286.109 175.428 285.322 174.643 284.351 174.643C283.381 174.643 282.594 175.428 282.594 176.397C282.594 177.366 283.381 178.151 284.351 178.151Z" fill="white"/>
<path d="M84.2583 244.039C83.2037 242.106 84.3989 239.738 85.7663 238.015C87.1337 236.293 88.7928 234.507 88.7577 232.301C88.7049 229.143 85.348 227.277 82.6659 225.604C80.674 224.361 78.8378 222.885 77.1963 221.208C76.5093 220.564 75.9407 219.804 75.5161 218.963C74.9607 217.728 74.9748 216.325 75.0099 214.975C75.1294 210.466 75.3532 205.965 75.6813 201.472" stroke="#3F3D56" stroke-width="4" stroke-miterlimit="10"/>
<path d="M70.5807 201.234C70.6181 200.409 70.8632 199.607 71.2932 198.902C71.7233 198.197 72.3245 197.611 73.0414 197.199L74.1451 199.378L74.11 196.74C74.6379 196.586 75.1878 196.519 75.7375 196.543C76.7084 196.592 77.6433 196.925 78.4243 197.503C79.2052 198.081 79.7973 198.877 80.1256 199.79C80.454 200.703 80.5041 201.692 80.2695 202.634C80.0349 203.575 79.5261 204.426 78.8074 205.08C78.0887 205.733 77.1922 206.159 76.2311 206.304C75.27 206.45 74.2872 206.308 73.4068 205.896C72.5264 205.485 71.7879 204.823 71.2843 203.993C70.7807 203.163 70.5347 202.203 70.5772 201.234H70.5807Z" fill="#57B894"/>
<path d="M79.3792 234.556C79.8967 235.557 80.7432 236.35 81.7768 236.802C82.8105 237.255 83.9685 237.339 85.0568 237.04C86.145 236.742 87.0974 236.079 87.7543 235.163C88.4112 234.247 88.7327 233.134 88.6649 232.009C88.5971 230.885 88.1442 229.818 87.382 228.988C86.6197 228.157 85.5946 227.613 84.4783 227.447C83.362 227.281 82.2225 227.503 81.2506 228.075C80.2787 228.648 79.5336 229.537 79.1402 230.592L82.2229 233.093L78.8308 232.311C78.8321 233.092 79.0201 233.862 79.3792 234.556Z" fill="#57B894"/>
<path d="M81.8154 224.997C83.0412 225.084 84.255 224.709 85.2182 223.948C86.1814 223.186 86.8242 222.092 87.0203 220.882C87.2164 219.671 86.9515 218.431 86.2778 217.406C85.6041 216.38 84.5703 215.643 83.3796 215.34L83.4078 217.367L82.2899 215.161C81.6427 215.129 80.9955 215.225 80.3856 215.444C79.7757 215.663 79.2151 215.999 78.736 216.435C78.2568 216.87 77.8686 217.396 77.5935 217.982C77.3185 218.567 77.1621 219.201 77.1332 219.847C77.1043 220.415 77.1757 220.984 77.3441 221.528C77.6406 222.495 78.2292 223.348 79.0295 223.969C79.8298 224.59 80.8028 224.949 81.8154 224.997V224.997Z" fill="#57B894"/>
<path d="M69.8391 217.044C70.5963 217.072 71.3498 216.925 72.0408 216.614C72.7317 216.304 73.3415 215.838 73.8225 215.254C74.3035 214.67 74.6428 213.982 74.8139 213.246C74.985 212.509 74.9834 211.743 74.809 211.007C74.6347 210.271 74.2924 209.585 73.8089 209.003C73.3253 208.42 72.7135 207.957 72.0213 207.65C71.329 207.342 70.5749 207.198 69.8177 207.229C69.0606 207.26 68.3208 207.466 67.6562 207.829L68.5279 210.214L66.7352 208.495C65.7745 209.373 65.2018 210.596 65.1428 211.895C65.1194 212.351 65.1608 212.808 65.2658 213.252C65.512 214.294 66.0915 215.228 66.9166 215.912C67.7416 216.596 68.7675 216.994 69.8391 217.044V217.044Z" fill="#57B894"/>
<path opacity="0.1" d="M71.2452 202.546C72.3841 202.668 73.4914 203.023 74.6338 203.093C75.7762 203.163 77.0311 202.89 77.7553 202.005C78.1419 201.528 78.3388 200.921 78.6657 200.402C78.9779 199.917 79.4053 199.515 79.91 199.234C80.2077 199.855 80.3712 200.532 80.3901 201.22C80.4089 201.908 80.2825 202.592 80.0193 203.228C79.756 203.864 79.3616 204.438 78.8618 204.913C78.3619 205.387 77.7678 205.751 77.1178 205.982C76.4678 206.212 75.7766 206.303 75.0889 206.25C74.4013 206.197 73.7325 206 73.1261 205.672C72.5197 205.344 71.9891 204.892 71.5688 204.346C71.1485 203.801 70.8478 203.173 70.6863 202.504C70.8738 202.511 71.0601 202.525 71.2452 202.546Z" fill="black"/>
<path opacity="0.1" d="M69.839 217.044C70.6899 217.087 71.5374 216.909 72.2986 216.527C73.0598 216.146 73.7086 215.573 74.1816 214.866C74.6545 214.159 74.9355 213.341 74.9969 212.493C75.0582 211.645 74.898 210.796 74.5318 210.028C74.1403 210.291 73.8037 210.627 73.5405 211.018C73.189 211.547 72.9746 212.158 72.5633 212.645C71.7935 213.547 70.4823 213.842 69.2907 213.789C68.099 213.736 66.9496 213.396 65.7755 213.287C65.6103 213.287 65.4451 213.263 65.2764 213.259C65.5234 214.298 66.1018 215.229 66.9247 215.912C67.7475 216.594 68.7703 216.992 69.839 217.044V217.044Z" fill="black"/>
<path opacity="0.1" d="M81.8153 224.997C82.6601 225.041 83.5019 224.867 84.2595 224.491C85.0171 224.116 85.665 223.552 86.1406 222.854C86.6161 222.155 86.9033 221.347 86.9745 220.505C87.0456 219.664 86.8983 218.819 86.5467 218.051C86.1374 218.318 85.7801 218.657 85.4922 219.051C85.109 219.591 84.87 220.212 84.4376 220.71C83.6045 221.636 82.2055 221.963 80.9471 221.931C79.6886 221.899 78.5462 221.608 77.3335 221.514C77.6281 222.485 78.2173 223.342 79.0199 223.966C79.8225 224.59 80.7991 224.95 81.8153 224.997V224.997Z" fill="black"/>
<path opacity="0.1" d="M79.3792 234.556C79.9129 235.747 80.8986 236.677 82.1195 237.142C83.3404 237.607 84.6964 237.569 85.8892 237.037C87.0821 236.504 88.014 235.52 88.4801 234.302C88.9462 233.083 88.9082 231.73 88.3744 230.54C87.9674 230.804 87.6024 231.128 87.2918 231.501C86.8207 232.073 86.5114 232.722 85.9701 233.255C84.9612 234.244 83.3337 234.658 81.8819 234.69C81.0458 234.693 80.2102 234.649 79.3792 234.556V234.556Z" fill="black"/>
<path d="M91.6997 241.815C91.6997 241.815 87.8049 241.695 86.6309 240.86C85.4568 240.025 80.6551 239.033 80.3528 240.369C80.0505 241.706 74.5001 247.034 78.894 247.055C83.288 247.077 89.1091 246.371 90.2831 245.652C91.4572 244.933 91.6997 241.815 91.6997 241.815Z" fill="#656380"/>
<path opacity="0.2" d="M78.8167 246.589C83.2142 246.624 89.0318 245.908 90.2023 245.186C91.0952 244.642 91.4502 242.695 91.5697 241.8H91.6998C91.6998 241.8 91.4537 244.933 90.2937 245.659C89.1337 246.385 83.3021 247.09 78.9046 247.062C77.6356 247.062 77.1998 246.603 77.2244 245.936C77.3896 246.329 77.8712 246.582 78.8167 246.589Z" fill="black"/>
<path d="M337.093 198.634C336.837 199.367 336.74 200.145 336.808 200.918C336.979 201.69 337.342 202.406 337.863 203.002C338.124 203.417 338.529 203.72 339.001 203.854C339.246 203.877 339.493 203.833 339.714 203.726C339.935 203.619 340.123 203.453 340.256 203.247C340.52 202.832 340.677 202.359 340.713 201.869C340.812 200.563 340.747 199.25 340.52 197.961C340.372 196.877 340.334 195.684 340.045 194.635C339.3 194.635 338.439 194.498 338.024 195.207C337.494 196.13 337.367 197.603 337.093 198.634Z" fill="#FFC0C6"/>
<path d="M341.17 179.323C340.987 179.838 340.731 180.329 340.562 180.852C340.401 181.396 340.283 181.952 340.211 182.515C339.689 185.818 338.985 189.09 338.101 192.316C337.787 193.264 337.61 194.252 337.574 195.249L339.585 195.179C339.774 195.149 339.967 195.191 340.126 195.298C340.298 195.453 340.414 195.793 340.632 195.705C341.009 193.777 341.274 191.83 341.423 189.871C341.504 188.468 341.466 187.093 341.557 185.707C341.733 182.946 342.555 179.8 341.48 177.13C341.52 177.874 341.415 178.619 341.17 179.323V179.323Z" fill="#3F3D56"/>
<path opacity="0.1" d="M341.17 179.323C340.987 179.838 340.731 180.329 340.562 180.852C340.401 181.396 340.283 181.952 340.211 182.515C339.689 185.818 338.985 189.09 338.101 192.316C337.787 193.264 337.61 194.252 337.574 195.249L339.585 195.179C339.774 195.149 339.967 195.191 340.126 195.298C340.298 195.453 340.414 195.793 340.632 195.705C341.009 193.777 341.274 191.83 341.423 189.871C341.504 188.468 341.466 187.093 341.557 185.707C341.733 182.946 342.555 179.8 341.48 177.13C341.52 177.874 341.415 178.619 341.17 179.323V179.323Z" fill="black"/>
<path d="M343.67 162.786C343.177 163.207 343.009 163.88 342.865 164.512L341.698 169.641C341.43 170.812 341.163 171.984 340.995 173.173C340.256 178.14 341.111 183.248 340.291 188.201C340.054 189.306 339.897 190.425 339.82 191.552C339.785 193.614 340.583 195.667 340.253 197.701C340.142 198.062 340.142 198.449 340.253 198.81C340.422 199.161 340.991 199.273 341.149 198.932C341.177 198.87 341.195 198.804 341.202 198.736L342.418 191.078C342.71 189.257 342.998 187.409 342.798 185.574C342.661 184.325 342.295 183.076 342.496 181.834C342.628 181.219 342.807 180.615 343.033 180.028C344.207 176.52 344.046 172.707 343.385 169.079C343.251 168.552 343.213 168.006 343.272 167.466C343.434 166.578 344.123 165.897 344.587 165.126C344.939 164.543 345.543 163.263 345.29 162.561C345.03 161.74 344.165 162.361 343.67 162.786Z" fill="#3F3D56"/>
<path d="M345.617 236.938C345.455 236.921 345.292 236.95 345.146 237.023C345.023 237.112 344.927 237.233 344.868 237.373C344.478 238.177 344.204 239.106 343.462 239.625C343.089 239.858 342.679 240.027 342.249 240.124L338.945 241.064C338.52 241.183 338.035 241.358 337.891 241.765C337.747 242.172 338.056 242.67 338.453 242.909C339.044 243.19 339.699 243.311 340.351 243.26L345.135 243.33C345.59 243.362 346.046 243.316 346.485 243.193C347.044 242.997 347.515 242.551 348.102 242.492C348.58 242.439 349.041 242.646 349.508 242.751C350.482 242.965 351.491 242.751 352.457 242.506C352.633 242.481 352.796 242.403 352.925 242.281C353.03 242.129 353.081 241.946 353.069 241.762C353.108 240.944 353.122 240.131 353.118 239.306C353.118 238.566 353.03 237.707 352.415 237.3C352.132 237.138 351.816 237.041 351.491 237.016C349.529 236.766 347.592 236.952 345.617 236.938Z" fill="#575A88"/>
<path d="M358.275 247.326C358.14 247.644 357.969 247.947 357.766 248.227L355.751 251.272C354.929 252.51 354.078 253.836 354.022 255.32C355.365 255.836 356.806 256.044 358.24 255.927C358.958 255.909 359.657 255.692 360.258 255.299C361.123 254.664 361.464 253.545 361.745 252.521C361.765 252.385 361.833 252.26 361.938 252.17C362.117 252.047 362.36 252.17 362.578 252.125C363.024 252.068 363.179 251.507 363.211 251.072C363.3 249.685 363.181 248.292 362.859 246.94C362.835 246.771 362.76 246.613 362.645 246.487C362.511 246.387 362.351 246.327 362.184 246.315C361.179 246.143 360.174 245.943 359.165 245.796C357.832 245.582 358.651 246.368 358.275 247.326Z" fill="#575A88"/>
<path d="M341.641 193.067C340.668 194.302 340.355 195.951 340.429 197.519C340.502 199.087 340.935 200.616 341.297 202.146C341.891 204.635 342.32 207.16 342.583 209.706C342.625 210.418 342.743 211.123 342.935 211.81C343.107 212.344 343.374 212.842 343.529 213.379C343.719 214.031 343.736 214.726 343.912 215.382C344.15 216.09 344.453 216.775 344.819 217.427C346.425 220.703 346.77 224.443 346.798 228.091C346.798 229.077 346.798 230.059 346.889 231.038C347.093 233.023 347.708 235.248 346.517 236.847C346.819 237.935 348.274 238.142 349.385 237.998C350.691 237.836 351.967 237.493 353.178 236.98C352.827 236.237 352.313 235.37 352.338 234.525C352.412 233.864 352.58 233.216 352.837 232.602C353.473 230.673 353.54 228.61 353.575 226.579C353.601 225.952 353.592 225.325 353.547 224.699C353.485 224.121 353.391 223.547 353.266 222.98L351.906 216.178C351.667 214.983 351.635 213.756 351.811 212.551C352.067 211.121 352.552 209.742 353.248 208.467C354.876 205.187 355.438 201.49 355.758 197.842C355.93 195.849 355.973 193.632 354.704 192.085C353.919 191.192 352.857 190.587 351.688 190.366C350.528 190.155 349.345 190.109 348.172 190.229C345.821 190.426 343.1 191.222 341.641 193.067Z" fill="#3F3D56"/>
<path d="M341.926 193.941C341.476 195.449 342.594 196.919 343.17 198.385C343.501 199.231 343.666 200.139 344.172 200.908C344.798 201.844 345.873 202.399 346.552 203.3C347.23 204.202 347.427 205.258 347.958 206.194C348.489 207.131 349.364 207.91 349.856 208.885C350.601 210.341 350.492 212.088 351.016 213.638C351.389 214.75 352.088 215.743 352.359 216.89C352.479 217.406 352.51 217.943 352.644 218.448C352.957 219.654 353.814 220.707 353.902 221.956C353.958 222.773 353.684 223.671 354.117 224.366C354.377 224.79 354.848 225.039 355.171 225.418C355.408 225.763 355.578 226.148 355.674 226.555L356.377 228.852C357.055 231.084 357.133 233.388 357.783 235.63C358.433 237.872 358.894 240.296 358.134 242.506C357.829 243.421 357.319 244.361 357.575 245.291C357.685 245.62 357.865 245.921 358.103 246.173C358.341 246.425 358.631 246.622 358.953 246.75C359.602 246.999 360.29 247.128 360.985 247.133C361.917 247.182 362.919 247.133 363.688 246.617C363.31 243.799 363.16 240.956 363.238 238.114C363.326 236.261 363.59 234.416 363.59 232.56C363.551 231.385 363.439 230.214 363.256 229.052C363.046 227.314 362.674 225.6 362.145 223.931C361.851 223.185 361.604 222.421 361.407 221.643C361.295 221.114 361.259 220.57 361.182 220.033C361.105 219.497 360.989 218.981 360.873 218.43L360.402 216.262C360.296 215.785 360.008 215.368 359.987 214.88L359.843 211.723C359.611 206.552 359.386 201.297 360.634 196.288C359.906 194.134 358.679 191.864 356.588 190.962C355.727 190.619 354.808 190.444 353.881 190.447C349.61 190.313 345.786 192.141 341.926 193.941Z" fill="#3F3D56"/>
<path d="M345.118 158.58C345.318 158.711 345.502 158.865 345.666 159.039C345.861 159.278 346.016 159.547 346.123 159.836C346.521 160.796 346.758 161.815 346.826 162.853C349.107 161.254 351.205 159.411 353.083 157.355C352.243 157.419 351.47 156.819 351.069 156.082C350.716 155.318 350.513 154.494 350.471 153.655C350.45 153.497 348.281 154.416 348.106 154.51C347.332 154.931 346.608 155.433 345.852 155.882C345.489 156.104 345.115 156.306 344.731 156.489C344.38 156.65 343.824 156.724 343.532 156.956C342.756 157.58 344.64 158.247 345.118 158.58Z" fill="#FFC0C6"/>
<path d="M344.767 160.955C344.679 161.632 344.795 162.323 344.693 162.996C344.549 163.968 343.99 164.814 343.568 165.705C342.415 168.206 342.513 171.072 342.461 173.822C342.408 176.832 342.158 179.831 341.905 182.831L341.445 188.321C341.364 189.268 341.283 190.222 341.093 191.159C340.993 191.553 340.944 191.959 340.949 192.366C341.009 192.855 341.154 193.33 341.378 193.769C341.587 194.353 341.922 194.885 342.359 195.326C342.581 195.543 342.867 195.683 343.174 195.728C343.482 195.773 343.795 195.719 344.07 195.575L344.485 194.33C344.5 194.828 344.702 195.303 345.051 195.659C345.4 196.016 345.871 196.229 346.369 196.256C346.728 196.243 347.082 196.182 347.424 196.073L350.676 195.193C351.379 195.034 352.062 194.799 352.714 194.491C354.12 193.744 355.062 192.341 355.569 190.84C356.075 189.338 356.177 187.742 356.236 186.163C356.367 182.518 356.268 178.839 355.495 175.288C355.171 173.798 354.729 172.331 354.461 170.83C354.151 168.804 353.998 166.758 354.004 164.708L353.892 159.636C353.922 159.006 353.815 158.378 353.579 157.794C353.455 157.506 353.242 157.264 352.972 157.104C352.702 156.943 352.388 156.872 352.075 156.899C351.101 157.082 350.872 158.334 350.345 159.173C349.895 159.892 349.139 160.355 348.412 160.793C347.934 161.081 347.336 161.376 346.844 161.109C346.352 160.842 346.355 159.983 345.849 159.762C345.178 159.401 344.826 160.436 344.767 160.955Z" fill="#F2F2F2"/>
<path d="M349.424 162.379C348.503 164.729 348.018 167.224 347.554 169.707C347.065 172.384 346.626 175.131 347.072 177.814C347.916 182.89 351.776 186.991 353.09 191.966C353.319 192.829 353.47 193.72 353.793 194.554C354.296 195.958 355.199 197.15 356.089 198.333C356.567 198.968 357.273 199.68 358.025 199.424C358.584 199.231 358.83 198.596 359.256 198.182C359.85 197.603 360.76 197.501 361.59 197.54C362.419 197.578 363.27 197.729 364.075 197.54C364.88 197.35 365.646 196.631 365.565 195.786C365.513 195.256 365.14 194.825 364.862 194.383C364.054 193.176 363.745 191.709 363.509 190.275C362.156 181.999 362.76 173.492 361.323 165.231C361.143 164.179 360.918 163.126 360.324 162.263C360.032 161.897 359.761 161.514 359.512 161.116C359.287 160.685 359.189 160.183 358.894 159.794C358.472 159.239 357.748 159.032 357.083 158.818C356.18 158.527 355.301 158.162 354.458 157.727C353.818 157.398 352.911 156.486 352.264 156.921C351.617 157.356 351.129 158.874 350.781 159.534C350.275 160.456 349.822 161.406 349.424 162.379V162.379Z" fill="#3F3D56"/>
<path d="M352.208 196.579C351.709 196.694 351.178 196.536 350.675 196.649C349.849 196.838 349.375 197.677 349.002 198.434C348.865 198.668 348.78 198.929 348.753 199.199C348.743 199.334 348.777 199.468 348.849 199.582C348.921 199.696 349.028 199.784 349.153 199.834C349.293 199.854 349.435 199.836 349.565 199.781C349.694 199.726 349.806 199.636 349.888 199.522C350.049 199.292 350.238 199.084 350.45 198.901C351.034 198.511 351.828 198.925 352.282 199.459C352.735 199.992 353.076 200.662 353.688 200.981C354.042 201.139 354.422 201.232 354.809 201.255C355.215 201.321 355.63 201.321 356.036 201.255C356.24 201.222 356.434 201.141 356.601 201.019C356.767 200.897 356.903 200.738 356.996 200.553C357.085 200.311 357.125 200.053 357.112 199.795L357.171 196.287C357.196 196.082 357.154 195.874 357.052 195.695C356.929 195.552 356.766 195.449 356.584 195.4C355.93 195.151 354.514 194.305 353.857 194.73C353.122 195.249 353.262 196.336 352.208 196.579Z" fill="#FFC0C6"/>
<path d="M345.455 158.524C348.895 158.524 351.684 155.741 351.684 152.308C351.684 148.874 348.895 146.091 345.455 146.091C342.015 146.091 339.226 148.874 339.226 152.308C339.226 155.741 342.015 158.524 345.455 158.524Z" fill="#FFC0C6"/>
<path d="M344.844 151.63C344.796 151.406 344.688 151.199 344.531 151.033C344.373 150.866 344.172 150.747 343.951 150.687C343.778 150.673 343.607 150.649 343.438 150.613C342.851 150.413 342.865 149.519 342.362 149.161C341.979 148.891 341.452 149.031 341.033 149.234C340.615 149.438 340.193 149.712 339.729 149.687C339.439 149.649 339.169 149.52 338.957 149.318C338.746 149.116 338.605 148.852 338.555 148.564C338.468 147.985 338.579 147.393 338.871 146.884C339.806 145.053 341.764 144.004 343.659 143.204C344.48 142.823 345.351 142.56 346.246 142.422C347.148 142.286 348.069 142.482 348.837 142.973C349.079 143.141 349.29 143.344 349.54 143.502C349.785 143.647 350.039 143.777 350.299 143.892C352.802 145.144 354.106 148.287 353.421 150.999C353.182 151.943 352.718 152.83 352.573 153.788C352.553 154.048 352.487 154.302 352.377 154.539C352.057 155.1 351.28 155.152 350.619 155.135C350.443 155.15 350.267 155.108 350.116 155.016C349.979 154.878 349.891 154.699 349.867 154.507C349.607 153.455 349.199 152.378 348.345 151.701C347.888 151.35 347.15 151.167 346.777 151.613C346.628 151.848 346.51 152.102 346.425 152.367C346.243 152.742 345.68 153.167 345.227 153.069C344.591 152.918 344.995 152.216 344.844 151.63Z" fill="#3F3D56"/>
<path opacity="0.1" d="M360.184 159.931C359.435 159.843 359.291 163.758 358.535 163.761C358.321 163.761 358.36 162.937 358.184 163.06C358.008 163.182 358.637 165.866 358.535 166.077C358.152 166.866 358.915 163.512 358.535 164.302C358.033 165.333 358.261 165.67 358.001 166.789C357.425 169.244 354.553 171.026 355.136 173.475C355.816 176.154 356.312 178.877 356.62 181.624C356.723 182.501 356.738 183.386 356.665 184.266C356.465 186.174 355.59 187.939 354.707 189.647C353.934 191.141 353.147 192.629 352.517 194.186C352.317 194.565 352.255 195.002 352.342 195.421C352.602 196.21 353.649 196.295 354.451 196.523C356.092 196.989 357.495 198.627 359.161 198.245C359.906 195.986 359.818 193.604 360.469 191.313C361.137 188.966 362.697 186.925 363.204 184.539C363.379 183.553 363.464 182.552 363.457 181.55L363.703 170.483C363.735 169.825 363.713 169.165 363.636 168.511C363.515 167.839 363.337 167.178 363.105 166.536L361.819 162.677C361.481 161.646 361.242 160.057 360.184 159.931Z" fill="black"/>
<path d="M360.718 159.93C359.968 159.843 359.213 159.801 358.458 159.804C358.237 159.767 358.01 159.814 357.822 159.935C357.634 160.057 357.499 160.244 357.442 160.46L356.292 162.821C355.754 163.836 355.329 164.906 355.024 166.013C354.447 168.469 355.087 171.019 355.67 173.468C356.35 176.147 356.846 178.87 357.154 181.617C357.257 182.494 357.272 183.379 357.199 184.258C356.999 186.167 356.124 187.931 355.241 189.64C354.468 191.134 353.681 192.622 353.052 194.179C352.849 194.557 352.787 194.995 352.876 195.414C353.136 196.203 354.183 196.287 354.985 196.515C356.626 196.982 358.029 198.62 359.695 198.238C360.44 195.979 360.352 193.597 361.003 191.306C361.671 188.959 363.231 186.918 363.738 184.532C363.913 183.546 363.998 182.545 363.991 181.543L364.233 170.476C364.269 169.818 364.247 169.158 364.166 168.504C364.048 167.832 363.872 167.171 363.639 166.529L362.353 162.67C362.015 161.646 361.776 160.057 360.718 159.93Z" fill="#3F3D56"/>
</svg>
