<svg width="286" height="169" viewBox="0 0 286 169" fill="none" xmlns="http://www.w3.org/2000/svg">
<path d="M264.241 51.6002C264.241 51.6002 254.349 61.4945 259.934 76.177C265.519 90.8596 250.36 115.276 250.36 115.276C250.36 115.276 250.523 115.251 250.824 115.199C271.139 111.609 281.235 88.3688 269.939 71.1015C265.74 64.6839 262.292 57.1618 264.241 51.6002Z" fill="white"/>
<path d="M264.241 51.6002C264.241 51.6002 258.656 63.7285 264.241 73.6227C269.825 83.5169 265.199 111.286 250.36 115.276" stroke="#535461" stroke-width="2" stroke-miterlimit="10"/>
<path d="M281.859 91.6217C281.859 91.6217 270.571 89.824 269.544 99.942C268.517 110.06 247.84 111.463 247.84 111.463L248.227 111.719C265.298 122.928 281.63 118.861 279.146 103.987C278.243 98.4425 278.317 92.8837 281.859 91.6217Z" fill="white"/>
<path opacity="0.2" d="M281.859 91.6217C281.859 91.6217 270.571 89.824 269.544 99.942C268.517 110.06 247.84 111.463 247.84 111.463L248.227 111.719C265.298 122.928 281.63 118.861 279.146 103.987C278.243 98.4425 278.317 92.8837 281.859 91.6217Z" fill="#F5F5F5"/>
<path d="M281.859 91.6217C281.859 91.6217 273.097 93.5547 273.818 101.513C274.538 109.472 260.807 119.034 247.84 111.454" stroke="#535461" stroke-width="2" stroke-miterlimit="10"/>
<path d="M255.735 115.958H238.001C238.409 115.137 238.621 114.233 238.62 113.316V32.527C238.62 30.9517 237.994 29.4408 236.88 28.3269C235.767 27.213 234.256 26.5872 232.682 26.5872H95.385C94.6049 26.5868 93.8325 26.7402 93.1117 27.0385C92.391 27.3369 91.736 27.7743 91.1843 28.3259C90.6326 28.8775 90.195 29.5325 89.8964 30.2533C89.5978 30.9741 89.4441 31.7467 89.4441 32.527V113.318C89.4427 114.235 89.6544 115.14 90.0625 115.961H71.7017C71.2851 115.961 70.8855 116.127 70.5909 116.421C70.2964 116.716 70.1309 117.116 70.1309 117.532V118.8C70.1331 121.129 71.0595 123.362 72.7066 125.008C74.3538 126.654 76.5868 127.578 78.9151 127.578H248.522C250.852 127.578 253.086 126.653 254.733 125.005C256.381 123.357 257.306 121.122 257.306 118.792V117.524C257.305 117.108 257.139 116.71 256.844 116.417C256.55 116.123 256.151 115.958 255.735 115.958ZM146.445 120.984L144.933 119.258H182.676L180.992 120.987L146.445 120.984Z" fill="url(#paint0_linear)"/>
<path d="M230.503 27.7303H97.5521C94.0057 27.7303 91.1309 30.6061 91.1309 34.1535V111.88C91.1309 115.427 94.0057 118.303 97.5521 118.303H230.503C234.05 118.303 236.925 115.427 236.925 111.88V34.1535C236.925 30.6061 234.05 27.7303 230.503 27.7303Z" fill="#535461"/>
<path d="M233.545 40.9327H94.1978V114.925H233.545V40.9327Z" fill="white"/>
<path d="M163.873 35.7137C164.551 35.7137 165.101 35.1635 165.101 34.4848C165.101 33.8062 164.551 33.256 163.873 33.256C163.195 33.256 162.645 33.8062 162.645 34.4848C162.645 35.1635 163.195 35.7137 163.873 35.7137Z" fill="white"/>
<path d="M185.39 115.077L180.6 119.99H146.838L142.512 115.077H73.7888C73.3817 115.077 72.9913 115.239 72.7035 115.527C72.4156 115.815 72.2539 116.206 72.2539 116.613V117.85C72.2539 120.128 73.1584 122.312 74.7685 123.923C76.3786 125.533 78.5624 126.438 80.8394 126.438H246.601C248.878 126.438 251.062 125.533 252.672 123.923C254.282 122.312 255.186 120.128 255.186 117.85V116.613C255.186 116.206 255.025 115.815 254.737 115.527C254.449 115.239 254.058 115.077 253.651 115.077H185.39Z" fill="#535461"/>
<path d="M137.592 43.5341H78.8099C77.382 43.5326 76.0119 44.0984 75.0008 45.1072C73.9898 46.1159 73.4207 47.485 73.4185 48.9133V130.376C73.4207 131.804 73.9898 133.173 75.0008 134.182C76.0119 135.191 77.382 135.756 78.8099 135.755H137.592C139.02 135.756 140.39 135.191 141.401 134.182C142.412 133.173 142.981 131.804 142.983 130.376V48.9133C142.981 47.485 142.412 46.1159 141.401 45.1072C140.39 44.0984 139.02 43.5326 137.592 43.5341Z" fill="url(#paint1_linear)"/>
<path d="M136.634 44.6387H79.7654C76.7161 44.6387 74.2441 47.1113 74.2441 50.1615V129.415C74.2441 132.465 76.7161 134.938 79.7654 134.938H136.634C139.683 134.938 142.155 132.465 142.155 129.415V50.1615C142.155 47.1113 139.683 44.6387 136.634 44.6387Z" fill="#535461"/>
<path d="M138.704 53.1797H77.6948V126.396H138.704V53.1797Z" fill="white"/>
<path d="M107.924 49.6092C108.381 49.6092 108.752 49.2383 108.752 48.7808C108.752 48.3233 108.381 47.9524 107.924 47.9524C107.466 47.9524 107.096 48.3233 107.096 48.7808C107.096 49.2383 107.466 49.6092 107.924 49.6092Z" fill="white"/>
<path d="M107.924 133.005C109.296 133.005 110.408 131.892 110.408 130.519C110.408 129.147 109.296 128.034 107.924 128.034C106.551 128.034 105.439 129.147 105.439 130.519C105.439 131.892 106.551 133.005 107.924 133.005Z" fill="white"/>
<path d="M92.7873 71.1484H62.6055C62.2136 71.1477 61.8254 71.2242 61.463 71.3736C61.1007 71.5229 60.7713 71.7422 60.4937 72.0189C60.2161 72.2955 59.9956 72.6242 59.845 72.9861C59.6944 73.348 59.6164 73.736 59.6157 74.128V140.242C59.6164 140.634 59.6944 141.022 59.845 141.384C59.9956 141.746 60.2161 142.075 60.4937 142.352C60.7713 142.628 61.1007 142.847 61.463 142.997C61.8254 143.146 62.2136 143.223 62.6055 143.222H92.7873C93.1792 143.223 93.5674 143.146 93.9297 142.997C94.2921 142.847 94.6215 142.628 94.8991 142.352C95.1767 142.075 95.3971 141.746 95.5478 141.384C95.6984 141.022 95.7763 140.634 95.7771 140.242V74.128C95.7763 73.736 95.6984 73.348 95.5478 72.9861C95.3971 72.6242 95.1767 72.2955 94.8991 72.0189C94.6215 71.7422 94.2921 71.5229 93.9297 71.3736C93.5674 71.2242 93.1792 71.1477 92.7873 71.1484V71.1484Z" fill="url(#paint2_linear)"/>
<path d="M92.4645 71.7008H62.9258C61.2487 71.7008 59.8892 73.0608 59.8892 74.7384V139.908C59.8892 141.586 61.2487 142.946 62.9258 142.946H92.4645C94.1416 142.946 95.5011 141.586 95.5011 139.908V74.7384C95.5011 73.0608 94.1416 71.7008 92.4645 71.7008Z" fill="#535461"/>
<path d="M92.8785 78.3282H62.5117V136.318H92.8785V78.3282Z" fill="white"/>
<path d="M74.1062 75.2906C74.2586 75.2906 74.3822 75.1669 74.3822 75.0144C74.3822 74.8619 74.2586 74.7383 74.1062 74.7383C73.9537 74.7383 73.8301 74.8619 73.8301 75.0144C73.8301 75.1669 73.9537 75.2906 74.1062 75.2906Z" fill="white"/>
<path d="M81.2836 74.7383H75.7624C75.6099 74.7383 75.4863 74.8619 75.4863 75.0144C75.4863 75.1669 75.6099 75.2906 75.7624 75.2906H81.2836C81.4361 75.2906 81.5597 75.1669 81.5597 75.0144C81.5597 74.8619 81.4361 74.7383 81.2836 74.7383Z" fill="white"/>
<path d="M77.5569 141.013C78.6242 141.013 79.4894 140.147 79.4894 139.08C79.4894 138.012 78.6242 137.147 77.5569 137.147C76.4897 137.147 75.6245 138.012 75.6245 139.08C75.6245 140.147 76.4897 141.013 77.5569 141.013Z" fill="white"/>
<path d="M274.682 108.552C271.626 104.844 267.924 100.583 268.443 95.648C268.862 91.6522 267.857 87.9574 268.056 83.9478C268.332 78.2509 267.189 73.7912 263.087 70.1406C260.691 68.006 256.685 66.3298 255.493 66.7578C253.13 67.6028 250.551 67.2797 248.119 67.8624C246.272 68.2932 245.044 68.967 244.282 69.7954C242.75 71.1761 242.725 73.1091 243.423 75.1664C242.814 76.2831 242.446 77.5155 242.343 78.7837C242.241 80.0518 242.406 81.3273 242.829 82.5274C243.252 83.7274 243.922 84.8251 244.796 85.7492C245.67 86.6732 246.729 87.403 247.904 87.8911C246.2 88.6035 244.729 90.2438 244.155 93.5741C243.756 95.8612 243.152 98.1079 242.352 100.287C241.992 100.455 241.624 100.604 241.248 100.732C241.331 100.765 241.416 100.787 241.499 100.817C241.32 100.886 241.143 100.955 240.947 101.016C241.273 101.144 241.611 101.242 241.955 101.309C239.746 106.89 236.985 110.347 236.985 110.347C236.985 110.347 231.837 111.485 229.835 109.494C229.835 109.494 230.161 109.875 230.603 110.447C228.646 109.635 225.432 108.309 222.685 107.218C220.692 106.426 220.182 107.218 220.201 108.323C219.714 108.384 219.245 108.542 218.821 108.787C218.232 108.408 217.614 108.075 216.974 107.793C215.831 107.517 212.112 105.517 208.394 112.341C206.229 116.309 200.681 123.552 196.415 128.909C188.12 132.726 177.32 137.558 173.306 138.773H170.733C170.397 138.221 170.162 137.873 170.162 137.873L169.963 138.006L169.878 137.873C169.878 137.873 164.826 141.372 159.696 141.399C158.967 141.389 158.241 141.297 157.532 141.123C155.174 140.53 153.513 140.264 152.326 140.295C150.92 140.27 150.117 140.604 149.631 141.234C149.566 141.316 149.506 141.403 149.452 141.493V141.493C149.397 141.583 149.348 141.675 149.303 141.769V141.769C149.258 141.869 149.214 141.974 149.176 142.082C149.16 142.178 149.166 142.276 149.194 142.369C149.221 142.463 149.27 142.548 149.336 142.62C149.405 142.717 149.479 142.809 149.559 142.896L149.703 143.051C150.349 143.719 151.525 144.605 152.988 145.594C153.41 145.87 153.858 146.174 154.324 146.475L155.21 147.027L156.003 147.522L156.32 147.718L156.674 147.933L157.306 148.317L157.681 148.543L158.391 148.966L158.965 149.305C160.467 150.192 161.963 151.051 163.313 151.813L164.257 152.376L164.348 152.426L164.955 152.766L166.004 153.348L166.725 153.746L167.062 153.931L167.423 154.13L167.495 154.168L168.125 154.511C168.254 154.533 168.387 154.526 168.513 154.492C168.64 154.457 168.758 154.396 168.859 154.312C169.041 153.539 169.486 151.882 169.963 151.755C170.441 151.628 172.508 148.013 173.091 145.594H178.673C179.772 145.5 180.864 145.332 181.941 145.091C180.5 146.119 179.073 146.765 177.963 146.489C175.617 145.906 173.395 147.337 173.171 148.748C173.171 148.778 173.152 148.806 173.143 148.836C173.135 148.866 173.13 148.894 173.124 148.922C173.119 148.949 173.107 148.991 173.102 149.027C173.096 149.062 173.102 149.085 173.102 149.115C173.102 149.145 173.102 149.184 173.102 149.22C173.102 149.256 173.102 149.278 173.102 149.305C173.102 149.333 173.102 149.377 173.102 149.413C173.102 149.449 173.102 149.468 173.102 149.496C173.102 149.524 173.119 149.571 173.13 149.609C173.141 149.648 173.13 149.659 173.149 149.681C173.166 149.731 173.187 149.78 173.21 149.827L173.223 149.863C173.254 149.924 173.289 149.982 173.328 150.037L173.373 150.095C173.4 150.134 173.43 150.173 173.464 150.208L173.527 150.272C173.56 150.305 173.596 150.338 173.632 150.371L173.709 150.435L173.834 150.526L173.925 150.587L174.074 150.675L174.173 150.728L174.361 150.816L174.455 150.857C174.554 150.899 174.659 150.937 174.772 150.973C174.952 151.031 175.164 151.092 175.404 151.153L175.644 151.211L175.995 151.291L176.18 151.332C176.419 151.384 176.673 151.435 176.942 151.487L177.315 151.556L177.618 151.611L178.317 151.733C178.753 151.807 179.208 151.882 179.697 151.954L180.901 152.136L182.469 152.36L182.817 152.407L183.369 152.484L184.178 152.592L184.73 152.663L186.162 152.846L186.61 152.901L187.512 153.011C188.699 153.155 189.848 153.287 190.905 153.406L192.128 153.544L192.747 153.613L193.023 153.641L193.762 153.721L194.174 153.765L194.682 153.818L195.397 153.892H195.474L195.932 153.939C195.99 153.945 196.048 153.939 196.103 153.922C196.158 153.904 196.209 153.876 196.252 153.838C196.295 153.799 196.33 153.753 196.355 153.7C196.379 153.648 196.392 153.591 196.393 153.533C196.393 153.519 196.393 153.503 196.393 153.486C196.435 153.422 196.458 153.347 196.46 153.271C196.472 152.59 196.558 151.912 196.716 151.249C196.747 151.136 196.783 151.02 196.821 150.904L196.865 150.772C196.915 150.631 196.965 150.496 197.023 150.344C197.064 150.241 197.1 150.136 197.13 150.029C197.13 149.996 197.15 149.963 197.161 149.927C197.172 149.891 197.188 149.814 197.199 149.756C197.774 147.792 197.081 144.131 196.882 142.692C196.818 142.232 196.713 141.779 196.567 141.339C196.603 141.342 196.639 141.342 196.675 141.339C196.971 141.23 197.25 141.078 197.503 140.889C201.721 139.384 205.277 137.663 206.401 135.94C208.22 135.46 210.153 135.662 211.833 136.509C214.017 137.594 230.537 142.987 238.228 145.478C239.608 146.668 240.69 147.364 241.289 147.312C241.289 147.312 251.081 148.897 255.018 145.804C255.368 146.047 255.589 146.177 255.589 146.177C255.589 146.177 261.309 143.335 262.168 139.638C262.444 138.439 262.695 136.672 262.952 134.717C264.279 133.379 265.025 131.572 265.028 129.688C265.207 123.48 267.612 116.389 269.395 110.082C271.559 110.253 272.396 109.845 274.381 108.864L274.292 108.751C274.433 108.668 274.557 108.613 274.682 108.552ZM241.888 117.85L240.784 117.483C241.154 116.988 241.474 116.457 241.736 115.898L241.888 117.85ZM235.735 120.462L242.36 124.439L242.418 125.248C242.338 125.864 242.356 126.488 242.474 127.098C239.553 124.502 236.135 121.351 235.732 120.459L235.735 120.462ZM233.029 114.663C232.306 114.365 231.707 114.094 231.296 113.871C231.848 113.909 232.372 113.942 232.831 113.967C232.921 114.192 232.988 114.425 233.029 114.663V114.663ZM215.284 121.144C215.284 121.144 216.427 118.587 219.003 122.851C219.403 123.514 220.14 124.568 221.115 125.875L213.617 124.872C214.5 123.503 215.094 122.23 215.284 121.147V121.144Z" fill="url(#paint3_linear)"/>
<path d="M231.754 110.872C231.754 110.872 226.509 108.662 222.368 107.006C218.227 105.349 220.711 110.872 220.711 110.872C220.711 110.872 227.613 112.805 227.613 113.081C227.613 113.357 233.41 113.633 233.41 113.633L231.754 110.872Z" fill="#F7C4A7"/>
<path opacity="0.05" d="M231.754 110.872C231.754 110.872 226.509 108.662 222.368 107.006C218.227 105.349 220.711 110.872 220.711 110.872C220.711 110.872 227.613 112.805 227.613 113.081C227.613 113.357 233.41 113.633 233.41 113.633L231.754 110.872Z" fill="black"/>
<path d="M254.115 89.0563C254.115 89.0563 244.728 84.0858 243.072 93.7508C241.416 103.416 236.171 110.043 236.171 110.043C236.171 110.043 231.201 111.148 229.269 109.215C229.269 109.215 233.962 114.738 231.754 115.29C231.754 115.29 236.723 118.88 238.931 117.775C241.14 116.671 242.796 109.215 243.624 107.282C244.452 105.349 247.489 88.5041 254.115 89.0563Z" fill="#33344A"/>
<path opacity="0.1" d="M254.115 89.0563C254.115 89.0563 244.728 84.0858 243.072 93.7508C241.416 103.416 236.171 110.043 236.171 110.043C236.171 110.043 231.201 111.148 229.269 109.215C229.269 109.215 233.962 114.738 231.754 115.29C231.754 115.29 236.723 118.88 238.931 117.775C241.14 116.671 242.796 109.215 243.624 107.282C244.452 105.349 247.489 88.5041 254.115 89.0563Z" fill="black"/>
<path d="M248.87 85.7426C248.87 85.7426 254.667 92.3701 254.943 97.8929C255.219 103.416 261.568 92.0939 262.121 91.8178C262.673 91.5416 256.599 82.1528 256.047 79.1152C255.495 76.0776 248.87 85.7426 248.87 85.7426Z" fill="#F7C4A7"/>
<path d="M252.873 88.5731L249.215 91.8868L250.94 98.8595L255.633 94.4412L255.081 90.0229L252.873 88.5731Z" fill="#F7C4A7"/>
<path d="M176.542 137.658H170.192L172.677 143.733L178.75 142.076L176.542 137.658Z" fill="#F7C4A7"/>
<path opacity="0.1" d="M171.661 136.782C171.661 136.782 165.085 141.364 159.467 139.939C153.849 138.514 152.323 139.047 151.668 140.886C151.064 142.579 167.36 151.531 169.957 152.945C169.998 152.967 170.042 152.98 170.088 152.981C170.134 152.983 170.18 152.975 170.222 152.956C170.264 152.937 170.301 152.909 170.33 152.874C170.36 152.838 170.38 152.796 170.391 152.752C170.567 152.001 170.995 150.391 171.454 150.266C172.05 150.106 174.766 145.02 174.617 143.02C174.468 141.021 171.661 136.782 171.661 136.782Z" fill="black"/>
<path d="M171.385 136.782C171.385 136.782 164.809 141.364 159.191 139.939C153.573 138.514 152.047 139.047 151.392 140.886C150.788 142.579 167.084 151.531 169.681 152.945C169.722 152.967 169.767 152.98 169.813 152.981C169.858 152.983 169.904 152.975 169.946 152.956C169.988 152.937 170.025 152.909 170.054 152.874C170.084 152.838 170.104 152.796 170.115 152.752C170.292 152.001 170.719 150.391 171.178 150.266C171.774 150.106 174.491 145.02 174.341 143.02C174.192 141.021 171.385 136.782 171.385 136.782Z" fill="#F3B5B7"/>
<path d="M225.681 125.784L207.184 123.298C207.184 123.298 177.094 137.658 173.505 137.934L174.333 144.285H179.854C182.063 144.285 203.596 139.591 206.632 134.896C208.389 134.429 210.256 134.626 211.877 135.449C214.638 136.829 241.14 145.39 241.14 145.39L225.681 125.784Z" fill="#33344A"/>
<path opacity="0.1" d="M225.681 125.784L207.184 123.298C207.184 123.298 177.094 137.658 173.505 137.934L174.333 144.285H179.854C182.063 144.285 203.596 139.591 206.632 134.896C208.389 134.429 210.256 134.626 211.877 135.449C214.638 136.829 241.14 145.39 241.14 145.39L225.681 125.784Z" fill="black"/>
<path d="M192.829 134.344L189.792 138.21L192.829 139.867L197.246 136.553L192.829 134.344Z" fill="#F7C4A7"/>
<path d="M245.557 129.926C245.557 129.926 235.618 121.415 234.931 119.871C234.244 118.328 217.951 107.834 216.846 107.558C215.742 107.282 212.153 105.349 208.564 111.976C204.976 118.604 191.725 134.62 191.725 134.62C191.725 134.62 195.866 140.419 197.246 140.143C198.626 139.867 214.086 126.888 215.19 120.537C215.19 120.537 216.294 118.052 218.779 122.194C221.263 126.336 237.275 146.218 240.312 145.942C240.312 145.942 252.182 147.875 254.667 143.181C257.151 138.486 245.557 129.926 245.557 129.926Z" fill="#33344A"/>
<path d="M251.216 89.4706C251.216 89.4706 247.766 90.9894 247.49 97.3407C247.213 103.692 241.14 114.462 241.14 114.462L241.692 127.164C241.692 127.164 248.318 133.792 248.87 137.934C249.422 142.076 254.115 144.837 254.115 144.837C254.115 144.837 259.636 142.076 260.464 138.486C261.293 134.896 261.845 126.06 263.225 122.746C264.605 119.432 263.777 98.7214 263.777 98.7214L259.636 91.5417L257.428 89.0564L251.63 95.6838C251.63 95.6838 248.456 91.4036 251.216 89.4706Z" fill="#DDDBE2"/>
<path opacity="0.1" d="M243.072 123.022C243.072 123.022 242.244 113.081 244.729 110.872L249.698 96.7884C249.698 96.7884 251.492 90.0229 251.216 89.4706C250.94 88.9183 244.729 94.8554 244.729 94.8554L240.588 109.491L241.692 124.955L243.072 123.022Z" fill="black"/>
<path d="M242.796 123.022C242.796 123.022 241.968 113.081 244.452 110.872L249.422 96.7884C249.422 96.7884 251.354 89.8848 251.078 89.3325C250.802 88.7802 244.452 94.8554 244.452 94.8554L240.312 109.491L241.416 124.955L242.796 123.022Z" fill="#33344A"/>
<path d="M244.728 118.604C244.728 118.604 230.925 114.185 230.097 113.081C229.269 111.976 220.435 104.797 217.398 109.767C214.362 114.738 228.717 116.118 228.717 116.118L243.348 124.955L244.728 118.604Z" fill="#F7C4A7"/>
<path opacity="0.1" d="M193.428 138.185L189.342 137.451C189.342 137.451 182.651 146.025 179.164 145.155C175.677 144.285 172.47 148.038 176.152 149.242C179.479 150.33 193.845 151.851 196.581 152.133C196.636 152.139 196.692 152.133 196.745 152.116C196.798 152.099 196.847 152.071 196.889 152.034C196.931 151.998 196.964 151.952 196.988 151.902C197.011 151.851 197.024 151.797 197.025 151.741C197.046 150.674 197.261 149.619 197.66 148.629C198.397 146.82 197.66 142.935 197.456 141.449C197.343 140.578 197.071 139.736 196.653 138.964L193.428 138.185Z" fill="black"/>
<path d="M193.359 138.453L189.273 137.719C189.273 137.719 182.582 146.293 179.1 145.426C175.619 144.559 172.406 148.309 176.089 149.513C179.415 150.601 193.781 152.122 196.517 152.404C196.573 152.41 196.629 152.404 196.682 152.387C196.735 152.37 196.784 152.342 196.825 152.305C196.867 152.268 196.901 152.223 196.924 152.173C196.948 152.122 196.96 152.067 196.962 152.012C196.975 150.947 197.182 149.893 197.572 148.902C198.309 147.094 197.572 143.208 197.367 141.723C197.255 140.852 196.983 140.009 196.564 139.237L193.359 138.453Z" fill="#F3B5B7"/>
<path opacity="0.1" d="M250.94 88.9183C255.819 88.9183 259.774 84.9621 259.774 80.0817C259.774 75.2014 255.819 71.2451 250.94 71.2451C246.061 71.2451 242.106 75.2014 242.106 80.0817C242.106 84.9621 246.061 88.9183 250.94 88.9183Z" fill="black"/>
<path d="M250.112 88.9183C254.991 88.9183 258.946 84.9621 258.946 80.0817C258.946 75.2014 254.991 71.2451 250.112 71.2451C245.233 71.2451 241.278 75.2014 241.278 80.0817C241.278 84.9621 245.233 88.9183 250.112 88.9183Z" fill="#F7C4A7"/>
<path d="M258.808 88.7803C258.808 88.7803 269.298 92.3701 269.298 99.826C269.298 107.282 263.501 119.156 263.225 128.821C262.949 138.486 247.765 137.105 247.765 137.105C247.765 137.105 245.557 104.52 247.765 102.035C249.974 99.5499 259.912 89.8848 258.808 88.7803Z" fill="#33344A"/>
<path opacity="0.1" d="M256.875 104.244C256.875 104.244 253.01 121.365 243.9 118.328C243.9 118.328 239.207 125.231 242.52 128.269C242.52 128.269 250.526 130.202 255.771 124.955C261.016 119.708 264.881 117.775 265.709 111.424C266.537 105.073 267.089 96.2361 264.329 97.0645C261.568 97.8929 256.875 104.244 256.875 104.244Z" fill="black"/>
<path d="M257.152 103.968C257.152 103.968 253.287 121.089 244.177 118.051C244.177 118.051 239.484 124.955 242.796 127.993C242.796 127.993 250.802 129.926 256.047 124.679C261.292 119.432 265.157 117.499 265.986 111.148C266.814 104.797 267.366 95.96 264.605 96.7884C261.845 97.6168 257.152 103.968 257.152 103.968Z" fill="#33344A"/>
<path d="M197.809 148.013C197.809 148.038 197.793 148.068 197.784 148.09C197.594 148.563 197.449 149.052 197.351 149.551C197.417 149.336 197.495 149.115 197.583 148.894C197.692 148.61 197.768 148.314 197.809 148.013Z" fill="#DDDBE2"/>
<path d="M176.29 148.706C175.153 148.333 174.675 147.72 174.656 147.074C174.187 147.974 174.482 148.985 176.089 149.51C179.415 150.598 193.784 152.119 196.517 152.401C196.573 152.407 196.629 152.401 196.682 152.384C196.736 152.367 196.785 152.339 196.826 152.301C196.868 152.264 196.902 152.219 196.925 152.168C196.948 152.117 196.961 152.062 196.962 152.006V152.006C196.964 151.905 196.928 151.806 196.861 151.73C196.794 151.654 196.701 151.606 196.6 151.595C193.602 151.274 179.573 149.778 176.29 148.706Z" fill="#DDDBE2"/>
<path d="M151.773 140.4C151.847 140.196 151.939 140 152.049 139.814C151.752 140.115 151.53 140.483 151.401 140.886C150.796 142.579 167.092 151.531 169.69 152.945C169.73 152.967 169.775 152.979 169.821 152.981C169.867 152.983 169.913 152.974 169.955 152.955C169.997 152.936 170.034 152.907 170.063 152.872C170.093 152.836 170.113 152.794 170.123 152.749V152.749C170.139 152.685 170.133 152.618 170.106 152.558C170.08 152.499 170.034 152.449 169.977 152.418C167.106 150.846 151.177 142.073 151.773 140.4Z" fill="#DDDBE2"/>
<path d="M171.556 149.783C171.41 149.822 171.266 150.018 171.131 150.286L171.175 150.269C171.296 150.236 171.504 149.993 171.755 149.634C171.701 149.699 171.633 149.75 171.556 149.783V149.783Z" fill="#DDDBE2"/>
<path opacity="0.1" d="M248.886 87.8607C248.108 89.5783 247.945 91.5141 247.374 93.3146C246.239 96.8851 243.393 99.8398 239.983 100.98C242.852 102.124 246.236 100.726 248.453 98.4066C250.67 96.087 251.97 92.9998 253.215 89.9953C256.434 92.1603 256.042 97.1364 257.124 101.011C257.589 102.696 258.409 104.263 259.531 105.604C260.652 106.945 262.049 108.029 263.625 108.784C265.197 109.489 266.905 109.837 268.627 109.802C270.349 109.767 272.041 109.351 273.583 108.583C270.632 104.993 266.43 100.041 266.93 95.2476C267.336 91.365 264.55 88.3992 264.741 84.5028C265.017 78.9799 262.902 76.1743 258.943 72.6286C256.63 70.5548 260.271 67.6304 257.287 68.4865C256.114 68.8234 254.877 67.5669 253.726 67.9811C251.445 68.8096 248.955 68.4892 246.609 69.0415C234.412 71.9079 250.024 85.3533 248.886 87.8607Z" fill="black"/>
<path d="M249.162 87.5845C248.384 89.3021 248.221 91.2379 247.649 93.0383C246.515 96.6089 243.669 99.5636 240.259 100.704C243.128 101.847 246.512 100.45 248.729 98.1304C250.946 95.8108 252.246 92.7235 253.491 89.7191C256.71 91.8841 256.318 96.8602 257.4 100.734C257.864 102.42 258.685 103.986 259.807 105.327C260.928 106.668 262.325 107.753 263.901 108.508C265.473 109.213 267.181 109.561 268.903 109.526C270.625 109.491 272.317 109.075 273.859 108.306C270.908 104.716 266.982 100.594 267.482 95.7998C267.888 91.9172 267.283 87.9269 267.482 84.0333C267.758 78.5104 265.05 73.1753 261.088 69.6296C258.775 67.5558 255.161 67.2907 254.007 67.6966C251.727 68.5251 249.237 68.2047 246.89 68.757C234.688 71.6317 250.3 85.0771 249.162 87.5845Z" fill="#FC6681"/>
<defs>
<linearGradient id="paint0_linear" x1="163.719" y1="127.584" x2="163.719" y2="26.5844" gradientUnits="userSpaceOnUse">
<stop stop-color="#808080" stop-opacity="0.25"/>
<stop offset="0.54" stop-color="#808080" stop-opacity="0.12"/>
<stop offset="1" stop-color="#808080" stop-opacity="0.1"/>
</linearGradient>
<linearGradient id="paint1_linear" x1="33043" y1="58663.8" x2="33043" y2="27862" gradientUnits="userSpaceOnUse">
<stop stop-color="#808080" stop-opacity="0.25"/>
<stop offset="0.54" stop-color="#808080" stop-opacity="0.12"/>
<stop offset="1" stop-color="#808080" stop-opacity="0.1"/>
</linearGradient>
<linearGradient id="paint2_linear" x1="13202.1" y1="47830.7" x2="13202.1" y2="29019.5" gradientUnits="userSpaceOnUse">
<stop stop-color="#808080" stop-opacity="0.25"/>
<stop offset="0.54" stop-color="#808080" stop-opacity="0.12"/>
<stop offset="1" stop-color="#808080" stop-opacity="0.1"/>
</linearGradient>
<linearGradient id="paint3_linear" x1="106797" y1="61871" x2="106797" y2="33926.2" gradientUnits="userSpaceOnUse">
<stop stop-color="#808080" stop-opacity="0.25"/>
<stop offset="0.54" stop-color="#808080" stop-opacity="0.12"/>
<stop offset="1" stop-color="#808080" stop-opacity="0.1"/>
</linearGradient>
</defs>
</svg>
