<svg width="274" height="189" viewBox="0 0 274 189" fill="none" xmlns="http://www.w3.org/2000/svg">
<path opacity="0.1" d="M154.417 25.733C136.918 25.7565 120.074 20.782 103.964 15.2559C87.8529 9.7297 71.8662 3.54152 54.6927 0.919289C43.6479 -0.766262 31.0884 -0.611323 22.4548 5.50878C14.1443 11.3965 11.7377 21.1412 10.5766 30.1441C9.70341 36.9168 9.30076 44.0253 12.5711 50.2205C14.8419 54.5212 18.728 58.066 21.4669 62.1649C31.0275 76.424 25.2781 94.6387 15.9866 109.229C11.63 116.074 6.52668 122.636 3.23289 129.873C-0.0608872 137.111 -1.41164 145.318 1.94769 152.462C5.27658 159.542 12.7959 164.681 20.8653 168.19C37.2523 175.332 56.3314 176.862 74.8978 177.451C115.996 178.759 157.174 176.092 198.243 173.425C213.44 172.439 228.706 171.446 243.59 168.589C251.854 167.005 260.363 164.652 266.223 159.497C273.66 152.952 275.182 142.266 269.769 134.585C260.693 121.701 236.761 119.272 230.253 105.332C226.665 97.6577 229.759 88.8567 234.317 81.4595C244.093 65.5876 260.92 51.3708 261.204 33.6185C261.398 21.4276 252.647 9.53485 239.578 4.2364C225.878 -1.31324 207.199 0.114075 197.601 10.4574C187.732 21.113 169.867 25.7166 154.417 25.733Z" fill="white"/>
<path d="M232.351 151.504C232.351 151.504 229.474 149.6 226.623 150.955C226.623 150.955 227.5 152.649 231.11 152.49L232.351 151.504Z" fill="white"/>
<path d="M232.716 151.605C232.716 151.605 233.592 154.948 231.396 157.222C231.396 157.222 230.076 155.844 231.396 152.469L232.716 151.605Z" fill="white"/>
<path d="M236.293 148.396C236.293 148.396 236.08 145.553 229.678 146.497C229.678 146.497 229.647 148.33 231.895 149.199C234.142 150.067 235.172 149.335 236.293 148.396Z" fill="white"/>
<path d="M236.696 148.377C236.696 148.377 239.402 149.248 236.989 155.269C236.989 155.269 235.203 154.87 234.882 152.473C234.561 150.076 235.512 149.25 236.696 148.377Z" fill="white"/>
<path d="M240.311 144.344C240.311 144.344 240.678 139.665 234.135 140.144C234.135 140.144 233.667 144.37 239.156 145.468L240.311 144.344Z" fill="white"/>
<path d="M244.634 139.062C244.634 139.062 243.738 133.759 237.197 135.339C237.197 135.339 237.173 139.923 243.567 140.325L244.634 139.062Z" fill="white"/>
<path d="M247.794 133.601C247.794 133.601 246.291 128.437 239.812 129.981C239.812 129.981 241.354 134.627 247.364 134.554L247.794 133.601Z" fill="white"/>
<path d="M250.796 128.268C250.796 128.268 249.328 122.908 243.07 124.511C243.07 124.511 245.158 129.603 250.381 129.174L250.796 128.268Z" fill="white"/>
<path d="M252.729 123.202C252.729 123.202 251.601 116.647 245.767 118.098C245.767 118.098 247.462 124.061 252.301 124.157L252.729 123.202Z" fill="white"/>
<path d="M254.544 117.081C254.544 117.081 253.188 110.475 247.287 112.386C247.287 112.386 249.6 118.631 254.125 117.985L254.544 117.081Z" fill="white"/>
<path d="M255.658 111.386C255.658 111.386 253.506 104.778 248.944 104.956C248.944 104.956 251.142 111.936 255.276 112.703L255.658 111.386Z" fill="white"/>
<path d="M256.379 105.827C256.379 105.827 254.038 97.8737 250.325 98.4864C250.325 98.4864 251.945 104.567 256.248 107.067L256.379 105.827Z" fill="white"/>
<path d="M256.786 99.1954C256.786 99.1954 254.59 92.5683 250.934 92.303C250.934 92.303 252.427 98.8245 256.714 100.919L256.786 99.1954Z" fill="white"/>
<path d="M257.229 93.0072C257.229 93.0072 254.492 86.373 252.079 86.2228C252.079 86.2228 253.268 92.756 256.995 94.0965L257.229 93.0072Z" fill="white"/>
<path d="M257.531 87.251C257.531 87.251 255.847 80.0464 253.429 79.4478C253.429 79.4478 253.759 85.3425 257.287 87.791L257.531 87.251Z" fill="white"/>
<path d="M258.444 79.7106C258.444 79.7106 256.674 73.9661 254.714 73.0905C254.714 73.0905 255.101 79.8632 257.992 81.1144L258.444 79.7106Z" fill="white"/>
<path d="M259.2 74.7808L259.555 64.6534C259.555 64.6534 255.892 72.2877 258.935 76.5579L259.2 74.7808Z" fill="white"/>
<path d="M262.028 64.7074C262.028 64.7074 264.666 57.3126 265.305 56.8994C265.305 56.8994 260.132 61.6978 260.637 67.8696L262.028 64.7074Z" fill="white"/>
<path d="M240.488 144.309C240.488 144.309 245.128 143.701 244.99 150.276C244.99 150.276 240.797 150.962 239.428 145.522L240.488 144.309Z" fill="white"/>
<path d="M244.854 138.883C244.854 138.883 250.215 138.867 249.77 145.597C249.77 145.597 245.268 146.405 243.784 140.156L244.854 138.883Z" fill="white"/>
<path d="M247.846 134.036C247.846 134.036 252.713 131.747 255.826 137.656C255.826 137.656 251.332 139.562 247.415 134.991L247.846 134.036Z" fill="white"/>
<path d="M250.903 128.317C250.903 128.317 255.887 125.883 258.813 131.653C258.813 131.653 253.621 133.446 250.491 129.23L250.903 128.317Z" fill="white"/>
<path d="M252.666 123.345C252.666 123.345 257.463 118.751 261.29 123.396C261.29 123.396 256.39 127.178 252.446 124.368L252.666 123.345Z" fill="white"/>
<path d="M254.272 116.924C254.272 116.924 259.097 112.229 262.894 117.14C262.894 117.14 257.479 120.997 254.099 117.91L254.272 116.924Z" fill="white"/>
<path d="M255.173 111.199C255.173 111.199 258.891 105.33 263.269 106.64C263.269 106.64 259.411 112.854 255.215 112.577L255.173 111.199Z" fill="white"/>
<path d="M256.269 105.79C256.269 105.79 260.014 98.3997 263.559 99.6862C263.559 99.6862 260.857 105.367 256.173 107.036L256.269 105.79Z" fill="white"/>
<path d="M256.529 98.8105C256.529 98.8105 260.38 92.9933 263.987 93.7046C263.987 93.7046 260.839 99.604 256.154 100.494L256.529 98.8105Z" fill="white"/>
<path d="M256.829 92.8782C256.829 92.8782 259.813 86.3497 262.239 86.3051C262.239 86.3051 260.806 92.7867 257.03 93.9863L256.829 92.8782Z" fill="white"/>
<path d="M257.414 87.1101C257.414 87.1101 260.731 80.4993 263.224 80.4852C263.224 80.4852 261.527 86.1382 257.524 87.6899L257.414 87.1101Z" fill="white"/>
<path d="M257.913 80.1238C257.913 80.1238 260.394 74.6539 262.449 74.0342C262.449 74.0342 261.209 80.7013 258.187 81.5746L257.913 80.1238Z" fill="white"/>
<path d="M259.495 74.5812L265.041 66.1089C265.041 66.1089 263.62 74.4662 258.685 76.2034L259.495 74.5812Z" fill="white"/>
<path d="M263.301 65.3905C263.301 65.3905 269.746 60.9302 269.98 60.2095C269.98 60.2095 266.703 66.4563 260.616 67.5597L263.301 65.3905Z" fill="white"/>
<path d="M257.985 81.1825L258.254 81.2177C259.645 70.3039 261.672 63.8457 263.961 63.0546L263.872 62.7964C261.445 63.6415 259.404 70.0011 257.985 81.1825Z" fill="#444053"/>
<path d="M255.938 107.283L256.346 107.316C256.432 106.297 256.498 105.255 256.542 104.215C256.931 95.1811 257.533 86.8848 258.324 80.6661L258.09 80.3727C257.296 86.6055 256.524 95.1506 256.135 104.198C256.091 105.231 256.025 106.269 255.938 107.283Z" fill="#444053"/>
<path d="M224.757 156.711C224.827 156.68 231.998 153.469 239.44 145.811C243.8 141.326 247.423 136.176 250.173 130.552C253.615 123.526 255.712 114.891 256.415 106.503L255.991 106.703C254.411 125.53 245.864 138.395 239.068 145.403C231.698 152.992 224.607 156.171 224.537 156.201L224.757 156.711Z" fill="#444053"/>
<path d="M243.323 20.0098H18.3813C17.8499 20.0098 17.3402 20.2215 16.9644 20.5983C16.5886 20.9752 16.3774 21.4863 16.3774 22.0193V27.8741H245.327V22.0193C245.327 21.4863 245.116 20.9752 244.74 20.5983C244.364 20.2215 243.854 20.0098 243.323 20.0098Z" fill="#3F3D56"/>
<path d="M16.3774 27.8741V159.629C16.3774 160.703 16.8031 161.734 17.5609 162.494C18.3186 163.254 19.3464 163.681 20.418 163.681H241.286C242.358 163.681 243.386 163.254 244.143 162.494C244.901 161.734 245.327 160.703 245.327 159.629V27.8741H16.3774Z" fill="white"/>
<path opacity="0.8" d="M20.0038 24.8223C20.5209 24.8223 20.9402 24.4018 20.9402 23.8832C20.9402 23.3646 20.5209 22.9442 20.0038 22.9442C19.4866 22.9442 19.0674 23.3646 19.0674 23.8832C19.0674 24.4018 19.4866 24.8223 20.0038 24.8223Z" fill="#FA5959"/>
<path opacity="0.8" d="M22.579 24.8223C23.0961 24.8223 23.5154 24.4018 23.5154 23.8832C23.5154 23.3646 23.0961 22.9442 22.579 22.9442C22.0618 22.9442 21.6426 23.3646 21.6426 23.8832C21.6426 24.4018 22.0618 24.8223 22.579 24.8223Z" fill="#FED253"/>
<path opacity="0.8" d="M25.1542 24.8223C25.6713 24.8223 26.0906 24.4018 26.0906 23.8832C26.0906 23.3646 25.6713 22.9442 25.1542 22.9442C24.637 22.9442 24.2178 23.3646 24.2178 23.8832C24.2178 24.4018 24.637 24.8223 25.1542 24.8223Z" fill="#8CCF4D"/>
<path opacity="0.05" d="M221.662 49.8425H37.6597V130.979H221.662V49.8425Z" fill="black"/>
<path d="M220.257 50.4576H39.0642V129.805H220.257V50.4576Z" fill="#3F3D56"/>
<path d="M88.4595 70.8792C84.8944 70.8792 81.4093 71.9393 78.445 73.9255C75.4807 75.9118 73.1703 78.7349 71.806 82.0379C70.4416 85.3409 70.0847 88.9754 70.7802 92.4819C71.4757 95.9883 73.1925 99.2092 75.7134 101.737C78.2344 104.265 81.4462 105.987 84.9429 106.684C88.4395 107.382 92.0639 107.024 95.3576 105.656C98.6514 104.288 101.467 101.971 103.447 98.998C105.428 96.0254 106.485 92.5305 106.485 88.9554C106.485 86.5816 106.019 84.231 105.113 82.0379C104.207 79.8448 102.879 77.8521 101.206 76.1736C99.5318 74.495 97.5446 73.1635 95.3576 72.2551C93.1707 71.3467 90.8267 70.8792 88.4595 70.8792ZM91.6924 89.3897V97.9489H85.3202V89.3897C84.4384 88.7203 83.7885 87.7901 83.4623 86.7304C83.1361 85.6707 83.1499 84.535 83.502 83.4837C83.8541 82.4323 84.5265 81.5184 85.4244 80.8709C86.3224 80.2234 87.4004 79.8751 88.5063 79.8751C89.6123 79.8751 90.6903 80.2234 91.5882 80.8709C92.4861 81.5184 93.1586 82.4323 93.5107 83.4837C93.8627 84.535 93.8766 85.6707 93.5504 86.7304C93.2241 87.7901 92.5742 88.7203 91.6924 89.3897Z" fill="white"/>
<path opacity="0.05" d="M88.4595 70.8792C84.8944 70.8792 81.4093 71.9393 78.445 73.9255C75.4807 75.9118 73.1703 78.7349 71.806 82.0379C70.4416 85.3409 70.0847 88.9754 70.7802 92.4819C71.4757 95.9883 73.1925 99.2092 75.7134 101.737C78.2344 104.265 81.4462 105.987 84.9429 106.684C88.4395 107.382 92.0639 107.024 95.3576 105.656C98.6514 104.288 101.467 101.971 103.447 98.998C105.428 96.0254 106.485 92.5305 106.485 88.9554C106.485 86.5816 106.019 84.231 105.113 82.0379C104.207 79.8448 102.879 77.8521 101.206 76.1736C99.5318 74.495 97.5446 73.1635 95.3576 72.2551C93.1707 71.3467 90.8267 70.8792 88.4595 70.8792ZM91.6924 89.3897V97.9489H85.3202V89.3897C84.4384 88.7203 83.7885 87.7901 83.4623 86.7304C83.1361 85.6707 83.1499 84.535 83.502 83.4837C83.8541 82.4323 84.5265 81.5184 85.4244 80.8709C86.3224 80.2234 87.4004 79.8751 88.5063 79.8751C89.6123 79.8751 90.6903 80.2234 91.5882 80.8709C92.4861 81.5184 93.1586 82.4323 93.5107 83.4837C93.8627 84.535 93.8766 85.6707 93.5504 86.7304C93.2241 87.7901 92.5742 88.7203 91.6924 89.3897Z" fill="black"/>
<path d="M88.4591 65.7146C83.8753 65.7146 79.3945 67.0777 75.5833 69.6314C71.772 72.1851 68.8015 75.8149 67.0474 80.0616C65.2932 84.3083 64.8343 88.9813 65.7285 93.4895C66.6228 97.9978 68.8301 102.139 72.0713 105.389C75.3125 108.64 79.442 110.853 83.9377 111.75C88.4334 112.647 93.0932 112.186 97.3281 110.427C101.563 108.668 105.182 105.689 107.729 101.867C110.276 98.0455 111.635 93.5521 111.635 88.9555C111.635 82.7916 109.193 76.8802 104.847 72.5217C100.501 68.1632 94.6057 65.7146 88.4591 65.7146ZM92.6143 89.5142V100.517H84.4209V89.5142C83.2867 88.6535 82.4507 87.4572 82.031 86.0944C81.6113 84.7315 81.629 83.2709 82.0817 81.9187C82.5344 80.5666 83.3992 79.3911 84.554 78.5584C85.7088 77.7256 87.0952 77.2776 88.5176 77.2776C89.94 77.2776 91.3264 77.7256 92.4812 78.5584C93.636 79.3911 94.5007 80.5666 94.9534 81.9187C95.4062 83.2709 95.4239 84.7315 95.0042 86.0944C94.5845 87.4572 93.7485 88.6535 92.6143 89.5142Z" fill="white"/>
<path d="M196.145 85.9059H121.233V93.8876H196.145V85.9059Z" fill="white"/>
<path d="M196.145 100.461H179.992V108.442H196.145V100.461Z" fill="white"/>
<path d="M128.607 89.7771H127.252L128.458 88.5704C128.479 88.5481 128.491 88.5182 128.491 88.4871C128.491 88.456 128.479 88.4261 128.458 88.4038C128.447 88.3928 128.434 88.384 128.419 88.3781C128.405 88.3721 128.39 88.369 128.374 88.369C128.359 88.369 128.344 88.3721 128.329 88.3781C128.315 88.384 128.302 88.3928 128.291 88.4038L127.086 89.6127V88.2512C127.086 88.22 127.073 88.1902 127.051 88.1682C127.029 88.1462 127 88.1338 126.969 88.1338C126.938 88.1344 126.908 88.1469 126.887 88.1688C126.865 88.1907 126.852 88.2202 126.852 88.2512V89.6127L125.648 88.3967C125.637 88.3857 125.624 88.377 125.61 88.371C125.596 88.3651 125.581 88.362 125.565 88.362C125.55 88.362 125.534 88.3651 125.52 88.371C125.506 88.377 125.493 88.3857 125.482 88.3967C125.461 88.4191 125.448 88.4489 125.448 88.4801C125.448 88.5112 125.461 88.5411 125.482 88.5634L126.688 89.77H125.33C125.299 89.7706 125.27 89.7832 125.248 89.8051C125.226 89.827 125.213 89.8565 125.213 89.8874C125.213 89.9185 125.225 89.9484 125.247 89.9704C125.269 89.9924 125.299 90.0048 125.33 90.0048H126.688L125.482 91.2138C125.461 91.2361 125.448 91.266 125.448 91.2971C125.448 91.3282 125.461 91.3581 125.482 91.3805C125.505 91.4016 125.534 91.4133 125.565 91.4133C125.596 91.4133 125.626 91.4016 125.648 91.3805L126.852 90.1715V91.5307C126.852 91.5618 126.864 91.5917 126.886 91.6137C126.908 91.6357 126.938 91.6481 126.969 91.6481C127 91.6481 127.029 91.6357 127.051 91.6137C127.073 91.5917 127.086 91.5618 127.086 91.5307V90.1715L128.291 91.3805C128.314 91.4016 128.344 91.4133 128.374 91.4133C128.405 91.4133 128.435 91.4016 128.458 91.3805C128.479 91.3581 128.491 91.3282 128.491 91.2971C128.491 91.266 128.479 91.2361 128.458 91.2138L127.252 90.0048H128.607C128.638 90.0048 128.668 89.9924 128.69 89.9704C128.712 89.9484 128.724 89.9185 128.724 89.8874C128.723 89.8575 128.709 89.8294 128.688 89.8089C128.666 89.7884 128.637 89.777 128.607 89.7771Z" fill="white"/>
<path d="M133.523 89.7771H132.168L133.374 88.5704C133.395 88.5481 133.407 88.5182 133.407 88.4871C133.407 88.456 133.395 88.4261 133.374 88.4038C133.363 88.3928 133.35 88.384 133.335 88.3781C133.321 88.3721 133.306 88.369 133.29 88.369C133.275 88.369 133.26 88.3721 133.245 88.3781C133.231 88.384 133.218 88.3928 133.207 88.4038L132.002 89.6127V88.2512C132.002 88.22 131.989 88.1902 131.967 88.1682C131.945 88.1462 131.916 88.1338 131.885 88.1338C131.854 88.1344 131.824 88.1469 131.803 88.1688C131.781 88.1907 131.768 88.2202 131.768 88.2512V89.6127L130.564 88.3967C130.553 88.3857 130.54 88.377 130.526 88.371C130.512 88.3651 130.497 88.362 130.481 88.362C130.466 88.362 130.45 88.3651 130.436 88.371C130.422 88.377 130.409 88.3857 130.398 88.3967C130.377 88.4191 130.364 88.4489 130.364 88.4801C130.364 88.5112 130.377 88.5411 130.398 88.5634L131.604 89.77H130.246C130.215 89.7706 130.186 89.7832 130.164 89.8051C130.142 89.827 130.13 89.8565 130.129 89.8874C130.129 89.9185 130.141 89.9484 130.163 89.9704C130.185 89.9924 130.215 90.0048 130.246 90.0048H131.604L130.398 91.2138C130.377 91.2361 130.364 91.266 130.364 91.2971C130.364 91.3282 130.377 91.3581 130.398 91.3805C130.421 91.4016 130.45 91.4133 130.481 91.4133C130.512 91.4133 130.542 91.4016 130.564 91.3805L131.768 90.1715V91.5307C131.768 91.5618 131.78 91.5917 131.802 91.6137C131.824 91.6357 131.854 91.6481 131.885 91.6481C131.916 91.6481 131.945 91.6357 131.967 91.6137C131.989 91.5917 132.002 91.5618 132.002 91.5307V90.1715L133.207 91.3805C133.23 91.4016 133.26 91.4133 133.29 91.4133C133.321 91.4133 133.351 91.4016 133.374 91.3805C133.395 91.3581 133.407 91.3282 133.407 91.2971C133.407 91.266 133.395 91.2361 133.374 91.2138L132.168 90.0048H133.523C133.554 90.0048 133.584 89.9924 133.606 89.9704C133.628 89.9484 133.64 89.9185 133.64 89.8874C133.639 89.8575 133.625 89.8294 133.604 89.8089C133.582 89.7884 133.553 89.777 133.523 89.7771Z" fill="white"/>
<path d="M138.439 89.7771H137.084L138.29 88.5704C138.311 88.5481 138.323 88.5182 138.323 88.4871C138.323 88.456 138.311 88.4261 138.29 88.4038C138.279 88.3928 138.266 88.384 138.251 88.3781C138.237 88.3721 138.222 88.369 138.206 88.369C138.191 88.369 138.176 88.3721 138.161 88.3781C138.147 88.384 138.134 88.3928 138.123 88.4038L136.918 89.6127V88.2512C136.918 88.22 136.905 88.1902 136.883 88.1682C136.861 88.1462 136.832 88.1338 136.801 88.1338C136.77 88.1344 136.74 88.1469 136.719 88.1688C136.697 88.1907 136.684 88.2202 136.684 88.2512V89.6127L135.48 88.3967C135.469 88.3857 135.457 88.377 135.442 88.371C135.428 88.3651 135.413 88.362 135.397 88.362C135.382 88.362 135.366 88.3651 135.352 88.371C135.338 88.377 135.325 88.3857 135.314 88.3967C135.293 88.4191 135.28 88.4489 135.28 88.4801C135.28 88.5112 135.293 88.5411 135.314 88.5634L136.52 89.77H135.162C135.131 89.7706 135.102 89.7832 135.08 89.8051C135.058 89.827 135.046 89.8565 135.045 89.8874C135.045 89.9185 135.057 89.9484 135.079 89.9704C135.101 89.9924 135.131 90.0048 135.162 90.0048H136.52L135.314 91.2138C135.293 91.2361 135.28 91.266 135.28 91.2971C135.28 91.3282 135.293 91.3581 135.314 91.3805C135.337 91.4016 135.366 91.4133 135.397 91.4133C135.428 91.4133 135.458 91.4016 135.48 91.3805L136.684 90.1715V91.5307C136.684 91.5618 136.696 91.5917 136.718 91.6137C136.74 91.6357 136.77 91.6481 136.801 91.6481C136.832 91.6481 136.861 91.6357 136.883 91.6137C136.905 91.5917 136.918 91.5618 136.918 91.5307V90.1715L138.123 91.3805C138.146 91.4016 138.176 91.4133 138.206 91.4133C138.237 91.4133 138.267 91.4016 138.29 91.3805C138.311 91.3581 138.323 91.3282 138.323 91.2971C138.323 91.266 138.311 91.2361 138.29 91.2138L137.084 90.0048H138.439C138.47 90.0048 138.5 89.9924 138.522 89.9704C138.544 89.9484 138.556 89.9185 138.556 89.8874C138.555 89.8575 138.542 89.8294 138.52 89.8089C138.498 89.7884 138.469 89.777 138.439 89.7771Z" fill="white"/>
<path d="M143.356 89.7771H142L143.206 88.5704C143.227 88.5481 143.239 88.5182 143.239 88.4871C143.239 88.456 143.227 88.4261 143.206 88.4038C143.195 88.3928 143.182 88.384 143.168 88.3781C143.153 88.3721 143.138 88.369 143.123 88.369C143.107 88.369 143.092 88.3721 143.078 88.3781C143.063 88.384 143.05 88.3928 143.04 88.4038L141.834 89.6127V88.2512C141.834 88.22 141.822 88.1902 141.8 88.1682C141.778 88.1462 141.748 88.1338 141.717 88.1338C141.686 88.1344 141.657 88.1469 141.635 88.1688C141.613 88.1907 141.6 88.2202 141.6 88.2512V89.6127L140.397 88.3967C140.386 88.3857 140.373 88.377 140.359 88.371C140.344 88.3651 140.329 88.362 140.313 88.362C140.298 88.362 140.283 88.3651 140.268 88.371C140.254 88.377 140.241 88.3857 140.23 88.3967C140.209 88.4191 140.197 88.4489 140.197 88.4801C140.197 88.5112 140.209 88.5411 140.23 88.5634L141.436 89.77H140.078C140.047 89.7706 140.018 89.7832 139.996 89.8051C139.974 89.827 139.962 89.8565 139.961 89.8874C139.961 89.9185 139.974 89.9484 139.995 89.9704C140.017 89.9924 140.047 90.0048 140.078 90.0048H141.436L140.23 91.2138C140.209 91.2361 140.197 91.266 140.197 91.2971C140.197 91.3282 140.209 91.3581 140.23 91.3805C140.253 91.4016 140.283 91.4133 140.313 91.4133C140.344 91.4133 140.374 91.4016 140.397 91.3805L141.6 90.1715V91.5307C141.6 91.5618 141.612 91.5917 141.634 91.6137C141.656 91.6357 141.686 91.6481 141.717 91.6481C141.748 91.6481 141.778 91.6357 141.8 91.6137C141.822 91.5917 141.834 91.5618 141.834 91.5307V90.1715L143.04 91.3805C143.062 91.4016 143.092 91.4133 143.123 91.4133C143.154 91.4133 143.183 91.4016 143.206 91.3805C143.227 91.3581 143.239 91.3282 143.239 91.2971C143.239 91.266 143.227 91.2361 143.206 91.2138L142 90.0048H143.356C143.387 90.0048 143.416 89.9924 143.438 89.9704C143.46 89.9484 143.473 89.9185 143.473 89.8874C143.471 89.8575 143.458 89.8294 143.436 89.8089C143.414 89.7884 143.386 89.777 143.356 89.7771Z" fill="white"/>
<path d="M148.272 89.7771H146.916L148.122 88.5704C148.143 88.5481 148.156 88.5182 148.156 88.4871C148.156 88.456 148.143 88.4261 148.122 88.4038C148.111 88.3928 148.098 88.384 148.084 88.3781C148.069 88.3721 148.054 88.369 148.039 88.369C148.023 88.369 148.008 88.3721 147.994 88.3781C147.979 88.384 147.967 88.3928 147.956 88.4038L146.75 89.6127V88.2512C146.75 88.22 146.738 88.1902 146.716 88.1682C146.694 88.1462 146.664 88.1338 146.633 88.1338C146.602 88.1344 146.573 88.1469 146.551 88.1688C146.529 88.1907 146.517 88.2202 146.516 88.2512V89.6127L145.313 88.3967C145.302 88.3857 145.289 88.377 145.275 88.371C145.26 88.3651 145.245 88.362 145.23 88.362C145.214 88.362 145.199 88.3651 145.184 88.371C145.17 88.377 145.157 88.3857 145.146 88.3967C145.125 88.4191 145.113 88.4489 145.113 88.4801C145.113 88.5112 145.125 88.5411 145.146 88.5634L146.352 89.77H144.994C144.963 89.7706 144.934 89.7832 144.912 89.8051C144.89 89.827 144.878 89.8565 144.877 89.8874C144.877 89.9185 144.89 89.9484 144.911 89.9704C144.933 89.9924 144.963 90.0048 144.994 90.0048H146.352L145.146 91.2138C145.125 91.2361 145.113 91.266 145.113 91.2971C145.113 91.3282 145.125 91.3581 145.146 91.3805C145.169 91.4016 145.199 91.4133 145.23 91.4133C145.26 91.4133 145.29 91.4016 145.313 91.3805L146.516 90.1715V91.5307C146.516 91.5618 146.528 91.5917 146.55 91.6137C146.572 91.6357 146.602 91.6481 146.633 91.6481C146.664 91.6481 146.694 91.6357 146.716 91.6137C146.738 91.5917 146.75 91.5618 146.75 91.5307V90.1715L147.956 91.3805C147.978 91.4016 148.008 91.4133 148.039 91.4133C148.07 91.4133 148.099 91.4016 148.122 91.3805C148.143 91.3581 148.156 91.3282 148.156 91.2971C148.156 91.266 148.143 91.2361 148.122 91.2138L146.916 90.0048H148.272C148.303 90.0048 148.332 89.9924 148.354 89.9704C148.376 89.9484 148.389 89.9185 148.389 89.8874C148.387 89.8575 148.374 89.8294 148.352 89.8089C148.33 89.7884 148.302 89.777 148.272 89.7771Z" fill="white"/>
<path d="M153.188 89.7771H151.832L153.038 88.5704C153.06 88.5481 153.072 88.5182 153.072 88.4871C153.072 88.456 153.06 88.4261 153.038 88.4038C153.027 88.3928 153.014 88.384 153 88.3781C152.986 88.3721 152.97 88.369 152.955 88.369C152.94 88.369 152.924 88.3721 152.91 88.3781C152.896 88.384 152.883 88.3928 152.872 88.4038L151.666 89.6127V88.2512C151.666 88.22 151.654 88.1902 151.632 88.1682C151.61 88.1462 151.58 88.1338 151.549 88.1338C151.518 88.1344 151.489 88.1469 151.467 88.1688C151.445 88.1907 151.433 88.2202 151.432 88.2512V89.6127L150.229 88.3967C150.218 88.3857 150.205 88.377 150.191 88.371C150.177 88.3651 150.161 88.362 150.146 88.362C150.13 88.362 150.115 88.3651 150.101 88.371C150.086 88.377 150.074 88.3857 150.063 88.3967C150.041 88.4191 150.029 88.4489 150.029 88.4801C150.029 88.5112 150.041 88.5411 150.063 88.5634L151.268 89.77H149.911C149.88 89.7706 149.85 89.7832 149.828 89.8051C149.807 89.827 149.794 89.8565 149.793 89.8874C149.793 89.9185 149.806 89.9484 149.828 89.9704C149.85 89.9924 149.879 90.0048 149.911 90.0048H151.268L150.063 91.2138C150.041 91.2361 150.029 91.266 150.029 91.2971C150.029 91.3282 150.041 91.3581 150.063 91.3805C150.085 91.4016 150.115 91.4133 150.146 91.4133C150.177 91.4133 150.206 91.4016 150.229 91.3805L151.432 90.1715V91.5307C151.432 91.5618 151.444 91.5917 151.466 91.6137C151.488 91.6357 151.518 91.6481 151.549 91.6481C151.58 91.6481 151.61 91.6357 151.632 91.6137C151.654 91.5917 151.666 91.5618 151.666 91.5307V90.1715L152.872 91.3805C152.894 91.4016 152.924 91.4133 152.955 91.4133C152.986 91.4133 153.016 91.4016 153.038 91.3805C153.06 91.3581 153.072 91.3282 153.072 91.2971C153.072 91.266 153.06 91.2361 153.038 91.2138L151.832 90.0048H153.188C153.219 90.0048 153.249 89.9924 153.271 89.9704C153.293 89.9484 153.305 89.9185 153.305 89.8874C153.303 89.8575 153.29 89.8294 153.268 89.8089C153.247 89.7884 153.218 89.777 153.188 89.7771Z" fill="white"/>
<path d="M158.104 89.7771H156.748L157.954 88.5704C157.976 88.5481 157.988 88.5182 157.988 88.4871C157.988 88.456 157.976 88.4261 157.954 88.4038C157.943 88.3928 157.93 88.384 157.916 88.3781C157.902 88.3721 157.886 88.369 157.871 88.369C157.855 88.369 157.84 88.3721 157.826 88.3781C157.812 88.384 157.799 88.3928 157.788 88.4038L156.582 89.6127V88.2512C156.582 88.22 156.57 88.1902 156.548 88.1682C156.526 88.1462 156.496 88.1338 156.465 88.1338C156.434 88.1344 156.405 88.1469 156.383 88.1688C156.361 88.1907 156.349 88.2202 156.348 88.2512V89.6127L155.145 88.3967C155.134 88.3857 155.121 88.377 155.107 88.371C155.093 88.3651 155.077 88.362 155.062 88.362C155.046 88.362 155.031 88.3651 155.017 88.371C155.003 88.377 154.99 88.3857 154.979 88.3967C154.957 88.4191 154.945 88.4489 154.945 88.4801C154.945 88.5112 154.957 88.5411 154.979 88.5634L156.184 89.77H154.827C154.796 89.7706 154.766 89.7832 154.744 89.8051C154.723 89.827 154.71 89.8565 154.709 89.8874C154.709 89.9185 154.722 89.9484 154.744 89.9704C154.766 89.9924 154.795 90.0048 154.827 90.0048H156.184L154.979 91.2138C154.957 91.2361 154.945 91.266 154.945 91.2971C154.945 91.3282 154.957 91.3581 154.979 91.3805C155.001 91.4016 155.031 91.4133 155.062 91.4133C155.093 91.4133 155.122 91.4016 155.145 91.3805L156.348 90.1715V91.5307C156.348 91.5618 156.36 91.5917 156.382 91.6137C156.404 91.6357 156.434 91.6481 156.465 91.6481C156.496 91.6481 156.526 91.6357 156.548 91.6137C156.57 91.5917 156.582 91.5618 156.582 91.5307V90.1715L157.788 91.3805C157.81 91.4016 157.84 91.4133 157.871 91.4133C157.902 91.4133 157.932 91.4016 157.954 91.3805C157.976 91.3581 157.988 91.3282 157.988 91.2971C157.988 91.266 157.976 91.2361 157.954 91.2138L156.748 90.0048H158.104C158.135 90.0048 158.165 89.9924 158.187 89.9704C158.209 89.9484 158.221 89.9185 158.221 89.8874C158.219 89.8575 158.206 89.8294 158.184 89.8089C158.162 89.7884 158.134 89.777 158.104 89.7771Z" fill="white"/>
<path d="M163.02 89.7771H161.664L162.87 88.5704C162.892 88.5481 162.904 88.5182 162.904 88.4871C162.904 88.456 162.892 88.4261 162.87 88.4038C162.859 88.3928 162.846 88.384 162.832 88.3781C162.818 88.3721 162.802 88.369 162.787 88.369C162.772 88.369 162.756 88.3721 162.742 88.3781C162.728 88.384 162.715 88.3928 162.704 88.4038L161.498 89.6127V88.2512C161.498 88.22 161.486 88.1902 161.464 88.1682C161.442 88.1462 161.412 88.1338 161.381 88.1338C161.35 88.1344 161.321 88.1469 161.299 88.1688C161.277 88.1907 161.265 88.2202 161.264 88.2512V89.6127L160.061 88.3967C160.05 88.3857 160.037 88.377 160.023 88.371C160.009 88.3651 159.993 88.362 159.978 88.362C159.962 88.362 159.947 88.3651 159.933 88.371C159.919 88.377 159.906 88.3857 159.895 88.3967C159.873 88.4191 159.861 88.4489 159.861 88.4801C159.861 88.5112 159.873 88.5411 159.895 88.5634L161.1 89.77H159.743C159.712 89.7706 159.682 89.7832 159.66 89.8051C159.639 89.827 159.626 89.8565 159.625 89.8874C159.625 89.9185 159.638 89.9484 159.66 89.9704C159.682 89.9924 159.711 90.0048 159.743 90.0048H161.1L159.895 91.2138C159.873 91.2361 159.861 91.266 159.861 91.2971C159.861 91.3282 159.873 91.3581 159.895 91.3805C159.917 91.4016 159.947 91.4133 159.978 91.4133C160.009 91.4133 160.038 91.4016 160.061 91.3805L161.264 90.1715V91.5307C161.264 91.5618 161.277 91.5917 161.298 91.6137C161.32 91.6357 161.35 91.6481 161.381 91.6481C161.412 91.6481 161.442 91.6357 161.464 91.6137C161.486 91.5917 161.498 91.5618 161.498 91.5307V90.1715L162.704 91.3805C162.726 91.4016 162.756 91.4133 162.787 91.4133C162.818 91.4133 162.848 91.4016 162.87 91.3805C162.892 91.3581 162.904 91.3282 162.904 91.2971C162.904 91.266 162.892 91.2361 162.87 91.2138L161.664 90.0048H163.02C163.051 90.0048 163.081 89.9924 163.103 89.9704C163.125 89.9484 163.137 89.9185 163.137 89.8874C163.135 89.8575 163.122 89.8294 163.1 89.8089C163.079 89.7884 163.05 89.777 163.02 89.7771Z" fill="white"/>
<path d="M167.936 89.7771H166.58L167.786 88.5704C167.808 88.5481 167.82 88.5182 167.82 88.4871C167.82 88.456 167.808 88.4261 167.786 88.4038C167.775 88.3928 167.762 88.384 167.748 88.3781C167.734 88.3721 167.718 88.369 167.703 88.369C167.688 88.369 167.672 88.3721 167.658 88.3781C167.644 88.384 167.631 88.3928 167.62 88.4038L166.414 89.6127V88.2512C166.414 88.22 166.402 88.1902 166.38 88.1682C166.358 88.1462 166.328 88.1338 166.297 88.1338C166.266 88.1344 166.237 88.1469 166.215 88.1688C166.193 88.1907 166.181 88.2202 166.18 88.2512V89.6127L164.977 88.3967C164.966 88.3857 164.953 88.377 164.939 88.371C164.925 88.3651 164.909 88.362 164.894 88.362C164.878 88.362 164.863 88.3651 164.849 88.371C164.835 88.377 164.822 88.3857 164.811 88.3967C164.789 88.4191 164.777 88.4489 164.777 88.4801C164.777 88.5112 164.789 88.5411 164.811 88.5634L166.016 89.77H164.659C164.628 89.7706 164.598 89.7832 164.576 89.8051C164.555 89.827 164.542 89.8565 164.542 89.8874C164.542 89.9185 164.554 89.9484 164.576 89.9704C164.598 89.9924 164.628 90.0048 164.659 90.0048H166.016L164.811 91.2138C164.789 91.2361 164.777 91.266 164.777 91.2971C164.777 91.3282 164.789 91.3581 164.811 91.3805C164.833 91.4016 164.863 91.4133 164.894 91.4133C164.925 91.4133 164.954 91.4016 164.977 91.3805L166.18 90.1715V91.5307C166.18 91.5618 166.193 91.5917 166.214 91.6137C166.236 91.6357 166.266 91.6481 166.297 91.6481C166.328 91.6481 166.358 91.6357 166.38 91.6137C166.402 91.5917 166.414 91.5618 166.414 91.5307V90.1715L167.62 91.3805C167.642 91.4016 167.672 91.4133 167.703 91.4133C167.734 91.4133 167.764 91.4016 167.786 91.3805C167.808 91.3581 167.82 91.3282 167.82 91.2971C167.82 91.266 167.808 91.2361 167.786 91.2138L166.58 90.0048H167.936C167.967 90.0048 167.997 89.9924 168.019 89.9704C168.041 89.9484 168.053 89.9185 168.053 89.8874C168.051 89.8575 168.038 89.8294 168.016 89.8089C167.995 89.7884 167.966 89.777 167.936 89.7771Z" fill="white"/>
<path d="M172.852 89.7771H171.497L172.702 88.5704C172.724 88.5481 172.736 88.5182 172.736 88.4871C172.736 88.456 172.724 88.4261 172.702 88.4038C172.692 88.3928 172.679 88.384 172.664 88.3781C172.65 88.3721 172.635 88.369 172.619 88.369C172.604 88.369 172.589 88.3721 172.574 88.3781C172.56 88.384 172.547 88.3928 172.536 88.4038L171.331 89.6127V88.2512C171.331 88.22 171.318 88.1902 171.296 88.1682C171.274 88.1462 171.245 88.1338 171.214 88.1338C171.183 88.1344 171.153 88.1469 171.131 88.1688C171.11 88.1907 171.097 88.2202 171.096 88.2512V89.6127L169.893 88.3967C169.882 88.3857 169.869 88.377 169.855 88.371C169.841 88.3651 169.826 88.362 169.81 88.362C169.795 88.362 169.779 88.3651 169.765 88.371C169.751 88.377 169.738 88.3857 169.727 88.3967C169.705 88.4191 169.693 88.4489 169.693 88.4801C169.693 88.5112 169.705 88.5411 169.727 88.5634L170.933 89.77H169.575C169.544 89.7706 169.515 89.7832 169.493 89.8051C169.471 89.827 169.458 89.8565 169.458 89.8874C169.458 89.9185 169.47 89.9484 169.492 89.9704C169.514 89.9924 169.544 90.0048 169.575 90.0048H170.933L169.727 91.2138C169.705 91.2361 169.693 91.266 169.693 91.2971C169.693 91.3282 169.705 91.3581 169.727 91.3805C169.75 91.4016 169.779 91.4133 169.81 91.4133C169.841 91.4133 169.871 91.4016 169.893 91.3805L171.096 90.1715V91.5307C171.096 91.5618 171.109 91.5917 171.131 91.6137C171.153 91.6357 171.182 91.6481 171.214 91.6481C171.245 91.6481 171.274 91.6357 171.296 91.6137C171.318 91.5917 171.331 91.5618 171.331 91.5307V90.1715L172.536 91.3805C172.559 91.4016 172.588 91.4133 172.619 91.4133C172.65 91.4133 172.68 91.4016 172.702 91.3805C172.724 91.3581 172.736 91.3282 172.736 91.2971C172.736 91.266 172.724 91.2361 172.702 91.2138L171.497 90.0048H172.852C172.883 90.0048 172.913 89.9924 172.935 89.9704C172.957 89.9484 172.969 89.9185 172.969 89.8874C172.967 89.8575 172.954 89.8294 172.933 89.8089C172.911 89.7884 172.882 89.777 172.852 89.7771Z" fill="white"/>
<path d="M177.768 89.7771H176.413L177.618 88.5704C177.64 88.5481 177.652 88.5182 177.652 88.4871C177.652 88.456 177.64 88.4261 177.618 88.4038C177.607 88.3928 177.595 88.384 177.58 88.3781C177.566 88.3721 177.551 88.369 177.535 88.369C177.52 88.369 177.505 88.3721 177.49 88.3781C177.476 88.384 177.463 88.3928 177.452 88.4038L176.247 89.6127V88.2512C176.247 88.22 176.234 88.1902 176.212 88.1682C176.19 88.1462 176.161 88.1338 176.13 88.1338C176.099 88.1344 176.069 88.1469 176.047 88.1688C176.026 88.1907 176.013 88.2202 176.012 88.2512V89.6127L174.809 88.3967C174.798 88.3857 174.785 88.377 174.771 88.371C174.757 88.3651 174.742 88.362 174.726 88.362C174.711 88.362 174.695 88.3651 174.681 88.371C174.667 88.377 174.654 88.3857 174.643 88.3967C174.621 88.4191 174.609 88.4489 174.609 88.4801C174.609 88.5112 174.621 88.5411 174.643 88.5634L175.849 89.77H174.491C174.46 89.7706 174.431 89.7832 174.409 89.8051C174.387 89.827 174.374 89.8565 174.374 89.8874C174.374 89.9185 174.386 89.9484 174.408 89.9704C174.43 89.9924 174.46 90.0048 174.491 90.0048H175.849L174.643 91.2138C174.621 91.2361 174.609 91.266 174.609 91.2971C174.609 91.3282 174.621 91.3581 174.643 91.3805C174.666 91.4016 174.695 91.4133 174.726 91.4133C174.757 91.4133 174.787 91.4016 174.809 91.3805L176.012 90.1715V91.5307C176.012 91.5618 176.025 91.5917 176.047 91.6137C176.069 91.6357 176.098 91.6481 176.13 91.6481C176.161 91.6481 176.19 91.6357 176.212 91.6137C176.234 91.5917 176.247 91.5618 176.247 91.5307V90.1715L177.452 91.3805C177.475 91.4016 177.504 91.4133 177.535 91.4133C177.566 91.4133 177.596 91.4016 177.618 91.3805C177.64 91.3581 177.652 91.3282 177.652 91.2971C177.652 91.266 177.64 91.2361 177.618 91.2138L176.413 90.0048H177.768C177.799 90.0048 177.829 89.9924 177.851 89.9704C177.873 89.9484 177.885 89.9185 177.885 89.8874C177.883 89.8575 177.87 89.8294 177.849 89.8089C177.827 89.7884 177.798 89.777 177.768 89.7771Z" fill="white"/>
<path d="M215.456 118.335C215.449 118.051 215.414 117.769 215.351 117.492C215.14 116.699 214.665 115.739 213.883 115.499C213.076 115.251 212.296 114.921 211.556 114.513C211.415 111.997 211.991 109.421 211.364 106.982C211.13 106.09 210.744 105.236 210.641 104.322C210.512 103.186 210.821 101.975 210.369 100.928C210.013 100.102 209.231 99.5193 208.391 99.2142C207.55 98.909 206.644 98.8268 205.753 98.7446C204.629 98.6531 200.991 98.2211 199.722 99.2282C199.635 99.2964 199.556 99.3752 199.488 99.463C199.46 99.5017 199.435 99.5425 199.413 99.5851L199.401 99.6039C199.376 99.6528 199.355 99.7038 199.338 99.7565C199.32 99.814 199.307 99.8729 199.298 99.9325C199.298 99.9513 199.298 99.9701 199.298 99.9889C199.298 100.008 199.298 100.071 199.298 100.113V100.177C199.298 100.219 199.298 100.261 199.298 100.306C199.298 100.35 199.298 100.339 199.298 100.355C199.315 100.566 199.345 100.778 199.345 100.987C199.348 101.091 199.338 101.195 199.317 101.296C199.239 101.573 199.107 101.832 198.929 102.057L198.886 102.118C198.861 102.156 198.835 102.191 198.811 102.228C198.788 102.266 198.769 102.294 198.751 102.327C198.732 102.36 198.713 102.381 198.697 102.412C198.674 102.45 198.654 102.49 198.636 102.531C198.636 102.555 198.61 102.576 198.601 102.599C198.571 102.663 198.548 102.729 198.531 102.797C198.476 103.001 198.471 103.215 198.517 103.421C198.58 103.684 198.688 103.935 198.837 104.16C198.896 104.257 198.959 104.351 199.025 104.445L199.188 104.668C199.158 104.885 199.141 105.105 199.139 105.325C199.139 106.06 199.306 106.785 199.626 107.447C199.947 108.108 200.412 108.688 200.989 109.142C201.081 110.133 201.071 111.132 200.958 112.121C200.937 112.328 200.911 112.537 200.883 112.743C200.855 112.95 200.834 113.086 200.806 113.257C200.463 113.306 200.114 113.28 199.783 113.18C199.63 113.111 199.474 113.051 199.315 112.999C198.634 112.828 197.938 113.508 197.264 113.302C197.264 113.335 197.245 113.365 197.234 113.396C197.093 113.308 196.931 113.26 196.765 113.257C196.365 113.239 196.04 112.947 195.749 112.673L194.858 111.83C194.799 111.778 194.748 111.72 194.703 111.656C194.655 111.565 194.619 111.468 194.595 111.367C194.446 110.882 194.083 110.494 193.732 110.126C193.665 110.042 193.577 109.977 193.476 109.94C193.438 109.934 193.398 109.934 193.359 109.94C193.335 109.907 193.31 109.876 193.282 109.846C193.221 109.777 193.157 109.711 193.088 109.649C192.662 109.255 192.62 108.917 192.25 108.475C191.927 108.054 191.634 107.611 191.374 107.149C191.344 106.902 191.302 106.649 191.25 106.393C191.132 105.807 190.96 105.234 190.737 104.679L190.269 103.639L190.215 103.693C189.876 103.186 189.513 102.909 189.188 102.975C188.642 103.088 188.373 104.149 188.46 105.536L188.647 106.945C188.647 106.98 188.663 107.015 188.673 107.05C188.639 107.217 188.622 107.387 188.621 107.557C188.621 107.755 188.804 107.9 188.9 108.076C189.053 108.315 189.135 108.593 189.134 108.877C189.122 108.978 189.092 109.074 189.087 109.173C189.1 109.393 189.176 109.605 189.307 109.783L190.478 111.755L190.712 112.168L190.726 112.187C190.8 112.331 190.907 112.455 191.039 112.548C191.085 113.042 191.216 113.524 191.426 113.973C191.465 114.063 191.51 114.147 191.557 114.232C191.871 114.75 192.242 115.233 192.662 115.671L193.219 116.297C193.769 116.912 194.319 117.53 194.916 118.098C195.13 118.326 195.388 118.507 195.675 118.631C195.815 118.687 195.968 118.705 196.117 118.683C196.267 118.662 196.408 118.601 196.527 118.506C196.527 118.798 196.527 119.089 196.527 119.38C196.614 119.385 196.697 119.414 196.77 119.462C196.842 119.511 196.9 119.578 196.938 119.657C196.975 119.736 196.991 119.823 196.984 119.91C196.977 119.997 196.947 120.081 196.897 120.152C196.405 121.417 195.909 122.694 195.164 123.828C195.69 124.14 196.177 124.513 196.616 124.939C196.9 125.255 197.154 125.599 197.372 125.965C197.393 126.138 197.409 126.31 197.419 126.481C197.592 129.279 196.513 132.057 195.546 134.723C195.267 135.479 194.963 136.27 194.986 137.057C194.803 137.17 194.628 137.297 194.462 137.435C194.654 137.937 194.579 138.386 194.558 138.923C194.551 139.245 194.485 139.564 194.364 139.862C194.262 140.069 194.149 140.27 194.026 140.466C193.42 141.538 193.287 142.813 193.165 144.039C193.092 144.778 193.378 145.682 193.043 146.344C192.465 147.48 191.952 148.691 191.873 149.954C191.87 150.239 191.834 150.521 191.765 150.797C191.693 151.032 191.564 151.231 191.498 151.462C191.431 151.77 191.415 152.087 191.451 152.401C191.496 153.526 191.329 154.649 190.96 155.713C190.667 156.551 190.344 157.448 190.573 158.309C190.009 158.904 189.66 159.672 189.583 160.49C189.577 160.699 189.552 160.908 189.508 161.112C189.437 161.322 189.343 161.522 189.227 161.711C188.756 162.572 188.536 163.548 188.591 164.528C187.888 165.484 187.537 166.662 187.329 167.833C187.121 169.005 187.029 170.197 186.762 171.355C186.407 172.885 185.763 174.432 185.636 176.001C184.878 176.487 184.55 177.428 184.405 178.318C184.26 179.207 184.236 180.142 183.864 180.963C183.672 181.391 183.396 181.773 183.213 182.21C183.085 182.558 182.991 182.917 182.932 183.283C182.82 183.856 182.722 184.494 182.86 185.043C182.661 185.254 182.43 185.431 182.174 185.567C182.211 185.421 182.242 185.276 182.268 185.128C181.664 185.677 180.568 185.485 180.086 186.144C179.941 186.357 179.885 186.618 179.928 186.872C179.972 187.125 180.112 187.352 180.32 187.504C180.471 187.596 180.634 187.666 180.805 187.713C181.975 188.088 183.178 188.466 184.382 188.267C184.524 188.251 184.662 188.207 184.787 188.138C184.943 188.022 185.072 187.873 185.163 187.701C185.344 187.414 185.524 187.128 185.702 186.842C186.133 186.971 186.572 187.073 187.015 187.149C187.06 187.525 187.092 187.9 187.109 188.276C187.343 188.323 187.657 188.337 187.767 188.119C187.8 188.036 187.814 187.947 187.806 187.858C187.806 187.691 187.83 187.471 187.844 187.245H187.891C188.605 187.274 189.316 187.13 189.963 186.825C189.712 184.745 190.538 182.712 191.255 180.745C192.011 178.674 192.659 176.566 193.312 174.458C193.781 172.975 194.298 171.538 194.757 170.052C195.334 168.174 195.914 166.296 196.496 164.418C196.749 163.591 197.004 162.774 197.295 161.953C197.906 160.29 198.631 158.672 199.465 157.11C199.699 156.666 199.933 156.227 200.125 155.767C200.359 155.206 200.525 154.619 200.712 154.039C201.12 152.849 201.612 151.69 202.183 150.569C202.199 150.539 202.211 150.511 202.227 150.483C202.417 151.26 202.606 152.048 202.733 152.83C202.904 153.789 202.917 154.769 202.772 155.732C202.66 156.387 202.447 157.035 202.473 157.699C202.508 158.617 202.997 159.45 203.238 160.335C203.394 160.998 203.482 161.674 203.5 162.354C203.566 163.411 204.137 164.596 203.735 165.575C202.482 168.676 203.088 172.179 202.374 175.435C202.007 177.106 200.881 178.677 200.97 180.386C201.032 181.599 201.138 182.809 201.288 184.015C201.324 184.396 201.423 184.768 201.581 185.116C201.674 185.299 201.781 185.475 201.902 185.642C201.799 185.682 201.712 185.788 201.637 186.011C201.445 186.598 201.637 187.325 202.157 187.654C202.369 187.767 202.597 187.847 202.833 187.889C203.152 187.979 203.481 188.025 203.812 188.025C203.915 188.019 204.017 188.007 204.119 187.987C204.48 188.14 204.85 188.273 205.226 188.386C205.226 188.483 205.245 188.579 205.256 188.675C205.257 188.725 205.268 188.775 205.289 188.821C205.31 188.866 205.34 188.907 205.378 188.94C205.436 188.968 205.501 188.979 205.565 188.973H206.836C206.836 188.868 206.836 188.76 206.836 188.654C206.982 188.669 207.129 188.654 207.268 188.608C207.407 188.563 207.535 188.489 207.644 188.391C207.757 188.247 207.837 188.081 207.878 187.903C208.225 186.724 208.569 185.545 208.911 184.365C209.32 183.061 209.491 181.693 209.414 180.327C208.962 176.001 209.955 171.66 209.632 167.322C209.437 164.714 209.571 162.092 210.03 159.518C210.135 158.936 210.264 158.345 210.31 157.765C210.413 156.671 210.287 155.565 210.364 154.478C210.39 154.098 210.442 153.72 210.488 153.342C210.809 150.996 210.977 148.632 210.992 146.264C210.985 145.479 210.936 144.696 210.847 143.916C211.091 143.854 211.312 143.724 211.486 143.541C211.694 143.269 211.64 142.886 211.638 142.538C211.638 141.707 211.987 140.923 212.268 140.139C212.628 139.058 212.924 137.956 213.152 136.839C213.394 135.938 213.526 135.012 213.546 134.08C213.546 133.986 213.541 133.892 213.532 133.798C213.62 133.737 213.693 133.657 213.747 133.564C213.808 133.426 213.846 133.279 213.859 133.129C213.944 132.531 214.03 131.93 214.115 131.329C214.177 130.898 214.239 130.469 214.3 130.04L215.044 124.831C215.107 124.378 215.173 123.927 215.236 123.476L215.43 122.129C215.451 121.969 215.475 121.809 215.491 121.659C216.062 120.701 215.517 119.424 215.456 118.335ZM209.245 137.839C208.969 137.181 208.712 136.508 208.777 135.799H208.751C208.813 135.58 208.802 135.348 208.721 135.137C208.648 134.965 208.522 134.82 208.445 134.648C208.362 134.439 208.319 134.216 208.318 133.991C208.26 132.563 208.373 131.134 208.653 129.732C208.683 129.568 208.716 129.401 208.747 129.237C208.845 129.18 208.935 129.11 209.014 129.028C209.137 128.887 209.238 128.729 209.316 128.559C209.58 128.026 209.821 127.484 210.044 126.932C210.116 126.753 210.221 126.547 210.402 126.502C210.364 127.876 210.505 129.277 209.948 130.517C209.842 130.716 209.763 130.93 209.713 131.15C209.662 131.5 209.807 131.855 209.756 132.202C209.73 132.383 209.653 132.55 209.622 132.728C209.599 132.816 209.599 132.908 209.623 132.995C209.647 133.083 209.694 133.162 209.758 133.226C209.789 133.247 209.823 133.265 209.859 133.277C209.845 133.371 209.833 133.467 209.824 133.559C209.805 133.752 209.795 133.932 209.784 134.045C209.73 134.619 209.709 135.196 209.721 135.773C209.721 136.395 209.744 137.017 209.735 137.651C209.743 137.833 209.713 138.015 209.646 138.184C209.599 138.271 209.539 138.35 209.468 138.418C209.4 138.207 209.325 138.022 209.245 137.839Z" fill="url(#paint0_linear)"/>
<path d="M190.766 110.6C191.48 110.453 191.723 108.69 191.309 106.661C190.895 104.633 189.979 103.107 189.265 103.254C188.551 103.401 188.308 105.164 188.722 107.193C189.137 109.221 190.052 110.747 190.766 110.6Z" fill="#FBBEBE"/>
<path d="M201.675 186.055C201.483 186.637 201.675 187.365 202.194 187.682C202.405 187.795 202.632 187.874 202.866 187.917C203.184 188.007 203.512 188.052 203.842 188.051C204.247 188.032 204.636 187.872 205.041 187.816C205.088 187.804 205.137 187.811 205.179 187.835C205.199 187.857 205.215 187.883 205.224 187.911C205.232 187.939 205.235 187.97 205.231 187.999C205.235 188.23 205.252 188.46 205.282 188.689C205.283 188.74 205.294 188.789 205.315 188.835C205.336 188.881 205.366 188.921 205.404 188.954C205.462 188.982 205.527 188.993 205.591 188.987H206.86C206.889 187.87 206.767 186.753 206.497 185.668C206.48 185.585 206.448 185.505 206.404 185.433C206.296 185.315 206.154 185.233 205.999 185.198C205.688 185.069 205.353 185.01 205.018 185.027C204.608 185.081 204.266 185.346 203.917 185.567C203.569 185.788 203.093 185.983 202.67 185.87C202.246 185.757 201.892 185.403 201.675 186.055Z" fill="#3F3D56"/>
<path d="M183.045 185.025C182.688 185.408 182.251 185.706 181.764 185.898L181.549 186.001C181.519 186.013 181.494 186.033 181.476 186.06C181.472 186.078 181.472 186.097 181.476 186.115C181.48 186.134 181.488 186.151 181.5 186.166C181.679 186.443 181.944 186.655 182.254 186.768C182.564 186.881 182.903 186.89 183.218 186.792C183.358 186.757 183.487 186.69 183.595 186.595C183.774 186.383 183.876 186.117 183.885 185.839C183.956 185.553 183.944 185.252 183.85 184.973C183.525 184.238 183.405 184.572 183.045 185.025Z" fill="#FBBEBE"/>
<path d="M187.909 187.917C187.917 188.006 187.903 188.095 187.87 188.177C187.76 188.393 187.453 188.382 187.214 188.335C187.178 187.538 187.082 186.746 186.926 185.964C186.472 185.943 186.144 186.375 185.901 186.762L185.273 187.76C185.183 187.931 185.055 188.081 184.899 188.196C184.773 188.265 184.636 188.309 184.494 188.325C183.295 188.525 182.085 188.147 180.929 187.771C180.758 187.726 180.595 187.656 180.444 187.565C180.238 187.413 180.098 187.187 180.054 186.934C180.011 186.681 180.066 186.421 180.21 186.208C180.694 185.551 181.783 185.738 182.387 185.194C182.324 185.577 182.22 185.952 182.078 186.314C182.886 186.191 183.429 185.45 184.08 184.954C184.243 184.815 184.44 184.721 184.651 184.682C184.809 184.669 184.967 184.685 185.119 184.731C185.869 184.921 186.571 185.267 187.179 185.748C187.425 185.943 187.809 186.217 187.916 186.518C188.031 186.877 187.909 187.534 187.909 187.917Z" fill="#3F3D56"/>
<path d="M204.013 110.461C206.684 110.461 208.85 108.29 208.85 105.611C208.85 102.933 206.684 100.761 204.013 100.761C201.342 100.761 199.177 102.933 199.177 105.611C199.177 108.29 201.342 110.461 204.013 110.461Z" fill="#FBBEBE"/>
<path d="M213.541 134.247C213.521 135.174 213.39 136.096 213.15 136.991C212.921 138.104 212.625 139.201 212.265 140.278C211.986 141.06 211.638 141.844 211.64 142.672C211.64 143.017 211.696 143.4 211.486 143.672C211.298 143.864 211.061 143.999 210.802 144.064C210.672 144.099 210.553 144.163 210.453 144.253C210.353 144.342 210.275 144.454 210.226 144.579C210.006 144.249 209.842 143.886 209.739 143.503C209.319 142.214 208.929 140.917 208.569 139.613C208.536 139.538 208.521 139.456 208.527 139.375C208.533 139.293 208.558 139.214 208.601 139.144C208.661 139.092 208.73 139.053 208.805 139.029C209.045 138.931 209.265 138.789 209.454 138.611C209.542 138.532 209.615 138.437 209.669 138.332C209.737 138.163 209.768 137.982 209.76 137.801C209.76 137.179 209.76 136.559 209.744 135.937C209.734 135.363 209.756 134.788 209.809 134.216C209.809 134.104 209.83 133.923 209.849 133.73C209.884 133.362 209.954 132.935 210.153 132.791C210.451 132.592 211.34 132.859 211.677 132.906C212.258 132.986 212.848 133.08 213.414 133.19C213.497 133.537 213.539 133.891 213.541 134.247Z" fill="#3F3D56"/>
<path d="M194.012 111.041C193.825 111.417 193.376 111.597 193.029 111.835L191.842 112.652C191.763 112.723 191.67 112.778 191.569 112.813C191.468 112.847 191.361 112.861 191.255 112.853C191.158 112.818 191.07 112.763 190.994 112.692C190.919 112.622 190.859 112.537 190.817 112.443C190.818 112.436 190.818 112.43 190.817 112.424L190.571 112.011L189.401 110.043C189.27 109.867 189.195 109.657 189.183 109.438C189.183 109.337 189.218 109.243 189.227 109.142C189.23 108.858 189.149 108.58 188.993 108.344C188.9 108.168 188.712 108.022 188.717 107.825C188.708 107.566 188.753 107.308 188.848 107.067C188.971 106.844 189.147 106.655 189.361 106.517C189.471 106.438 189.583 106.362 189.7 106.283C189.762 106.24 189.831 106.208 189.904 106.189C190.098 106.149 190.29 106.311 190.487 106.318C191.332 106.886 191.657 107.961 192.322 108.736C192.697 109.177 192.734 109.515 193.158 109.91C193.226 109.971 193.291 110.036 193.354 110.104C193.438 110.196 193.509 110.299 193.565 110.41C193.642 110.612 194.108 110.849 194.012 111.041Z" fill="#3F3D56"/>
<path d="M202.314 110.464C202.662 111.203 202.934 112.016 202.833 112.828C202.813 113.048 202.743 113.26 202.63 113.45C202.292 113.969 201.585 114.063 200.97 114.093C200.84 114.082 200.709 114.097 200.586 114.138C200.462 114.178 200.347 114.243 200.249 114.328C200.167 114.448 200.126 114.592 200.134 114.737C200.142 114.882 200.198 115.021 200.293 115.131C200.491 115.342 200.737 115.504 201.01 115.6C201.983 116.03 203.035 116.384 204.093 116.286C204.584 116.239 205.062 116.096 205.551 116.023C206.084 115.965 206.621 115.935 207.157 115.934C207.794 115.91 208.428 115.847 209.063 115.783L210.743 115.617C210.835 115.618 210.924 115.585 210.994 115.525C211.118 115.38 210.959 115.166 210.804 115.056C209.912 114.394 208.777 113.938 208.269 112.943C208.035 112.473 207.962 111.915 207.789 111.408C207.616 110.9 207.34 110.443 207.232 109.926C207.175 109.473 207.149 109.017 207.155 108.56C207.161 108.099 206.993 107.654 206.686 107.311C206.352 106.999 205.867 106.919 205.413 106.9C204.294 106.851 203.102 107.119 202.309 107.91C202.096 108.123 201.913 108.379 201.693 108.572C201.473 108.764 201.173 108.82 201.319 109.074C201.464 109.328 201.749 109.485 201.904 109.708C202.06 109.949 202.197 110.201 202.314 110.464Z" fill="#FBBEBE"/>
<path d="M211.848 117.293C211.553 119.1 211.073 120.873 210.416 122.582C210.085 123.354 209.804 124.146 209.573 124.953C209.393 125.681 209.428 126.46 209.262 127.19C209.056 128.099 208.85 129.009 208.683 129.925C208.405 131.323 208.293 132.75 208.351 134.174C208.352 134.398 208.394 134.621 208.477 134.829C208.555 134.998 208.679 135.144 208.751 135.317C208.806 135.47 208.828 135.632 208.817 135.794C208.805 135.955 208.761 136.113 208.686 136.256C208.566 136.525 208.403 136.772 208.204 136.989C206.022 137.641 203.688 137.428 201.415 137.566C199.319 137.693 197.201 138.125 195.136 137.766C194.902 136.827 195.293 135.843 195.628 134.928C196.599 132.268 197.674 129.498 197.5 126.711C197.482 126.386 197.446 126.062 197.39 125.742C197.051 123.767 197.421 121.723 198.013 119.809C198.381 118.617 198.364 117.347 198.28 116.105C198.238 115.702 198.233 115.295 198.264 114.891C198.297 114.478 198.45 114.085 198.704 113.757C198.704 113.741 198.725 113.725 198.737 113.708C198.748 113.692 198.84 113.694 198.912 113.708C198.931 113.716 198.95 113.72 198.971 113.72C198.991 113.72 199.011 113.716 199.029 113.708L199.055 113.692C199.065 113.685 199.077 113.681 199.089 113.681C199.101 113.681 199.113 113.685 199.123 113.692C199.177 113.725 199.207 113.837 199.324 113.858C199.497 113.885 199.671 113.901 199.846 113.908C200.056 113.914 200.265 113.944 200.469 113.997H200.497C200.801 114.048 201.114 114.022 201.405 113.919C201.599 113.871 201.786 113.798 201.962 113.703C202.014 113.647 202.337 113.595 202.403 113.555C202.616 113.426 202.569 112.821 202.613 112.572C202.638 112.322 202.697 112.077 202.789 111.844C202.895 111.672 203.043 111.529 203.217 111.427C203.392 111.325 203.589 111.267 203.791 111.26C204.194 111.25 204.597 111.286 204.992 111.368C205.865 111.492 206.759 111.471 207.616 111.673C208.047 111.774 208.517 111.926 208.913 111.729C209.021 111.755 209.037 111.849 209.037 111.964C209.027 112.073 209.005 112.181 208.971 112.285C208.822 112.933 209.33 113.53 209.798 113.999C209.996 114.22 210.229 114.407 210.488 114.551C210.722 114.659 210.957 114.703 211.191 114.821C211.38 114.922 211.541 115.07 211.659 115.25C211.794 115.457 211.885 115.69 211.926 115.934C211.976 116.388 211.95 116.847 211.848 117.293Z" fill="#3F3D56"/>
<path opacity="0.1" d="M211.848 117.293C211.553 119.1 211.073 120.873 210.416 122.582C210.085 123.353 209.804 124.145 209.573 124.953C209.393 125.681 209.428 126.46 209.261 127.19C209.055 128.099 208.849 129.009 208.683 129.925C208.634 129.953 208.583 129.979 208.531 130.002C208.24 130.142 207.931 130.241 207.613 130.298C207.043 130.367 206.465 130.348 205.9 130.242L202.559 129.793C201.225 129.613 199.804 129.394 198.814 128.488C198.263 127.991 197.903 127.333 197.507 126.699C197.489 126.374 197.452 126.051 197.397 125.73C197.058 123.756 197.428 121.711 198.02 119.798C198.388 118.605 198.371 117.335 198.287 116.093C198.245 115.69 198.24 115.284 198.27 114.879C198.304 114.467 198.457 114.073 198.711 113.746C198.779 113.725 198.849 113.71 198.919 113.699C198.966 113.689 199.014 113.683 199.062 113.68H199.13C199.209 113.68 199.287 113.69 199.364 113.708C199.523 113.759 199.68 113.819 199.832 113.889H199.86C200.061 113.955 200.272 113.985 200.483 113.978C200.792 113.978 201.11 113.929 201.419 113.908C201.801 113.848 202.192 113.918 202.529 114.107C202.746 114.282 202.953 114.471 203.147 114.673C203.381 114.857 203.645 115.001 203.926 115.098C205.941 115.869 208.177 115.822 210.158 114.966C210.348 114.858 210.564 114.803 210.783 114.807C210.945 114.838 211.098 114.904 211.233 114.999C211.373 115.081 211.511 115.161 211.654 115.234C211.789 115.441 211.88 115.673 211.921 115.917C211.974 116.376 211.95 116.842 211.848 117.293Z" fill="black"/>
<path d="M213.888 115.739C212.956 115.453 212.06 115.059 211.219 114.565C211.084 114.47 210.931 114.405 210.769 114.372C210.55 114.37 210.334 114.425 210.142 114.532C208.162 115.388 205.927 115.435 203.913 114.664C203.631 114.566 203.368 114.422 203.133 114.239C202.939 114.038 202.732 113.849 202.515 113.673C201.745 113.173 200.68 113.76 199.818 113.438C199.665 113.37 199.509 113.309 199.35 113.257C198.669 113.086 197.976 113.767 197.306 113.56C197.057 114.239 196.873 114.94 196.756 115.654C196.661 116.474 196.61 117.298 196.604 118.124C196.604 118.619 196.581 119.115 196.604 119.61C196.687 119.623 196.765 119.654 196.836 119.7C196.906 119.745 196.966 119.805 197.011 119.875C197.042 119.957 197.055 120.044 197.048 120.132C197.042 120.219 197.016 120.304 196.974 120.38C196.485 121.64 195.988 122.915 195.246 124.044C195.769 124.357 196.255 124.729 196.693 125.152C197.512 126.021 197.915 127.239 198.8 128.042C199.797 128.946 201.218 129.167 202.546 129.345L205.886 129.794C206.452 129.9 207.03 129.92 207.602 129.852C207.919 129.794 208.227 129.694 208.517 129.554C208.707 129.475 208.88 129.36 209.028 129.216C209.151 129.076 209.253 128.917 209.33 128.747C209.594 128.216 209.835 127.674 210.058 127.124C210.135 126.93 210.252 126.702 210.463 126.685C211.704 125.563 212.874 124.413 214.115 123.291C214.613 122.876 215.061 122.404 215.447 121.882C216.062 120.969 215.503 119.676 215.447 118.572C215.44 118.29 215.405 118.009 215.341 117.734C215.14 116.934 214.667 115.976 213.888 115.739Z" fill="white"/>
<path opacity="0.1" d="M194.012 111.041C193.825 111.417 193.376 111.598 193.029 111.835L191.842 112.652C191.763 112.723 191.67 112.778 191.569 112.813C191.468 112.848 191.361 112.861 191.255 112.854C191.158 112.818 191.07 112.763 190.994 112.692C190.919 112.622 190.859 112.537 190.817 112.443C190.817 112.389 190.817 112.33 190.817 112.274C190.808 112.084 190.833 111.894 190.892 111.713C191.008 111.447 191.188 111.215 191.416 111.036C191.857 110.618 192.381 110.298 192.954 110.097C193.044 110.063 193.141 110.053 193.235 110.069C193.272 110.079 193.306 110.094 193.338 110.114C193.422 110.206 193.493 110.308 193.549 110.419C193.643 110.612 194.108 110.849 194.012 111.041Z" fill="black"/>
<path d="M196.808 113.516C196.41 113.497 196.084 113.208 195.794 112.933L194.907 112.107C194.847 112.057 194.795 111.998 194.752 111.933C194.704 111.842 194.668 111.745 194.645 111.645C194.456 111.17 194.162 110.746 193.783 110.405C193.717 110.321 193.629 110.257 193.528 110.222C193.433 110.204 193.335 110.214 193.245 110.25C192.671 110.45 192.147 110.77 191.707 111.189C191.479 111.368 191.299 111.6 191.182 111.865C191.123 112.046 191.098 112.236 191.107 112.426C191.113 113.047 191.252 113.658 191.515 114.22C191.554 114.307 191.599 114.394 191.646 114.478C191.958 114.996 192.327 115.477 192.746 115.912L193.303 116.537C193.851 117.152 194.399 117.767 194.993 118.333C195.207 118.561 195.465 118.741 195.752 118.863C195.896 118.922 196.053 118.94 196.207 118.915C196.361 118.891 196.504 118.824 196.623 118.722C196.735 118.592 196.819 118.441 196.871 118.276C197.231 117.337 197.573 116.361 197.594 115.349C197.599 114.944 197.582 114.539 197.543 114.135C197.508 113.708 197.206 113.541 196.808 113.516Z" fill="white"/>
<path d="M210.994 146.381C210.98 148.743 210.813 151.101 210.493 153.44C210.446 153.818 210.395 154.196 210.369 154.574C210.292 155.671 210.418 156.772 210.315 157.861C210.261 158.45 210.14 159.035 210.037 159.61C209.579 162.177 209.445 164.792 209.639 167.392C209.962 171.719 208.971 176.048 209.421 180.362C209.475 181.201 209.429 182.044 209.283 182.872C209.199 183.386 209.078 183.893 208.92 184.388C208.578 185.564 208.235 186.738 207.89 187.91C207.849 188.088 207.769 188.255 207.656 188.398C207.536 188.502 207.396 188.578 207.245 188.623C207.094 188.668 206.934 188.68 206.778 188.659C205.427 188.616 204.156 188.032 202.929 187.461C202.788 187.406 202.658 187.326 202.543 187.227C202.288 186.961 202.309 186.543 202.197 186.194C202.084 185.844 201.78 185.515 201.607 185.156C201.464 184.816 201.378 184.456 201.351 184.088C201.195 182.886 201.089 181.679 201.033 180.468C200.944 178.764 202.068 177.195 202.438 175.538C203.14 172.28 202.545 168.787 203.793 165.695C204.186 164.718 203.615 163.535 203.559 162.483C203.539 161.805 203.451 161.13 203.297 160.469C203.063 159.586 202.569 158.755 202.534 157.84C202.508 157.178 202.721 156.532 202.831 155.88C202.977 154.919 202.964 153.941 202.791 152.985C202.667 152.196 202.477 151.407 202.288 150.637L202.246 150.724C201.675 151.842 201.185 152.999 200.778 154.187C200.591 154.762 200.427 155.349 200.193 155.908C200.001 156.377 199.764 156.807 199.533 157.248C198.701 158.805 197.978 160.417 197.367 162.072C197.077 162.885 196.822 163.716 196.569 164.53L194.834 170.165C194.366 171.646 193.853 173.078 193.394 174.557C192.746 176.67 192.098 178.764 191.344 180.83C190.641 182.79 189.806 184.82 190.056 186.891C189.411 187.195 188.702 187.339 187.989 187.311C186.783 187.204 185.599 186.916 184.478 186.457C184.03 186.29 183.567 186.102 183.265 185.734C182.745 185.097 182.874 184.165 183.031 183.355C183.09 182.99 183.184 182.632 183.312 182.285C183.49 181.853 183.78 181.47 183.963 181.043C184.33 180.224 184.353 179.297 184.499 178.407C184.644 177.517 184.967 176.578 185.725 176.094C185.854 174.531 186.495 172.989 186.849 171.46C187.116 170.303 187.205 169.113 187.415 167.939C187.626 166.765 187.966 165.591 188.673 164.641C188.617 163.66 188.838 162.684 189.309 161.824C189.423 161.635 189.517 161.434 189.588 161.225C189.632 161.021 189.657 160.814 189.663 160.605C189.74 159.789 190.088 159.023 190.651 158.429C190.417 157.572 190.742 156.678 191.035 155.847C191.403 154.786 191.57 153.666 191.526 152.544C191.49 152.23 191.505 151.913 191.571 151.605C191.636 151.37 191.765 151.17 191.84 150.945C191.907 150.669 191.942 150.386 191.945 150.102C192.037 148.832 192.549 147.635 193.116 146.501C193.453 145.839 193.167 144.94 193.238 144.203C193.359 142.977 193.493 141.71 194.099 140.642C194.211 140.44 194.333 140.247 194.434 140.038C194.556 139.74 194.622 139.422 194.628 139.099C194.649 138.562 194.724 138.116 194.532 137.616C195.785 136.571 197.494 136.277 199.123 136.207C200.752 136.137 202.4 136.284 203.994 135.937C204.463 135.831 204.931 135.686 205.425 135.615C206.546 135.451 207.684 135.707 208.791 135.961C208.714 136.665 208.971 137.341 209.259 137.996C210.384 140.649 210.973 143.499 210.994 146.381Z" fill="#33313F"/>
<path opacity="0.1" d="M205.481 146.919L202.791 152.985C202.667 152.196 202.477 151.408 202.288 150.638L202.246 150.724V150.598L203.711 147.365L205.481 146.919Z" fill="black"/>
<path opacity="0.1" d="M213.541 134.247C213.386 134.363 213.2 134.433 213.007 134.446C212.711 134.457 212.415 134.416 212.132 134.327L210.025 133.799C209.959 133.782 209.894 133.759 209.833 133.73C209.868 133.362 209.938 132.935 210.137 132.791C210.434 132.592 211.324 132.859 211.661 132.906C212.242 132.986 212.832 133.08 213.398 133.19C213.486 133.536 213.534 133.89 213.541 134.247Z" fill="black"/>
<path d="M215.323 120.279C215.367 120.474 215.43 120.666 215.468 120.863C215.531 121.347 215.514 121.838 215.419 122.317L215.227 123.659L215.035 125.009L214.293 130.204L214.11 131.491L213.852 133.287C213.84 133.436 213.802 133.582 213.74 133.719C213.663 133.846 213.556 133.953 213.428 134.029C213.301 134.104 213.156 134.147 213.007 134.153C212.711 134.162 212.415 134.122 212.132 134.033L210.025 133.503C209.933 133.486 209.845 133.45 209.767 133.397C209.703 133.334 209.657 133.255 209.633 133.168C209.609 133.081 209.608 132.989 209.632 132.902C209.662 132.723 209.739 132.557 209.765 132.378C209.817 132.031 209.671 131.674 209.723 131.329C209.773 131.109 209.852 130.897 209.957 130.697C210.659 129.141 210.252 127.324 210.491 125.634C210.706 124.303 211.266 123.053 212.115 122.009C212.64 121.35 213.242 120.757 213.909 120.244C214.171 120.039 214.588 119.619 214.918 119.539C215.341 119.45 215.252 119.983 215.323 120.279Z" fill="white"/>
<path d="M199.378 100.057C199.223 100.55 199.465 101.092 199.355 101.595C199.235 102.149 198.715 102.534 198.568 103.09C198.334 103.937 199.05 104.71 199.575 105.414C201.518 108.029 201.262 111.649 200.598 114.84C200.063 117.399 199.323 119.911 198.385 122.352C198.093 123.11 197.77 123.88 197.194 124.448C198.271 124.138 199.415 123.826 200.495 124.127C201.862 124.507 203.042 125.838 204.428 125.535C205.261 125.35 205.846 124.608 206.595 124.197C208 123.439 209.692 123.915 211.259 124.159C211.596 124.239 211.949 124.221 212.277 124.108C212.527 123.973 212.74 123.776 212.895 123.537C213.594 122.638 214.012 121.552 214.098 120.415C214.135 119.849 214.052 119.281 213.854 118.75C213.656 118.219 213.347 117.735 212.949 117.333C212.616 117.018 212.218 116.765 211.963 116.394C211.715 115.96 211.582 115.471 211.577 114.971C211.392 112.389 212.019 109.752 211.373 107.255C211.139 106.365 210.758 105.513 210.655 104.602C210.526 103.468 210.832 102.254 210.383 101.217C210.03 100.393 209.25 99.8081 208.41 99.5076C207.569 99.2071 206.67 99.1226 205.778 99.0381C204.495 98.9301 199.914 98.3784 199.378 100.057Z" fill="#33313F"/>
<g opacity="0.1">
<path opacity="0.1" d="M200.598 114.84C200.065 117.389 199.33 119.891 198.397 122.321C198.559 122 198.695 121.662 198.823 121.326C199.762 118.886 200.502 116.374 201.036 113.814C201.703 110.621 201.958 107.006 200.015 104.388C199.547 103.764 198.945 103.088 198.966 102.355C198.793 102.577 198.658 102.826 198.568 103.092C198.334 103.94 199.05 104.712 199.575 105.416C201.518 108.029 201.263 111.649 200.598 114.84Z" fill="black"/>
<path opacity="0.1" d="M199.383 101.358C199.57 101.124 199.71 100.855 199.795 100.566C199.831 100.218 199.821 99.8657 199.766 99.5194C199.586 99.6555 199.451 99.8428 199.378 100.057C199.24 100.473 199.399 100.923 199.383 101.358Z" fill="black"/>
<path opacity="0.1" d="M213.335 122.504C213.18 122.743 212.967 122.938 212.717 123.073C212.39 123.188 212.036 123.206 211.699 123.124C210.133 122.889 208.421 122.406 207.035 123.164C206.284 123.573 205.701 124.314 204.865 124.502C203.482 124.812 202.302 123.481 200.935 123.094C199.966 122.824 198.945 123.047 197.969 123.328C197.775 123.743 197.513 124.123 197.194 124.451C198.271 124.141 199.415 123.828 200.495 124.129C201.862 124.509 203.042 125.84 204.428 125.537C205.261 125.352 205.846 124.61 206.595 124.199C208 123.441 209.692 123.918 211.259 124.162C211.596 124.242 211.949 124.224 212.277 124.11C212.527 123.975 212.74 123.779 212.895 123.54C213.319 122.979 213.647 122.35 213.864 121.68C213.708 121.967 213.531 122.243 213.335 122.504Z" fill="black"/>
</g>
<defs>
<linearGradient id="paint0_linear" x1="179.929" y1="143.771" x2="215.746" y2="143.771" gradientUnits="userSpaceOnUse">
<stop stop-color="#808080" stop-opacity="0.25"/>
<stop offset="0.54" stop-color="#808080" stop-opacity="0.12"/>
<stop offset="1" stop-color="#808080" stop-opacity="0.1"/>
</linearGradient>
</defs>
</svg>
