<svg width="253" height="191" viewBox="0 0 253 191" fill="none" xmlns="http://www.w3.org/2000/svg">
<path d="M118.892 160.34C118.892 160.34 122.112 155.063 126.246 158.183C130.381 161.304 138.037 166.568 138.037 166.568C138.037 166.568 139.605 169.936 135.546 168.671C131.487 167.406 118.238 165.371 118.238 165.371L118.892 160.34Z" fill="#FEB8B8"/>
<path d="M28.9044 126.824C29.9305 118.581 35.0442 110.459 42.9134 107.776C39.81 116.261 39.8107 125.568 42.9153 134.052C44.1245 137.32 45.81 140.828 44.6726 144.121C43.9649 146.17 42.2337 147.738 40.2985 148.718C38.3632 149.699 36.2154 150.166 34.0945 150.624L33.6771 150.969C30.3101 143.374 27.8782 135.067 28.9044 126.824Z" fill="#F0F0F0"/>
<path d="M42.9913 107.932C38.4087 113.062 35.5604 119.504 34.8511 126.342C34.6722 127.812 34.7264 129.3 35.0115 130.753C35.335 132.159 36.0296 133.453 37.023 134.5C37.9296 135.496 38.9723 136.409 39.621 137.606C39.9439 138.225 40.1324 138.904 40.1741 139.6C40.2158 140.296 40.1097 140.993 39.8629 141.645C39.2902 143.286 38.1614 144.624 37.012 145.893C35.7358 147.303 34.3879 148.747 33.8454 150.616C33.7797 150.843 33.4318 150.728 33.4975 150.501C34.4413 147.25 37.601 145.403 39.1079 142.474C39.811 141.107 40.1061 139.521 39.447 138.078C38.8705 136.817 37.7961 135.874 36.8694 134.875C35.8853 133.867 35.1631 132.634 34.766 131.284C34.4077 129.85 34.2963 128.366 34.4364 126.895C34.699 123.579 35.482 120.325 36.7566 117.251C38.1918 113.735 40.2184 110.491 42.7489 107.658C42.9055 107.483 43.147 107.758 42.9913 107.932Z" fill="white"/>
<path d="M34.9495 124.127C33.8171 123.852 32.8193 123.184 32.1343 122.243C31.4493 121.301 31.1216 120.147 31.2099 118.986C31.2286 118.751 31.5947 118.769 31.576 119.004C31.4918 120.085 31.7971 121.16 32.4368 122.036C33.0765 122.911 34.0084 123.53 35.0644 123.779C35.2938 123.834 35.1776 124.181 34.9495 124.127Z" fill="white"/>
<path d="M36.4966 134.056C38.5419 132.836 40.0517 130.891 40.7251 128.609C40.7916 128.382 41.1395 128.497 41.073 128.723C40.3679 131.097 38.7926 133.119 36.6615 134.383C36.4583 134.504 36.2945 134.176 36.4966 134.056Z" fill="white"/>
<path d="M38.5317 114.082C38.9477 114.279 39.4062 114.371 39.8662 114.347C40.3262 114.324 40.7731 114.187 41.167 113.948C41.3685 113.825 41.532 114.153 41.3318 114.275C40.8954 114.537 40.4016 114.688 39.8935 114.715C39.3853 114.741 38.8783 114.644 38.4168 114.43C38.3716 114.413 38.3344 114.38 38.3127 114.337C38.2911 114.294 38.2866 114.245 38.3002 114.198C38.3157 114.152 38.3486 114.114 38.392 114.093C38.4353 114.071 38.4855 114.067 38.5317 114.082Z" fill="white"/>
<path d="M66.9 122.499C66.7763 122.58 66.6526 122.66 66.5288 122.743C64.8715 123.832 63.3055 125.054 61.8462 126.396C61.7318 126.498 61.6173 126.603 61.506 126.708C58.0248 129.978 55.1816 133.866 53.1212 138.174C52.3028 139.889 51.6163 141.663 51.0674 143.482C50.3096 145.994 49.688 148.778 48.1879 150.833C48.0338 151.049 47.8665 151.255 47.6868 151.451H34.1306C34.0998 151.435 34.0688 151.423 34.0378 151.407L33.4966 151.432C33.5183 151.336 33.5429 151.237 33.5647 151.142C33.5771 151.086 33.5925 151.03 33.6049 150.975C33.6141 150.938 33.6234 150.901 33.6296 150.867C33.6327 150.854 33.6358 150.842 33.6388 150.833C33.645 150.799 33.6544 150.768 33.6606 150.737C33.7967 150.184 33.9369 149.631 34.0812 149.078C34.0812 149.075 34.0812 149.075 34.0842 149.072C35.1947 144.86 36.6668 140.704 38.7236 136.904C38.7855 136.79 38.8473 136.672 38.9154 136.558C39.852 134.85 40.9267 133.221 42.1289 131.688C42.7899 130.851 43.4929 130.048 44.2352 129.281C46.157 127.305 48.3781 125.643 50.8169 124.356C55.679 121.792 61.308 120.809 66.5042 122.376C66.6371 122.416 66.7671 122.456 66.9 122.499Z" fill="#F0F0F0"/>
<path d="M66.8695 122.671C60.119 124.011 53.9626 127.441 49.2747 132.475C48.2462 133.54 47.3924 134.761 46.7445 136.093C46.1554 137.41 45.9301 138.861 46.0921 140.295C46.2163 141.634 46.4986 142.991 46.2946 144.337C46.1799 145.025 45.921 145.681 45.5348 146.262C45.1486 146.842 44.6439 147.335 44.0538 147.707C42.6075 148.673 40.9001 149.062 39.2171 149.385C37.3486 149.743 35.402 150.085 33.8425 151.251C33.6535 151.392 33.4451 151.091 33.6338 150.95C36.3471 148.921 39.9831 149.347 42.9514 147.915C44.3364 147.247 45.5283 146.157 45.8714 144.609C46.1714 143.255 45.8815 141.857 45.744 140.501C45.5655 139.105 45.7319 137.686 46.2287 136.369C46.8066 135.009 47.612 133.757 48.6103 132.667C50.8187 130.177 53.4053 128.049 56.2752 126.362C59.54 124.418 63.1136 123.046 66.8414 122.306C67.0721 122.26 67.0988 122.626 66.8695 122.671H66.8695Z" fill="white"/>
<path d="M50.6887 130.765C49.95 129.865 49.5558 128.731 49.5765 127.567C49.5971 126.403 50.0312 125.285 50.8012 124.411C50.9577 124.235 51.2392 124.469 51.0826 124.646C50.364 125.458 49.9597 126.5 49.9427 127.584C49.9257 128.668 50.2971 129.722 50.9899 130.557C51.1403 130.738 50.8381 130.945 50.6887 130.765H50.6887Z" fill="white"/>
<path d="M45.9394 139.624C48.3076 139.88 50.6855 139.235 52.5988 137.817C52.7883 137.676 52.9967 137.978 52.8075 138.118C50.8137 139.589 48.3378 140.256 45.8739 139.984C45.6391 139.958 45.7058 139.598 45.9394 139.624Z" fill="white"/>
<path d="M59.6021 124.899C59.8152 125.307 60.1264 125.656 60.5077 125.914C60.8891 126.172 61.3286 126.331 61.7868 126.378C62.0218 126.401 61.9548 126.761 61.7213 126.738C61.2153 126.684 60.7301 126.508 60.3082 126.223C59.8863 125.939 59.5404 125.556 59.3008 125.108C59.2747 125.067 59.265 125.019 59.2736 124.971C59.2822 124.924 59.3085 124.882 59.3471 124.853C59.3872 124.826 59.4364 124.815 59.4841 124.824C59.5319 124.832 59.5743 124.86 59.6021 124.899Z" fill="white"/>
<path d="M138.236 181.456C138.634 178.261 140.616 175.113 143.665 174.074C142.463 177.362 142.463 180.969 143.666 184.257C144.135 185.523 144.788 186.883 144.347 188.159C144.031 188.948 143.425 189.586 142.652 189.941C141.885 190.289 141.077 190.537 140.247 190.679L140.086 190.813C138.781 187.87 137.838 184.65 138.236 181.456Z" fill="#F0F0F0"/>
<path d="M143.696 174.134C141.92 176.122 140.816 178.619 140.541 181.269C140.472 181.839 140.493 182.416 140.603 182.979C140.729 183.523 140.998 184.025 141.383 184.431C141.766 184.79 142.104 185.194 142.39 185.635C142.515 185.874 142.588 186.137 142.604 186.407C142.62 186.677 142.579 186.947 142.483 187.2C142.229 187.817 141.853 188.377 141.378 188.846C140.884 189.392 140.361 189.952 140.151 190.676C140.126 190.764 139.991 190.72 140.016 190.632C140.382 189.372 141.607 188.656 142.191 187.521C142.341 187.266 142.431 186.98 142.454 186.684C142.477 186.389 142.432 186.092 142.322 185.817C142.057 185.353 141.72 184.934 141.323 184.576C140.942 184.185 140.662 183.708 140.508 183.184C140.369 182.629 140.326 182.053 140.38 181.483C140.482 180.198 140.785 178.937 141.279 177.746C141.836 176.383 142.621 175.126 143.602 174.028C143.662 173.96 143.756 174.067 143.696 174.134H143.696Z" fill="white"/>
<path d="M140.579 180.411C140.14 180.304 139.754 180.045 139.488 179.68C139.223 179.315 139.096 178.868 139.13 178.418C139.137 178.327 139.279 178.334 139.272 178.425C139.239 178.844 139.358 179.261 139.605 179.6C139.853 179.939 140.215 180.179 140.624 180.276C140.713 180.297 140.668 180.432 140.579 180.411H140.579Z" fill="white"/>
<path d="M141.179 184.259C141.971 183.786 142.557 183.032 142.818 182.147C142.843 182.06 142.978 182.104 142.952 182.192C142.679 183.112 142.069 183.895 141.243 184.385C141.164 184.432 141.101 184.305 141.179 184.259Z" fill="white"/>
<path d="M141.967 176.518C142.128 176.594 142.306 176.63 142.484 176.621C142.663 176.612 142.836 176.558 142.989 176.466C143.067 176.418 143.13 176.545 143.052 176.593C142.883 176.694 142.692 176.752 142.495 176.763C142.298 176.773 142.102 176.735 141.923 176.652C141.905 176.646 141.891 176.633 141.882 176.617C141.874 176.6 141.872 176.581 141.878 176.563C141.883 176.545 141.896 176.53 141.913 176.522C141.93 176.513 141.949 176.512 141.967 176.518L141.967 176.518Z" fill="white"/>
<path d="M152.962 179.78C152.914 179.811 152.866 179.842 152.818 179.874C152.176 180.296 151.569 180.77 151.003 181.29C150.959 181.329 150.914 181.37 150.871 181.411C149.522 182.678 148.42 184.185 147.622 185.855C147.305 186.519 147.038 187.207 146.826 187.912C146.532 188.885 146.291 189.964 145.71 190.761C145.65 190.844 145.585 190.924 145.516 191H140.262C140.25 190.994 140.238 190.989 140.226 190.983L140.016 190.993C140.025 190.956 140.034 190.917 140.043 190.88C140.047 190.859 140.053 190.837 140.058 190.816C140.062 190.801 140.065 190.787 140.068 190.774C140.069 190.769 140.07 190.764 140.071 190.761C140.074 190.747 140.077 190.735 140.08 190.723C140.132 190.509 140.187 190.295 140.243 190.08L140.244 190.078C140.654 188.441 141.258 186.858 142.042 185.362C142.066 185.318 142.09 185.273 142.116 185.228C142.479 184.566 142.896 183.935 143.362 183.341C143.618 183.017 143.89 182.705 144.178 182.408C144.923 181.642 145.783 180.998 146.729 180.5C148.613 179.506 150.794 179.125 152.808 179.732C152.86 179.748 152.91 179.763 152.962 179.78Z" fill="#F0F0F0"/>
<path d="M152.95 179.846C150.334 180.365 147.948 181.695 146.131 183.646C145.732 184.059 145.401 184.532 145.15 185.048C144.922 185.558 144.835 186.121 144.898 186.676C144.987 187.193 145.013 187.72 144.976 188.243C144.932 188.51 144.831 188.764 144.682 188.989C144.532 189.214 144.336 189.405 144.108 189.549C143.533 189.889 142.895 190.11 142.233 190.199C141.509 190.338 140.755 190.471 140.15 190.923C140.077 190.977 139.996 190.861 140.069 190.806C141.121 190.02 142.53 190.185 143.68 189.63C143.954 189.516 144.199 189.342 144.395 189.12C144.591 188.898 144.734 188.634 144.812 188.348C144.88 187.819 144.864 187.281 144.763 186.756C144.693 186.215 144.758 185.665 144.95 185.155C145.174 184.628 145.487 184.143 145.873 183.72C146.729 182.755 147.732 181.931 148.844 181.277C150.109 180.523 151.494 179.992 152.939 179.705C153.028 179.687 153.039 179.829 152.95 179.846H152.95Z" fill="white"/>
<path d="M146.679 182.983C146.393 182.634 146.24 182.195 146.248 181.744C146.256 181.293 146.424 180.859 146.723 180.521C146.783 180.452 146.892 180.543 146.832 180.612C146.553 180.926 146.396 181.33 146.39 181.75C146.383 182.17 146.527 182.579 146.796 182.902C146.854 182.973 146.737 183.053 146.679 182.983Z" fill="white"/>
<path d="M144.838 186.416C145.756 186.516 146.677 186.266 147.419 185.716C147.492 185.662 147.573 185.779 147.5 185.833C146.727 186.403 145.767 186.661 144.813 186.556C144.722 186.546 144.747 186.406 144.838 186.416H144.838Z" fill="white"/>
<path d="M150.133 180.71C150.216 180.868 150.337 181.003 150.484 181.103C150.632 181.203 150.802 181.265 150.98 181.283C151.071 181.292 151.045 181.431 150.955 181.423C150.759 181.402 150.571 181.333 150.407 181.223C150.244 181.113 150.109 180.965 150.017 180.791C150.007 180.775 150.003 180.756 150.006 180.738C150.009 180.72 150.02 180.703 150.035 180.692C150.05 180.681 150.069 180.677 150.088 180.681C150.106 180.684 150.123 180.695 150.133 180.71Z" fill="white"/>
<path d="M228.501 113.598C226.923 100.928 219.063 88.4444 206.968 84.3213C211.738 97.3621 211.737 111.668 206.965 124.708C205.107 129.731 202.516 135.123 204.264 140.185C205.352 143.335 208.013 145.744 210.987 147.251C213.962 148.758 217.263 149.476 220.523 150.18L221.165 150.71C226.34 139.036 230.078 126.268 228.501 113.598Z" fill="#F0F0F0"/>
<path d="M206.848 84.5609C213.892 92.4453 218.269 102.346 219.36 112.858C219.58 115.111 219.606 117.416 219.113 119.637C218.616 121.799 217.548 123.788 216.021 125.397C214.628 126.927 213.025 128.33 212.028 130.171C210.977 132.112 210.937 134.317 211.656 136.379C212.537 138.901 214.272 140.957 216.038 142.909C218 145.076 220.072 147.295 220.905 150.168C221.006 150.516 221.541 150.339 221.44 149.991C219.99 144.993 215.133 142.154 212.817 137.653C211.736 135.552 211.282 133.114 212.296 130.896C213.182 128.957 214.833 127.509 216.257 125.972C217.753 124.359 218.9 122.589 219.491 120.453C220.095 118.268 220.158 115.957 219.997 113.708C219.593 108.61 218.39 103.608 216.431 98.8842C214.225 93.4803 211.11 88.4933 207.22 84.1389C206.98 83.8694 206.608 84.2932 206.848 84.5609L206.848 84.5609Z" fill="white"/>
<path d="M219.208 109.453C220.949 109.03 222.482 108.004 223.535 106.556C224.588 105.109 225.092 103.335 224.956 101.551C224.927 101.19 224.364 101.217 224.393 101.579C224.523 103.24 224.053 104.893 223.07 106.238C222.087 107.584 220.655 108.535 219.031 108.918C218.679 109.002 218.857 109.536 219.208 109.453H219.208Z" fill="white"/>
<path d="M216.83 124.715C213.687 122.84 211.366 119.85 210.331 116.341C210.229 115.993 209.694 116.17 209.796 116.517C210.88 120.167 213.301 123.273 216.577 125.217C216.889 125.402 217.141 124.899 216.83 124.715Z" fill="white"/>
<path d="M213.702 94.0133C213.063 94.3169 212.358 94.457 211.651 94.4211C210.944 94.3853 210.257 94.1746 209.652 93.8079C209.342 93.619 209.091 94.1228 209.398 94.3105C210.069 94.7125 210.828 94.9443 211.609 94.9856C212.39 95.027 213.17 94.8766 213.879 94.5477C213.948 94.5223 214.006 94.4714 214.039 94.4054C214.072 94.3394 214.079 94.2632 214.058 94.1923C214.034 94.1217 213.984 94.0632 213.917 94.0297C213.85 93.9962 213.773 93.9903 213.702 94.0133Z" fill="white"/>
<path d="M170.1 106.951C170.29 107.075 170.48 107.198 170.67 107.326C173.217 109 175.625 110.877 177.867 112.94C178.043 113.097 178.219 113.258 178.39 113.419C183.741 118.447 188.111 124.423 191.278 131.044C192.536 133.679 193.591 136.407 194.435 139.203C195.6 143.064 196.555 147.343 198.861 150.501C199.098 150.833 199.355 151.15 199.631 151.451H220.468C220.515 151.427 220.563 151.408 220.61 151.384L221.442 151.422C221.409 151.275 221.371 151.123 221.338 150.976C221.319 150.89 221.295 150.805 221.276 150.719C221.262 150.662 221.247 150.605 221.238 150.553C221.233 150.534 221.228 150.515 221.224 150.501C221.214 150.449 221.2 150.401 221.19 150.354C220.981 149.504 220.766 148.653 220.544 147.803C220.544 147.799 220.544 147.799 220.539 147.794C218.832 141.321 216.569 134.933 213.408 129.092C213.313 128.916 213.218 128.735 213.113 128.56C211.674 125.935 210.022 123.431 208.174 121.075C207.158 119.788 206.077 118.553 204.936 117.376C201.983 114.338 198.569 111.783 194.82 109.805C187.347 105.864 178.695 104.353 170.708 106.761C170.504 106.823 170.304 106.885 170.1 106.951Z" fill="#F0F0F0"/>
<path d="M170.146 107.215C180.522 109.274 189.985 114.546 197.19 122.284C198.724 123.951 200.134 125.775 201.079 127.845C201.985 129.87 202.331 132.1 202.082 134.303C201.891 136.363 201.457 138.447 201.771 140.517C202.102 142.699 203.398 144.484 205.215 145.697C207.438 147.181 210.063 147.779 212.649 148.275C215.521 148.825 218.513 149.352 220.91 151.144C221.201 151.361 221.521 150.898 221.231 150.681C217.061 147.563 211.472 148.217 206.91 146.016C204.781 144.989 202.949 143.315 202.421 140.935C201.96 138.854 202.406 136.704 202.617 134.621C202.839 132.433 202.688 130.33 201.872 128.269C201.038 126.161 199.696 124.278 198.212 122.579C194.817 118.752 190.842 115.481 186.43 112.888C181.412 109.9 175.919 107.792 170.19 106.654C169.835 106.584 169.794 107.146 170.146 107.215V107.215Z" fill="white"/>
<path d="M195.017 119.656C196.152 118.272 196.758 116.53 196.726 114.741C196.695 112.952 196.027 111.232 194.844 109.889C194.603 109.618 194.171 109.979 194.411 110.25C195.516 111.499 196.137 113.1 196.163 114.766C196.19 116.432 195.619 118.053 194.554 119.335C194.323 119.614 194.787 119.933 195.017 119.656L195.017 119.656Z" fill="white"/>
<path d="M202.317 133.272C198.677 133.665 195.022 132.674 192.081 130.495C191.79 130.279 191.469 130.742 191.76 130.958C194.825 133.219 198.63 134.243 202.417 133.826C202.778 133.785 202.676 133.232 202.317 133.272Z" fill="white"/>
<path d="M181.316 110.64C180.988 111.267 180.51 111.803 179.924 112.199C179.338 112.596 178.662 112.841 177.958 112.912C177.597 112.948 177.7 113.501 178.059 113.466C178.836 113.383 179.582 113.112 180.231 112.675C180.879 112.238 181.411 111.65 181.779 110.96C181.819 110.898 181.834 110.823 181.821 110.75C181.808 110.678 181.767 110.613 181.708 110.569C181.646 110.527 181.571 110.511 181.497 110.524C181.424 110.537 181.359 110.579 181.316 110.64V110.64Z" fill="white"/>
<path d="M252.792 151.76H0.309291C0.227262 151.76 0.148592 151.727 0.090589 151.669C0.0325857 151.611 0 151.533 0 151.451C0 151.369 0.0325857 151.29 0.090589 151.232C0.148592 151.174 0.227262 151.142 0.309291 151.142H252.691C252.773 151.142 252.851 151.174 252.909 151.232C252.967 151.29 253 151.369 253 151.451C253 151.621 252.963 151.76 252.792 151.76Z" fill="#CACACA"/>
<path d="M88.5583 178.95H32.7849C32.7028 178.95 32.6242 178.917 32.5662 178.859C32.5082 178.801 32.4756 178.723 32.4756 178.641C32.4756 178.559 32.5082 178.48 32.5662 178.422C32.6242 178.364 32.7028 178.332 32.7849 178.332H88.4572C88.5393 178.332 88.6179 178.364 88.6759 178.422C88.7339 178.48 88.7665 178.559 88.7665 178.641C88.7665 178.812 88.7291 178.95 88.5583 178.95Z" fill="#CACACA"/>
<path d="M228.667 178.641H172.894C172.812 178.641 172.733 178.608 172.675 178.55C172.617 178.492 172.584 178.414 172.584 178.332C172.584 178.25 172.617 178.171 172.675 178.113C172.733 178.055 172.812 178.023 172.894 178.023H228.566C228.648 178.023 228.727 178.055 228.785 178.113C228.843 178.171 228.875 178.25 228.875 178.332C228.875 178.502 228.838 178.641 228.667 178.641Z" fill="#CACACA"/>
<path d="M103.074 166.9C99.609 166.9 96.4372 166.568 93.9171 165.784C90.9216 164.852 89.0407 163.345 88.3262 161.302C87.9904 160.435 87.8901 159.494 88.0355 158.575C88.1809 157.656 88.5669 156.792 89.1542 156.07C93.5855 150.302 108.963 148.675 111.026 148.483L115.212 140.564C115.48 138.675 114.213 137.245 116.402 137.209L142.301 136.858C144.451 136.813 143.841 138.143 144.209 139.985L148.155 147.022L131.173 154.182L133.74 160.432L133.573 160.529C128.602 163.409 114.309 166.899 103.074 166.9Z" fill="#2F2E41"/>
<path d="M145.804 147.322C145.804 147.322 169.52 144.611 167.974 155.456C166.427 166.301 148.382 173.984 121.056 155.456L124.15 150.033C124.15 150.033 134.332 149.527 140.519 146.816L145.804 147.322Z" fill="#2F2E41"/>
<path d="M112.227 98.1883C112.227 98.1883 107.72 97.3695 106.49 104.329C105.261 111.288 103.292 127.773 103.292 127.773L97.1774 148.948C96.4562 149.331 95.8588 149.91 95.4551 150.619C95.0513 151.328 94.8578 152.137 94.8971 152.952C94.9364 153.767 95.2069 154.553 95.6771 155.22C96.1473 155.887 96.7977 156.407 97.5523 156.718C98.3069 157.029 99.1347 157.12 99.9389 156.979C100.743 156.838 101.49 156.471 102.094 155.921C102.697 155.372 103.131 154.662 103.346 153.875C103.561 153.088 103.547 152.257 103.306 151.477L111.487 129.003L113.047 109.652V99.513C113.047 99.2379 112.97 98.9683 112.825 98.7343C112.681 98.5004 112.474 98.3113 112.227 98.1883Z" fill="#FEB8B8"/>
<path d="M143.956 98.1883C143.956 98.1883 148.463 97.3695 149.693 104.329C150.922 111.288 152.891 127.773 152.891 127.773L159.006 148.948C159.727 149.331 160.324 149.91 160.728 150.619C161.132 151.328 161.325 152.137 161.286 152.952C161.247 153.767 160.976 154.553 160.506 155.22C160.036 155.887 159.385 156.407 158.631 156.718C157.876 157.029 157.048 157.12 156.244 156.979C155.44 156.838 154.693 156.471 154.089 155.921C153.486 155.372 153.052 154.662 152.837 153.875C152.622 153.088 152.636 152.257 152.877 151.477L144.696 129.003L143.136 109.652V99.513C143.136 99.2379 143.213 98.9683 143.358 98.7343C143.502 98.5004 143.71 98.3113 143.956 98.1883Z" fill="#FEB8B8"/>
<path d="M143.612 92.4358L135.086 89.25L118.559 89.037L111.446 92.4358L113.444 103.907C113.444 103.907 109.41 110.731 113.851 117.555L114.848 141.872C114.848 141.872 130.781 151.103 144.231 140.018L141.191 117.409C141.191 117.409 146.275 106.919 142.334 103.022L143.612 92.4358Z" fill="white"/>
<path d="M140.14 96.0005L143.612 92.4358C143.612 92.4358 151.191 96.4184 151.035 109.739L141.475 106.795L140.14 96.0005Z" fill="white"/>
<path d="M115.304 96.0005L111.614 92.3146C111.614 92.3146 105.104 97.3453 105.26 110.666L113.969 106.795L115.304 96.0005Z" fill="white"/>
<path d="M139.355 157.705C139.355 157.705 136.699 152.123 132.264 154.799C127.829 157.475 119.668 161.92 119.668 161.92C119.668 161.92 117.759 165.107 121.927 164.269C126.095 163.43 139.484 162.776 139.484 162.776L139.355 157.705Z" fill="#FEB8B8"/>
<path d="M131.977 57.9177C132.015 57.8817 132.054 57.8494 132.091 57.8125C134.464 55.4416 134.945 52.0781 133.165 50.2999C131.483 48.6195 128.385 48.9586 126.046 51.0018C124.041 49.0947 121.352 48.563 119.612 49.8795C117.605 51.3976 117.621 54.7952 119.647 57.4683C119.786 57.6513 119.932 57.8244 120.081 57.9909C117.385 58.9769 115.056 60.7666 113.412 63.1178C111.767 65.469 110.885 68.2683 110.885 71.1368V84.46C110.885 84.8507 110.962 85.2375 111.111 85.5985C111.261 85.9594 111.48 86.2874 111.757 86.5636C112.034 86.8399 112.362 87.059 112.723 87.2085C113.084 87.358 113.472 87.435 113.863 87.435H138.512C139.275 87.435 140.007 87.132 140.547 86.5929C141.087 86.0537 141.39 85.3223 141.39 84.5598V71.1368C141.39 68.2297 140.483 65.3949 138.796 63.026C137.109 60.6571 134.726 58.8717 131.977 57.9177Z" fill="#2F2E41"/>
<path d="M134.797 82.6834C139.365 78.1201 139.365 70.7216 134.797 66.1584C130.23 61.5952 122.824 61.5952 118.256 66.1584C113.688 70.7217 113.688 78.1201 118.256 82.6834C122.824 87.2466 130.23 87.2466 134.797 82.6834Z" fill="#FFB6B6"/>
<path d="M114.236 67.0711C116.909 68.9115 120.081 69.8909 123.327 69.8779C122.169 70.68 120.851 71.2218 119.463 71.466C123.78 72.3909 128.24 72.4159 132.566 71.5395C133.528 71.3855 134.456 71.0671 135.309 70.5984C135.735 70.3611 136.105 70.0371 136.397 69.6474C136.689 69.2576 136.895 68.8109 137.003 68.3363C137.29 66.6957 136.01 65.2051 134.68 64.2006C132.644 62.686 130.297 61.6425 127.807 61.1456C125.318 60.6486 122.749 60.7107 120.287 61.3272C118.679 61.7424 117.068 62.4439 116.024 63.7339C114.979 65.0238 114.67 67.0125 115.665 68.3408L114.236 67.0711Z" fill="#2F2E41"/>
<path d="M51.6731 43.7533L52.0417 43.2569L61.8614 50.5333C61.3278 48.9085 59.4389 43.7578 56.3425 41.7026C52.6433 39.2475 50.0407 40.0112 48.6228 42.1432C47.2049 44.2752 47.5085 46.968 51.2077 49.4233C54.3433 51.5046 59.9293 51.2152 61.559 51.0787L51.6731 43.7533Z" fill="#F2F2F2"/>
<path d="M199.421 3.91541L199.877 4.33329L191.611 13.333C193.284 12.9718 198.609 11.6308 200.977 8.76805C203.806 5.34801 203.316 2.68271 201.341 1.05215C199.366 -0.57841 196.654 -0.556815 193.824 2.86323C191.426 5.76226 191.133 11.3424 191.1 12.9759L199.421 3.91541Z" fill="#F2F2F2"/>
<path d="M66.1162 100.008L66.5721 100.426L58.3064 109.425C59.9796 109.064 65.304 107.723 67.6722 104.86C70.5012 101.44 70.0116 98.7751 68.0365 97.1446C66.0613 95.514 63.3489 95.5356 60.5197 98.9556C58.1215 101.855 57.8286 107.435 57.7949 109.068L66.1162 100.008Z" fill="#F2F2F2"/>
<path d="M136.009 14.2285L136.544 14.5381L130.421 25.1098C131.976 24.3958 136.885 21.937 138.578 18.6305C140.6 14.6805 139.545 12.1839 137.264 11.0184C134.983 9.85276 132.339 10.4595 130.317 14.4096C128.602 17.7579 129.524 23.2694 129.844 24.8715L136.009 14.2285Z" fill="#F2F2F2"/>
<path d="M193.227 80.3499L193.763 80.6595L187.64 91.2311C189.195 90.5172 194.104 88.0583 195.796 84.7519C197.819 80.8019 196.764 78.3053 194.483 77.1397C192.202 75.9741 189.558 76.5808 187.536 80.5309C185.821 83.8792 186.742 89.3907 187.063 90.9928L193.227 80.3499Z" fill="#F2F2F2"/>
</svg>
