<svg width="284" height="200" viewBox="0 0 284 200" fill="none" xmlns="http://www.w3.org/2000/svg">
<path d="M68.1775 107.525C71.3413 107.525 73.906 104.97 73.906 101.818C73.906 98.6664 71.3413 96.1115 68.1775 96.1115C65.0137 96.1115 62.449 98.6664 62.449 101.818C62.449 104.97 65.0137 107.525 68.1775 107.525Z" fill="#F2F2F2"/>
<path d="M48.5729 171.072C50.5337 171.072 52.1232 169.489 52.1232 167.536C52.1232 165.582 50.5337 163.999 48.5729 163.999C46.6122 163.999 45.0227 165.582 45.0227 167.536C45.0227 169.489 46.6122 171.072 48.5729 171.072Z" fill="#F2F2F2"/>
<path d="M157.459 6.66479H113.893V7.28477H157.459V6.66479Z" fill="#F2F2F2"/>
<path d="M126.341 1.08496H125.718V6.81976H126.341V1.08496Z" fill="#F2F2F2"/>
<path d="M145.323 1.08496H144.7V6.81976H145.323V1.08496Z" fill="#F2F2F2"/>
<path d="M227.787 156.699H184.221V157.319H227.787V156.699Z" fill="#F2F2F2"/>
<path d="M196.668 151.12H196.046V156.854H196.668V151.12Z" fill="#F2F2F2"/>
<path d="M215.65 151.12H215.028V156.854H215.65V151.12Z" fill="#F2F2F2"/>
<path d="M229.965 62.1527H186.399V62.7727H229.965V62.1527Z" fill="#F2F2F2"/>
<path d="M198.846 56.573H198.224V62.3078H198.846V56.573Z" fill="#F2F2F2"/>
<path d="M217.829 56.573H217.207V62.3078H217.829V56.573Z" fill="#F2F2F2"/>
<path d="M229.965 39.8336H186.399V40.4536H229.965V39.8336Z" fill="#F2F2F2"/>
<path d="M198.846 34.2538H198.224V39.9886H198.846V34.2538Z" fill="#F2F2F2"/>
<path d="M217.829 34.2538H217.207V39.9886H217.829V34.2538Z" fill="#F2F2F2"/>
<path d="M134.431 42.9335H90.8657V43.5535H134.431V42.9335Z" fill="#F2F2F2"/>
<path d="M103.313 37.3536H102.691V43.0884H103.313V37.3536Z" fill="#F2F2F2"/>
<path d="M122.295 37.3536H121.673V43.0884H122.295V37.3536Z" fill="#F2F2F2"/>
<path d="M102.691 28.364H59.125V28.984H102.691V28.364Z" fill="#F2F2F2"/>
<path d="M71.5723 22.7842H70.95V28.519H71.5723V22.7842Z" fill="#F2F2F2"/>
<path d="M90.5545 22.7842H89.9321V28.519H90.5545V22.7842Z" fill="#F2F2F2"/>
<path d="M83.0861 85.7119H39.5203V86.3319H83.0861V85.7119Z" fill="#F2F2F2"/>
<path d="M51.9676 80.1321H51.3452V85.8669H51.9676V80.1321Z" fill="#F2F2F2"/>
<path d="M70.95 80.1321H70.3276V85.8669H70.95V80.1321Z" fill="#F2F2F2"/>
<path d="M61.3031 148.95H17.7373V149.57H61.3031V148.95Z" fill="#F2F2F2"/>
<path d="M30.1849 143.37H29.5625V149.105H30.1849V143.37Z" fill="#F2F2F2"/>
<path d="M49.167 143.37H48.5447V149.105H49.167V143.37Z" fill="#F2F2F2"/>
<path d="M267.307 122.911H223.741V123.531H267.307V122.911Z" fill="#F2F2F2"/>
<path d="M236.189 117.331H235.566V123.066H236.189V117.331Z" fill="#F2F2F2"/>
<path d="M255.171 117.331H254.549V123.066H255.171V117.331Z" fill="#F2F2F2"/>
<path d="M254.549 83.2321H210.983V83.852H254.549V83.2321Z" fill="#F2F2F2"/>
<path d="M242.723 83.697H242.101V89.4318H242.723V83.697Z" fill="#F2F2F2"/>
<path d="M223.741 83.697H223.119V89.4318H223.741V83.697Z" fill="#F2F2F2"/>
<path d="M43.5658 36.7336H0V37.3536H43.5658V36.7336Z" fill="#F2F2F2"/>
<path d="M31.7408 37.1986H31.1184V42.9334H31.7408V37.1986Z" fill="#F2F2F2"/>
<path d="M12.7584 37.1986H12.136V42.9334H12.7584V37.1986Z" fill="#F2F2F2"/>
<path d="M46.3663 117.951H2.80054V118.571H46.3663V117.951Z" fill="#F2F2F2"/>
<path d="M34.5413 118.416H33.9189V124.151H34.5413V118.416Z" fill="#F2F2F2"/>
<path d="M15.5591 118.416H14.9368V124.151H15.5591V118.416Z" fill="#F2F2F2"/>
<path d="M183.598 16.5844H140.033V17.2043H183.598V16.5844Z" fill="#F2F2F2"/>
<path d="M171.773 17.0494H171.151V22.7842H171.773V17.0494Z" fill="#F2F2F2"/>
<path d="M152.791 17.0494H152.169V22.7842H152.791V17.0494Z" fill="#F2F2F2"/>
<path d="M61.3031 59.6729H17.7373V60.2928H61.3031V59.6729Z" fill="#F2F2F2"/>
<path d="M30.1849 54.093H29.5625V59.8278H30.1849V54.093Z" fill="#F2F2F2"/>
<path d="M49.167 54.093H48.5447V59.8278H49.167V54.093Z" fill="#F2F2F2"/>
<path d="M68.3047 53.6281V199.633H203.981V53.6281H68.3047ZM136.143 64.1677C135.22 64.1677 134.317 63.895 133.55 63.384C132.782 62.8731 132.184 62.1469 131.83 61.2973C131.477 60.4476 131.385 59.5127 131.565 58.6107C131.745 57.7087 132.189 56.8802 132.842 56.2299C133.495 55.5796 134.327 55.1368 135.232 54.9574C136.138 54.7779 137.076 54.87 137.929 55.222C138.782 55.5739 139.511 56.1699 140.024 56.9345C140.537 57.6992 140.811 58.5982 140.811 59.5178C140.811 60.7511 140.319 61.9338 139.443 62.8058C138.568 63.6778 137.381 64.1677 136.143 64.1677Z" fill="#3F3D56"/>
<path d="M283.644 199.323H0.777832V199.943H283.644V199.323Z" fill="#3F3D56"/>
<path d="M154.658 84.162H83.3973C82.8196 84.162 82.2655 83.9334 81.857 83.5264C81.4485 83.1195 81.219 82.5676 81.219 81.9921C81.219 81.4166 81.4485 80.8646 81.857 80.4577C82.2655 80.0508 82.8196 79.8221 83.3973 79.8221H154.658C155.236 79.8221 155.79 80.0508 156.199 80.4577C156.607 80.8646 156.837 81.4166 156.837 81.9921C156.837 82.5676 156.607 83.1195 156.199 83.5264C155.79 83.9334 155.236 84.162 154.658 84.162Z" fill="#F2F2F2"/>
<path d="M154.658 106.481H83.3973C82.8196 106.481 82.2655 106.253 81.857 105.846C81.4485 105.439 81.219 104.887 81.219 104.311C81.219 103.736 81.4485 103.184 81.857 102.777C82.2655 102.37 82.8196 102.141 83.3973 102.141H154.658C155.236 102.141 155.79 102.37 156.199 102.777C156.607 103.184 156.837 103.736 156.837 104.311C156.837 104.887 156.607 105.439 156.199 105.846C155.79 106.253 155.236 106.481 154.658 106.481Z" fill="#F2F2F2"/>
<path d="M154.658 128.8H83.3973C82.8196 128.8 82.2655 128.572 81.857 128.165C81.4485 127.758 81.219 127.206 81.219 126.63C81.219 126.055 81.4485 125.503 81.857 125.096C82.2655 124.689 82.8196 124.461 83.3973 124.461H154.658C155.236 124.461 155.79 124.689 156.199 125.096C156.607 125.503 156.837 126.055 156.837 126.63C156.837 127.206 156.607 127.758 156.199 128.165C155.79 128.572 155.236 128.8 154.658 128.8Z" fill="#F2F2F2"/>
<path d="M154.658 151.12H83.3973C82.8196 151.12 82.2655 150.891 81.857 150.484C81.4485 150.077 81.219 149.525 81.219 148.95C81.219 148.374 81.4485 147.822 81.857 147.415C82.2655 147.008 82.8196 146.78 83.3973 146.78H154.658C155.236 146.78 155.79 147.008 156.199 147.415C156.607 147.822 156.837 148.374 156.837 148.95C156.837 149.525 156.607 150.077 156.199 150.484C155.79 150.891 155.236 151.12 154.658 151.12Z" fill="#F2F2F2"/>
<path d="M154.658 173.439H83.3973C82.8196 173.439 82.2655 173.21 81.857 172.803C81.4485 172.396 81.219 171.844 81.219 171.269C81.219 170.693 81.4485 170.141 81.857 169.734C82.2655 169.328 82.8196 169.099 83.3973 169.099H154.658C155.236 169.099 155.79 169.328 156.199 169.734C156.607 170.141 156.837 170.693 156.837 171.269C156.837 171.844 156.607 172.396 156.199 172.803C155.79 173.21 155.236 173.439 154.658 173.439Z" fill="#F2F2F2"/>
<path d="M142.211 84.162H83.0862C82.5085 84.162 81.9545 83.9334 81.546 83.5264C81.1375 83.1195 80.908 82.5676 80.908 81.9921C80.908 81.4166 81.1375 80.8646 81.546 80.4577C81.9545 80.0508 82.5085 79.8221 83.0862 79.8221H142.211C142.789 79.8221 143.343 80.0508 143.752 80.4577C144.16 80.8646 144.39 81.4166 144.39 81.9921C144.39 82.5676 144.16 83.1195 143.752 83.5264C143.343 83.9334 142.789 84.162 142.211 84.162Z" fill="#C8ECAD"/>
<path d="M123.851 106.481H83.0862C82.5085 106.481 81.9545 106.253 81.546 105.846C81.1375 105.439 80.908 104.887 80.908 104.311C80.908 103.736 81.1375 103.184 81.546 102.777C81.9545 102.37 82.5085 102.141 83.0862 102.141H123.851C124.429 102.141 124.983 102.37 125.392 102.777C125.8 103.184 126.03 103.736 126.03 104.311C126.03 104.887 125.8 105.439 125.392 105.846C124.983 106.253 124.429 106.481 123.851 106.481Z" fill="#BFF2EA"/>
<path d="M101.446 128.8H83.0862C82.5085 128.8 81.9545 128.572 81.546 128.165C81.1375 127.758 80.908 127.206 80.908 126.63C80.908 126.055 81.1375 125.503 81.546 125.096C81.9545 124.689 82.5085 124.461 83.0862 124.461H101.446C102.024 124.461 102.578 124.689 102.986 125.096C103.395 125.503 103.624 126.055 103.624 126.63C103.624 127.206 103.395 127.758 102.986 128.165C102.578 128.572 102.024 128.8 101.446 128.8Z" fill="#EE968D"/>
<path d="M147.813 151.12H83.0862C82.5085 151.12 81.9545 150.891 81.546 150.484C81.1375 150.077 80.908 149.525 80.908 148.95C80.908 148.374 81.1375 147.822 81.546 147.415C81.9545 147.008 82.5085 146.78 83.0862 146.78H147.813C148.39 146.78 148.944 147.008 149.353 147.415C149.761 147.822 149.991 148.374 149.991 148.95C149.991 149.525 149.761 150.077 149.353 150.484C148.944 150.891 148.39 151.12 147.813 151.12Z" fill="#FFD089"/>
<path d="M133.498 173.439H83.0862C82.5085 173.439 81.9545 173.21 81.546 172.803C81.1375 172.396 80.908 171.844 80.908 171.269C80.908 170.693 81.1375 170.141 81.546 169.734C81.9545 169.328 82.5085 169.099 83.0862 169.099H133.498C134.076 169.099 134.63 169.328 135.038 169.734C135.447 170.141 135.676 170.693 135.676 171.269C135.676 171.844 135.447 172.396 135.038 172.803C134.63 173.21 134.076 173.439 133.498 173.439Z" fill="#D3C0F3"/>
<path d="M184.221 79.8221H183.599V84.162H184.221V79.8221Z" fill="white"/>
<path d="M188.889 84.472C188.396 84.472 187.915 84.3266 187.506 84.0541C187.096 83.7816 186.777 83.3943 186.589 82.9412C186.4 82.488 186.351 81.9894 186.447 81.5083C186.543 81.0273 186.78 80.5854 187.128 80.2386C187.476 79.8917 187.92 79.6555 188.403 79.5599C188.886 79.4642 189.386 79.5133 189.841 79.701C190.296 79.8887 190.685 80.2065 190.959 80.6144C191.232 81.0222 191.378 81.5016 191.378 81.9921C191.377 82.6496 191.115 83.2799 190.648 83.7449C190.181 84.2098 189.549 84.4713 188.889 84.472ZM188.889 80.1322C188.519 80.1322 188.158 80.2413 187.851 80.4456C187.544 80.65 187.305 80.9405 187.164 81.2804C187.022 81.6202 186.985 81.9942 187.057 82.355C187.129 82.7158 187.307 83.0472 187.568 83.3073C187.83 83.5674 188.162 83.7446 188.524 83.8163C188.887 83.8881 189.262 83.8513 189.603 83.7105C189.944 83.5697 190.236 83.3313 190.441 83.0255C190.646 82.7196 190.756 82.36 190.756 81.9921C190.755 81.499 190.558 81.0262 190.208 80.6775C189.858 80.3289 189.384 80.1327 188.889 80.1322Z" fill="white"/>
<path d="M184.221 102.141H183.599V106.481H184.221V102.141Z" fill="white"/>
<path d="M188.889 106.791C188.396 106.791 187.915 106.646 187.506 106.373C187.096 106.101 186.777 105.713 186.589 105.26C186.4 104.807 186.351 104.308 186.447 103.827C186.543 103.346 186.78 102.904 187.128 102.558C187.476 102.211 187.92 101.975 188.403 101.879C188.886 101.783 189.386 101.832 189.841 102.02C190.296 102.208 190.685 102.526 190.959 102.933C191.232 103.341 191.378 103.821 191.378 104.311C191.377 104.969 191.115 105.599 190.648 106.064C190.181 106.529 189.549 106.79 188.889 106.791ZM188.889 102.451C188.519 102.451 188.158 102.56 187.851 102.765C187.544 102.969 187.305 103.26 187.164 103.599C187.022 103.939 186.985 104.313 187.057 104.674C187.129 105.035 187.307 105.366 187.568 105.626C187.83 105.887 188.162 106.064 188.524 106.135C188.887 106.207 189.262 106.17 189.603 106.03C189.944 105.889 190.236 105.65 190.441 105.345C190.646 105.039 190.756 104.679 190.756 104.311C190.755 103.818 190.558 103.345 190.208 102.997C189.858 102.648 189.384 102.452 188.889 102.451Z" fill="white"/>
<path d="M184.221 124.461H183.599V128.8H184.221V124.461Z" fill="white"/>
<path d="M188.889 129.11C188.396 129.11 187.915 128.965 187.506 128.692C187.096 128.42 186.777 128.033 186.589 127.579C186.4 127.126 186.351 126.628 186.447 126.147C186.543 125.666 186.78 125.224 187.128 124.877C187.476 124.53 187.92 124.294 188.403 124.198C188.886 124.102 189.386 124.152 189.841 124.339C190.296 124.527 190.685 124.845 190.959 125.253C191.232 125.66 191.378 126.14 191.378 126.63C191.377 127.288 191.115 127.918 190.648 128.383C190.181 128.848 189.549 129.11 188.889 129.11ZM188.889 124.77C188.519 124.77 188.158 124.88 187.851 125.084C187.544 125.288 187.305 125.579 187.164 125.919C187.022 126.259 186.985 126.632 187.057 126.993C187.129 127.354 187.307 127.685 187.568 127.946C187.83 128.206 188.162 128.383 188.524 128.455C188.887 128.526 189.262 128.49 189.603 128.349C189.944 128.208 190.236 127.97 190.441 127.664C190.646 127.358 190.756 126.998 190.756 126.63C190.755 126.137 190.558 125.665 190.208 125.316C189.858 124.967 189.384 124.771 188.889 124.77Z" fill="white"/>
<path d="M184.221 146.78H183.599V151.12H184.221V146.78Z" fill="white"/>
<path d="M188.889 151.43C188.396 151.43 187.915 151.284 187.506 151.012C187.096 150.739 186.777 150.352 186.589 149.899C186.4 149.446 186.351 148.947 186.447 148.466C186.543 147.985 186.78 147.543 187.128 147.196C187.476 146.849 187.92 146.613 188.403 146.517C188.886 146.422 189.386 146.471 189.841 146.658C190.296 146.846 190.685 147.164 190.959 147.572C191.232 147.98 191.378 148.459 191.378 148.95C191.377 149.607 191.115 150.237 190.648 150.702C190.181 151.167 189.549 151.429 188.889 151.43ZM188.889 147.09C188.519 147.09 188.158 147.199 187.851 147.403C187.544 147.608 187.305 147.898 187.164 148.238C187.022 148.578 186.985 148.952 187.057 149.313C187.129 149.673 187.307 150.005 187.568 150.265C187.83 150.525 188.162 150.702 188.524 150.774C188.887 150.846 189.262 150.809 189.603 150.668C189.944 150.527 190.236 150.289 190.441 149.983C190.646 149.677 190.756 149.318 190.756 148.95C190.755 148.457 190.558 147.984 190.208 147.635C189.858 147.286 189.384 147.09 188.889 147.09Z" fill="white"/>
<path d="M184.221 169.099H183.599V173.439H184.221V169.099Z" fill="white"/>
<path d="M188.889 173.749C188.396 173.749 187.915 173.603 187.506 173.331C187.096 173.058 186.777 172.671 186.589 172.218C186.4 171.765 186.351 171.266 186.447 170.785C186.543 170.304 186.78 169.862 187.128 169.515C187.476 169.168 187.92 168.932 188.403 168.837C188.886 168.741 189.386 168.79 189.841 168.978C190.296 169.165 190.685 169.483 190.959 169.891C191.232 170.299 191.378 170.778 191.378 171.269C191.377 171.926 191.115 172.557 190.648 173.022C190.181 173.486 189.549 173.748 188.889 173.749ZM188.889 169.409C188.519 169.409 188.158 169.518 187.851 169.722C187.544 169.927 187.305 170.217 187.164 170.557C187.022 170.897 186.985 171.271 187.057 171.632C187.129 171.992 187.307 172.324 187.568 172.584C187.83 172.844 188.162 173.021 188.524 173.093C188.887 173.165 189.262 173.128 189.603 172.987C189.944 172.846 190.236 172.608 190.441 172.302C190.646 171.996 190.756 171.637 190.756 171.269C190.755 170.776 190.558 170.303 190.208 169.954C189.858 169.606 189.384 169.409 188.889 169.409Z" fill="white"/>
<path d="M188.889 83.232C189.576 83.232 190.134 82.6769 190.134 81.992C190.134 81.3072 189.576 80.7521 188.889 80.7521C188.201 80.7521 187.644 81.3072 187.644 81.992C187.644 82.6769 188.201 83.232 188.889 83.232Z" fill="white"/>
<path d="M188.889 150.19C189.576 150.19 190.134 149.634 190.134 148.95C190.134 148.265 189.576 147.71 188.889 147.71C188.201 147.71 187.644 148.265 187.644 148.95C187.644 149.634 188.201 150.19 188.889 150.19Z" fill="white"/>
<path d="M188.889 172.509C189.576 172.509 190.134 171.954 190.134 171.269C190.134 170.584 189.576 170.029 188.889 170.029C188.201 170.029 187.644 170.584 187.644 171.269C187.644 171.954 188.201 172.509 188.889 172.509Z" fill="white"/>
<path d="M136.143 61.6878C137.346 61.6878 138.321 60.7162 138.321 59.5178C138.321 58.3194 137.346 57.3479 136.143 57.3479C134.94 57.3479 133.965 58.3194 133.965 59.5178C133.965 60.7162 134.94 61.6878 136.143 61.6878Z" fill="#3F3D56"/>
<path d="M136.143 4.33984C137.346 4.33984 138.321 3.36834 138.321 2.16992C138.321 0.971507 137.346 0 136.143 0C134.94 0 133.965 0.971507 133.965 2.16992C133.965 3.36834 134.94 4.33984 136.143 4.33984Z" fill="#3F3D56"/>
<path d="M136.454 2.16992H135.832V59.5179H136.454V2.16992Z" fill="#3F3D56"/>
<path d="M262.209 119.184V126.864C262.209 126.864 264.065 139.237 264.065 150.046C264.065 160.855 261.067 186.028 261.067 186.028C261.067 186.028 255.07 188.161 254.642 184.89C254.214 181.619 253.072 164.268 253.072 161.708C253.072 159.148 248.075 139.664 248.075 139.664L244.934 161.282C244.934 161.282 245.933 186.881 244.934 187.593C243.934 188.304 239.08 189.584 238.509 188.304C237.938 187.024 234.94 159.575 234.94 159.575C234.94 159.575 232.513 123.735 233.941 121.602C235.368 119.469 236.653 117.762 236.653 117.762C236.653 117.762 257.069 112.784 262.209 119.184Z" fill="#2F2E41"/>
<path d="M260.353 185.175L260.711 187.493C260.831 188.284 260.909 189.081 260.945 189.88C261.001 191.044 261.195 192.839 261.862 193.123C262.861 193.55 269.347 198.999 264.779 199.284C260.21 199.568 257.925 200.06 256.571 199.013C254.972 197.776 256.784 198.336 256.07 198.336C255.356 198.336 254.499 198.336 254.214 197.198C253.928 196.06 254.642 194.069 254.642 194.069V185.175H260.353Z" fill="#2F2E41"/>
<path d="M239.035 185.063L238.677 187.382C238.557 188.173 238.479 188.969 238.443 189.768C238.388 190.933 238.193 192.727 237.527 193.012C236.527 193.438 230.041 198.888 234.61 199.172C239.178 199.457 241.464 199.948 242.817 198.901C244.417 197.664 242.605 198.224 243.318 198.224C244.032 198.224 244.889 198.224 245.174 197.087C245.46 195.949 244.746 193.958 244.746 193.958V185.063H239.035Z" fill="#2F2E41"/>
<path d="M243.078 57.4603C243.078 57.4603 245.505 63.4336 247.218 64.4292C248.931 65.4247 248.075 69.9758 248.075 69.9758L243.791 75.9491H240.365L236.225 68.838C236.225 68.838 235.939 64.1447 235.083 63.007C234.226 61.8692 243.078 57.4603 243.078 57.4603Z" fill="#FFB9B9"/>
<path opacity="0.1" d="M243.078 57.4603C243.078 57.4603 245.505 63.4336 247.218 64.4292C248.931 65.4247 248.075 69.9758 248.075 69.9758L243.791 75.9491H240.365L236.225 68.838C236.225 68.838 235.939 64.1447 235.083 63.007C234.226 61.8692 243.078 57.4603 243.078 57.4603Z" fill="black"/>
<path d="M246.647 69.6913L253.072 71.1135L257.783 118.331C257.783 118.331 255.213 118.758 252.643 122.171C250.073 125.584 246.933 125.015 245.362 124.162C243.792 123.309 237.51 120.891 237.367 119.895C237.224 118.9 237.653 101.407 237.653 101.407L233.655 74.1001L235.654 71.1135H239.223L242.078 73.5313L246.647 69.6913Z" fill="white"/>
<path d="M236.939 64.8558C241.039 64.8558 244.363 61.5447 244.363 57.4603C244.363 53.3759 241.039 50.0648 236.939 50.0648C232.839 50.0648 229.515 53.3759 229.515 57.4603C229.515 61.5447 232.839 64.8558 236.939 64.8558Z" fill="#FFB9B9"/>
<path d="M247.646 67.2736C247.646 67.2736 261.638 68.6958 262.923 71.6824C264.208 74.6691 262.066 87.8956 262.066 87.8956C262.066 87.8956 267.206 99.4155 267.063 102.118C266.92 104.82 271.917 123.309 266.492 121.175C261.067 119.042 262.78 113.495 260.067 117.478C257.355 121.46 256.213 120.891 256.213 120.891C256.213 120.891 253.5 125.3 252.643 124.873C251.787 124.446 251.216 121.175 253.072 119.611C254.928 118.046 254.642 115.344 251.073 110.224C247.504 105.104 243.792 78.2246 245.933 74.1002C248.075 69.9758 247.646 67.2736 247.646 67.2736Z" fill="#575A89"/>
<path d="M262.209 121.886L259.782 124.162L256.783 122.171L258.069 119.184L262.209 121.886Z" fill="#FFB9B9"/>
<path d="M237.367 69.6913C237.367 69.6913 226.516 73.6735 226.516 77.9401C226.516 82.2067 233.084 100.838 233.084 100.838C233.084 100.838 233.084 105.673 232.798 106.811C232.513 107.949 228.021 117.872 231.942 118.758C234.389 119.31 236.4 120.762 236.582 122.811C236.797 125.244 234.928 128.315 235.083 128.855C235.368 129.851 237.081 131.273 236.939 130.562C236.796 129.851 238.081 119.611 240.079 115.06C242.078 110.509 239.223 79.9312 238.652 75.949C238.376 73.8349 237.947 71.7434 237.367 69.6913Z" fill="#575A89"/>
<path d="M231.656 121.602L234.226 127.718L236.153 123.806L233.94 118.9L231.656 121.602Z" fill="#FFB9B9"/>
<path d="M245.302 62.0421C245.302 62.0421 247.646 63.0069 249.074 63.0069C250.502 63.0069 256.355 65.9936 254.356 67.8424C252.358 69.6913 249.36 70.118 247.932 72.8202C246.504 75.5224 245.79 75.949 245.79 75.949L243.249 72.5477C243.249 72.5477 246.79 68.5535 246.647 67.2736C246.504 65.9936 245.302 62.0421 245.302 62.0421Z" fill="white"/>
<path d="M235.839 65.4617C235.839 65.4617 234.083 66.1358 233.655 67.2736C233.227 68.4114 230.514 70.5447 231.656 71.1136C232.798 71.6825 237.795 73.958 238.795 74.3847C239.794 74.8113 241.656 73.1742 241.656 73.1742C241.656 73.1742 239.152 71.7536 239.152 70.758C239.152 69.7625 235.839 65.4617 235.839 65.4617Z" fill="white"/>
<path d="M229.943 75.949L226.516 76.8023C226.516 76.8023 221.805 97.851 223.233 103.113C224.66 108.375 231.371 124.162 231.371 124.162L235.654 119.184C235.654 119.184 233.785 107.865 232.721 107.125C231.656 106.384 232.37 104.82 232.37 104.393C232.37 103.967 232.798 104.251 231.799 103.255C230.8 102.26 235.511 96.7132 234.226 95.1488C232.941 93.5844 229.943 75.949 229.943 75.949Z" fill="#575A89"/>
<path opacity="0.1" d="M263.708 79.86L261.638 72.109C261.638 72.109 267.206 76.0912 268.348 81.9223C269.49 87.7533 273.916 99.4155 271.06 104.535C268.205 109.655 263.208 124.446 261.495 124.162C259.782 123.877 255.641 120.322 255.499 119.753C255.356 119.184 262.923 106.1 261.78 105.104C260.638 104.109 260.924 101.549 261.78 100.98C262.637 100.411 263.636 97.7088 262.923 97.851C262.209 97.9932 260.067 96.571 260.495 95.0066C260.924 93.4422 258.354 82.9178 258.354 82.9178L263.708 79.86Z" fill="black"/>
<path d="M260.924 71.1134L262.923 71.6823C262.923 71.6823 268.491 75.6645 269.633 81.4955C270.775 87.3266 275.201 98.9887 272.346 104.109C269.49 109.229 264.493 124.02 262.78 123.735C261.067 123.451 256.927 119.895 256.784 119.326C256.641 118.757 264.208 105.673 263.066 104.678C261.923 103.682 262.209 101.122 263.066 100.553C263.922 99.9843 264.922 97.2821 264.208 97.4243C263.494 97.5665 261.352 96.1443 261.781 94.5799C262.209 93.0155 259.639 82.4911 259.639 82.4911L260.924 71.1134Z" fill="#575A89"/>
<path d="M242.7 50.7847L244.092 50.2803C244.092 50.2803 241.181 47.38 237.13 47.6322L238.269 46.4974C238.269 46.4974 235.485 45.4886 232.953 48.1366C231.622 49.5286 230.082 51.1649 229.122 53.0081H227.631L228.253 54.2481L226.075 55.488L228.311 55.2653C228.099 56.3358 228.172 57.4429 228.522 58.4766L229.029 59.8637C229.029 59.8637 231.054 55.8286 231.054 55.3242V56.5852C231.054 56.5852 232.447 55.4503 232.447 54.6937L233.206 55.5764L233.586 54.1893L238.269 55.5764L237.51 54.4415L240.421 54.8198L239.282 53.4327C239.282 53.4327 242.573 55.072 242.7 56.4591C242.826 57.8462 244.472 59.6115 244.472 59.6115L245.231 58.3505C245.231 58.3505 246.371 52.6761 242.7 50.7847Z" fill="#2F2E41"/>
<path d="M242.412 58.2779C243.014 58.2779 243.502 57.5146 243.502 56.573C243.502 55.6314 243.014 54.868 242.412 54.868C241.811 54.868 241.323 55.6314 241.323 56.573C241.323 57.5146 241.811 58.2779 242.412 58.2779Z" fill="#FFB9B9"/>
</svg>
