<svg width="224" height="193" viewBox="0 0 224 193" fill="none" xmlns="http://www.w3.org/2000/svg">
<g clip-path="url(#clip0)">
<path d="M189.681 0.154175H0.115723V112.038H189.681V0.154175Z" fill="#989090"/>
<path d="M189.565 0H0V11.5637H189.565V0Z" fill="#CDCDCD"/>
<path d="M185.121 15.1155H4.37146V106.471H185.121V15.1155Z" fill="#CDCDCD"/>
<path d="M17.9635 7.66508C19.0176 7.66508 19.8722 6.80866 19.8722 5.75222C19.8722 4.69577 19.0176 3.83936 17.9635 3.83936C16.9093 3.83936 16.0547 4.69577 16.0547 5.75222C16.0547 6.80866 16.9093 7.66508 17.9635 7.66508Z" fill="#CDCDCD"/>
<path d="M25.2088 7.66508C26.263 7.66508 27.1176 6.80866 27.1176 5.75222C27.1176 4.69577 26.263 3.83936 25.2088 3.83936C24.1546 3.83936 23.3 4.69577 23.3 5.75222C23.3 6.80866 24.1546 7.66508 25.2088 7.66508Z" fill="#CDCDCD"/>
<path d="M10.6993 7.66508C11.7535 7.66508 12.6081 6.80866 12.6081 5.75222C12.6081 4.69577 11.7535 3.83936 10.6993 3.83936C9.64511 3.83936 8.79053 4.69577 8.79053 5.75222C8.79053 6.80866 9.64511 7.66508 10.6993 7.66508Z" fill="#CDCDCD"/>
<path d="M164.04 30.8915H25.4521V34.519H164.04V30.8915Z" fill="#989090"/>
<path d="M119.452 39.9601H70.0396V43.5876H119.452V39.9601Z" fill="#989090"/>
<path d="M119.452 58.3552H70.0396V61.9827H119.452V58.3552Z" fill="#989090"/>
<path d="M119.452 67.7772H70.0396V71.4047H119.452V67.7772Z" fill="#989090"/>
<path d="M143.966 49.0287H45.5261V52.6562H143.966V49.0287Z" fill="#989090"/>
<path d="M164.04 84.2535H138.041V90.6953H164.04V84.2535Z" fill="#CDCDCD"/>
<path d="M189.197 188.937L184.831 188.937L182.753 172.059L189.198 172.059L189.197 188.937Z" fill="#9F616A"/>
<path d="M181.712 187.686H190.133V193H176.41C176.41 191.591 176.969 190.239 177.963 189.243C178.957 188.246 180.306 187.686 181.712 187.686Z" fill="#2F2E41"/>
<path d="M205.58 188.937L201.214 188.937L199.136 172.059L205.581 172.059L205.58 188.937Z" fill="#9F616A"/>
<path d="M198.095 187.686H206.516V193H192.793C192.793 192.302 192.93 191.611 193.197 190.966C193.463 190.322 193.854 189.736 194.346 189.243C194.838 188.749 195.423 188.358 196.066 188.091C196.709 187.824 197.399 187.686 198.095 187.686Z" fill="#2F2E41"/>
<path d="M205.046 138.67C204.576 138.366 204.178 137.964 203.879 137.489C203.581 137.015 203.39 136.481 203.32 135.925C203.25 135.369 203.303 134.804 203.474 134.271C203.646 133.737 203.932 133.248 204.312 132.837L201.437 91.9496L209.719 92.7544L209.946 132.795C210.592 133.482 210.965 134.382 210.993 135.325C211.022 136.268 210.704 137.189 210.1 137.913C209.496 138.638 208.648 139.114 207.717 139.254C206.785 139.393 205.835 139.185 205.046 138.67L205.046 138.67Z" fill="#9F616A"/>
<path d="M188.991 180.434L184.184 180.204C183.775 180.185 183.388 180.009 183.104 179.713C182.82 179.416 182.661 179.022 182.658 178.612L182.322 129.873C182.321 129.641 182.369 129.413 182.464 129.202C182.559 128.991 182.698 128.803 182.872 128.651C183.046 128.499 183.251 128.386 183.472 128.321C183.694 128.255 183.927 128.239 184.155 128.272L203.385 131.069C203.765 131.123 204.113 131.312 204.365 131.601C204.617 131.891 204.756 132.262 204.757 132.647L207.231 177.809C207.232 178.02 207.192 178.231 207.112 178.427C207.032 178.623 206.914 178.802 206.765 178.952C206.616 179.103 206.439 179.222 206.244 179.303C206.049 179.385 205.839 179.427 205.628 179.427H200.446C200.064 179.428 199.694 179.292 199.403 179.043C199.112 178.794 198.921 178.449 198.863 178.07C198.863 178.07 194.949 144.195 194.411 144.215C193.871 144.225 190.659 179.021 190.659 179.021C190.611 179.41 190.423 179.769 190.13 180.03C189.837 180.29 189.459 180.435 189.067 180.436C189.042 180.436 189.016 180.436 188.991 180.434Z" fill="#2F2E41"/>
<path d="M203.312 105.688C203.118 105.549 202.958 105.367 202.843 105.157C202.729 104.947 202.663 104.714 202.65 104.475L202.043 93.4545C201.983 92.3627 202.328 91.2873 203.013 90.4356C203.697 89.584 204.672 89.0164 205.749 88.8422C206.826 88.6681 207.93 88.8998 208.846 89.4927C209.763 90.0856 210.428 90.9976 210.714 92.053L213.38 101.906C213.49 102.317 213.434 102.755 213.223 103.124C213.011 103.494 212.662 103.764 212.252 103.876L204.67 105.936C204.439 105.999 204.198 106.01 203.963 105.967C203.728 105.924 203.505 105.829 203.312 105.688Z" fill="#3F3D56"/>
<path d="M196.229 79.4976C201.06 79.4976 204.976 75.5729 204.976 70.7315C204.976 65.8901 201.06 61.9653 196.229 61.9653C191.398 61.9653 187.481 65.8901 187.481 70.7315C187.481 75.5729 191.398 79.4976 196.229 79.4976Z" fill="#9F616A"/>
<path d="M164.53 87.9542C164.574 88.1468 164.603 88.3425 164.616 88.5396L179.915 97.3846L183.633 95.2392L187.598 100.44L179.642 106.123L162.188 92.3233C161.477 92.5873 160.701 92.6279 159.966 92.4396C159.23 92.2513 158.57 91.8431 158.071 91.2693C157.573 90.6954 157.261 89.9832 157.176 89.2272C157.092 88.4713 157.239 87.7075 157.598 87.0373C157.957 86.3672 158.512 85.8226 159.187 85.4758C159.863 85.1291 160.628 84.9966 161.38 85.0962C162.133 85.1957 162.837 85.5225 163.4 86.033C163.963 86.5436 164.357 87.2137 164.53 87.9542V87.9542Z" fill="#9F616A"/>
<path d="M180.461 96.6324C180.436 96.3944 180.464 96.1537 180.543 95.928C180.623 95.7023 180.752 95.4974 180.922 95.3285L188.708 87.5233C189.48 86.7501 190.509 86.2905 191.599 86.2331C192.689 86.1758 193.761 86.5247 194.609 87.2127C195.457 87.9007 196.021 88.879 196.192 89.9589C196.363 91.0389 196.129 92.144 195.535 93.0613L189.99 101.624C189.758 101.981 189.394 102.232 188.979 102.32C188.563 102.409 188.129 102.329 187.773 102.097L181.183 97.8113C180.982 97.6814 180.813 97.5081 180.688 97.304C180.563 97.1 180.486 96.8705 180.461 96.6324Z" fill="#3F3D56"/>
<path d="M202.419 77.6669C200.787 79.4089 197.756 78.4738 197.544 76.094C197.527 75.9092 197.528 75.7232 197.547 75.5387C197.657 74.4845 198.265 73.5275 198.119 72.4144C198.086 72.1374 197.983 71.8734 197.82 71.6475C196.52 69.9024 193.467 72.428 192.24 70.8482C191.487 69.8796 192.372 68.3544 191.794 67.2718C191.032 65.8429 188.775 66.5478 187.359 65.7652C185.784 64.8945 185.878 62.4726 186.915 60.9995C188.179 59.2029 190.397 58.2443 192.586 58.1061C194.776 57.9679 196.95 58.5611 198.994 59.3594C201.316 60.2664 203.62 61.52 205.049 63.5665C206.787 66.0553 206.954 69.4013 206.085 72.3115C205.556 74.0818 203.751 76.2444 202.419 77.6669Z" fill="#2F2E41"/>
<path d="M223.644 192.933H154.907C154.813 192.933 154.722 192.896 154.656 192.829C154.589 192.762 154.551 192.671 154.551 192.576C154.551 192.482 154.589 192.391 154.656 192.324C154.722 192.257 154.813 192.219 154.907 192.219H223.644C223.738 192.219 223.829 192.257 223.896 192.324C223.963 192.391 224 192.482 224 192.576C224 192.671 223.963 192.762 223.896 192.829C223.829 192.896 223.738 192.933 223.644 192.933Z" fill="#3F3D56"/>
<path d="M204.96 85.3532C204.808 85.2437 204.653 85.1363 204.495 85.0308C203.655 84.471 202.746 84.0241 201.79 83.7016V81.3982H195.023V83.5353C192.78 84.1554 190.768 85.4227 189.238 87.1797C187.708 88.9366 186.727 91.1056 186.417 93.4168L181.81 127.699C181.78 127.913 181.794 128.131 181.851 128.34C181.908 128.548 182.007 128.743 182.141 128.913C182.273 129.081 182.437 129.22 182.624 129.323C182.811 129.426 183.017 129.489 183.229 129.51C184.825 129.669 188.137 130.289 192.375 132.649C194.413 133.78 196.707 134.367 199.037 134.353C200.886 134.346 202.721 134.019 204.459 133.385C204.754 133.277 205.01 133.083 205.195 132.828C205.38 132.574 205.485 132.271 205.499 131.956C205.664 128.267 206.635 109.276 209.46 97.6928C210.01 95.4205 209.875 93.0361 209.074 90.8402C208.274 88.6442 206.842 86.735 204.96 85.3532Z" fill="#3F3D56"/>
</g>
<defs>
<clipPath id="clip0">
<rect width="224" height="193" fill="white"/>
</clipPath>
</defs>
</svg>
