<svg width="241" height="147" viewBox="0 0 241 147" fill="none" xmlns="http://www.w3.org/2000/svg">
<path d="M212.974 4.60364H45.3174V84.2852H212.974V4.60364Z" fill="#3F3D56"/>
<path d="M208.18 11.4365H50.1116V77.9173H208.18V11.4365Z" fill="white"/>
<path d="M212.903 0H45.2458V7.13379H212.903V0Z" fill="white"/>
<path d="M50.5389 4.62198C51.268 4.62198 51.859 4.03 51.859 3.29976C51.859 2.56952 51.268 1.97754 50.5389 1.97754C49.8098 1.97754 49.2188 2.56952 49.2188 3.29976C49.2188 4.03 49.8098 4.62198 50.5389 4.62198Z" fill="white"/>
<path d="M55.5496 4.62198C56.2787 4.62198 56.8698 4.03 56.8698 3.29976C56.8698 2.56952 56.2787 1.97754 55.5496 1.97754C54.8205 1.97754 54.2295 2.56952 54.2295 3.29976C54.2295 4.03 54.8205 4.62198 55.5496 4.62198Z" fill="white"/>
<path d="M60.5609 4.62198C61.29 4.62198 61.881 4.03 61.881 3.29976C61.881 2.56952 61.29 1.97754 60.5609 1.97754C59.8318 1.97754 59.2407 2.56952 59.2407 3.29976C59.2407 4.03 59.8318 4.62198 60.5609 4.62198Z" fill="white"/>
<path d="M87.4443 62.3625H167.334V48.6481C167.322 47.202 167.021 45.7729 166.45 44.4446C165.879 43.1163 165.049 41.9157 164.009 40.9131L163.987 40.8919C162.56 39.458 157.791 35.8187 152.858 36.1272C150.251 36.2897 148.02 37.5478 146.226 39.8664C140.64 47.0864 133.304 44.6493 129.427 42.554C126.011 40.707 122.523 39.8401 119.058 39.9781C114.205 40.1682 107.374 41.9587 102.393 49.4099C100.49 52.2535 96.3527 56.1135 87.4443 58.3819V62.3625Z" fill="#E4E4E4"/>
<path d="M171.854 62.6814H87.5982C87.5282 62.6814 87.4612 62.6536 87.4117 62.604C87.3623 62.5545 87.3345 62.4873 87.3345 62.4173V21.9697C87.3345 21.8996 87.3623 21.8324 87.4117 21.7829C87.4612 21.7334 87.5282 21.7056 87.5982 21.7056C87.6681 21.7056 87.7352 21.7334 87.7846 21.7829C87.8341 21.8324 87.8618 21.8996 87.8618 21.9697V62.1532H171.854C171.924 62.1532 171.991 62.181 172.041 62.2305C172.09 62.2801 172.118 62.3472 172.118 62.4173C172.118 62.4873 172.09 62.5545 172.041 62.604C171.991 62.6536 171.924 62.6814 171.854 62.6814Z" fill="#3F3D56"/>
<path d="M103.625 47.1272H103.108V62.3097H103.625V47.1272Z" fill="#3F3D56"/>
<path d="M119.108 40.0365H118.591V62.3098H119.108V40.0365Z" fill="#3F3D56"/>
<path d="M134.623 44.6984H134.106V62.3098H134.623V44.6984Z" fill="#3F3D56"/>
<path d="M150.138 36.1516H149.621V62.3098H150.138V36.1516Z" fill="#3F3D56"/>
<path d="M165.653 42.1084H165.136V62.3097H165.653V42.1084Z" fill="#3F3D56"/>
<path d="M118.882 41.9782C119.755 41.9782 120.464 41.2687 120.464 40.3936C120.464 39.5184 119.755 38.809 118.882 38.809C118.008 38.809 117.3 39.5184 117.3 40.3936C117.3 41.2687 118.008 41.9782 118.882 41.9782Z" fill="white"/>
<path d="M149.912 37.8342C150.785 37.8342 151.494 37.1248 151.494 36.2496C151.494 35.3745 150.785 34.665 149.912 34.665C149.038 34.665 148.33 35.3745 148.33 36.2496C148.33 37.1248 149.038 37.8342 149.912 37.8342Z" fill="white"/>
<path d="M134.397 46.381C135.27 46.381 135.979 45.6715 135.979 44.7964C135.979 43.9212 135.27 43.2118 134.397 43.2118C133.523 43.2118 132.814 43.9212 132.814 44.7964C132.814 45.6715 133.523 46.381 134.397 46.381Z" fill="white"/>
<path d="M103.367 48.7119C104.241 48.7119 104.949 48.0025 104.949 47.1273C104.949 46.2522 104.241 45.5427 103.367 45.5427C102.493 45.5427 101.785 46.2522 101.785 47.1273C101.785 48.0025 102.493 48.7119 103.367 48.7119Z" fill="white"/>
<path d="M165.427 43.5321C166.301 43.5321 167.009 42.8226 167.009 41.9475C167.009 41.0724 166.301 40.3629 165.427 40.3629C164.553 40.3629 163.845 41.0724 163.845 41.9475C163.845 42.8226 164.553 43.5321 165.427 43.5321Z" fill="white"/>
<path d="M35.4036 143.862H38.5738L40.0819 131.615L35.4031 131.615L35.4036 143.862Z" fill="#FFB6B6"/>
<path d="M34.5947 142.825L40.838 142.825H40.8382C41.8934 142.825 42.9054 143.245 43.6515 143.992C44.3977 144.739 44.8169 145.753 44.8169 146.81V146.939L34.5949 146.94L34.5947 142.825Z" fill="#2F2E41"/>
<path d="M50.4014 143.862H53.5716L55.0797 131.615L50.4009 131.615L50.4014 143.862Z" fill="#FFB6B6"/>
<path d="M49.5925 142.825L55.8358 142.825H55.836C56.8912 142.825 57.9032 143.245 58.6493 143.992C59.3954 144.739 59.8147 145.753 59.8147 146.81V146.939L49.5927 146.94L49.5925 142.825Z" fill="#2F2E41"/>
<path d="M56.3175 87.8718C56.5854 87.5662 56.7832 87.2054 56.8969 86.8149C57.0106 86.4244 57.0374 86.0137 56.9755 85.6117C56.9135 85.2097 56.7643 84.8262 56.5384 84.4882C56.3125 84.1502 56.0153 83.866 55.6678 83.6555L50.5087 58.8469L44.8882 61.0648L51.7268 84.7534C51.4124 85.3615 51.3316 86.064 51.4998 86.7278C51.6679 87.3916 52.0734 87.9705 52.6392 88.3549C53.2051 88.7393 53.8921 88.9024 54.57 88.8134C55.2479 88.7243 55.8697 88.3893 56.3175 87.8718V87.8718Z" fill="#FFB6B6"/>
<path d="M32.0034 83.0944L29.6667 85.4701C29.6667 85.4701 27.1615 94.6651 31.9554 106.005L35.1619 138.884L40.9309 139.319L42.6531 101.067L50.5993 113.765L49.2114 139.183L55.5883 139.037L58.4704 110.871L50.5993 81.4792L32.0034 83.0944Z" fill="#2F2E41"/>
<path d="M40.1738 86.2948C36.6552 86.2702 33.1411 86.0377 29.6498 85.5985L29.5093 85.5798L32.9915 70.2512L31.7925 50.5288L43.1152 50.1403C44.1402 50.1031 45.1428 50.4464 45.9305 51.1043C46.7183 51.7622 47.2356 52.6884 47.3832 53.705L49.7006 69.4401L51.8442 83.4004L51.8155 83.4424C50.275 85.7047 45.1244 86.2948 40.1738 86.2948Z" fill="white"/>
<path d="M42.085 53.4024L44.3855 50.5138C44.3855 50.5138 48.4187 47.7514 49.6951 53.6709C50.9715 59.5904 53.343 69.2001 53.343 69.2001L45.4567 69.8397L42.085 53.4024Z" fill="white"/>
<path d="M20.2842 88.1307C20.0163 87.8251 19.8185 87.4643 19.7048 87.0738C19.5911 86.6833 19.5643 86.2726 19.6262 85.8706C19.6882 85.4686 19.8374 85.0851 20.0633 84.7472C20.2892 84.4092 20.5864 84.1249 20.9339 83.9144L26.093 59.1058L31.7135 61.3238L24.875 85.0123C25.1894 85.6204 25.2701 86.3229 25.102 86.9867C24.9338 87.6505 24.5284 88.2294 23.9625 88.6138C23.3966 88.9982 22.7096 89.1613 22.0317 89.0723C21.3538 88.9833 20.732 88.6482 20.2842 88.1307V88.1307Z" fill="#FFB6B6"/>
<path d="M34.5168 53.6613L32.2163 50.7727C32.2163 50.7727 28.1831 48.0103 26.9067 53.9298C25.6303 59.8493 23.2588 69.459 23.2588 69.459L31.1451 70.0986L34.5168 53.6613Z" fill="white"/>
<path d="M44.2123 47.2559H29.2144C28.9059 47.2556 28.6101 47.1327 28.392 46.9142C28.1738 46.6957 28.0511 46.3995 28.0508 46.0905V39.6157C28.0508 37.3146 28.9634 35.1078 30.588 33.4807C32.2125 31.8536 34.4159 30.9395 36.7133 30.9395C39.0108 30.9395 41.2141 31.8536 42.8387 33.4807C44.4632 35.1078 45.3759 37.3146 45.3759 39.6157V46.0905C45.3755 46.3995 45.2528 46.6957 45.0347 46.9142C44.8165 47.1327 44.5208 47.2556 44.2123 47.2559Z" fill="#2F2E41"/>
<path d="M38.3691 46.866C41.8768 46.866 44.7202 44.018 44.7202 40.5049C44.7202 36.9918 41.8768 34.1438 38.3691 34.1438C34.8615 34.1438 32.0181 36.9918 32.0181 40.5049C32.0181 44.018 34.8615 46.866 38.3691 46.866Z" fill="#FFB6B6"/>
<path d="M47.4251 40.2631H38.2543L38.1602 38.9444L37.69 40.2631H36.2779L36.0915 37.6495L35.1596 40.2631H32.4272V40.1337C32.4293 38.314 33.1519 36.5695 34.4365 35.2829C35.7211 33.9962 37.4629 33.2724 39.2797 33.2704H40.5726C42.3894 33.2724 44.1311 33.9962 45.4158 35.2829C46.7004 36.5695 47.423 38.314 47.4251 40.1337V40.2631Z" fill="#2F2E41"/>
<path d="M38.1793 48.4646C38.1102 48.4645 38.0413 48.4584 37.9733 48.4464L31.2581 47.2597V36.1438H38.6503L38.4673 36.3575C35.921 39.3319 37.8393 44.1548 39.2094 46.765C39.3104 46.9561 39.3555 47.172 39.3393 47.3877C39.3232 47.6033 39.2466 47.8101 39.1183 47.984C39.0109 48.1328 38.8698 48.254 38.7065 48.3375C38.5433 48.421 38.3626 48.4646 38.1793 48.4646Z" fill="#2F2E41"/>
<path d="M223.5 143.862H220.33L218.822 131.615L223.501 131.615L223.5 143.862Z" fill="#9E616A"/>
<path d="M224.308 146.94L214.086 146.939V146.81C214.086 145.753 214.506 144.739 215.252 143.992C215.998 143.245 217.01 142.825 218.065 142.825H218.065L224.309 142.825L224.308 146.94Z" fill="#2F2E41"/>
<path d="M212.122 143.862H208.952L207.444 131.615L212.123 131.615L212.122 143.862Z" fill="#9E616A"/>
<path d="M212.931 146.94L202.709 146.939V146.81C202.709 145.753 203.128 144.739 203.874 143.992C204.62 143.245 205.632 142.825 206.687 142.825H206.688L212.931 142.825L212.931 146.94Z" fill="#2F2E41"/>
<path d="M175.2 58.0435C175.454 58.3924 175.78 58.6815 176.157 58.8904C176.534 59.0993 176.952 59.2228 177.382 59.2523C177.812 59.2818 178.243 59.2165 178.645 59.0611C179.047 58.9057 179.41 58.664 179.708 58.3528L185.981 60.8063L188.4 57.3519L179.492 54.0118C178.937 53.5441 178.23 53.2967 177.505 53.3163C176.78 53.3359 176.087 53.6212 175.558 54.1181C175.029 54.6151 174.701 55.2891 174.635 56.0126C174.569 56.7361 174.77 57.4587 175.2 58.0435Z" fill="#9E616A"/>
<path d="M212.082 78.973L203.823 81.6715L206.582 140.254L212.956 140.412L216.218 99.0987L216.959 140.249L224.841 140.684L227.746 78.973H212.082Z" fill="#2F2E41"/>
<path d="M206.51 44.4393L227.707 39.8264L230.064 58.1073L228.101 66.8421L228.888 80.1165C228.888 80.1165 212.127 88.4719 203.823 81.6714C203.823 81.6714 210.497 64.1144 206.629 55.8956L206.51 44.4393Z" fill="#3F3D56"/>
<path d="M210.181 47.0251L206.51 44.4393C206.51 44.4393 206.293 44.1385 203.233 47.7206C200.174 51.3026 193.968 57.0004 193.968 57.0004L183.625 53.1155L181.74 60.0889L193.762 65.6997L210.781 54.3157L210.181 47.0251Z" fill="#3F3D56"/>
<path d="M228.891 86.969C229.281 86.7847 229.625 86.5171 229.901 86.185C230.176 85.853 230.375 85.4645 230.484 85.0471C230.593 84.6296 230.609 84.1933 230.532 83.7688C230.454 83.3444 230.284 82.9421 230.035 82.5904L233.61 76.8747L230.672 73.8514L225.736 81.9941C225.174 82.4532 224.8 83.1029 224.684 83.82C224.568 84.5372 224.719 85.272 225.108 85.8852C225.497 86.4984 226.097 86.9475 226.794 87.1472C227.491 87.347 228.238 87.2836 228.891 86.969V86.969Z" fill="#9E616A"/>
<path d="M224.401 43.4278L227.707 39.8265C227.707 39.8265 231.391 38.5416 234.401 45.1811C237.41 51.8207 240.772 65.2882 240.772 65.2882L232.912 80.4515L226.809 77.7198L232.912 65.1812L226.453 55.8956L224.401 43.4278Z" fill="#3F3D56"/>
<path d="M218.795 38.327C222.129 36.5014 223.354 32.3141 221.532 28.9744C219.709 25.6347 215.528 24.4074 212.194 26.233C208.859 28.0586 207.634 32.2459 209.457 35.5856C211.279 38.9253 215.46 40.1527 218.795 38.327Z" fill="#9E616A"/>
<path d="M221.966 26.7705L222.299 26.098L220.621 25.2628C220.621 25.2628 218.769 22.2453 215.419 23.0933C212.068 23.9413 210.56 24.4488 210.56 24.4488L208.886 25.2925L209.727 26.1299L208.219 26.6374L209.226 27.1385L208.054 27.8131L208.685 31.2711C208.685 31.2711 209.733 28.6483 211.747 29.6506C213.761 30.6529 217.445 29.1325 217.445 29.1325L220.646 35.3367C220.646 35.3367 221.306 33.1618 222.484 33.7417C222.484 33.7417 225.491 28.9442 221.966 26.7705Z" fill="#2F2E41"/>
<path d="M77.5751 147H0.258584C0.190003 147 0.124231 146.973 0.0757372 146.924C0.0272434 146.876 0 146.81 0 146.741C0 146.672 0.0272434 146.606 0.0757372 146.558C0.124231 146.509 0.190003 146.482 0.258584 146.482H77.5751C77.6437 146.482 77.7094 146.509 77.7579 146.558C77.8064 146.606 77.8337 146.672 77.8337 146.741C77.8337 146.81 77.8064 146.876 77.7579 146.924C77.7094 146.973 77.6437 147 77.5751 147Z" fill="#3F3D56"/>
<path d="M240.741 147H181.526C181.457 147 181.391 146.973 181.343 146.924C181.294 146.876 181.267 146.81 181.267 146.741C181.267 146.672 181.294 146.606 181.343 146.558C181.391 146.509 181.457 146.482 181.526 146.482H240.741C240.81 146.482 240.876 146.509 240.924 146.558C240.973 146.606 241 146.672 241 146.741C241 146.81 240.973 146.876 240.924 146.924C240.876 146.973 240.81 147 240.741 147Z" fill="#3F3D56"/>
</svg>
