<svg width="365" height="278" viewBox="0 0 365 278" fill="none" xmlns="http://www.w3.org/2000/svg">
<g clip-path="url(#clip0)">
<path d="M143.278 57.4624L144.61 57.7878C144.009 57.8741 143.408 57.9564 142.807 58.0309H120.587C118.921 57.8192 117.264 57.5578 115.616 57.2467C105.69 55.4203 96.2169 51.6762 87.7299 46.2247C82.515 42.8409 77.5436 38.6807 74.844 33.0932C71.1774 25.5061 72.4584 15.8996 77.6931 9.29266C79.5989 6.90892 81.9455 4.91229 84.6056 3.41113C85.0025 3.18371 85.4033 2.96805 85.812 2.76416C90.2432 0.542398 95.2195 -0.366525 100.152 0.144919C108.542 1.05852 116.284 6.17152 120.752 13.3156C125.692 21.2047 126.639 30.8583 127.464 40.1236C128.962 35.3165 134.581 32.3796 139.513 33.4422C144.441 34.5009 148.245 39.0924 148.858 44.0878C149.46 48.9734 147.236 53.9883 143.53 57.2467C143.447 57.3173 143.365 57.3918 143.278 57.4624Z" fill="#C8ECAD"/>
<path d="M126.144 58.0309H125.032C124.921 57.9433 124.836 57.8284 124.784 57.6977C124.721 57.5487 124.662 57.3957 124.595 57.2467C121.291 49.2588 117.221 41.6074 112.444 34.399C104.853 22.9247 95.5549 12.6712 84.8686 3.99147C84.7773 3.92661 84.7047 3.83872 84.6585 3.73678C84.6122 3.63484 84.5939 3.52248 84.6054 3.41116C84.6279 3.26261 84.6893 3.12261 84.7833 3.00529C84.8774 2.88798 85.0008 2.79751 85.1412 2.74302C85.2815 2.68853 85.4337 2.67194 85.5825 2.69494C85.7313 2.71793 85.8714 2.77969 85.9887 2.87398C92.9126 8.5003 99.2638 14.7939 104.95 21.6635C110.64 28.5247 115.649 35.9204 119.907 43.7467C122.283 48.1272 124.418 52.634 126.301 57.2467C126.305 57.2585 126.309 57.2663 126.313 57.2781C126.376 57.4038 126.393 57.5473 126.363 57.6845C126.332 57.8216 126.255 57.944 126.144 58.0309Z" fill="white"/>
<path d="M219.285 57.2467H7.46669C5.48695 57.2485 3.58881 58.034 2.18892 59.4307C0.789035 60.8275 0.00179184 62.7213 0 64.6966V87.4385C0.00179184 89.4138 0.789035 91.3077 2.18892 92.7044C3.58881 94.1012 5.48695 94.8867 7.46669 94.8885H219.285C221.265 94.8867 223.163 94.1012 224.563 92.7044C225.963 91.3077 226.75 89.4138 226.752 87.4385V64.6966C226.75 62.7213 225.963 60.8275 224.563 59.4307C223.163 58.034 221.265 57.2485 219.285 57.2467ZM225.966 87.4385C225.963 89.2056 225.259 90.8996 224.006 92.1491C222.754 93.3987 221.056 94.1017 219.285 94.1043H7.46669C5.69562 94.1017 3.99781 93.3987 2.74548 92.1491C1.49314 90.8996 0.788474 89.2056 0.785968 87.4385V64.6966C0.788473 62.9295 1.49314 61.2355 2.74548 59.986C3.99781 58.7365 5.69562 58.0334 7.46669 58.0309H219.285C221.056 58.0334 222.754 58.7365 224.006 59.986C225.259 61.2355 225.963 62.9295 225.966 64.6966V87.4385Z" fill="#3F3D56"/>
<path d="M219.285 148.606H7.46669C5.48709 148.604 3.58922 147.819 2.18943 146.422C0.789643 145.025 0.00224874 143.132 0 141.156V118.415C0.00224874 116.439 0.789643 114.546 2.18943 113.149C3.58922 111.753 5.48709 110.967 7.46669 110.965H219.285C221.265 110.967 223.162 111.753 224.562 113.149C225.962 114.546 226.749 116.439 226.752 118.415V141.156C226.749 143.132 225.962 145.025 224.562 146.422C223.162 147.819 221.265 148.604 219.285 148.606ZM7.46669 111.749C5.69546 111.751 3.99735 112.454 2.7449 113.703C1.49245 114.953 0.787952 116.647 0.785968 118.415V141.156C0.787953 142.924 1.49245 144.618 2.7449 145.868C3.99735 147.117 5.69546 147.82 7.46669 147.822H219.285C221.056 147.82 222.754 147.117 224.007 145.868C225.259 144.618 225.964 142.924 225.966 141.156V118.415C225.964 116.647 225.259 114.953 224.007 113.703C222.754 112.454 221.056 111.751 219.285 111.749H7.46669Z" fill="#3F3D56"/>
<path d="M219.285 202.324H7.46669C5.48709 202.322 3.58922 201.537 2.18943 200.14C0.789643 198.743 0.00224874 196.85 0 194.874V172.133C0.00224874 170.157 0.789643 168.264 2.18943 166.867C3.58922 165.47 5.48709 164.685 7.46669 164.683H219.285C221.265 164.685 223.162 165.47 224.562 166.867C225.962 168.264 226.749 170.157 226.752 172.133V194.874C226.749 196.85 225.962 198.743 224.562 200.14C223.162 201.537 221.265 202.322 219.285 202.324ZM7.46669 165.467C5.69546 165.469 3.99735 166.172 2.7449 167.421C1.49245 168.671 0.787952 170.365 0.785968 172.133V194.874C0.787953 196.642 1.49245 198.336 2.7449 199.586C3.99735 200.835 5.69546 201.538 7.46669 201.54H219.285C221.056 201.538 222.754 200.835 224.007 199.586C225.259 198.336 225.964 196.642 225.966 194.874V172.133C225.964 170.365 225.259 168.671 224.007 167.421C222.754 166.172 221.056 165.469 219.285 165.467H7.46669Z" fill="#3F3D56"/>
<path d="M42.3751 88.3109H29.8007C28.2136 88.3091 26.6923 87.6793 25.5704 86.5599C24.4486 85.4406 23.8178 83.9233 23.8159 82.3409V69.7942C23.8178 68.2118 24.4486 66.6946 25.5704 65.5753C26.6922 64.456 28.2135 63.8261 29.8004 63.8243H42.3754C43.9623 63.8261 45.4836 64.456 46.6054 65.5753C47.7272 66.6946 48.3581 68.212 48.3599 69.7945V82.3407C48.3581 83.9232 47.7272 85.4406 46.6054 86.5599C45.4835 87.6793 43.9622 88.3091 42.3751 88.3109Z" fill="#FFC3BD" stroke="black"/>
<path d="M200.095 86.6544H61.3719C60.5381 86.6544 59.7384 86.3239 59.1488 85.7356C58.5593 85.1473 58.228 84.3495 58.228 83.5176C58.228 82.6856 58.5593 81.8878 59.1488 81.2995C59.7384 80.7112 60.5381 80.3807 61.3719 80.3807H200.095C200.929 80.3807 201.729 80.7112 202.318 81.2995C202.908 81.8878 203.239 82.6856 203.239 83.5176C203.239 84.3495 202.908 85.1473 202.318 85.7356C201.729 86.3239 200.929 86.6544 200.095 86.6544Z" fill="#C4C4C4"/>
<path d="M154.902 73.3229H61.3719C60.5381 73.3229 59.7384 72.9924 59.1488 72.4041C58.5593 71.8159 58.228 71.018 58.228 70.1861C58.228 69.3541 58.5593 68.5563 59.1488 67.968C59.7384 67.3797 60.5381 67.0493 61.3719 67.0493H154.902C155.736 67.0493 156.536 67.3797 157.125 67.968C157.715 68.5563 158.046 69.3541 158.046 70.1861C158.046 71.018 157.715 71.8159 157.125 72.4041C156.536 72.9924 155.736 73.3229 154.902 73.3229Z" fill="#C4C4C4"/>
<path d="M42.3751 142.029H29.8007C28.2136 142.027 26.6923 141.397 25.5704 140.278C24.4486 139.159 23.8178 137.641 23.8159 136.059V123.512C23.8178 121.93 24.4486 120.413 25.5704 119.293C26.6922 118.174 28.2135 117.544 29.8004 117.542H42.3754C43.9623 117.544 45.4836 118.174 46.6054 119.293C47.7272 120.413 48.3581 121.93 48.3599 123.512V136.059C48.3581 137.641 47.7272 139.159 46.6054 140.278C45.4835 141.397 43.9622 142.027 42.3751 142.029Z" fill="#DFD8EB" stroke="black"/>
<path d="M200.095 140.372H61.3719C60.5381 140.372 59.7384 140.042 59.1488 139.453C58.5593 138.865 58.228 138.067 58.228 137.235C58.228 136.404 58.5593 135.606 59.1488 135.017C59.7384 134.429 60.5381 134.099 61.3719 134.099H200.095C200.929 134.099 201.729 134.429 202.318 135.017C202.908 135.606 203.239 136.404 203.239 137.235C203.239 138.067 202.908 138.865 202.318 139.453C201.729 140.042 200.929 140.372 200.095 140.372Z" fill="#C4C4C4"/>
<path d="M154.902 127.041H61.3719C60.5381 127.041 59.7384 126.71 59.1488 126.122C58.5593 125.534 58.228 124.736 58.228 123.904C58.228 123.072 58.5593 122.274 59.1488 121.686C59.7384 121.098 60.5381 120.767 61.3719 120.767H154.902C155.736 120.767 156.536 121.098 157.125 121.686C157.715 122.274 158.046 123.072 158.046 123.904C158.046 124.736 157.715 125.534 157.125 126.122C156.536 126.71 155.736 127.041 154.902 127.041Z" fill="#C4C4C4"/>
<path d="M42.3751 195.747H29.8007C28.2136 195.745 26.6923 195.115 25.5704 193.996C24.4486 192.877 23.8178 191.359 23.8159 189.777V177.23C23.8178 175.648 24.4486 174.13 25.5704 173.011C26.6922 171.892 28.2135 171.262 29.8004 171.26H42.3754C43.9623 171.262 45.4836 171.892 46.6054 173.011C47.7272 174.131 48.3581 175.648 48.3599 177.23V189.777C48.3581 191.359 47.7272 192.876 46.6054 193.996C45.4835 195.115 43.9622 195.745 42.3751 195.747Z" fill="#D8EBE8" stroke="black"/>
<path d="M200.095 194.09H61.3719C60.5381 194.09 59.7384 193.76 59.1488 193.171C58.5593 192.583 58.228 191.785 58.228 190.953C58.228 190.121 58.5593 189.324 59.1488 188.735C59.7384 188.147 60.5381 187.817 61.3719 187.817H200.095C200.929 187.817 201.729 188.147 202.318 188.735C202.908 189.324 203.239 190.121 203.239 190.953C203.239 191.785 202.908 192.583 202.318 193.171C201.729 193.76 200.929 194.09 200.095 194.09Z" fill="#C4C4C4"/>
<path d="M154.902 180.759H61.3719C60.5381 180.759 59.7384 180.428 59.1488 179.84C58.5593 179.252 58.228 178.454 58.228 177.622C58.228 176.79 58.5593 175.992 59.1488 175.404C59.7384 174.816 60.5381 174.485 61.3719 174.485H154.902C155.736 174.485 156.536 174.816 157.125 175.404C157.715 175.992 158.046 176.79 158.046 177.622C158.046 178.454 157.715 179.252 157.125 179.84C156.536 180.428 155.736 180.759 154.902 180.759Z" fill="#C4C4C4"/>
<path d="M224.001 68.6176C228.992 68.6176 233.039 64.58 233.039 59.5993C233.039 54.6186 228.992 50.5809 224.001 50.5809C219.009 50.5809 214.962 54.6186 214.962 59.5993C214.962 64.58 219.009 68.6176 224.001 68.6176Z" fill="#3F3D56"/>
<path d="M227.538 63.3243C227.486 63.3244 227.435 63.3142 227.388 63.2945C227.34 63.2748 227.297 63.2459 227.26 63.2094L220.186 56.1516C220.113 56.0781 220.071 55.9783 220.071 55.8744C220.071 55.7704 220.113 55.6707 220.186 55.5971C220.26 55.5236 220.36 55.4823 220.464 55.4823C220.568 55.4823 220.668 55.5236 220.742 55.5971L227.816 62.655C227.871 62.7098 227.908 62.7797 227.923 62.8557C227.939 62.9318 227.931 63.0106 227.901 63.0822C227.871 63.1539 227.821 63.2151 227.756 63.2582C227.692 63.3013 227.616 63.3243 227.538 63.3243L227.538 63.3243Z" fill="white"/>
<path d="M220.464 63.3243C220.386 63.3242 220.311 63.3012 220.246 63.2582C220.181 63.2151 220.131 63.1538 220.101 63.0822C220.071 63.0106 220.064 62.9317 220.079 62.8557C220.094 62.7796 220.131 62.7098 220.186 62.6549L227.26 55.5971C227.297 55.5607 227.34 55.5318 227.388 55.5121C227.435 55.4924 227.486 55.4823 227.538 55.4823C227.59 55.4823 227.641 55.4924 227.688 55.5121C227.736 55.5318 227.779 55.5607 227.816 55.5971C227.852 55.6335 227.881 55.6768 227.901 55.7243C227.921 55.7719 227.931 55.8229 227.931 55.8744C227.931 55.9258 227.921 55.9768 227.901 56.0244C227.881 56.072 227.852 56.1152 227.816 56.1516L220.742 63.2094C220.706 63.2459 220.662 63.2748 220.615 63.2945C220.567 63.3142 220.516 63.3243 220.464 63.3243Z" fill="white"/>
<path d="M314.98 166.442C326.596 166.442 336.013 157.047 336.013 145.457C336.013 133.867 326.596 124.472 314.98 124.472C303.365 124.472 293.948 133.867 293.948 145.457C293.948 157.047 303.365 166.442 314.98 166.442Z" fill="#FFD089"/>
<path d="M316.526 275.182V226.948C316.527 226.272 316.796 225.624 317.275 225.147C317.754 224.669 318.403 224.4 319.08 224.399H324.88C325.558 224.4 326.207 224.669 326.686 225.147C327.165 225.624 327.434 226.272 327.435 226.948V275.182C327.434 275.858 327.165 276.506 326.686 276.984C326.207 277.461 325.558 277.73 324.88 277.731H319.08C318.403 277.73 317.754 277.461 317.275 276.984C316.796 276.506 316.527 275.858 316.526 275.182Z" fill="#2F2E41"/>
<path d="M304.268 275.182V226.948C304.268 226.272 304.538 225.624 305.017 225.147C305.495 224.669 306.145 224.4 306.822 224.399H312.622C313.3 224.4 313.949 224.669 314.428 225.147C314.907 225.624 315.176 226.272 315.177 226.948V275.182C315.176 275.858 314.907 276.506 314.428 276.984C313.949 277.461 313.3 277.73 312.622 277.731H306.822C306.145 277.73 305.495 277.461 305.017 276.984C304.538 276.506 304.268 275.858 304.268 275.182Z" fill="#2F2E41"/>
<path d="M328.396 232.619H302.042C301.313 232.618 300.613 232.328 300.098 231.814C299.582 231.299 299.292 230.601 299.291 229.874V187.157C299.291 182.942 300.969 178.899 303.956 175.919C306.943 172.939 310.995 171.264 315.219 171.264C319.444 171.264 323.495 172.939 326.482 175.919C329.469 178.899 331.147 182.942 331.147 187.157V229.874C331.146 230.601 330.856 231.299 330.341 231.814C329.825 232.328 329.126 232.618 328.396 232.619Z" fill="#2F2E41"/>
<path d="M297.219 154.733L297.241 153.949C295.779 153.909 294.49 153.817 293.521 153.111C293.246 152.899 293.021 152.631 292.859 152.325C292.698 152.019 292.604 151.681 292.585 151.335C292.568 151.124 292.6 150.912 292.679 150.715C292.757 150.518 292.88 150.342 293.038 150.2C293.681 149.659 294.716 149.834 295.47 150.179L296.12 150.477L294.873 141.384L294.095 141.49L295.155 149.225C294.131 148.924 293.181 149.054 292.531 149.602C292.281 149.819 292.085 150.091 291.959 150.397C291.832 150.702 291.777 151.033 291.8 151.363C291.823 151.827 291.947 152.281 292.165 152.693C292.382 153.104 292.687 153.463 293.057 153.744C294.302 154.652 295.919 154.697 297.219 154.733Z" fill="#2F2E41"/>
<path d="M303.605 142.157H299.372V142.941H303.605V142.157Z" fill="#2F2E41"/>
<path d="M323.301 229.844C323.053 229.618 322.853 229.345 322.712 229.042C322.571 228.738 322.491 228.409 322.478 228.074L320.476 179.882C320.462 179.548 320.514 179.214 320.63 178.9C320.745 178.585 320.921 178.297 321.148 178.05C321.376 177.804 321.649 177.605 321.954 177.464C322.258 177.323 322.587 177.244 322.922 177.23L328.718 176.99C329.394 176.963 330.054 177.205 330.552 177.662C331.051 178.12 331.347 178.756 331.375 179.431L333.378 227.624C333.405 228.299 333.163 228.957 332.704 229.455C332.246 229.952 331.608 230.247 330.931 230.276L325.136 230.515C324.952 230.523 324.766 230.511 324.584 230.48C324.104 230.395 323.658 230.175 323.301 229.844Z" fill="#FFD089"/>
<path d="M330.696 197.227H321.264C320.587 197.226 319.938 196.957 319.459 196.48C318.98 196.002 318.711 195.354 318.71 194.678V181.347C318.71 179.423 319.476 177.578 320.839 176.218C322.203 174.857 324.052 174.093 325.98 174.093C327.908 174.093 329.758 174.857 331.121 176.218C332.484 177.578 333.25 179.423 333.25 181.347V194.678C333.25 195.354 332.98 196.002 332.501 196.48C332.023 196.957 331.373 197.226 330.696 197.227Z" fill="#2F2E41"/>
<path d="M270.129 215.087L266.431 210.628C266 210.107 265.794 209.436 265.858 208.764C265.921 208.091 266.25 207.471 266.771 207.039L304.018 176.292C304.54 175.862 305.212 175.656 305.887 175.719C306.561 175.783 307.182 176.111 307.615 176.631L311.312 181.09C311.526 181.348 311.687 181.646 311.785 181.965C311.884 182.285 311.919 182.622 311.887 182.955C311.855 183.288 311.758 183.612 311.601 183.907C311.444 184.203 311.231 184.465 310.972 184.679L273.725 215.426C273.277 215.796 272.715 216.002 272.133 216.01C271.551 216.019 270.984 215.829 270.525 215.472C270.379 215.358 270.246 215.229 270.129 215.087Z" fill="#FFD089"/>
<path d="M297.597 195.06L291.623 187.778C291.194 187.255 290.991 186.583 291.059 185.911C291.126 185.239 291.457 184.62 291.981 184.192L302.32 175.747C303.058 175.143 303.909 174.69 304.823 174.415C305.737 174.139 306.697 174.046 307.647 174.14C308.597 174.235 309.519 174.515 310.361 174.965C311.202 175.415 311.947 176.026 312.552 176.763C313.157 177.501 313.61 178.349 313.886 179.261C314.162 180.174 314.255 181.131 314.161 182.079C314.066 183.027 313.785 183.947 313.333 184.787C312.882 185.626 312.27 186.369 311.531 186.972L301.192 195.417C300.667 195.845 299.994 196.047 299.32 195.98C298.647 195.913 298.027 195.582 297.597 195.06Z" fill="#2F2E41"/>
<path d="M272.215 196.831L272.109 196.923L269.569 194.027C269.376 193.807 269.141 193.627 268.878 193.498C268.615 193.368 268.33 193.291 268.037 193.272C267.745 193.253 267.451 193.291 267.173 193.385C266.896 193.478 266.639 193.626 266.419 193.818L260.27 199.188C259.824 199.577 259.552 200.127 259.513 200.716C259.473 201.306 259.67 201.887 260.06 202.331L273.996 218.217C274.189 218.437 274.424 218.617 274.687 218.747C274.949 218.876 275.235 218.953 275.528 218.972C275.82 218.992 276.114 218.954 276.391 218.86C276.669 218.766 276.926 218.619 277.146 218.426L283.295 213.056C283.74 212.667 284.013 212.118 284.052 211.528C284.091 210.939 283.894 210.358 283.504 209.913L273.917 198.984L274.023 198.892L272.215 196.831Z" fill="#3F3D56"/>
<path d="M267.098 194.743L266.333 195.412C266.443 195.467 266.539 195.549 266.61 195.65C266.682 195.751 266.728 195.868 266.744 195.99C266.759 196.113 266.745 196.237 266.701 196.353C266.657 196.469 266.585 196.572 266.492 196.653L263.132 199.587C263.039 199.669 262.927 199.726 262.806 199.754C262.685 199.782 262.56 199.78 262.44 199.749C262.32 199.717 262.21 199.656 262.12 199.572C262.029 199.488 261.96 199.382 261.92 199.266L261.205 199.89C261.048 200.027 260.919 200.194 260.827 200.381C260.734 200.568 260.679 200.771 260.666 200.979C260.652 201.186 260.679 201.395 260.746 201.592C260.813 201.79 260.918 201.972 261.056 202.129L274.329 217.259C274.607 217.576 274.999 217.77 275.42 217.798C275.841 217.825 276.255 217.685 276.573 217.408L282.466 212.262C282.783 211.985 282.977 211.593 283.005 211.173C283.033 210.753 282.893 210.34 282.615 210.023L269.342 194.892C269.064 194.576 268.672 194.382 268.251 194.354C267.83 194.326 267.416 194.466 267.098 194.743Z" fill="white"/>
<path d="M320.253 149.01C321.348 147.184 322.205 145.173 321.798 143.01C321.435 141.079 320.042 139.574 318.039 139.377C316.833 139.258 315.632 139.579 314.454 139.789C313.488 139.958 312.506 140.021 311.527 139.978C309.556 139.888 307.623 139.4 305.848 138.541C304.045 137.7 302.445 136.483 301.153 134.972C299.861 133.462 298.908 131.693 298.359 129.785C297.164 125.443 298.051 120.512 300.89 116.978L299.905 116.718L301.187 120.923C301.212 121.01 301.257 121.089 301.317 121.156C301.377 121.222 301.452 121.275 301.535 121.308C301.618 121.342 301.708 121.357 301.798 121.351C301.888 121.345 301.975 121.319 302.053 121.275C304.378 119.809 306.978 118.83 309.693 118.397C312.409 117.963 315.184 118.085 317.852 118.755C319.359 119.132 320.814 119.691 322.187 120.418C322.856 120.773 323.453 119.758 322.782 119.403C320.204 118.061 317.38 117.255 314.482 117.033C311.583 116.812 308.669 117.179 305.917 118.114C304.349 118.647 302.852 119.367 301.458 120.259L302.324 120.611L301.041 116.406C301.013 116.307 300.959 116.218 300.886 116.147C300.812 116.075 300.722 116.024 300.622 115.998C300.523 115.971 300.419 115.971 300.32 115.997C300.221 116.023 300.13 116.075 300.056 116.146C298.736 117.817 297.768 119.738 297.212 121.792C296.655 123.846 296.521 125.991 296.818 128.098C297.104 130.175 297.827 132.168 298.94 133.947C300.053 135.725 301.53 137.249 303.274 138.418C305.016 139.592 306.975 140.409 309.036 140.822C311.097 141.235 313.219 141.237 315.281 140.826C316.435 140.605 317.743 140.288 318.875 140.77C319.286 140.968 319.648 141.253 319.935 141.606C320.223 141.959 320.429 142.371 320.539 142.812C321.18 144.981 320.089 147.041 318.974 148.844L320.253 149.01Z" fill="#2F2E41"/>
<path d="M309.717 190.268L309.703 190.268C309.483 190.267 309.27 190.192 309.098 190.055C308.927 189.918 308.808 189.726 308.76 189.512L308.837 173.174C308.787 172.953 308.814 172.721 308.914 172.518C309.014 172.315 309.181 172.151 309.387 172.055C312.237 170.719 315.183 170.54 318.391 171.507C318.637 171.58 318.844 171.745 318.97 171.968C319.095 172.191 319.128 172.454 319.062 172.7L310.666 189.539C310.613 189.749 310.49 189.935 310.318 190.067C310.146 190.2 309.934 190.27 309.717 190.268Z" fill="#CCCCCC"/>
<path d="M364.607 278H267.147C267.043 278 266.943 277.959 266.869 277.885C266.795 277.812 266.754 277.712 266.754 277.608C266.754 277.504 266.795 277.404 266.869 277.331C266.943 277.257 267.043 277.216 267.147 277.216H364.607C364.711 277.216 364.811 277.257 364.885 277.331C364.958 277.404 365 277.504 365 277.608C365 277.712 364.958 277.812 364.885 277.885C364.811 277.959 364.711 278 364.607 278Z" fill="#3F3D56"/>
</g>
<defs>
<clipPath id="clip0">
<rect width="365" height="278" fill="white"/>
</clipPath>
</defs>
</svg>
