<svg width="186" height="171" viewBox="0 0 186 171" fill="none" xmlns="http://www.w3.org/2000/svg">
<path d="M164.373 93.3806C165.316 93.3806 166.219 93.1575 166.919 92.7448C167.597 92.3456 168.256 91.6497 168.256 90.6824C168.256 89.7151 167.597 89.0193 166.919 88.62C166.219 88.2073 165.316 87.9843 164.373 87.9843C163.43 87.9843 162.528 88.2073 161.827 88.62C161.15 89.0193 160.491 89.7151 160.491 90.6824C160.491 91.6497 161.15 92.3456 161.827 92.7448C162.528 93.1575 163.43 93.3806 164.373 93.3806Z" fill="#575A89" stroke="black" stroke-width="2"/>
<path d="M85.1511 170C131.56 170 169.302 134.874 169.302 91.4018C169.302 47.9293 131.56 12.8037 85.1511 12.8037C38.742 12.8037 1 47.9293 1 91.4018C1 134.874 38.742 170 85.1511 170Z" fill="#BAF290" stroke="black" stroke-width="2"/>
<path d="M182.918 4.30589L182.868 5.25032C182.918 4.30589 182.917 4.30587 182.917 4.30585L182.915 4.30577L182.91 4.30552L182.893 4.3047L182.831 4.30189C182.777 4.29957 182.698 4.29648 182.596 4.2932C182.392 4.28665 182.096 4.27933 181.722 4.276C180.974 4.26934 179.914 4.27859 178.652 4.34188C176.135 4.46813 172.787 4.81081 169.521 5.68591C166.273 6.55634 162.995 7.9825 160.731 10.3515C158.446 12.7417 157.274 16.0088 158.062 20.3292C158.047 20.4367 158.033 20.5789 158.025 20.7482C158.01 21.1109 158.028 21.6135 158.165 22.1725C158.45 23.3283 159.237 24.6571 161.075 25.4543L162.414 26.035L162.465 24.7669C162.598 24.7014 163.031 24.5607 164.09 24.7213L164.096 24.7221C164.313 24.7537 164.531 24.7806 164.749 24.8028L164.777 24.9858L164.886 24.8162C165.664 24.8882 166.447 24.9006 167.227 24.8532C167.621 24.8303 168.01 24.7784 168.392 24.6985L168.425 25.7746L169.076 24.5227C169.856 24.2838 170.591 23.9236 171.243 23.4518C171.308 23.4254 171.392 23.3896 171.495 23.3436C171.733 23.237 172.067 23.0755 172.474 22.8483C173.286 22.394 174.387 21.676 175.581 20.6075C177.941 18.4946 180.642 15.0285 182.182 9.57678C182.235 9.51805 182.299 9.44684 182.371 9.36575C182.58 9.12941 182.861 8.80501 183.141 8.45821C183.417 8.11609 183.71 7.73108 183.933 7.37749C184.043 7.20227 184.153 7.00926 184.234 6.81633C184.299 6.66219 184.419 6.34524 184.367 5.986L184.191 4.76001L183.788 4.90948L183.599 4.34158L182.918 4.30589ZM166.801 13.1643C166.789 13.1741 166.775 13.1847 166.761 13.196L166.723 12.794C166.848 12.8128 166.975 12.8335 167.104 12.8564L166.795 13.0654L166.837 13.1365L166.801 13.1643ZM166.667 12.7856L166.629 13.3C166.646 13.0731 166.658 12.9071 166.667 12.7856C166.667 12.7856 166.667 12.7856 166.667 12.7856ZM182.23 4.5684C182.23 4.56839 182.229 4.56905 182.226 4.57037C182.228 4.56907 182.229 4.56841 182.23 4.5684Z" fill="#BAF290" stroke="black" stroke-width="2"/>
<path d="M158.121 2.39135C158.14 2.01525 158.14 2.01524 158.14 2.01522L158.139 2.01517L158.136 2.01502L158.127 2.01458L158.096 2.01318C158.07 2.01205 158.032 2.01058 157.984 2.00902C157.888 2.00591 157.75 2.00248 157.577 2.00089C157.231 1.99773 156.741 2.00191 156.159 2.03101C155.001 2.08886 153.447 2.24659 151.921 2.65542C150.413 3.0596 148.82 3.73815 147.696 4.91322C146.552 6.10875 145.975 7.73505 146.326 9.81006C146.263 10.3602 146.38 10.9113 146.655 11.3949C146.962 11.936 147.443 12.3537 148.005 12.6111L148.422 11.7019C148.97 11.7237 149.217 11.7339 149.329 11.7388L149.369 11.999C149.367 12.0043 149.364 12.0095 149.362 12.0148C149.319 12.1152 149.252 12.2008 149.172 12.2585C149.118 12.2971 149.083 12.3073 149.081 12.3078C149.084 12.3071 149.175 12.2838 149.417 12.3141L149.585 13.4095L150.243 12.3997C150.5 12.4122 150.756 12.4115 151.013 12.3976L151.075 14.3982L152.241 12.1402C152.54 12.0273 152.824 11.8789 153.086 11.6965C153.108 11.6873 153.131 11.6769 153.157 11.6655C153.278 11.6111 153.444 11.5308 153.642 11.4196C154.039 11.1973 154.571 10.85 155.144 10.3367C156.262 9.33515 157.52 7.71794 158.253 5.21643C158.254 5.21528 158.255 5.21413 158.256 5.21298C158.354 5.10273 158.486 4.95007 158.62 4.7856C158.75 4.62548 158.898 4.43437 159.016 4.25098C159.074 4.16074 159.141 4.0486 159.195 3.9274C159.232 3.84433 159.34 3.59632 159.31 3.29045L159.187 1.99711L158.859 2.11829L158.839 2.05199L158.141 2.01526L158.121 2.39133L158.121 2.39135Z" fill="#BAF290" stroke="black" stroke-width="2"/>
<path opacity="0.34" d="M46.8288 44.8094L47.7479 45.2036L48.9016 42.5135L46.3431 43.9353L46.8288 44.8094ZM46.8288 44.8094C47.7479 45.2036 47.7478 45.2037 47.7478 45.2038L47.7475 45.2044L47.7466 45.2065L47.7432 45.2144L47.7298 45.2457L47.6771 45.368C47.6307 45.4756 47.5619 45.6347 47.4722 45.8413C47.2928 46.2544 47.0297 46.8574 46.6946 47.6183C46.0244 49.14 45.0656 51.2934 43.9108 53.8217C41.6023 58.8761 38.5061 65.4385 35.3637 71.4501C31.9347 78.0103 28.3838 84.0813 25.6272 86.9988C24.9349 87.7315 24.23 88.3346 23.5317 88.6799C22.8201 89.0318 21.9519 89.1843 21.1533 88.6921C20.4275 88.2448 20.025 87.4148 19.7857 86.5022C19.5379 85.5567 19.4123 84.3181 19.3979 82.7813C19.2852 70.809 26.1138 61.0728 32.8266 54.399C36.1945 51.0507 39.5657 48.4401 42.0941 46.6665C43.3592 45.779 44.4157 45.0995 45.1584 44.6404C45.5298 44.4108 45.823 44.2362 46.0248 44.1182C46.1257 44.0592 46.2037 44.0143 46.2573 43.9838L46.3192 43.9487L46.3359 43.9393L46.3407 43.9367L46.3422 43.9358C46.3427 43.9356 46.3431 43.9353 46.8288 44.8094Z" fill="#75A724" stroke="black" stroke-width="2"/>
<path d="M87.9486 151.949C101.935 151.949 115.794 145.883 126.142 138.066C131.321 134.154 135.654 129.777 138.7 125.456C141.732 121.156 143.559 116.811 143.559 112.981C143.559 111.046 143.083 109.454 142.096 108.22C141.114 106.992 139.712 106.226 138.064 105.776C134.821 104.89 130.314 105.147 125.146 105.811C122.166 106.194 118.935 106.716 115.522 107.268C106.921 108.658 97.1717 110.234 87.408 110.234C77.3233 110.234 67.5333 108.477 59.0921 106.963C56.1313 106.431 53.3364 105.93 50.7529 105.545C45.8567 104.814 41.6019 104.482 38.5446 105.322C36.9821 105.751 35.6586 106.504 34.7372 107.728C33.8175 108.949 33.3831 110.526 33.3831 112.442C33.3831 116.261 35.1341 120.633 38.0665 124.985C41.0122 129.357 45.2121 133.802 50.2615 137.785C60.349 145.742 73.9522 151.949 87.9486 151.949Z" fill="#75A724" stroke="black" stroke-width="2"/>
<path d="M73.4609 78.1135C73.4609 70.6942 68.1517 64.4528 61.3389 64.4528C54.526 64.4528 49.2168 70.6948 49.2168 78.1135C49.2168 78.9975 49.288 79.7578 49.528 80.301C49.6564 80.5917 49.8766 80.92 50.2573 81.1169C50.6536 81.322 51.0557 81.2988 51.366 81.2099C51.9047 81.0557 52.4058 80.6346 52.7993 80.2667C53.2308 79.8631 53.7119 79.3445 54.2087 78.807L54.2643 78.7468C55.2688 77.6599 56.3923 76.4441 57.6236 75.4863C58.8858 74.5043 60.1312 73.8989 61.3389 73.8989C62.5465 73.8989 63.7919 74.5043 65.0542 75.4863C66.2854 76.4442 67.4089 77.66 68.4133 78.7469L68.4691 78.8072C68.9658 79.3447 69.4469 79.8634 69.8785 80.2669C70.2719 80.6349 70.773 81.056 71.3118 81.2102C71.6221 81.299 72.0242 81.3222 72.4205 81.1171C72.8012 80.9201 73.0214 80.5918 73.1497 80.3012C73.3897 79.7579 73.4609 78.9975 73.4609 78.1135Z" fill="#75A724" stroke="black" stroke-width="2"/>
<path d="M120.416 78.1135C120.416 70.6942 115.107 64.4528 108.295 64.4528C101.482 64.4528 96.1726 70.6948 96.1726 78.1135C96.1726 78.9975 96.2438 79.7578 96.4838 80.301C96.6122 80.5917 96.8324 80.92 97.2131 81.1169C97.6094 81.322 98.0115 81.2988 98.3218 81.2099C98.8605 81.0557 99.3616 80.6346 99.755 80.2667C100.187 79.8631 100.668 79.3445 101.164 78.807L101.22 78.7468C102.225 77.6599 103.348 76.4441 104.579 75.4863C105.842 74.5043 107.087 73.8989 108.295 73.8989C109.502 73.8989 110.747 74.5043 112.01 75.4863C113.241 76.4442 114.364 77.66 115.369 78.7469L115.425 78.8072C115.921 79.3447 116.402 79.8633 116.834 80.2669C117.227 80.6349 117.729 81.056 118.267 81.2102C118.578 81.299 118.98 81.3222 119.376 81.1171C119.757 80.9201 119.977 80.5918 120.105 80.3012C120.345 79.7579 120.416 78.9975 120.416 78.1135Z" fill="#75A724" stroke="black" stroke-width="2"/>
</svg>
