<svg width="186" height="172" viewBox="0 0 186 172" fill="none" xmlns="http://www.w3.org/2000/svg">
<path d="M164.025 93.4239C164.967 93.4239 165.868 93.2006 166.568 92.7873C167.245 92.3874 167.901 91.6912 167.901 90.725C167.901 89.7587 167.245 89.0626 166.568 88.6626C165.868 88.2493 164.967 88.026 164.025 88.026C163.083 88.026 162.182 88.2493 161.482 88.6626C160.805 89.0626 160.148 89.7587 160.148 90.725C160.148 91.6912 160.805 92.3874 161.482 92.7873C162.182 93.2006 163.083 93.4239 164.025 93.4239Z" fill="#FFD089" stroke="black" stroke-width="2"/>
<path d="M84.9768 170.08C131.292 170.08 168.954 134.935 168.954 91.4448C168.954 47.9541 131.292 12.8096 84.9768 12.8096C38.6614 12.8096 1 47.9541 1 91.4448C1 134.935 38.6614 170.08 84.9768 170.08Z" fill="#FFD089" stroke="black" stroke-width="2"/>
<path d="M182.548 4.30762L182.498 5.2522C182.548 4.30762 182.547 4.3076 182.547 4.30758L182.545 4.3075L182.54 4.30725L182.523 4.30642L182.461 4.30361C182.407 4.3013 182.328 4.29821 182.226 4.29492C182.022 4.28836 181.727 4.28104 181.354 4.27771C180.608 4.27105 179.549 4.2803 178.29 4.34363C175.778 4.46994 172.437 4.81282 169.178 5.68844C165.936 6.55942 162.665 7.9865 160.405 10.3569C158.125 12.7483 156.956 16.0165 157.742 20.338C157.727 20.4456 157.712 20.5879 157.705 20.7574C157.69 21.1201 157.707 21.6226 157.845 22.1815C158.129 23.337 158.913 24.6668 160.749 25.4649L162.089 26.0474L162.139 24.7769C162.272 24.7117 162.703 24.5713 163.759 24.7318L163.765 24.7326C163.981 24.7641 164.197 24.791 164.415 24.8132L164.444 25.0015L164.556 24.8269C165.33 24.8988 166.111 24.9112 166.889 24.8638C167.281 24.8409 167.67 24.7892 168.05 24.7095L168.084 25.7931L168.736 24.5327C169.515 24.2936 170.248 23.9332 170.899 23.4613C170.964 23.4348 171.048 23.399 171.15 23.3531C171.388 23.2464 171.722 23.0848 172.127 22.8574C172.938 22.4029 174.037 21.6844 175.228 20.6153C177.584 18.5012 180.279 15.0334 181.816 9.57939C181.869 9.52061 181.932 9.44933 182.004 9.36814C182.213 9.13169 182.493 8.80712 182.772 8.46016C183.048 8.11787 183.34 7.73269 183.562 7.37897C183.673 7.20367 183.782 7.01064 183.863 6.81774C183.928 6.6635 184.047 6.34702 183.996 5.98848L183.82 4.76091L183.418 4.91053L183.23 4.34342L182.548 4.30762ZM181.858 4.57078C181.859 4.57078 181.858 4.57144 181.855 4.57276C181.857 4.57144 181.858 4.57078 181.858 4.57078Z" fill="#FFD089" stroke="black" stroke-width="2"/>
<mask id="path-4-outside-1" maskUnits="userSpaceOnUse" x="144.919" y="0" width="18" height="19" fill="black">
<rect fill="white" x="144.919" width="18" height="19"/>
<path d="M157.761 3.01388C157.761 3.01388 145.615 2.37308 147.035 9.7984C146.961 10.175 147.026 10.5623 147.22 10.905C147.414 11.2476 147.727 11.528 148.115 11.706C148.115 11.706 148.137 11.1492 149.361 11.3443C149.798 11.4085 150.242 11.4276 150.685 11.401C151.275 11.3616 151.836 11.1576 152.283 10.8191V10.8191C152.283 10.8191 155.7 9.58801 157.029 4.71965C157.029 4.71965 158.014 3.65865 157.988 3.38589L155.934 4.14747C156.326 4.88953 156.38 5.73401 156.084 6.50935C156.084 6.50935 156.019 4.19511 155.624 4.25068C155.541 4.25068 154.557 4.6964 154.557 4.6964C154.557 4.6964 155.762 6.94373 154.854 8.57578C154.854 8.57578 155.199 5.80731 154.18 4.86029L152.735 5.59295C152.735 5.59295 154.145 7.91797 153.191 9.80974C153.191 9.80974 153.437 6.90517 152.433 5.77442L151.126 6.66303C151.126 6.66303 152.449 8.94949 151.641 10.5192C151.641 10.5192 151.535 7.13824 150.841 6.89836C150.345 7.26302 149.902 7.67912 149.522 8.13743C149.522 8.13743 150.429 9.80861 149.866 10.6745C149.866 10.6745 149.522 8.42153 149.227 8.41303C148.635 9.17413 148.208 10.0238 147.968 10.9195C148.023 9.97315 148.363 9.05603 148.953 8.25992C148.294 8.36805 147.686 8.6421 147.205 9.04816C147.205 9.04816 147.384 7.99282 149.235 7.90096C149.579 7.46226 149.98 7.05946 150.43 6.70046C149.43 6.62669 148.424 6.72811 147.47 6.99874C147.47 6.99874 148.455 6.00181 150.765 6.44187L152.06 5.52263C152.06 5.52263 149.633 5.2442 148.61 5.55326C148.61 5.55326 149.793 4.67032 152.408 5.31395L153.817 4.57675C152.735 4.37016 151.626 4.28686 150.519 4.32894C150.519 4.32894 151.817 3.71876 154.229 4.38167L155.232 3.98472C155.232 3.98472 153.72 3.72556 153.276 3.687C152.831 3.64844 152.809 3.53957 152.809 3.53957C153.769 3.40045 154.754 3.49686 155.654 3.818C155.654 3.818 157.8 3.13921 157.761 3.01388Z"/>
</mask>
<path d="M157.761 3.01388C157.761 3.01388 145.615 2.37308 147.035 9.7984C146.961 10.175 147.026 10.5623 147.22 10.905C147.414 11.2476 147.727 11.528 148.115 11.706C148.115 11.706 148.137 11.1492 149.361 11.3443C149.798 11.4085 150.242 11.4276 150.685 11.401C151.275 11.3616 151.836 11.1576 152.283 10.8191V10.8191C152.283 10.8191 155.7 9.58801 157.029 4.71965C157.029 4.71965 158.014 3.65865 157.988 3.38589L155.934 4.14747C156.326 4.88953 156.38 5.73401 156.084 6.50935C156.084 6.50935 156.019 4.19511 155.624 4.25068C155.541 4.25068 154.557 4.6964 154.557 4.6964C154.557 4.6964 155.762 6.94373 154.854 8.57578C154.854 8.57578 155.199 5.80731 154.18 4.86029L152.735 5.59295C152.735 5.59295 154.145 7.91797 153.191 9.80974C153.191 9.80974 153.437 6.90517 152.433 5.77442L151.126 6.66303C151.126 6.66303 152.449 8.94949 151.641 10.5192C151.641 10.5192 151.535 7.13824 150.841 6.89836C150.345 7.26302 149.902 7.67912 149.522 8.13743C149.522 8.13743 150.429 9.80861 149.866 10.6745C149.866 10.6745 149.522 8.42153 149.227 8.41303C148.635 9.17413 148.208 10.0238 147.968 10.9195C148.023 9.97315 148.363 9.05603 148.953 8.25992C148.294 8.36805 147.686 8.6421 147.205 9.04816C147.205 9.04816 147.384 7.99282 149.235 7.90096C149.579 7.46226 149.98 7.05946 150.43 6.70046C149.43 6.62669 148.424 6.72811 147.47 6.99874C147.47 6.99874 148.455 6.00181 150.765 6.44187L152.06 5.52263C152.06 5.52263 149.633 5.2442 148.61 5.55326C148.61 5.55326 149.793 4.67032 152.408 5.31395L153.817 4.57675C152.735 4.37016 151.626 4.28686 150.519 4.32894C150.519 4.32894 151.817 3.71876 154.229 4.38167L155.232 3.98472C155.232 3.98472 153.72 3.72556 153.276 3.687C152.831 3.64844 152.809 3.53957 152.809 3.53957C153.769 3.40045 154.754 3.49686 155.654 3.818C155.654 3.818 157.8 3.13921 157.761 3.01388Z" fill="#FFD089"/>
<path d="M157.761 3.01388L159.674 2.428L159.264 1.09037L157.867 1.01666L157.761 3.01388ZM147.035 9.7984L148.997 10.1833L149.072 9.80326L148.999 9.42289L147.035 9.7984ZM148.115 11.706H150.115V10.4233L148.949 9.88832L148.115 11.706ZM149.361 11.3443L149.047 13.3193L149.059 13.3212L149.07 13.323L149.361 11.3443ZM150.685 11.401L150.805 13.3974L150.817 13.3965L150.685 11.401ZM157.029 4.71965L155.563 3.35915L155.229 3.71906L155.1 4.19274L157.029 4.71965ZM157.988 3.38589L159.979 3.19587L159.732 0.606226L157.292 1.51065L157.988 3.38589ZM155.934 4.14747L155.239 2.27223L153.099 3.06568L154.166 5.08289L155.934 4.14747ZM156.084 6.50935H154.084L157.953 7.22283L156.084 6.50935ZM155.624 4.25068V6.25068H155.764L155.903 6.23118L155.624 4.25068ZM154.557 4.6964L153.732 2.87459L151.783 3.75701L152.794 5.64165L154.557 4.6964ZM154.854 8.57578L152.87 8.32852L156.602 9.54802L154.854 8.57578ZM154.18 4.86029L155.541 3.39518L154.519 2.44563L153.275 3.07654L154.18 4.86029ZM152.735 5.59295L151.831 3.80921L149.906 4.78499L151.025 6.62984L152.735 5.59295ZM153.191 9.80974L151.198 9.64096L154.976 10.7103L153.191 9.80974ZM152.433 5.77442L153.929 4.44686L152.763 3.13242L151.309 4.12028L152.433 5.77442ZM151.126 6.66303L150.002 5.0089L148.463 6.05458L149.395 7.66473L151.126 6.66303ZM151.641 10.5192L149.641 10.5815L149.882 18.3022L153.419 11.4348L151.641 10.5192ZM150.841 6.89836L151.495 5.00816L150.503 4.66514L149.657 5.28676L150.841 6.89836ZM149.522 8.13743L147.983 6.86008L147.522 7.41555V8.13743H149.522ZM149.866 10.6745L147.889 10.9772L148.683 16.1636L151.543 11.7646L149.866 10.6745ZM149.227 8.41303L149.285 6.41386L148.272 6.38457L147.649 7.18422L149.227 8.41303ZM147.968 10.9195L145.971 10.8028L149.9 11.4366L147.968 10.9195ZM148.953 8.25992L150.56 9.45051L153.496 5.48724L148.629 6.28634L148.953 8.25992ZM147.205 9.04816L146.99 11.0366L147.84 11.1284L148.494 10.5773L147.205 9.04816ZM149.235 7.90096L149.334 9.8985L150.244 9.8533L150.807 9.13616L149.235 7.90096ZM150.43 6.70046L151.678 8.26374L155.666 5.0814L150.577 4.70588L150.43 6.70046ZM147.47 6.99874V8.99874H147.748L148.016 8.9228L147.47 6.99874ZM150.765 6.44187L150.391 8.40655L151.228 8.56602L151.923 8.07253L150.765 6.44187ZM152.06 5.52263L153.218 7.15329L157.474 4.13085L152.288 3.53567L152.06 5.52263ZM148.61 5.55326L147.414 3.95069L149.189 7.4678L148.61 5.55326ZM152.408 5.31395L151.93 7.25599L152.664 7.43679L153.335 7.08621L152.408 5.31395ZM153.817 4.57675L154.744 6.34901L159.832 3.68842L154.192 2.6122L153.817 4.57675ZM150.519 4.32894L149.668 2.51903L150.595 6.32749L150.519 4.32894ZM154.229 4.38167L153.699 6.31015L154.343 6.48725L154.964 6.24146L154.229 4.38167ZM155.232 3.98472L155.968 5.84451L162.605 3.21933L155.57 2.01347L155.232 3.98472ZM152.809 3.53957L152.522 1.56026L150.428 1.86391L150.849 3.93766L152.809 3.53957ZM155.654 3.818L154.982 5.70171L157.654 6.655V3.818H155.654ZM157.761 3.01388C157.867 1.01666 157.866 1.01663 157.865 1.01659C157.865 1.01658 157.864 1.01654 157.864 1.01651C157.863 1.01645 157.861 1.01638 157.86 1.0163C157.857 1.01615 157.853 1.01596 157.848 1.01574C157.839 1.01531 157.827 1.01475 157.812 1.01412C157.783 1.01284 157.742 1.01123 157.69 1.00956C157.587 1.00621 157.442 1.0026 157.26 1.00094C156.898 0.997616 156.389 1.00203 155.786 1.03229C154.591 1.09212 152.964 1.25583 151.347 1.69012C149.765 2.11516 147.97 2.85735 146.665 4.22505C145.258 5.69937 144.6 7.71449 145.07 10.1739L148.999 9.42289C148.76 8.16965 149.088 7.48038 149.559 6.98648C150.132 6.38596 151.108 5.8961 152.385 5.55318C153.627 5.2195 154.947 5.07933 155.986 5.02727C156.498 5.00159 156.927 4.99805 157.224 5.00077C157.372 5.00212 157.486 5.00503 157.56 5.00744C157.597 5.00865 157.624 5.00973 157.641 5.01043C157.649 5.01078 157.654 5.01103 157.657 5.01115C157.658 5.01121 157.659 5.01124 157.658 5.01124C157.658 5.01123 157.658 5.01122 157.658 5.0112C157.657 5.01119 157.657 5.01117 157.657 5.01116C157.656 5.01113 157.656 5.01111 157.761 3.01388ZM145.072 9.41352C144.904 10.272 145.057 11.1441 145.479 11.8905L148.96 9.91942C148.995 9.98058 149.018 10.078 148.997 10.1833L145.072 9.41352ZM145.479 11.8905C145.898 12.6301 146.545 13.186 147.281 13.5238L148.949 9.88832C148.931 9.87993 148.925 9.87397 148.928 9.87665C148.931 9.87939 148.945 9.89226 148.96 9.91942L145.479 11.8905ZM148.115 11.706C150.114 11.7854 150.113 11.7876 150.113 11.7897C150.113 11.7904 150.113 11.7926 150.113 11.794C150.113 11.7969 150.113 11.7998 150.113 11.8027C150.113 11.8085 150.112 11.8143 150.112 11.8201C150.111 11.8317 150.11 11.8434 150.11 11.8552C150.108 11.8788 150.106 11.9027 150.103 11.927C150.097 11.9755 150.089 12.026 150.079 12.0781C150.058 12.1819 150.025 12.2958 149.974 12.4141C149.867 12.6635 149.692 12.8984 149.452 13.0718C148.989 13.4076 148.663 13.2582 149.047 13.3193L149.676 9.36917C148.836 9.23522 147.887 9.26672 147.106 9.83223C146.708 10.1204 146.451 10.4823 146.301 10.8301C146.229 10.9975 146.185 11.1534 146.158 11.2869C146.144 11.3539 146.135 11.4161 146.129 11.4727C146.125 11.501 146.123 11.528 146.121 11.5537C146.12 11.5665 146.119 11.579 146.118 11.5912C146.118 11.5973 146.118 11.6033 146.118 11.6092C146.117 11.6122 146.117 11.6151 146.117 11.618C146.117 11.6195 146.117 11.6216 146.117 11.6224C146.117 11.6245 146.117 11.6267 148.115 11.706ZM149.07 13.323C149.644 13.4073 150.226 13.4322 150.805 13.3974L150.564 9.40457C150.259 9.42293 149.953 9.40974 149.652 9.36554L149.07 13.323ZM150.817 13.3965C151.775 13.3328 152.714 13.0013 153.49 12.4139L151.076 9.22435C150.958 9.31394 150.776 9.39047 150.552 9.40538L150.817 13.3965ZM152.283 10.8191C152.961 12.7007 152.962 12.7003 152.963 12.6999C152.963 12.6998 152.964 12.6994 152.965 12.6991C152.967 12.6986 152.968 12.698 152.97 12.6974C152.973 12.6963 152.977 12.695 152.98 12.6937C152.987 12.6909 152.996 12.6879 153.005 12.6845C153.023 12.6776 153.044 12.6693 153.069 12.6594C153.118 12.6397 153.179 12.6137 153.252 12.5808C153.398 12.5152 153.59 12.4216 153.817 12.2947C154.268 12.0411 154.86 11.652 155.494 11.0831C156.774 9.93325 158.184 8.08365 158.958 5.24657L155.1 4.19274C154.545 6.22401 153.581 7.42416 152.821 8.10699C152.434 8.45437 152.089 8.67731 151.858 8.80674C151.743 8.87132 151.658 8.91196 151.612 8.93262C151.589 8.94293 151.576 8.94817 151.575 8.94884C151.574 8.94918 151.576 8.94836 151.581 8.94647C151.583 8.94552 151.587 8.94429 151.591 8.94281C151.593 8.94207 151.595 8.94126 151.597 8.94038C151.598 8.93994 151.6 8.93949 151.601 8.93902C151.601 8.93879 151.602 8.93842 151.603 8.9383C151.604 8.93794 151.605 8.93756 152.283 10.8191ZM157.029 4.71965C158.495 6.08015 158.495 6.08004 158.495 6.07993C158.495 6.07989 158.495 6.07978 158.495 6.0797C158.496 6.07953 158.496 6.07934 158.496 6.07914C158.496 6.07874 158.497 6.07827 158.497 6.07774C158.498 6.07667 158.5 6.07534 158.501 6.07376C158.504 6.0706 158.508 6.06641 158.512 6.06127C158.522 6.051 158.535 6.03685 158.551 6.01929C158.583 5.98425 158.627 5.9352 158.68 5.87592C158.783 5.75904 158.926 5.59473 159.071 5.41529C159.21 5.24457 159.384 5.02038 159.531 4.7913C159.603 4.67966 159.699 4.51922 159.782 4.33205C159.832 4.22086 160.034 3.77215 159.979 3.19587L155.997 3.5759C155.969 3.28451 156.016 3.05978 156.043 2.95326C156.073 2.83523 156.108 2.75089 156.126 2.71097C156.16 2.63403 156.184 2.60123 156.167 2.62742C156.137 2.67399 156.07 2.7662 155.965 2.89482C155.868 3.01473 155.766 3.13271 155.686 3.22329C155.646 3.26774 155.614 3.30372 155.592 3.32777C155.581 3.33975 155.573 3.34866 155.568 3.35406C155.565 3.35676 155.564 3.35857 155.563 3.35944C155.562 3.35987 155.562 3.36007 155.562 3.36003C155.562 3.36 155.562 3.35992 155.563 3.35977C155.563 3.3597 155.563 3.35961 155.563 3.35951C155.563 3.35946 155.563 3.35937 155.563 3.35934C155.563 3.35925 155.563 3.35915 157.029 4.71965ZM157.292 1.51065L155.239 2.27223L156.629 6.02271L158.683 5.26112L157.292 1.51065ZM154.166 5.08289C154.293 5.32227 154.304 5.56611 154.216 5.79587L157.953 7.22283C158.457 5.90191 158.36 4.45679 157.702 3.21206L154.166 5.08289ZM158.084 6.50935C158.084 6.43425 158.064 5.77948 157.989 5.13096C157.953 4.8188 157.893 4.39491 157.781 4.01462C157.731 3.84447 157.625 3.52087 157.409 3.2038C157.224 2.93257 156.542 2.10186 155.345 2.27018L155.903 6.23118C155.405 6.30126 154.958 6.16602 154.632 5.96162C154.342 5.77995 154.179 5.56658 154.106 5.45975C154.027 5.34399 153.985 5.25082 153.969 5.21266C153.96 5.18981 153.953 5.1726 153.95 5.16248C153.946 5.15218 153.944 5.14632 153.944 5.14568C153.944 5.14529 153.947 5.15687 153.953 5.18291C153.959 5.20828 153.966 5.24165 153.973 5.28349C153.988 5.36835 154.002 5.47104 154.015 5.58739C154.072 6.0821 154.084 6.58445 154.084 6.50935H158.084ZM155.624 2.25068C155.315 2.25068 155.066 2.32771 155.064 2.32829C154.993 2.34818 154.931 2.36886 154.895 2.38178C154.817 2.40893 154.739 2.43952 154.676 2.46461C154.546 2.51686 154.395 2.58133 154.262 2.63927C154.126 2.69859 153.993 2.75725 153.896 2.80065C153.847 2.82247 153.807 2.8407 153.778 2.85358C153.764 2.86002 153.752 2.86514 153.745 2.86872C153.741 2.8705 153.737 2.8719 153.735 2.87289C153.734 2.87339 153.733 2.87378 153.733 2.87406C153.732 2.8742 153.732 2.87432 153.732 2.87441C153.732 2.87445 153.732 2.87449 153.732 2.87452C153.732 2.87454 153.732 2.87456 153.732 2.87456C153.732 2.87458 153.732 2.87459 154.557 4.6964C155.382 6.51821 155.382 6.51822 155.382 6.51823C155.382 6.51823 155.382 6.51824 155.382 6.51824C155.382 6.51824 155.382 6.51824 155.382 6.51823C155.382 6.51821 155.382 6.51816 155.382 6.51809C155.383 6.51795 155.383 6.5177 155.384 6.51735C155.385 6.51665 155.388 6.51555 155.391 6.51407C155.398 6.51112 155.408 6.50666 155.42 6.50092C155.446 6.48942 155.483 6.47283 155.527 6.45286C155.617 6.41269 155.736 6.35992 155.856 6.30781C155.979 6.25432 156.09 6.20736 156.168 6.17603C156.21 6.15934 156.222 6.15511 156.214 6.15788C156.212 6.15861 156.181 6.16972 156.132 6.18308C156.108 6.18974 156.061 6.20241 155.998 6.21465C155.954 6.22331 155.811 6.25068 155.624 6.25068V2.25068ZM154.557 4.6964C152.794 5.64165 152.794 5.64113 152.794 5.64062C152.794 5.64046 152.793 5.63995 152.793 5.63963C152.793 5.63899 152.792 5.63837 152.792 5.63779C152.792 5.63663 152.791 5.6356 152.791 5.63469C152.79 5.63286 152.789 5.63154 152.788 5.6307C152.788 5.62902 152.788 5.62927 152.789 5.63137C152.791 5.63559 152.797 5.64708 152.805 5.66517C152.823 5.70158 152.852 5.76322 152.886 5.84491C152.956 6.01193 153.04 6.24305 153.103 6.50048C153.248 7.09018 153.193 7.44706 153.106 7.60354L156.602 9.54802C157.423 8.07245 157.219 6.48964 156.988 5.54767C156.864 5.03926 156.704 4.60654 156.576 4.30118C156.511 4.14668 156.453 4.02 156.408 3.92714C156.386 3.88059 156.366 3.8422 156.351 3.8127C156.344 3.79794 156.337 3.78538 156.332 3.77509C156.329 3.76995 156.327 3.76538 156.325 3.76138C156.324 3.75939 156.323 3.75754 156.322 3.75583C156.321 3.75497 156.321 3.75416 156.32 3.75338C156.32 3.75299 156.32 3.75243 156.32 3.75223C156.32 3.75169 156.319 3.75115 154.557 4.6964ZM154.854 8.57578C156.839 8.82304 156.839 8.82264 156.839 8.82223C156.839 8.82207 156.839 8.82165 156.839 8.82134C156.839 8.82073 156.839 8.82008 156.839 8.81938C156.839 8.81799 156.84 8.81642 156.84 8.81468C156.84 8.81119 156.841 8.80702 156.841 8.80218C156.842 8.7925 156.844 8.78013 156.846 8.7652C156.849 8.73537 156.853 8.69525 156.858 8.64599C156.867 8.5477 156.879 8.41181 156.889 8.24784C156.908 7.92382 156.922 7.4711 156.897 6.97172C156.872 6.48223 156.806 5.88525 156.64 5.29646C156.481 4.73303 156.176 3.9849 155.541 3.39518L152.819 6.3254C152.693 6.20918 152.728 6.16224 152.791 6.38425C152.846 6.5809 152.885 6.85361 152.902 7.17461C152.918 7.48573 152.909 7.78431 152.896 8.00898C152.889 8.11935 152.882 8.20715 152.876 8.26395C152.873 8.29225 152.871 8.31253 152.87 8.32372C152.869 8.3293 152.869 8.33259 152.869 8.33344C152.869 8.33386 152.869 8.33368 152.869 8.33287C152.869 8.33246 152.869 8.33189 152.869 8.33117C152.869 8.33081 152.869 8.33041 152.869 8.32997C152.869 8.32974 152.869 8.32938 152.869 8.32927C152.869 8.3289 152.87 8.32852 154.854 8.57578ZM153.275 3.07654L151.831 3.80921L153.64 7.3767L155.084 6.64403L153.275 3.07654ZM152.735 5.59295C151.025 6.62984 151.025 6.6293 151.024 6.62876C151.024 6.6286 151.024 6.62807 151.024 6.62773C151.023 6.62706 151.023 6.62642 151.023 6.62582C151.022 6.62461 151.021 6.62353 151.021 6.62258C151.019 6.62068 151.019 6.61929 151.018 6.61841C151.017 6.61664 151.017 6.61687 151.018 6.61902C151.021 6.62334 151.028 6.63523 151.038 6.65403C151.059 6.69186 151.092 6.75618 151.133 6.84194C151.216 7.01696 151.318 7.26211 151.397 7.54032C151.572 8.15264 151.553 8.61611 151.405 8.90914L154.976 10.7103C155.783 9.11161 155.536 7.46668 155.244 6.44355C155.09 5.90402 154.9 5.44969 154.748 5.12965C154.671 4.96788 154.603 4.83578 154.55 4.73907C154.523 4.6906 154.501 4.65068 154.483 4.62003C154.474 4.60469 154.467 4.59163 154.46 4.58095C154.457 4.57561 154.454 4.57086 154.452 4.56671C154.451 4.56463 154.449 4.5627 154.448 4.56093C154.448 4.56004 154.447 4.55919 154.447 4.55838C154.447 4.55798 154.446 4.55739 154.446 4.55719C154.446 4.55662 154.445 4.55606 152.735 5.59295ZM153.191 9.80974C155.184 9.97853 155.184 9.97815 155.184 9.97776C155.184 9.97762 155.184 9.97722 155.184 9.97693C155.184 9.97635 155.184 9.97572 155.184 9.97505C155.184 9.97371 155.184 9.97219 155.184 9.97049C155.185 9.96709 155.185 9.96297 155.185 9.95815C155.186 9.94851 155.187 9.93606 155.188 9.92095C155.19 9.89075 155.193 9.84981 155.196 9.79931C155.202 9.69851 155.209 9.55858 155.213 9.38914C155.221 9.05343 155.221 8.58622 155.183 8.06909C155.145 7.55946 155.068 6.95231 154.904 6.35396C154.747 5.77981 154.468 5.05427 153.929 4.44686L150.937 7.10197C150.9 7.05994 150.967 7.1215 151.046 7.40999C151.118 7.67427 151.167 8.00527 151.194 8.36313C151.22 8.71349 151.22 9.0431 151.214 9.28733C151.211 9.40786 151.206 9.50369 151.203 9.56614C151.201 9.59728 151.199 9.61985 151.198 9.63274C151.198 9.63918 151.198 9.64318 151.198 9.6446C151.198 9.64531 151.198 9.64538 151.198 9.64478C151.198 9.64448 151.198 9.64401 151.198 9.64337C151.198 9.64306 151.198 9.6427 151.198 9.64229C151.198 9.64209 151.198 9.64176 151.198 9.64166C151.198 9.64131 151.198 9.64096 153.191 9.80974ZM151.309 4.12028L150.002 5.0089L152.25 8.31716L153.557 7.42855L151.309 4.12028ZM151.126 6.66303C149.395 7.66473 149.394 7.66426 149.394 7.6638C149.394 7.66366 149.394 7.66321 149.394 7.66292C149.393 7.66235 149.393 7.66182 149.393 7.66131C149.392 7.66031 149.392 7.65943 149.391 7.65868C149.39 7.65717 149.39 7.65618 149.389 7.65568C149.389 7.65469 149.389 7.65568 149.391 7.65855C149.394 7.66433 149.402 7.67755 149.412 7.69753C149.433 7.73771 149.467 7.80374 149.507 7.89016C149.59 8.06672 149.69 8.30865 149.77 8.57576C149.961 9.21368 149.899 9.53215 149.862 9.60354L153.419 11.4348C154.19 9.93649 153.871 8.3269 153.602 7.42917C153.452 6.92845 153.273 6.50067 153.132 6.19947C153.061 6.047 152.998 5.92214 152.95 5.83115C152.926 5.78554 152.906 5.74811 152.89 5.71962C152.882 5.70537 152.875 5.69333 152.87 5.68359C152.867 5.67872 152.864 5.67442 152.862 5.6707C152.861 5.66885 152.86 5.66714 152.859 5.66557C152.859 5.66479 152.858 5.66405 152.858 5.66334C152.858 5.66299 152.857 5.66248 152.857 5.66231C152.857 5.66181 152.857 5.66133 151.126 6.66303ZM151.641 10.5192C153.64 10.4568 153.64 10.4566 153.64 10.4564C153.64 10.4563 153.64 10.456 153.64 10.4559C153.64 10.4555 153.639 10.4551 153.639 10.4546C153.639 10.4537 153.639 10.4525 153.639 10.4511C153.639 10.4484 153.639 10.4449 153.639 10.4406C153.639 10.4319 153.638 10.4201 153.638 10.4053C153.637 10.3757 153.635 10.3342 153.633 10.2823C153.628 10.1787 153.62 10.0329 153.609 9.85816C153.587 9.5122 153.548 9.03661 153.485 8.54244C153.423 8.06679 153.328 7.49097 153.171 6.97944C153.094 6.7284 152.977 6.40491 152.79 6.09344C152.629 5.82603 152.24 5.26573 151.495 5.00816L150.188 8.78856C149.616 8.59096 149.382 8.1888 149.36 8.15219C149.312 8.07153 149.316 8.05153 149.347 8.15118C149.405 8.34103 149.466 8.65543 149.518 9.05499C149.567 9.43603 149.598 9.82066 149.617 10.1161C149.627 10.2621 149.633 10.3823 149.637 10.4645C149.639 10.5056 149.64 10.5369 149.641 10.557C149.641 10.567 149.641 10.5742 149.641 10.5783C149.641 10.5804 149.642 10.5817 149.642 10.5823C149.642 10.5825 149.642 10.5826 149.642 10.5825C149.642 10.5824 149.642 10.5823 149.642 10.5821C149.642 10.5821 149.642 10.5819 149.642 10.5819C149.642 10.5817 149.641 10.5815 151.641 10.5192ZM149.657 5.28676C149.034 5.74471 148.471 6.27216 147.983 6.86008L151.06 9.41478C151.333 9.08608 151.656 8.78133 152.026 8.50997L149.657 5.28676ZM149.522 8.13743C147.764 9.09213 147.764 9.09172 147.764 9.09132C147.764 9.0912 147.763 9.09081 147.763 9.09056C147.763 9.09006 147.763 9.08958 147.762 9.08913C147.762 9.08822 147.762 9.08741 147.761 9.08669C147.76 9.08524 147.76 9.08417 147.759 9.08344C147.759 9.082 147.759 9.08196 147.759 9.08326C147.761 9.08588 147.765 9.09374 147.771 9.10628C147.784 9.13158 147.805 9.1744 147.83 9.23034C147.882 9.34657 147.942 9.4972 147.988 9.65188C148.037 9.81692 148.05 9.91912 148.05 9.9555C148.051 10.0006 148.035 9.82233 148.19 9.58444L151.543 11.7646C151.979 11.0938 152.061 10.3819 152.05 9.87009C152.038 9.34959 151.929 8.87163 151.822 8.51063C151.711 8.13928 151.58 7.818 151.48 7.59382C151.428 7.47956 151.383 7.38505 151.348 7.31558C151.33 7.28072 151.316 7.25184 151.304 7.22956C151.298 7.21841 151.293 7.20888 151.289 7.20106C151.287 7.19714 151.285 7.19365 151.283 7.1906C151.282 7.18907 151.282 7.18765 151.281 7.18634C151.281 7.18568 151.28 7.18505 151.28 7.18445C151.28 7.18415 151.28 7.18372 151.279 7.18357C151.279 7.18315 151.279 7.18273 149.522 8.13743ZM149.866 10.6745C151.843 10.3719 151.843 10.3717 151.843 10.3716C151.843 10.3715 151.843 10.3714 151.843 10.3713C151.843 10.371 151.843 10.3708 151.843 10.3705C151.843 10.3699 151.843 10.3691 151.843 10.3682C151.843 10.3665 151.842 10.3642 151.842 10.3614C151.841 10.3557 151.84 10.3479 151.838 10.3382C151.835 10.3187 151.831 10.2914 151.825 10.2572C151.814 10.1889 151.798 10.0928 151.778 9.9781C151.738 9.75115 151.681 9.43987 151.611 9.12104C151.545 8.8183 151.455 8.44217 151.341 8.11437C151.288 7.96334 151.197 7.721 151.053 7.48099C150.982 7.36349 150.846 7.15805 150.628 6.95925C150.415 6.76663 149.959 6.43336 149.285 6.41386L149.17 10.4122C148.532 10.3938 148.113 10.0791 147.938 9.9204C147.757 9.75554 147.659 9.59938 147.626 9.54429C147.585 9.47592 147.564 9.42817 147.56 9.41873C147.554 9.40574 147.555 9.40652 147.562 9.42558C147.595 9.52261 147.646 9.71133 147.703 9.9729C147.757 10.2184 147.804 10.4709 147.838 10.6666C147.855 10.7633 147.868 10.8433 147.877 10.8983C147.881 10.9257 147.885 10.9467 147.887 10.9603C147.888 10.967 147.889 10.9719 147.889 10.9748C147.889 10.9762 147.889 10.9771 147.89 10.9776C147.89 10.9778 147.89 10.9778 147.89 10.9778C147.89 10.9777 147.89 10.9777 147.89 10.9776C147.89 10.9775 147.89 10.9774 147.89 10.9774C147.889 10.9773 147.889 10.9772 149.866 10.6745ZM147.649 7.18422C146.899 8.1478 146.348 9.23773 146.036 10.4024L149.9 11.4366C150.068 10.8098 150.37 10.2005 150.805 9.64183L147.649 7.18422ZM149.965 11.0362C149.996 10.4961 150.19 9.94901 150.56 9.45051L147.346 7.06933C146.535 8.16305 146.051 9.45017 145.971 10.8028L149.965 11.0362ZM148.629 6.28634C147.636 6.44928 146.69 6.86655 145.916 7.51901L148.494 10.5773C148.683 10.4176 148.952 10.2868 149.277 10.2335L148.629 6.28634ZM147.205 7.04816C148.733 7.75755 149.176 9.38413 149.176 9.38575C149.176 9.38629 149.176 9.38791 149.175 9.38898C149.175 9.39114 149.175 9.39328 149.174 9.39541C149.174 9.39967 149.173 9.4039 149.172 9.40808C149.171 9.41646 149.169 9.42469 149.167 9.43277C149.164 9.44894 149.161 9.46457 149.157 9.47969C149.151 9.50989 149.143 9.53826 149.135 9.56501C149.12 9.61829 149.102 9.66653 149.082 9.71051C149.041 9.80041 148.991 9.87236 148.938 9.92521C148.799 10.0634 148.804 9.92477 149.334 9.8985L149.135 5.90342C147.814 5.96901 146.804 6.404 146.113 7.0928C145.784 7.42097 145.574 7.76249 145.441 8.05314C145.376 8.1975 145.329 8.32889 145.297 8.44025C145.28 8.49603 145.267 8.54717 145.257 8.59288C145.252 8.61575 145.247 8.63731 145.243 8.65748C145.241 8.66757 145.239 8.67731 145.238 8.6867C145.237 8.69139 145.236 8.696 145.235 8.70052C145.235 8.70278 145.234 8.70502 145.234 8.70723C145.234 8.70834 145.233 8.70999 145.233 8.71054C145.233 8.71218 145.677 10.3388 147.205 11.0482V7.04816ZM150.807 9.13616C151.053 8.82289 151.345 8.52943 151.678 8.26374L149.183 5.13717C148.616 5.58948 148.105 6.10163 147.662 6.66575L150.807 9.13616ZM150.577 4.70588C149.347 4.61508 148.106 4.73947 146.924 5.07468L148.016 8.9228C148.742 8.71674 149.514 8.63829 150.283 8.69503L150.577 4.70588ZM147.47 4.99874C149.316 6.22765 148.892 8.40513 148.891 8.40609C148.891 8.40641 148.89 8.40737 148.889 8.408C148.888 8.40926 148.887 8.41051 148.886 8.41174C148.883 8.41421 148.881 8.41663 148.878 8.41898C148.874 8.4237 148.869 8.4282 148.865 8.43248C148.856 8.44105 148.848 8.44877 148.84 8.4557C148.825 8.46955 148.813 8.48029 148.803 8.48833C148.784 8.50439 148.776 8.50987 148.778 8.50809C148.783 8.50492 148.833 8.47183 148.934 8.43521C149.119 8.36797 149.577 8.25151 150.391 8.40655L151.139 4.47719C149.643 4.19217 148.453 4.35414 147.569 4.67535C147.135 4.83296 146.794 5.02159 146.542 5.1916C146.416 5.27641 146.313 5.35634 146.231 5.4252C146.19 5.45964 146.154 5.49136 146.124 5.5196C146.108 5.53373 146.094 5.54699 146.082 5.5593C146.075 5.56546 146.069 5.57138 146.063 5.57705C146.061 5.57989 146.058 5.58266 146.055 5.58537C146.054 5.58673 146.052 5.58807 146.051 5.58939C146.05 5.59005 146.05 5.59103 146.049 5.59136C146.048 5.59234 145.625 7.76982 147.47 8.99874V4.99874ZM151.923 8.07253L153.218 7.15329L150.902 3.89197L149.607 4.81121L151.923 8.07253ZM152.06 5.52263C152.288 3.53567 152.287 3.53565 152.287 3.53563C152.287 3.53562 152.287 3.5356 152.287 3.53558C152.287 3.53555 152.286 3.53551 152.286 3.53547C152.285 3.53538 152.284 3.53528 152.283 3.53516C152.281 3.53493 152.278 3.53462 152.275 3.53426C152.269 3.53353 152.26 3.53255 152.249 3.53135C152.227 3.52896 152.196 3.52567 152.157 3.52171C152.08 3.5138 151.972 3.50316 151.839 3.49155C151.574 3.46846 151.208 3.44091 150.803 3.42382C150.107 3.39448 148.915 3.37206 148.032 3.63871L149.189 7.4678C149.182 7.46993 149.219 7.45869 149.317 7.44556C149.41 7.43312 149.53 7.42267 149.674 7.41591C149.966 7.40229 150.301 7.40621 150.634 7.42027C150.964 7.43416 151.268 7.45691 151.49 7.47636C151.601 7.48603 151.69 7.49472 151.749 7.50083C151.779 7.50388 151.801 7.50628 151.815 7.50781C151.822 7.50857 151.827 7.50912 151.83 7.50943C151.831 7.50958 151.832 7.50967 151.833 7.5097C151.833 7.50972 151.833 7.50971 151.833 7.5097C151.832 7.50969 151.832 7.50967 151.832 7.50966C151.832 7.50965 151.832 7.50963 151.832 7.50963C151.832 7.50961 151.832 7.50959 152.06 5.52263ZM148.61 5.55326C149.807 7.15582 149.806 7.15664 149.805 7.15746C149.804 7.15772 149.803 7.15854 149.803 7.15907C149.801 7.16014 149.8 7.1612 149.798 7.16224C149.795 7.16433 149.793 7.16637 149.79 7.16835C149.785 7.17231 149.779 7.17606 149.774 7.17961C149.764 7.1867 149.755 7.19298 149.747 7.1985C149.731 7.20954 149.718 7.21757 149.709 7.22304C149.691 7.234 149.688 7.23471 149.7 7.22889C149.724 7.21762 149.811 7.17865 149.968 7.14331C150.272 7.07495 150.906 7.00408 151.93 7.25599L152.886 3.37191C151.294 2.98019 150.03 3.02897 149.089 3.24117C148.623 3.34612 148.252 3.48765 147.972 3.62181C147.832 3.68871 147.716 3.75337 147.623 3.81011C147.577 3.83847 147.536 3.86483 147.501 3.88849C147.484 3.90033 147.468 3.91148 147.453 3.92188C147.446 3.92708 147.439 3.93208 147.433 3.93689C147.429 3.93929 147.426 3.94164 147.423 3.94394C147.421 3.9451 147.42 3.94623 147.418 3.94736C147.418 3.94792 147.416 3.94875 147.416 3.94903C147.415 3.94986 147.414 3.95069 148.61 5.55326ZM153.335 7.08621L154.744 6.34901L152.891 2.80449L151.481 3.54169L153.335 7.08621ZM154.192 2.6122C152.961 2.37712 151.701 2.2826 150.443 2.33038L150.595 6.32749C151.552 6.29113 152.509 6.3632 153.443 6.54129L154.192 2.6122ZM150.519 4.32894C151.37 6.13884 151.369 6.13931 151.368 6.13978C151.368 6.13993 151.367 6.1404 151.366 6.1407C151.365 6.14131 151.364 6.14191 151.362 6.1425C151.36 6.14367 151.357 6.14481 151.355 6.14591C151.35 6.14811 151.346 6.15016 151.341 6.15206C151.333 6.15586 151.326 6.15908 151.319 6.16176C151.307 6.16711 151.299 6.17032 151.295 6.17179C151.287 6.17471 151.297 6.17065 151.324 6.16275C151.377 6.14705 151.5 6.11567 151.691 6.09443C152.067 6.05259 152.739 6.04637 153.699 6.31015L154.759 2.45319C153.307 2.05406 152.124 2.02147 151.248 2.11899C150.813 2.16744 150.461 2.24717 150.196 2.32516C150.063 2.36411 149.953 2.40253 149.865 2.43624C149.821 2.45309 149.782 2.46876 149.749 2.48274C149.733 2.48972 149.718 2.49628 149.705 2.50235C149.698 2.50539 149.691 2.5083 149.685 2.51108C149.682 2.51247 149.679 2.51383 149.676 2.51516C149.675 2.51582 149.674 2.51647 149.672 2.51712C149.672 2.51744 149.671 2.51792 149.67 2.51808C149.669 2.51856 149.668 2.51903 150.519 4.32894ZM154.964 6.24146L155.968 5.84451L154.497 2.12493L153.493 2.52188L154.964 6.24146ZM155.232 3.98472C155.57 2.01347 155.57 2.01347 155.57 2.01346C155.57 2.01346 155.57 2.01345 155.57 2.01345C155.57 2.01343 155.57 2.01341 155.57 2.01339C155.569 2.01335 155.569 2.01329 155.569 2.01322C155.568 2.01307 155.567 2.01287 155.565 2.0126C155.562 2.01206 155.557 2.01128 155.552 2.01028C155.54 2.00828 155.523 2.00538 155.501 2.00169C155.458 1.99432 155.395 1.98381 155.319 1.97109C155.168 1.94571 154.96 1.91134 154.738 1.87562C154.33 1.81019 153.76 1.72146 153.449 1.69449L153.103 5.67952C153.237 5.69111 153.644 5.75123 154.104 5.82503C154.315 5.85892 154.513 5.89175 154.659 5.91615C154.732 5.92834 154.791 5.93837 154.832 5.94532C154.852 5.9488 154.868 5.9515 154.879 5.95332C154.884 5.95422 154.888 5.95491 154.891 5.95535C154.892 5.95558 154.893 5.95574 154.894 5.95584C154.894 5.95589 154.894 5.95593 154.894 5.95595C154.894 5.95596 154.894 5.95597 154.894 5.95597C154.894 5.95597 154.894 5.95597 154.894 5.95597C154.894 5.95597 154.894 5.95597 155.232 3.98472ZM153.449 1.69449C153.348 1.6857 153.531 1.68378 153.805 1.82763C153.956 1.90686 154.163 2.04535 154.355 2.27594C154.452 2.39164 154.54 2.52491 154.612 2.67517C154.648 2.74971 154.68 2.82651 154.706 2.90509C154.719 2.94429 154.731 2.98367 154.742 3.02317C154.747 3.04291 154.752 3.06265 154.756 3.08238C154.759 3.09224 154.761 3.1021 154.763 3.11195C154.764 3.11687 154.765 3.12179 154.766 3.12672C154.767 3.12917 154.768 3.13286 154.768 3.13409C154.769 3.13778 154.769 3.14147 152.809 3.53957C150.849 3.93766 150.85 3.94135 150.851 3.94504C150.851 3.94627 150.852 3.94996 150.852 3.95243C150.853 3.95735 150.855 3.96229 150.856 3.96722C150.858 3.9771 150.86 3.987 150.862 3.99691C150.867 4.01675 150.872 4.03664 150.877 4.05659C150.888 4.0965 150.9 4.1365 150.913 4.17651C150.94 4.2567 150.972 4.33587 151.01 4.41347C151.085 4.56984 151.179 4.71191 151.284 4.83842C151.494 5.09063 151.735 5.25875 151.947 5.37002C152.344 5.57795 152.76 5.64975 153.103 5.67952L153.449 1.69449ZM153.096 5.51887C153.738 5.42583 154.393 5.49177 154.982 5.70171L156.326 1.93429C155.114 1.50195 153.8 1.37506 152.522 1.56026L153.096 5.51887ZM155.654 3.818C156.257 5.72485 156.257 5.72484 156.257 5.72481C156.257 5.7248 156.257 5.72478 156.258 5.72475C156.258 5.72471 156.258 5.72466 156.258 5.72459C156.258 5.72446 156.259 5.72429 156.26 5.72408C156.261 5.72366 156.263 5.72308 156.265 5.72234C156.27 5.72085 156.277 5.71874 156.285 5.71603C156.302 5.71061 156.326 5.7028 156.357 5.69292C156.419 5.67316 156.506 5.64501 156.61 5.61089C156.818 5.54304 157.098 5.4499 157.381 5.35143C157.655 5.25587 157.964 5.14385 158.215 5.03957C158.33 4.99193 158.496 4.92018 158.653 4.83271C158.717 4.79719 158.884 4.70276 159.058 4.55143C159.139 4.48061 159.322 4.31237 159.48 4.04543C159.638 3.7787 159.902 3.17499 159.674 2.428L155.849 3.59977C155.623 2.86061 155.885 2.26581 156.037 2.009C156.189 1.75198 156.362 1.59467 156.43 1.5357C156.576 1.40808 156.701 1.34109 156.71 1.33612C156.758 1.30976 156.762 1.31161 156.681 1.34522C156.541 1.40347 156.321 1.48464 156.064 1.57444C155.814 1.66134 155.561 1.74573 155.367 1.80907C155.271 1.84055 155.191 1.8664 155.135 1.88426C155.107 1.89318 155.086 1.90008 155.071 1.90466C155.064 1.90696 155.059 1.90867 155.055 1.90976C155.053 1.91031 155.052 1.9107 155.051 1.91093C155.051 1.91105 155.051 1.91112 155.051 1.91116C155.051 1.91118 155.051 1.91118 155.051 1.91118C155.051 1.91118 155.051 1.91117 155.051 1.91117C155.051 1.91116 155.051 1.91114 155.654 3.818Z" fill="black" mask="url(#path-4-outside-1)"/>
<path opacity="0.34" d="M46.7376 44.8302L47.657 45.2235L48.8086 42.5316L46.2509 43.9566L46.7376 44.8302ZM46.7376 44.8302C46.2509 43.9566 46.2505 43.9568 46.25 43.9571L46.2485 43.9579L46.2438 43.9606L46.227 43.97L46.1653 44.0051C46.1118 44.0357 46.0339 44.0806 45.9332 44.1396C45.7318 44.2577 45.4393 44.4323 45.0686 44.6621C44.3274 45.1214 43.2731 45.8013 42.0106 46.6892C39.4874 48.4637 36.1232 51.0756 32.7624 54.4255C26.0633 61.1028 19.2497 70.8433 19.3621 82.8202C19.3765 84.3575 19.5018 85.5965 19.7491 86.5422C19.9876 87.4546 20.3891 88.285 21.1139 88.7328C21.9123 89.2261 22.7805 89.0731 23.4912 88.7208C24.1885 88.3751 24.892 87.7715 25.5828 87.0385C28.3337 84.1196 31.8771 78.0457 35.2989 71.4824C38.4347 65.468 41.5243 58.9025 43.828 53.8457C44.9804 51.3162 45.9371 49.1618 46.606 47.6393C46.9404 46.8781 47.2029 46.2748 47.3819 45.8615C47.4714 45.6548 47.54 45.4956 47.5864 45.388L47.639 45.2656L47.6524 45.2343L47.6558 45.2263L47.6567 45.2243L47.6569 45.2237C47.657 45.2236 47.657 45.2235 46.7376 44.8302Z" fill="#F47329" stroke="black" stroke-width="2"/>
<path d="M71.4633 76.8564C71.4633 70.6624 67.0376 65.4086 61.3092 65.4086C55.5828 65.4086 51.155 70.6617 51.155 76.8564C51.155 79.9088 52.2212 84.6949 53.9146 88.7133C54.7635 90.728 55.7967 92.6147 56.9825 94.0155C58.1487 95.3931 59.6065 96.4656 61.3092 96.4656C63.0118 96.4656 64.4697 95.393 65.6358 94.0154C66.8216 92.6145 67.8548 90.7278 68.7038 88.7131C70.3971 84.6946 71.4633 79.9085 71.4633 76.8564Z" fill="#444053" stroke="black" stroke-width="2"/>
<path d="M118.989 76.8564C118.989 70.6624 114.563 65.4086 108.835 65.4086C103.109 65.4086 98.6808 70.6617 98.6808 76.8564C98.6808 79.9088 99.7469 84.6949 101.44 88.7133C102.289 90.728 103.322 92.6147 104.508 94.0155C105.674 95.3931 107.132 96.4656 108.835 96.4656C110.538 96.4656 111.995 95.393 113.162 94.0154C114.347 92.6145 115.381 90.7278 116.23 88.7131C117.923 84.6946 118.989 79.9085 118.989 76.8564Z" fill="#444053" stroke="black" stroke-width="2"/>
<path d="M83.0909 143.606C93.7553 143.606 104.577 143.291 112.748 141.615C116.828 140.778 120.345 139.584 122.863 137.849C125.419 136.089 126.999 133.727 126.999 130.647C126.999 129.133 126.614 127.822 125.854 126.721C125.1 125.627 124.021 124.805 122.73 124.184C120.182 122.96 116.646 122.45 112.594 122.276C108.516 122.102 103.779 122.266 98.7611 122.471C98.2251 122.493 97.6858 122.515 97.1436 122.537C92.5944 122.726 87.837 122.923 83.0909 122.923C77.9901 122.923 72.9692 122.672 68.2596 122.436C68.0686 122.427 67.8782 122.417 67.6883 122.408C62.8298 122.165 58.2973 121.95 54.4263 122.073C50.5815 122.195 47.2403 122.652 44.8354 123.847C43.6139 124.455 42.5993 125.269 41.8948 126.355C41.1876 127.446 40.8368 128.743 40.8368 130.241C40.8368 133.284 42.2775 135.669 44.6797 137.482C47.0436 139.266 50.3582 140.517 54.2383 141.408C62.0061 143.19 72.4213 143.606 83.0909 143.606Z" fill="#444053" stroke="black" stroke-width="2"/>
</svg>
