<svg width="197" height="176" viewBox="0 0 197 176" fill="none" xmlns="http://www.w3.org/2000/svg">
<path d="M174.16 95.9331C175.146 95.9331 176.087 95.7069 176.817 95.2898C177.519 94.8888 178.216 94.1825 178.216 93.1865C178.216 92.1905 177.519 91.4842 176.817 91.0832C176.087 90.666 175.146 90.4398 174.16 90.4398C173.174 90.4398 172.233 90.666 171.503 91.0832C170.801 91.4842 170.104 92.1905 170.104 93.1865C170.104 94.1825 170.801 94.8888 171.503 95.2898C172.233 95.7069 173.174 95.9331 174.16 95.9331Z" fill="#575A89" stroke="black" stroke-width="2"/>
<path d="M90.1626 174.741C139.31 174.741 179.325 138.65 179.325 93.9267C179.325 49.2031 139.31 13.1127 90.1626 13.1127C41.0154 13.1127 1 49.2031 1 93.9267C1 138.65 41.0154 174.741 90.1626 174.741Z" fill="#D3C0F3" stroke="black" stroke-width="2"/>
<path d="M90.777 138.114C100.216 138.114 106.261 140.727 110.138 142.403C110.5 142.56 110.843 142.708 111.168 142.845C112.111 143.243 112.985 143.584 113.743 143.732C114.509 143.881 115.364 143.873 116.08 143.311C116.753 142.783 117.077 141.931 117.259 140.985C117.443 140.024 117.516 138.765 117.518 137.174C117.753 135.257 118.406 133.268 119.162 131.174C119.289 130.822 119.42 130.467 119.551 130.109C120.194 128.353 120.862 126.532 121.303 124.731C121.837 122.547 122.066 120.29 121.504 118.052C120.937 115.795 119.59 113.657 117.15 111.674C109.75 105.654 100.402 101.209 90.7784 101.209C81.4292 101.209 72.1976 105.313 64.7347 110.965C62.1477 112.923 60.6194 115.135 59.8202 117.489C59.0263 119.828 58.9745 122.241 59.2295 124.574C59.4555 126.643 59.9311 128.707 60.3739 130.63C60.4281 130.865 60.4819 131.098 60.5346 131.329C61.027 133.485 61.4267 135.416 61.4267 137.114C61.4267 138.748 61.5404 140.055 61.8151 141.06C62.0917 142.072 62.5669 142.901 63.3789 143.384C64.1751 143.858 65.0963 143.879 65.991 143.738C66.8891 143.597 67.9149 143.267 69.0312 142.865C69.5706 142.67 70.1447 142.454 70.7553 142.225C75.2354 140.539 81.68 138.114 90.777 138.114Z" fill="#6E055C" stroke="black" stroke-width="2"/>
<path d="M119.342 120.54L122.136 121.218L120.366 118.952C112.019 108.265 101.37 100.225 90.2939 100.224H90.2939C79.5328 100.224 69.0098 107.647 60.5827 117.694L58.5966 120.062L61.5934 119.306C83.7613 113.717 106.644 117.455 119.342 120.54Z" fill="#F6F8FB" stroke="black" stroke-width="2"/>
<path d="M52.5089 86.0389C51.532 86.0852 48.727 86.2554 45.4358 86.7669C42.1282 87.2809 38.4112 88.1277 35.5661 89.4949C34.4777 90.0338 33.2581 90.3343 32.0139 90.3774L32.0036 90.3777L32.0036 90.3777C31.0111 90.4018 29.607 90.2639 28.6871 89.3132C27.6747 88.2668 27.6169 86.6709 28.3622 84.6754C29.0078 82.9319 30.3856 81.2276 32.1202 79.6785C33.8684 78.1173 36.0465 76.6539 38.3944 75.4075C43.0612 72.9301 48.5659 71.2239 52.8897 71.4262C52.8898 71.4262 52.8898 71.4262 52.8898 71.4262L52.8431 72.4251L52.5089 86.0389ZM52.5089 86.0389C52.734 86.0287 52.9596 86.0287 53.1847 86.0389C54.2457 86.0881 57.4378 86.2794 61.0587 86.8969C64.7114 87.5198 68.6651 88.5551 71.3328 90.2281L71.3329 90.2281C73.4742 91.5707 75.2396 91.9633 76.5219 91.099C77.1332 90.6871 77.4767 90.0774 77.6713 89.5065C77.866 88.9351 77.9381 88.3277 77.9574 87.8012L52.5089 86.0389Z" fill="#6E055C" stroke="black" stroke-width="2"/>
<path d="M37.0994 61.5323C37.1847 61.3989 37.2744 61.2679 37.3685 61.1394C37.8138 60.5326 39.1722 58.7174 40.8937 56.7466C42.6348 54.7533 44.6707 52.6907 46.4671 51.5208L37.0994 61.5323ZM37.0994 61.5323C36.335 62.7329 32.9517 68.2015 31.9138 72.1409C31.7041 72.9372 31.3589 73.7053 30.8882 74.4208L30.8875 74.4219C30.6823 74.7329 30.4308 75.0694 30.1373 75.37C29.8518 75.6623 29.4722 75.9771 28.9983 76.1714C28.4832 76.3825 27.888 76.435 27.3084 76.2133C26.7749 76.0093 26.3601 75.613 26.024 75.127C25.416 74.2545 25.2004 72.9816 25.1917 71.6325C25.1827 70.2475 25.3926 68.6418 25.7665 66.9948C26.5105 63.7175 27.9375 60.1322 29.7532 57.6583L29.7532 57.6581C33.0881 53.1156 38.1983 48.0226 45.2906 46.4062C45.7051 46.2955 46.1353 46.2613 46.5535 46.3009C46.982 46.3415 47.3917 46.459 47.7567 46.644L47.7741 46.6529L47.791 46.6623C48.3067 46.9495 49.1036 47.5725 48.9673 48.6322C48.8417 49.6091 47.9524 50.5539 46.4672 51.5207L37.0994 61.5323Z" fill="#6E055C" stroke="black" stroke-width="2"/>
<path d="M142.943 61.2866C143.038 61.4156 143.127 61.5466 143.212 61.6796C143.613 62.308 144.798 64.2076 145.962 66.4499C147.139 68.7178 148.239 71.2357 148.543 73.1322L142.943 61.2866ZM142.943 61.2866C142.092 60.1281 138.167 54.9235 134.639 52.196C133.926 51.6447 133.31 51.0086 132.81 50.3072L132.809 50.3061C132.592 50.0008 132.373 49.6489 132.211 49.2843C132.053 48.9296 131.92 48.4951 131.957 48.0519C131.998 47.5703 132.241 47.1094 132.759 46.7971C133.235 46.5095 133.85 46.4048 134.517 46.4024C135.717 46.3948 137.132 46.8738 138.522 47.5419C139.95 48.2279 141.494 49.184 142.999 50.2805C145.993 52.4624 148.962 55.297 150.596 57.8597L150.596 57.8598C153.594 62.5661 156.27 68.8438 154.385 74.8305C154.291 75.1885 154.111 75.5198 153.861 75.8053C153.605 76.0979 153.28 76.3383 152.907 76.5123L152.89 76.5206L152.871 76.5282C152.318 76.7611 151.28 77.0315 150.26 76.4022C149.319 75.822 148.793 74.7002 148.543 73.1324L142.943 61.2866Z" fill="#6E055C" stroke="black" stroke-width="2"/>
<path d="M105.725 90.3774L105.714 90.3777C104.722 90.4018 103.318 90.2639 102.398 89.3132C101.385 88.2666 101.328 86.6703 102.073 84.6742C102.719 82.9311 104.097 81.2272 105.831 79.6785C107.579 78.1173 109.757 76.6539 112.105 75.4075C116.772 72.9301 122.277 71.2239 126.6 71.4262C126.6 71.4262 126.6 71.4262 126.6 71.4262L126.554 72.4251L105.725 90.3774ZM105.725 90.3774C106.969 90.3343 108.188 90.0337 109.277 89.4948C112.122 88.1277 115.839 87.2809 119.147 86.7669C122.438 86.2554 125.243 86.0852 126.22 86.0388M105.725 90.3774L126.22 86.0388M126.22 86.0388C126.445 86.0287 126.67 86.0287 126.895 86.0389C127.956 86.0881 131.148 86.2794 134.769 86.8969C138.422 87.5198 142.376 88.5551 145.043 90.2281L145.044 90.2281C147.185 91.5707 148.95 91.9633 150.233 91.099C150.844 90.6871 151.187 90.0774 151.382 89.5065C151.577 88.9351 151.649 88.3277 151.668 87.8013L126.22 86.0388Z" fill="#6E055C" stroke="black" stroke-width="2"/>
<path d="M193.818 4.37187L193.768 5.34979C193.818 4.37187 193.818 4.37185 193.817 4.37182L193.815 4.37174L193.81 4.3715L193.793 4.37065L193.727 4.36778C193.669 4.36542 193.586 4.36225 193.478 4.35889C193.263 4.35216 192.95 4.34465 192.554 4.34123C191.763 4.3344 190.64 4.34389 189.304 4.40889C186.639 4.53857 183.096 4.89052 179.641 5.78852C176.206 6.68165 172.744 8.14361 170.353 10.5705C167.939 13.0203 166.693 16.3776 167.529 20.8243C167.514 20.9349 167.498 21.0811 167.49 21.2552C167.474 21.6285 167.493 22.1456 167.639 22.7203C167.941 23.9111 168.773 25.2641 170.698 26.0739L172.026 26.6325L172.077 25.3797C172.212 25.3077 172.68 25.1386 173.874 25.3142L173.88 25.315C174.124 25.3496 174.37 25.3786 174.616 25.4022L174.626 25.4666L174.665 25.4069C175.5 25.4844 176.342 25.4986 177.181 25.4491C177.62 25.4243 178.055 25.366 178.48 25.2756L178.51 26.2126L179.095 25.1202C179.927 24.8763 180.709 24.5051 181.403 24.0168C181.472 23.9896 181.564 23.952 181.677 23.9033C181.927 23.7944 182.28 23.6292 182.708 23.3966C183.565 22.9315 184.73 22.1954 185.992 21.0992C188.488 18.9315 191.351 15.3699 192.983 9.76145C193.04 9.70025 193.11 9.62551 193.188 9.54007C193.409 9.29726 193.706 8.96404 194.003 8.60789C194.295 8.25647 194.605 7.86152 194.84 7.49912C194.957 7.31959 195.073 7.12202 195.158 6.92457C195.227 6.76745 195.354 6.44142 195.299 6.07128L195.121 4.86361L194.702 5.01404L194.494 4.4062L193.818 4.37187ZM193.136 4.63075C193.136 4.63076 193.135 4.63118 193.134 4.63204C193.135 4.63118 193.136 4.63075 193.136 4.63075Z" fill="#E45DA3" stroke="black" stroke-width="2"/>
<path d="M168.269 2.14326L168.24 2.05095L167.547 2.01557L167.527 2.40957L167.527 2.40959C167.547 2.01556 167.546 2.01555 167.546 2.01554L167.545 2.01549L167.542 2.01534L167.533 2.0149L167.5 2.01348C167.473 2.01233 167.433 2.01082 167.383 2.00923C167.282 2.00605 167.136 2.00254 166.953 2.00091C166.587 1.99767 166.07 2.00196 165.454 2.03179C164.231 2.09112 162.59 2.25283 160.98 2.67125C159.389 3.08483 157.714 3.77782 156.531 4.97672C155.327 6.19784 154.712 7.86749 155.085 10.0046C155.018 10.5712 155.143 11.1375 155.432 11.632C155.755 12.184 156.258 12.6057 156.841 12.8643L157.247 11.9504C158.246 11.9914 158.246 11.9925 158.246 11.9936L158.246 11.9958L158.246 12.0003L158.245 12.0091L158.244 12.0266C158.243 12.0383 158.242 12.0498 158.24 12.0613C158.238 12.0843 158.234 12.1073 158.229 12.1303C158.22 12.1762 158.205 12.2237 158.184 12.2712C158.139 12.3731 158.07 12.4553 157.995 12.5081C157.951 12.5392 157.923 12.5479 157.923 12.548C157.923 12.5483 158.036 12.5141 158.359 12.5581L158.518 13.5609L159.138 12.6374C159.437 12.6532 159.736 12.6524 160.035 12.635L160.035 12.6351L160.041 12.6347C160.045 12.6344 160.049 12.6341 160.053 12.6339L160.114 14.5098L161.244 12.3859C161.565 12.2702 161.871 12.1163 162.152 11.9257C162.176 11.9156 162.203 11.9042 162.233 11.8914C162.359 11.8363 162.533 11.7547 162.742 11.6413C163.159 11.4148 163.718 11.0601 164.323 10.535C165.502 9.51013 166.834 7.85024 167.611 5.27639C167.614 5.27375 167.616 5.2711 167.618 5.26843C167.722 5.15529 167.862 4.99871 168.004 4.83006C168.141 4.66582 168.297 4.47025 168.422 4.28287C168.483 4.19071 168.553 4.07632 168.61 3.95266C168.648 3.86869 168.763 3.61378 168.732 3.29856L168.606 2.02241L168.269 2.14326Z" fill="#E45DA3" stroke="black" stroke-width="2"/>
<path d="M48.5236 165.07H49.4876L49.5229 164.107L52.2233 90.4862L52.2331 90.2186L52.1079 89.982L49.5471 85.1406L49.1895 84.4644L48.4433 84.6326L32.684 88.1855L31.9039 88.3613V89.161V164.07V165.07H32.9039H48.5236Z" fill="#5116B8" stroke="black" stroke-width="2"/>
<path d="M49.7387 84.791L49.381 84.1148L48.6348 84.283L32.3342 87.9579L31.5541 88.1338V88.9334V164.358V165.358H32.5541H48.8547H49.8187L49.854 164.394L52.5672 90.4247L52.577 90.1571L52.4518 89.9205L49.7387 84.791ZM34.2455 162.775V90.1807L47.9371 87.094L49.8626 90.7344L47.2203 162.775H34.2455Z" fill="#5116B8" stroke="black" stroke-width="2"/>
<path d="M146.628 165.07H147.628V164.07V89.161V88.3613L146.848 88.1855L131.089 84.6326L130.343 84.4644L129.985 85.1406L127.424 89.982L127.299 90.2186L127.309 90.4862L130.009 164.107L130.044 165.07H131.008H146.628Z" fill="#5116B8" stroke="black" stroke-width="2"/>
<path d="M130.89 84.283L130.143 84.1148L129.786 84.791L127.073 89.9205L126.947 90.1571L126.957 90.4247L129.67 164.394L129.706 165.358H130.67H146.97H147.97V164.358V88.9334V88.1338L147.19 87.9579L130.89 84.283ZM129.662 90.7344L131.587 87.094L145.279 90.1807V162.775H132.304L129.662 90.7344Z" fill="#5116B8" stroke="black" stroke-width="2"/>
</svg>
