<svg width="188" height="167" viewBox="0 0 188 167" fill="none" xmlns="http://www.w3.org/2000/svg">
<path d="M169.773 88.1766C169.773 88.1768 169.773 88.1769 169.773 88.177L169.773 88.1768L169.773 88.1767C169.773 88.1768 169.773 88.1769 169.773 88.177C169.773 88.1776 169.773 88.1802 169.771 88.1849C169.768 88.1943 169.758 88.2157 169.734 88.2479C169.685 88.3156 169.583 88.414 169.404 88.5169C169.042 88.7244 168.475 88.8846 167.795 88.8846C167.115 88.8846 166.548 88.7244 166.187 88.5169C166.007 88.414 165.906 88.3156 165.856 88.2479C165.832 88.2157 165.823 88.1943 165.819 88.1849C165.818 88.1802 165.817 88.1776 165.817 88.177C165.817 88.177 165.817 88.1769 165.817 88.1768C165.817 88.1768 165.817 88.1767 165.817 88.1766C165.817 88.176 165.818 88.1735 165.819 88.1688C165.823 88.1594 165.832 88.1379 165.856 88.1057C165.906 88.038 166.007 87.9396 166.187 87.8368C166.548 87.6293 167.115 87.4691 167.795 87.4691C168.475 87.4691 169.042 87.6293 169.404 87.8368C169.583 87.9396 169.685 88.038 169.734 88.1057C169.758 88.1379 169.768 88.1594 169.771 88.1688C169.773 88.1735 169.773 88.176 169.773 88.1766ZM165.817 88.1767L165.817 88.1767L165.817 88.1767Z" fill="#575A89" stroke="black" stroke-width="2"/>
<path d="M170.854 88.9003C170.854 131.357 132.931 165.936 85.9447 165.936C38.9581 165.936 1.03564 131.357 1.03564 88.9003C1.03564 46.4431 38.9581 11.865 85.9447 11.865C132.931 11.865 170.854 46.4431 170.854 88.9003Z" fill="#D8EBE8" stroke="black" stroke-width="2"/>
<path d="M170.623 19.9745C170.275 19.995 169.927 20.0028 169.58 19.9978L169.654 19.8857C170.126 19.1711 170.257 18.3504 170.241 17.6078C170.225 16.8627 170.06 16.1216 169.866 15.4876C169.669 14.8483 169.431 14.282 169.244 13.8777C169.232 13.8517 169.22 13.8263 169.208 13.8015C169.258 13.749 169.313 13.693 169.374 13.6339C169.649 13.3636 169.991 13.0625 170.335 12.7752C170.534 12.6082 170.73 12.449 170.908 12.3073C170.957 12.4283 171.008 12.5693 171.059 12.7311C171.28 13.4343 171.451 14.3613 171.579 15.3174C171.705 16.2642 171.783 17.199 171.83 17.9002C171.853 18.2499 171.868 18.5395 171.878 18.7408C171.882 18.8414 171.886 18.9198 171.888 18.9726L171.89 19.0321L171.89 19.0465L171.891 19.0498L171.891 19.0503L171.891 19.0504L171.891 19.0504L171.914 19.7673C171.501 19.8788 171.068 19.9492 170.626 19.9743L170.623 19.9745ZM170.48 11.4358C170.48 11.4358 170.479 11.4365 170.476 11.4377C170.479 11.4363 170.48 11.4357 170.48 11.4358ZM174.331 18.624C174.234 18.6663 174.161 18.6959 174.114 18.714C174.798 16.7927 174.424 14.6819 173.935 13.1179C173.649 12.202 173.302 11.4074 173.028 10.8426C173.014 10.8145 173.001 10.787 172.987 10.76L174.42 9.81474C174.629 10.2002 174.808 10.6602 174.955 11.1818C175.201 12.0554 175.339 13.0278 175.409 13.9534C175.48 14.8752 175.481 15.7259 175.465 16.3473C175.457 16.6572 175.444 16.9081 175.434 17.0798C175.429 17.1656 175.424 17.2315 175.421 17.275L175.417 17.323L175.417 17.3338L175.416 17.3354L175.416 17.3357C175.416 17.3357 175.416 17.3357 175.418 17.3358L176.231 17.5726C175.84 17.83 175.486 18.0386 175.181 18.2044C174.818 18.4023 174.526 18.5388 174.331 18.624ZM178.028 16.2037C177.987 16.2394 177.946 16.2747 177.905 16.3095C178.418 14.3523 178.118 12.3883 177.673 10.8734C177.387 9.90002 177.028 9.07112 176.742 8.48462L178.421 7.65514C178.627 7.9802 178.803 8.38918 178.944 8.87599C179.168 9.65042 179.281 10.5352 179.325 11.3935C179.369 12.2468 179.344 13.0427 179.308 13.6274C179.29 13.9187 179.269 14.155 179.253 14.3168C179.245 14.3976 179.238 14.4597 179.233 14.5005L179.228 14.5454L179.227 14.5553L179.227 14.5565L179.226 14.5568C179.226 14.5568 179.226 14.5568 179.228 14.557L179.581 14.6767C179.055 15.2588 178.531 15.7652 178.028 16.2037ZM182.09 11.1986C182.062 11.2468 182.035 11.2946 182.007 11.3422C181.991 10.4106 181.839 9.52478 181.647 8.76133C181.426 7.88342 181.141 7.12149 180.905 6.56599C180.968 6.53985 181.031 6.51338 181.095 6.48688C181.281 6.40905 181.468 6.33171 181.639 6.26227C181.733 6.63068 181.812 7.11994 181.876 7.65387C181.948 8.26393 181.994 8.8828 182.021 9.35278C182.035 9.58682 182.044 9.78183 182.05 9.91769C182.053 9.98558 182.055 10.0386 182.056 10.0742L182.058 10.1142L182.058 10.1238L182.058 10.1259L182.058 10.1261L182.058 10.1262L182.09 11.1986ZM184.302 5.84279C184.287 5.89741 184.271 5.95181 184.256 6.006C184.196 5.79479 184.132 5.59881 184.068 5.42141L184.784 5.16344C184.723 5.22956 184.671 5.28516 184.631 5.32776C184.602 5.35917 184.579 5.38346 184.564 5.39962L184.547 5.41764L184.543 5.42184L184.542 5.4227L184.542 5.42278L184.542 5.4228L184.37 5.6029L184.302 5.84279ZM169.796 5.95201C169.962 5.879 170.129 5.80786 170.297 5.73854L170.351 5.9338C170.16 5.93638 169.976 5.94258 169.796 5.95201ZM174.535 6.39784C174.438 6.37642 174.342 6.35585 174.247 6.33609C174.361 6.34713 174.476 6.35861 174.589 6.37047L174.535 6.39784ZM165.492 8.78873C165.64 8.63808 165.794 8.49135 165.953 8.34844L166.214 8.87574C165.84 8.94334 165.496 9.02709 165.181 9.12098C165.282 9.00793 165.386 8.8972 165.492 8.78873ZM170.66 8.90545C169.484 8.71182 168.445 8.66778 167.537 8.72042C168.483 8.63345 169.641 8.63638 170.751 8.68396C170.824 8.68708 170.897 8.69038 170.968 8.69382L170.66 8.90545ZM163.143 13.4983C163.224 12.9202 163.357 12.3781 163.537 11.8689L163.689 12.1072C164.761 11.7045 166.237 11.5383 167.549 11.4861C167.33 11.7228 167.131 11.9447 166.974 12.1219C166.947 12.1529 166.921 12.1825 166.896 12.2106C165.137 12.3598 163.943 12.8732 163.143 13.4983ZM167.832 19.4898L167.892 19.8726C167.862 19.8684 167.831 19.8642 167.8 19.8599C166.855 19.7206 166.101 19.7372 165.506 19.8835C165.652 18.9955 166.238 17.8235 166.891 16.765C166.992 16.6009 167.092 16.4431 167.19 16.2936C167.25 16.5298 167.31 16.7817 167.367 17.0397C167.502 17.65 167.619 18.2632 167.702 18.7262C167.743 18.957 167.776 19.1491 167.798 19.283C167.809 19.3499 167.818 19.4022 167.824 19.4375L167.83 19.4773L167.831 19.4871L167.832 19.4893L167.832 19.4897L167.832 19.4898ZM165.165 19.9875C164.954 20.0657 164.767 20.1633 164.602 20.2788C164.562 20.3065 164.524 20.3348 164.488 20.3637C164.268 20.215 164.088 20.0566 163.941 19.8944L165.165 19.9875ZM163.377 16.5078C163.716 16.231 164.087 15.9843 164.486 15.7715C164.196 16.4357 163.992 17.0764 163.849 17.6385C163.689 18.2677 163.601 18.8122 163.553 19.2029C163.549 19.239 163.545 19.2738 163.541 19.3073C163.454 19.1299 163.395 18.9565 163.354 18.7946C163.27 18.4634 163.258 18.1582 163.268 17.9358C163.272 17.8259 163.283 17.7401 163.29 17.6865C163.294 17.6598 163.297 17.6415 163.299 17.6326C163.299 17.6311 163.3 17.6298 163.3 17.6288L163.345 17.4284L163.304 17.2199C163.266 17.0273 163.232 16.8376 163.203 16.6508L163.377 16.5078ZM163.923 19.8747C163.923 19.8747 163.923 19.8747 163.923 19.8747C164.063 19.8793 164.249 19.8855 164.495 19.8937L163.923 19.8747Z" fill="#D4D7D8" stroke="#02846F" stroke-width="2"/>
<mask id="path-4-inside-1" fill="white">
<path d="M161.301 0.013955C161.301 0.013955 148.726 -0.630147 150.195 6.83343C150.119 7.212 150.186 7.60132 150.387 7.94572C150.588 8.29012 150.912 8.57195 151.314 8.75091C151.314 8.75091 151.337 8.19117 152.604 8.38725C153.057 8.45185 153.516 8.47099 153.974 8.44426C154.586 8.40472 155.166 8.19966 155.629 7.85944V7.85944C155.629 7.85944 159.166 6.62196 160.543 1.72851C160.543 1.72851 161.562 0.662044 161.535 0.387874L159.409 1.15339C159.815 1.89927 159.871 2.7481 159.565 3.52744C159.565 3.52744 159.497 1.20126 159.088 1.25712C159.002 1.25712 157.983 1.70514 157.983 1.70514C157.983 1.70514 159.231 3.96405 158.291 5.60451C158.291 5.60451 158.648 2.82177 157.593 1.86987L156.097 2.60631C156.097 2.60631 157.557 4.94332 156.569 6.84484C156.569 6.84484 156.824 3.92529 155.785 2.78871L154.431 3.6819C154.431 3.6819 155.801 5.98015 154.964 7.55791C154.964 7.55791 154.855 4.15956 154.136 3.91845C153.623 4.28499 153.164 4.70323 152.77 5.1639C152.77 5.1639 153.71 6.84369 153.127 7.71408C153.127 7.71408 152.77 5.44947 152.465 5.44092C151.852 6.20595 151.41 7.05997 151.162 7.96033C151.219 7.00909 151.57 6.08724 152.181 5.28703C151.499 5.39571 150.87 5.67118 150.371 6.07933C150.371 6.07933 150.557 5.01855 152.473 4.92621C152.829 4.48526 153.245 4.08038 153.711 3.71952C152.676 3.64537 151.634 3.74732 150.646 4.01935C150.646 4.01935 151.666 3.01728 154.058 3.4596L155.398 2.53563C155.398 2.53563 152.886 2.25576 151.827 2.56641C151.827 2.56641 153.051 1.67892 155.758 2.32587L157.218 1.58487C156.097 1.37722 154.949 1.2935 153.803 1.33579C153.803 1.33579 155.146 0.722462 157.644 1.38879L158.683 0.989794C158.683 0.989794 157.117 0.729303 156.657 0.690543C156.197 0.651783 156.174 0.542346 156.174 0.542346C157.167 0.402509 158.187 0.499416 159.119 0.822215C159.119 0.822215 161.341 0.139925 161.301 0.013955Z"/>
</mask>
<path d="M161.301 0.013955C161.301 0.013955 148.726 -0.630147 150.195 6.83343C150.119 7.212 150.186 7.60132 150.387 7.94572C150.588 8.29012 150.912 8.57195 151.314 8.75091C151.314 8.75091 151.337 8.19117 152.604 8.38725C153.057 8.45185 153.516 8.47099 153.974 8.44426C154.586 8.40472 155.166 8.19966 155.629 7.85944V7.85944C155.629 7.85944 159.166 6.62196 160.543 1.72851C160.543 1.72851 161.562 0.662044 161.535 0.387874L159.409 1.15339C159.815 1.89927 159.871 2.7481 159.565 3.52744C159.565 3.52744 159.497 1.20126 159.088 1.25712C159.002 1.25712 157.983 1.70514 157.983 1.70514C157.983 1.70514 159.231 3.96405 158.291 5.60451C158.291 5.60451 158.648 2.82177 157.593 1.86987L156.097 2.60631C156.097 2.60631 157.557 4.94332 156.569 6.84484C156.569 6.84484 156.824 3.92529 155.785 2.78871L154.431 3.6819C154.431 3.6819 155.801 5.98015 154.964 7.55791C154.964 7.55791 154.855 4.15956 154.136 3.91845C153.623 4.28499 153.164 4.70323 152.77 5.1639C152.77 5.1639 153.71 6.84369 153.127 7.71408C153.127 7.71408 152.77 5.44947 152.465 5.44092C151.852 6.20595 151.41 7.05997 151.162 7.96033C151.219 7.00909 151.57 6.08724 152.181 5.28703C151.499 5.39571 150.87 5.67118 150.371 6.07933C150.371 6.07933 150.557 5.01855 152.473 4.92621C152.829 4.48526 153.245 4.08038 153.711 3.71952C152.676 3.64537 151.634 3.74732 150.646 4.01935C150.646 4.01935 151.666 3.01728 154.058 3.4596L155.398 2.53563C155.398 2.53563 152.886 2.25576 151.827 2.56641C151.827 2.56641 153.051 1.67892 155.758 2.32587L157.218 1.58487C156.097 1.37722 154.949 1.2935 153.803 1.33579C153.803 1.33579 155.146 0.722462 157.644 1.38879L158.683 0.989794C158.683 0.989794 157.117 0.729303 156.657 0.690543C156.197 0.651783 156.174 0.542346 156.174 0.542346C157.167 0.402509 158.187 0.499416 159.119 0.822215C159.119 0.822215 161.341 0.139925 161.301 0.013955Z" fill="#D4D7D8"/>
<path d="M161.301 0.013955L163.208 -0.587949L162.79 -1.91238L161.403 -1.98343L161.301 0.013955ZM150.195 6.83343L152.156 7.22942L152.235 6.83843L152.158 6.44706L150.195 6.83343ZM151.314 8.75091H153.314V7.45246L152.128 6.92403L151.314 8.75091ZM152.604 8.38725L152.298 10.3637L152.31 10.3655L152.321 10.3672L152.604 8.38725ZM153.974 8.44426L154.091 10.4409L154.103 10.4401L153.974 8.44426ZM160.543 1.72851L159.097 0.346516L158.753 0.706939L158.618 1.18692L160.543 1.72851ZM161.535 0.387874L163.526 0.192211L163.275 -2.36384L160.858 -1.49391L161.535 0.387874ZM159.409 1.15339L158.731 -0.728398L156.536 0.0618741L157.653 2.11053L159.409 1.15339ZM159.565 3.52744H157.565L161.426 4.25951L159.565 3.52744ZM159.088 1.25712V3.25712H159.224L159.359 3.23873L159.088 1.25712ZM157.983 1.70514L157.178 -0.125641L155.174 0.755751L156.232 2.67222L157.983 1.70514ZM158.291 5.60451L156.307 5.34995L160.026 6.59882L158.291 5.60451ZM157.593 1.86987L158.933 0.384863L157.926 -0.52332L156.71 0.0755525L157.593 1.86987ZM156.097 2.60631L155.214 0.811992L153.229 1.7892L154.401 3.6657L156.097 2.60631ZM156.569 6.84484L154.576 6.67102L158.344 7.7668L156.569 6.84484ZM155.785 2.78871L157.261 1.43929L156.108 0.178836L154.683 1.11936L155.785 2.78871ZM154.431 3.6819L153.329 2.01255L151.735 3.06476L152.713 4.70588L154.431 3.6819ZM154.964 7.55791L152.965 7.62212L153.206 15.1396L156.731 8.49505L154.964 7.55791ZM154.136 3.91845L154.773 2.02243L153.805 1.69769L152.975 2.29036L154.136 3.91845ZM152.77 5.1639L151.25 3.86426L150.77 4.42551V5.1639H152.77ZM153.127 7.71408L151.151 8.02561L151.947 13.0708L154.789 8.82688L153.127 7.71408ZM152.465 5.44092L152.522 3.44171L151.527 3.4138L150.905 4.18953L152.465 5.44092ZM151.162 7.96033L149.165 7.84016L153.09 8.49186L151.162 7.96033ZM152.181 5.28703L153.771 6.50033L156.805 2.5248L151.866 3.31196L152.181 5.28703ZM150.371 6.07933L150.164 8.06852L150.993 8.15504L151.638 7.62705L150.371 6.07933ZM152.473 4.92621L152.569 6.9239L153.464 6.88076L154.028 6.18397L152.473 4.92621ZM153.711 3.71952L154.935 5.30058L159.069 2.09832L153.854 1.72464L153.711 3.71952ZM150.646 4.01935V6.01935H150.917L151.177 5.94753L150.646 4.01935ZM154.058 3.4596L153.694 5.42626L154.51 5.57712L155.193 5.1062L154.058 3.4596ZM155.398 2.53563L156.533 4.18223L160.944 1.14119L155.619 0.547932L155.398 2.53563ZM151.827 2.56641L150.653 0.947111L152.39 4.48558L151.827 2.56641ZM155.758 2.32587L155.293 4.27111L156.008 4.44194L156.664 4.10917L155.758 2.32587ZM157.218 1.58487L158.123 3.36817L163.389 0.694318L157.582 -0.381657L157.218 1.58487ZM153.803 1.33579L152.972 -0.483611L153.877 3.33443L153.803 1.33579ZM157.644 1.38879L157.128 3.32118L157.755 3.48847L158.361 3.25585L157.644 1.38879ZM158.683 0.989794L159.4 2.85685L166.258 0.22303L159.011 -0.983071L158.683 0.989794ZM156.174 0.542346L155.895 -1.43813L153.779 -1.14019L154.216 0.951903L156.174 0.542346ZM159.119 0.822215L158.465 2.71206L161.119 3.63151V0.822215H159.119ZM161.301 0.013955C161.403 -1.98343 161.403 -1.98346 161.402 -1.98349C161.402 -1.98351 161.401 -1.98354 161.4 -1.98357C161.399 -1.98363 161.398 -1.9837 161.396 -1.98377C161.393 -1.98392 161.389 -1.98411 161.385 -1.98432C161.376 -1.98475 161.363 -1.98529 161.348 -1.98593C161.318 -1.98719 161.276 -1.98879 161.223 -1.99046C161.117 -1.9938 160.968 -1.9974 160.781 -1.99906C160.408 -2.00238 159.884 -1.99798 159.262 -1.96771C158.031 -1.90781 156.355 -1.74401 154.692 -1.31043C153.067 -0.886494 151.225 -0.147243 149.884 1.21724C148.434 2.6932 147.742 4.72783 148.233 7.21981L152.158 6.44706C151.914 5.20725 152.243 4.52355 152.737 4.02115C153.34 3.40726 154.367 2.90812 155.702 2.56013C156.999 2.22179 158.375 2.08015 159.456 2.02757C159.99 2.00161 160.436 1.99802 160.746 2.00078C160.9 2.00215 161.019 2.00509 161.097 2.00755C161.136 2.00878 161.164 2.00988 161.181 2.0106C161.19 2.01096 161.196 2.01122 161.199 2.01135C161.2 2.01142 161.201 2.01146 161.201 2.01145C161.201 2.01145 161.201 2.01144 161.2 2.01142C161.2 2.01141 161.2 2.01139 161.2 2.01139C161.199 2.01136 161.199 2.01134 161.301 0.013955ZM148.235 6.43745C148.058 7.31347 148.22 8.20057 148.659 8.95344L152.114 6.938C152.131 6.96648 152.149 7.00873 152.158 7.06315C152.168 7.11792 152.167 7.17524 152.156 7.22942L148.235 6.43745ZM148.659 8.95344C149.093 9.69716 149.757 10.2467 150.5 10.5778L152.128 6.92403C152.1 6.91162 152.088 6.90126 152.087 6.90036C152.086 6.89952 152.098 6.91027 152.114 6.938L148.659 8.95344ZM151.314 8.75091C153.312 8.83265 153.312 8.83487 153.312 8.83709C153.312 8.83783 153.312 8.84006 153.312 8.84154C153.312 8.84451 153.312 8.84748 153.311 8.85046C153.311 8.85641 153.311 8.86238 153.31 8.86838C153.31 8.88036 153.309 8.89242 153.308 8.90457C153.306 8.92885 153.304 8.95352 153.301 8.97856C153.295 9.02855 153.287 9.08058 153.276 9.13422C153.253 9.24119 153.219 9.35794 153.165 9.47845C153.052 9.73332 152.871 9.96481 152.634 10.1316C152.183 10.4489 151.883 10.2995 152.298 10.3637L152.91 6.41077C152.058 6.27891 151.113 6.31138 150.333 6.85953C149.932 7.14172 149.667 7.50089 149.51 7.85459C149.434 8.02451 149.388 8.18346 149.359 8.32027C149.345 8.38884 149.335 8.4527 149.328 8.51079C149.325 8.53988 149.322 8.56767 149.32 8.59406C149.319 8.60726 149.318 8.62012 149.317 8.63264C149.317 8.6389 149.317 8.64508 149.316 8.65117C149.316 8.65421 149.316 8.65723 149.316 8.66024C149.316 8.66174 149.316 8.66398 149.316 8.66472C149.316 8.66695 149.316 8.66918 151.314 8.75091ZM152.321 10.3672C152.906 10.4507 153.5 10.4753 154.091 10.4409L153.857 6.44766C153.533 6.46663 153.207 6.45299 152.887 6.40734L152.321 10.3672ZM154.103 10.4401C155.069 10.3776 156.021 10.0528 156.813 9.47117L154.445 6.2477C154.31 6.34653 154.102 6.43181 153.845 6.44842L154.103 10.4401ZM155.629 7.85944C156.289 9.74726 156.29 9.74689 156.291 9.74652C156.292 9.74639 156.293 9.74602 156.294 9.74576C156.295 9.74524 156.297 9.74469 156.298 9.74413C156.301 9.743 156.305 9.74178 156.308 9.74048C156.316 9.73787 156.324 9.7349 156.333 9.73157C156.351 9.72491 156.372 9.71678 156.397 9.70711C156.447 9.68776 156.509 9.66218 156.584 9.62969C156.732 9.56478 156.929 9.47194 157.16 9.34572C157.623 9.09362 158.231 8.70548 158.884 8.13652C160.202 6.9871 161.664 5.12948 162.468 2.27011L158.618 1.18692C158.045 3.221 157.05 4.42884 156.255 5.12152C155.851 5.47361 155.49 5.70067 155.246 5.83352C155.124 5.89977 155.034 5.94185 154.983 5.96372C154.958 5.97463 154.944 5.98041 154.941 5.98158C154.939 5.98216 154.941 5.98158 154.945 5.9799C154.948 5.97906 154.951 5.97794 154.955 5.97656C154.956 5.97587 154.959 5.97511 154.961 5.97429C154.962 5.97387 154.963 5.97345 154.965 5.973C154.965 5.97278 154.966 5.97243 154.966 5.97232C154.967 5.97197 154.968 5.97162 155.629 7.85944ZM160.543 1.72851C161.989 3.11051 161.989 3.1104 161.989 3.1103C161.989 3.11026 161.989 3.11014 161.989 3.11006C161.989 3.10989 161.989 3.10971 161.99 3.10951C161.99 3.10911 161.99 3.10864 161.991 3.10811C161.992 3.10705 161.993 3.10572 161.995 3.10414C161.998 3.10098 162.002 3.0968 162.006 3.09165C162.016 3.08137 162.03 3.06719 162.046 3.04958C162.079 3.01445 162.125 2.96525 162.179 2.90578C162.286 2.78851 162.433 2.62366 162.584 2.44365C162.727 2.27244 162.907 2.04755 163.059 1.81764C163.133 1.70574 163.233 1.54411 163.32 1.35492C163.37 1.24474 163.584 0.784937 163.526 0.192211L159.545 0.583537C159.515 0.282912 159.565 0.0510867 159.594 -0.0582976C159.626 -0.179514 159.663 -0.265909 159.681 -0.306532C159.717 -0.384918 159.742 -0.418247 159.724 -0.391609C159.693 -0.344448 159.623 -0.25131 159.515 -0.12164C159.414 -0.00076145 159.308 0.118141 159.224 0.209401C159.184 0.254197 159.15 0.290461 159.127 0.314723C159.116 0.326816 159.107 0.335816 159.102 0.341284C159.1 0.344015 159.098 0.345855 159.097 0.346748C159.096 0.347194 159.096 0.347402 159.096 0.347366C159.096 0.347348 159.096 0.347269 159.097 0.347128C159.097 0.347057 159.097 0.346971 159.097 0.346869C159.097 0.346818 159.097 0.34673 159.097 0.346704C159.097 0.346612 159.097 0.346516 160.543 1.72851ZM160.858 -1.49391L158.731 -0.728398L160.086 3.03517L162.213 2.26966L160.858 -1.49391ZM157.653 2.11053C157.781 2.34529 157.79 2.576 157.703 2.79536L161.426 4.25951C161.953 2.92019 161.85 1.45325 161.165 0.196241L157.653 2.11053ZM161.565 3.52744C161.565 3.45007 161.543 2.79005 161.466 2.13636C161.429 1.82176 161.366 1.39271 161.249 1.0072C161.196 0.833802 161.086 0.50674 160.862 0.187897C160.66 -0.098334 159.981 -0.883368 158.817 -0.724478L159.359 3.23873C158.878 3.30436 158.444 3.1786 158.121 2.98204C157.832 2.80628 157.666 2.59769 157.59 2.48938C157.509 2.37334 157.465 2.27925 157.448 2.23971C157.438 2.21625 157.431 2.19844 157.428 2.18775C157.424 2.1769 157.422 2.17051 157.421 2.16939C157.421 2.16807 157.424 2.17884 157.43 2.20429C157.436 2.22907 157.442 2.26195 157.45 2.30346C157.465 2.38769 157.48 2.49 157.494 2.60631C157.552 3.10174 157.565 3.6048 157.565 3.52744H161.565ZM159.088 -0.742875C158.788 -0.742875 158.545 -0.670083 158.542 -0.669195C158.471 -0.650141 158.411 -0.630234 158.373 -0.617602C158.295 -0.591113 158.216 -0.561057 158.152 -0.536043C158.019 -0.484055 157.864 -0.419697 157.726 -0.361569C157.585 -0.302115 157.448 -0.243303 157.348 -0.199757C157.297 -0.177871 157.256 -0.159584 157.226 -0.146672C157.211 -0.140211 157.2 -0.135082 157.191 -0.131506C157.187 -0.129718 157.184 -0.128317 157.182 -0.12733C157.181 -0.126837 157.18 -0.126447 157.179 -0.126165C157.179 -0.126023 157.179 -0.125909 157.178 -0.125821C157.178 -0.125777 157.178 -0.125741 157.178 -0.12571C157.178 -0.125695 157.178 -0.125678 157.178 -0.12567C157.178 -0.125655 157.178 -0.125641 157.983 1.70514C158.788 3.53593 158.788 3.53594 158.788 3.53595C158.788 3.53595 158.788 3.53595 158.788 3.53595C158.788 3.53596 158.788 3.53595 158.788 3.53594C158.788 3.53592 158.788 3.53587 158.789 3.5358C158.789 3.53565 158.789 3.5354 158.79 3.53504C158.792 3.53434 158.794 3.53322 158.798 3.53173C158.805 3.52874 158.815 3.52425 158.828 3.51846C158.855 3.50687 158.893 3.49015 158.939 3.47004C159.033 3.42958 159.156 3.37639 159.281 3.32384C159.408 3.26996 159.524 3.22231 159.606 3.1903C159.65 3.17331 159.664 3.16837 159.658 3.17035C159.657 3.17074 159.627 3.18102 159.581 3.19351C159.558 3.19974 159.512 3.21166 159.451 3.22319C159.408 3.23135 159.27 3.25712 159.088 3.25712V-0.742875ZM157.983 1.70514C156.232 2.67222 156.232 2.67169 156.232 2.67117C156.232 2.67101 156.232 2.6705 156.231 2.67017C156.231 2.66952 156.231 2.66891 156.23 2.66832C156.23 2.66715 156.229 2.6661 156.229 2.66518C156.228 2.66333 156.227 2.66199 156.226 2.66113C156.225 2.65941 156.226 2.65963 156.227 2.66171C156.229 2.66587 156.235 2.67733 156.244 2.69541C156.262 2.73181 156.291 2.79347 156.327 2.87519C156.399 3.0424 156.486 3.27314 156.55 3.52952C156.699 4.11704 156.641 4.4618 156.556 4.61021L160.026 6.59882C160.881 5.10677 160.669 3.50185 160.429 2.54979C160.299 2.03639 160.133 1.59987 160 1.29227C159.933 1.13658 159.872 1.00895 159.826 0.915407C159.803 0.868516 159.783 0.829839 159.767 0.800116C159.759 0.785244 159.753 0.77258 159.747 0.762217C159.744 0.757034 159.742 0.752423 159.739 0.748395C159.738 0.746381 159.737 0.744512 159.736 0.74279C159.736 0.741929 159.735 0.741105 159.735 0.740318C159.735 0.739924 159.734 0.73936 159.734 0.739164C159.734 0.738611 159.734 0.738066 157.983 1.70514ZM158.291 5.60451C160.275 5.85908 160.275 5.85867 160.275 5.85824C160.275 5.85809 160.275 5.85765 160.275 5.85734C160.275 5.85671 160.275 5.85604 160.275 5.85533C160.275 5.8539 160.276 5.8523 160.276 5.85052C160.276 5.84697 160.277 5.84273 160.277 5.83781C160.279 5.82798 160.28 5.81543 160.282 5.80032C160.285 5.77011 160.29 5.72954 160.295 5.67978C160.304 5.58049 160.316 5.44331 160.327 5.27784C160.347 4.95093 160.361 4.49396 160.335 3.98967C160.309 3.49537 160.241 2.89169 160.067 2.29602C159.901 1.723 159.584 0.972046 158.933 0.384863L156.253 3.35488C156.13 3.24365 156.164 3.1975 156.227 3.41396C156.283 3.60778 156.324 3.87827 156.34 4.19864C156.357 4.50903 156.348 4.80723 156.334 5.03183C156.327 5.14212 156.32 5.22978 156.314 5.28638C156.311 5.31457 156.309 5.33472 156.308 5.34574C156.307 5.35125 156.307 5.35444 156.307 5.3552C156.307 5.35557 156.307 5.35533 156.307 5.35446C156.307 5.35403 156.307 5.35344 156.307 5.35269C156.307 5.35231 156.307 5.35189 156.307 5.35144C156.307 5.35121 156.307 5.35084 156.307 5.35072C156.307 5.35034 156.307 5.34995 158.291 5.60451ZM156.71 0.0755525L155.214 0.811992L156.981 4.40063L158.476 3.66419L156.71 0.0755525ZM156.097 2.60631C154.401 3.6657 154.4 3.66515 154.4 3.66461C154.4 3.66444 154.4 3.66391 154.399 3.66358C154.399 3.6629 154.399 3.66226 154.398 3.66165C154.398 3.66044 154.397 3.65935 154.396 3.65839C154.395 3.65648 154.394 3.65508 154.394 3.65419C154.393 3.65241 154.393 3.65263 154.394 3.65478C154.397 3.65911 154.404 3.67101 154.414 3.68986C154.435 3.72778 154.47 3.79224 154.512 3.87815C154.598 4.05362 154.703 4.29866 154.784 4.57607C154.964 5.18664 154.942 5.63851 154.794 5.92287L158.344 7.7668C159.184 6.14964 158.926 4.48225 158.622 3.44894C158.462 2.90441 158.264 2.44635 158.107 2.12421C158.028 1.96132 157.956 1.82834 157.902 1.73103C157.874 1.68226 157.851 1.6421 157.833 1.61126C157.823 1.59583 157.816 1.5827 157.809 1.57196C157.806 1.56659 157.803 1.56181 157.8 1.55763C157.799 1.55555 157.798 1.55361 157.797 1.55183C157.796 1.55093 157.796 1.55008 157.795 1.54926C157.795 1.54886 157.794 1.54827 157.794 1.54807C157.794 1.54749 157.794 1.54693 156.097 2.60631ZM156.569 6.84484C158.561 7.01865 158.561 7.01826 158.561 7.01786C158.561 7.01772 158.561 7.0173 158.561 7.01701C158.561 7.01641 158.562 7.01577 158.562 7.01509C158.562 7.01372 158.562 7.01216 158.562 7.01043C158.562 7.00696 158.563 7.00277 158.563 6.99788C158.564 6.98809 158.565 6.97547 158.566 6.96018C158.568 6.92961 158.571 6.88823 158.574 6.83724C158.58 6.73545 158.587 6.59425 158.592 6.42333C158.601 6.08475 158.6 5.61342 158.561 5.09158C158.522 4.57732 158.441 3.96398 158.27 3.35926C158.106 2.77713 157.816 2.04703 157.261 1.43929L154.308 4.13813C154.272 4.09869 154.34 4.15974 154.42 4.44469C154.494 4.70705 154.545 5.03671 154.572 5.3944C154.599 5.74452 154.599 6.07412 154.593 6.31847C154.59 6.43901 154.585 6.53479 154.581 6.59709C154.579 6.62815 154.578 6.65061 154.577 6.66336C154.576 6.66973 154.576 6.67365 154.576 6.67498C154.576 6.67564 154.576 6.67566 154.576 6.675C154.576 6.67468 154.576 6.67418 154.576 6.67352C154.576 6.67319 154.576 6.67282 154.576 6.6724C154.576 6.67219 154.576 6.67185 154.576 6.67174C154.576 6.67139 154.576 6.67102 156.569 6.84484ZM154.683 1.11936L153.329 2.01255L155.532 5.35126L156.886 4.45807L154.683 1.11936ZM154.431 3.6819C152.713 4.70588 152.713 4.70541 152.712 4.70495C152.712 4.70481 152.712 4.70435 152.712 4.70407C152.711 4.70349 152.711 4.70295 152.711 4.70245C152.71 4.70143 152.71 4.70054 152.709 4.69979C152.708 4.69827 152.708 4.69727 152.707 4.69676C152.707 4.69575 152.707 4.69673 152.709 4.6996C152.712 4.70537 152.72 4.71862 152.731 4.73863C152.753 4.7789 152.787 4.84509 152.829 4.93168C152.914 5.10874 153.018 5.35072 153.1 5.61728C153.297 6.25562 153.229 6.5604 153.197 6.62076L156.731 8.49505C157.536 6.97765 157.201 5.34443 156.922 4.43921C156.767 3.93399 156.58 3.5028 156.435 3.19963C156.361 3.04611 156.295 2.92042 156.245 2.82884C156.22 2.78294 156.199 2.74526 156.183 2.7166C156.175 2.70225 156.168 2.69013 156.162 2.68033C156.159 2.67543 156.157 2.6711 156.154 2.66736C156.153 2.6655 156.152 2.66377 156.151 2.6622C156.151 2.66141 156.15 2.66066 156.15 2.65995C156.15 2.65959 156.15 2.65909 156.149 2.65891C156.149 2.65841 156.149 2.65792 154.431 3.6819ZM154.964 7.55791C156.963 7.49369 156.963 7.49347 156.963 7.49324C156.963 7.49315 156.963 7.4929 156.963 7.49271C156.963 7.49234 156.963 7.49191 156.963 7.49143C156.963 7.49046 156.963 7.48929 156.963 7.48791C156.963 7.48516 156.962 7.48158 156.962 7.47721C156.962 7.46846 156.962 7.45652 156.961 7.44159C156.96 7.41173 156.958 7.36984 156.956 7.31755C156.951 7.21312 156.943 7.0663 156.931 6.89031C156.908 6.54194 156.868 6.0628 156.802 5.56476C156.738 5.08557 156.639 4.50408 156.476 3.98694C156.396 3.73275 156.273 3.40601 156.079 3.09223C155.909 2.81676 155.512 2.27069 154.773 2.02243L153.5 5.81448C152.94 5.6265 152.704 5.23937 152.677 5.19589C152.627 5.11411 152.63 5.09242 152.661 5.19073C152.721 5.37859 152.784 5.6919 152.837 6.09244C152.888 6.47411 152.92 6.85963 152.94 7.15598C152.95 7.30235 152.956 7.42291 152.96 7.50528C152.962 7.54638 152.963 7.57773 152.964 7.59778C152.964 7.60779 152.965 7.61497 152.965 7.61909C152.965 7.62116 152.965 7.62246 152.965 7.62297C152.965 7.62323 152.965 7.62329 152.965 7.62315C152.965 7.62308 152.965 7.62296 152.965 7.62279C152.965 7.6227 152.965 7.62254 152.965 7.62249C152.965 7.62232 152.965 7.62212 154.964 7.55791ZM152.975 2.29036C152.334 2.74751 151.754 3.27496 151.25 3.86426L154.29 6.46355C154.574 6.13151 154.911 5.82247 155.298 5.54655L152.975 2.29036ZM152.77 5.1639C151.025 6.14051 151.024 6.1401 151.024 6.1397C151.024 6.13957 151.024 6.13918 151.024 6.13893C151.023 6.13842 151.023 6.13794 151.023 6.13748C151.022 6.13657 151.022 6.13575 151.022 6.13502C151.021 6.13356 151.02 6.13246 151.02 6.13173C151.019 6.13025 151.019 6.13019 151.02 6.13148C151.021 6.13406 151.025 6.14191 151.032 6.15444C151.045 6.17974 151.066 6.22257 151.092 6.27853C151.146 6.39495 151.208 6.54521 151.255 6.6989C151.305 6.86333 151.317 6.96183 151.318 6.99241C151.318 7.02938 151.304 6.84269 151.465 6.60128L154.789 8.82688C155.242 8.15029 155.328 7.42723 155.317 6.90444C155.305 6.37525 155.191 5.89061 155.079 5.52629C154.964 5.15124 154.828 4.82715 154.723 4.60141C154.67 4.48629 154.623 4.39109 154.587 4.32113C154.569 4.28603 154.553 4.25693 154.541 4.23449C154.535 4.22325 154.53 4.21365 154.526 4.20577C154.523 4.20183 154.521 4.19831 154.52 4.19523C154.519 4.19369 154.518 4.19226 154.517 4.19094C154.517 4.19027 154.517 4.18964 154.516 4.18903C154.516 4.18873 154.516 4.1883 154.516 4.18814C154.516 4.18772 154.515 4.1873 152.77 5.1639ZM153.127 7.71408C155.103 7.40255 155.103 7.40242 155.103 7.40227C155.103 7.40221 155.103 7.40206 155.103 7.40194C155.103 7.4017 155.102 7.40143 155.102 7.40112C155.102 7.40051 155.102 7.39975 155.102 7.39886C155.102 7.39708 155.101 7.39475 155.101 7.39189C155.1 7.38618 155.099 7.37834 155.097 7.36852C155.094 7.34889 155.089 7.32129 155.084 7.28684C155.072 7.21804 155.056 7.12133 155.035 7.00581C154.994 6.77735 154.934 6.46383 154.862 6.1426C154.793 5.83773 154.699 5.45798 154.581 5.12662C154.526 4.97362 154.431 4.72879 154.281 4.48694C154.207 4.36789 154.068 4.16373 153.846 3.96768C153.628 3.7757 153.177 3.46012 152.522 3.44171L152.409 7.44014C151.791 7.42279 151.379 7.12591 151.2 6.96804C151.017 6.80611 150.917 6.65148 150.882 6.59517C150.839 6.52628 150.817 6.47782 150.813 6.46766C150.807 6.454 150.807 6.45418 150.814 6.4728C150.848 6.56846 150.9 6.75646 150.959 7.01882C151.014 7.26481 151.063 7.51798 151.098 7.71439C151.116 7.81132 151.129 7.89159 151.139 7.94668C151.143 7.97417 151.147 7.99523 151.149 8.00877C151.15 8.01554 151.151 8.02042 151.151 8.02328C151.151 8.02471 151.151 8.02563 151.152 8.02602C151.152 8.02622 151.152 8.02629 151.152 8.02622C151.152 8.02618 151.152 8.02612 151.152 8.02602C151.152 8.02597 151.152 8.02587 151.152 8.02584C151.152 8.02573 151.151 8.02561 153.127 7.71408ZM150.905 4.18953C150.13 5.15613 149.558 6.25288 149.234 7.4288L153.09 8.49186C153.262 7.86707 153.574 7.25577 154.026 6.69231L150.905 4.18953ZM153.158 8.08049C153.19 7.54881 153.387 7.00338 153.771 6.50033L150.591 4.07372C149.754 5.1711 149.248 6.46936 149.165 7.84016L153.158 8.08049ZM151.866 3.31196C150.861 3.47223 149.897 3.88326 149.105 4.5316L151.638 7.62705C151.843 7.45909 152.138 7.31919 152.496 7.26209L151.866 3.31196ZM150.371 4.07933C151.902 4.7925 152.341 6.42509 152.341 6.42676C152.341 6.42731 152.34 6.42897 152.34 6.43008C152.34 6.43229 152.339 6.43449 152.339 6.43668C152.338 6.44106 152.337 6.4454 152.337 6.44971C152.335 6.45832 152.333 6.46679 152.332 6.47511C152.328 6.49175 152.325 6.50785 152.321 6.52343C152.314 6.55456 152.306 6.58383 152.298 6.61144C152.281 6.66649 152.262 6.71617 152.241 6.76127C152.198 6.85387 152.146 6.92477 152.095 6.97433C151.963 7.10197 151.992 6.95171 152.569 6.9239L152.377 2.92853C151.038 2.99305 150.016 3.41935 149.312 4.10046C148.975 4.42675 148.757 4.76863 148.619 5.063C148.551 5.20899 148.503 5.34227 148.468 5.45569C148.451 5.51248 148.437 5.56464 148.427 5.61135C148.421 5.63473 148.416 5.65679 148.412 5.67745C148.41 5.68778 148.408 5.69777 148.406 5.7074C148.405 5.71222 148.404 5.71695 148.404 5.72158C148.403 5.7239 148.403 5.7262 148.402 5.72847C148.402 5.72961 148.402 5.7313 148.402 5.73187C148.401 5.73355 148.84 7.36615 150.371 8.07933V4.07933ZM154.028 6.18397C154.284 5.86779 154.587 5.57049 154.935 5.30058L152.486 2.13847C151.903 2.59026 151.375 3.10272 150.918 3.66845L154.028 6.18397ZM153.854 1.72464C152.595 1.63445 151.325 1.75795 150.115 2.09116L151.177 5.94753C151.943 5.73669 152.757 5.6563 153.568 5.71441L153.854 1.72464ZM150.646 2.01935C152.497 3.26193 152.047 5.44662 152.046 5.44756C152.046 5.44787 152.045 5.44882 152.044 5.44944C152.043 5.45068 152.042 5.45191 152.041 5.45313C152.038 5.45556 152.036 5.45793 152.033 5.46024C152.028 5.46488 152.024 5.46928 152.019 5.47348C152.01 5.48186 152.002 5.48938 151.995 5.49609C151.98 5.50952 151.968 5.51976 151.958 5.52724C151.94 5.54221 151.933 5.54632 151.938 5.54302C151.948 5.53682 152.006 5.49986 152.12 5.45986C152.332 5.38516 152.829 5.26635 153.694 5.42626L154.421 1.49295C152.894 1.21054 151.686 1.3716 150.79 1.68735C150.35 1.84257 150.004 2.02848 149.747 2.19635C149.619 2.28008 149.514 2.35902 149.431 2.42706C149.389 2.46109 149.353 2.49242 149.322 2.52031C149.306 2.53425 149.292 2.54735 149.279 2.55949C149.273 2.56557 149.266 2.57141 149.261 2.577C149.258 2.57979 149.255 2.58253 149.252 2.5852C149.251 2.58654 149.249 2.58786 149.248 2.58916C149.247 2.58981 149.246 2.59078 149.246 2.5911C149.245 2.59207 148.795 4.77676 150.646 6.01935V2.01935ZM155.193 5.1062L156.533 4.18223L154.263 0.889037L152.922 1.81301L155.193 5.1062ZM155.398 2.53563C155.619 0.547932 155.619 0.547913 155.619 0.547893C155.619 0.547884 155.619 0.547863 155.618 0.547846C155.618 0.547814 155.618 0.547776 155.617 0.547735C155.617 0.547652 155.616 0.547553 155.615 0.547437C155.613 0.547205 155.61 0.546908 155.607 0.546548C155.6 0.545828 155.591 0.544859 155.58 0.543668C155.557 0.541285 155.526 0.538009 155.486 0.534058C155.407 0.526163 155.295 0.515526 155.158 0.503917C154.886 0.480816 154.508 0.453278 154.091 0.436204C153.369 0.406619 152.155 0.385843 151.264 0.647251L152.39 4.48558C152.387 4.48644 152.398 4.48307 152.426 4.47751C152.454 4.47206 152.492 4.4657 152.542 4.45926C152.643 4.44617 152.77 4.43541 152.922 4.42849C153.229 4.41457 153.58 4.41863 153.928 4.43285C154.271 4.44692 154.588 4.46993 154.82 4.4896C154.935 4.49937 155.027 4.50817 155.09 4.51437C155.121 4.51746 155.144 4.5199 155.159 4.52146C155.166 4.52225 155.171 4.52281 155.174 4.52313C155.176 4.52329 155.177 4.52339 155.177 4.52343C155.177 4.52344 155.177 4.52344 155.177 4.52343C155.177 4.52342 155.177 4.52341 155.177 4.52339C155.177 4.52339 155.177 4.52337 155.177 4.52337C155.176 4.52335 155.176 4.52333 155.398 2.53563ZM151.827 2.56641C153 4.18572 152.999 4.18651 152.998 4.18731C152.998 4.18757 152.997 4.18836 152.996 4.18888C152.995 4.18992 152.993 4.19094 152.992 4.19196C152.989 4.19398 152.986 4.19595 152.984 4.19787C152.978 4.2017 152.973 4.20533 152.968 4.20874C152.958 4.21557 152.949 4.22157 152.941 4.2268C152.925 4.23727 152.913 4.24468 152.905 4.2495C152.889 4.25917 152.888 4.25844 152.904 4.25115C152.935 4.23692 153.033 4.19489 153.205 4.15732C153.539 4.08423 154.216 4.01371 155.293 4.27111L156.223 0.380644C154.593 -0.00891369 153.305 0.0408438 152.35 0.249751C151.877 0.353191 151.5 0.492599 151.216 0.624555C151.075 0.690359 150.958 0.753911 150.864 0.809583C150.817 0.83741 150.776 0.863253 150.741 0.886407C150.723 0.897984 150.707 0.90889 150.693 0.919036C150.685 0.924109 150.678 0.928992 150.672 0.933675C150.668 0.936016 150.665 0.938308 150.662 0.940547C150.66 0.941667 150.659 0.942774 150.657 0.943868C150.657 0.944415 150.655 0.945226 150.655 0.945499C150.654 0.946307 150.653 0.947111 151.827 2.56641ZM156.664 4.10917L158.123 3.36817L156.312 -0.198425L154.853 0.542576L156.664 4.10917ZM157.582 -0.381657C156.316 -0.616234 155.021 -0.710525 153.729 -0.662855L153.877 3.33443C154.877 3.29752 155.878 3.37068 156.853 3.5514L157.582 -0.381657ZM153.803 1.33579C154.633 3.15518 154.632 3.15563 154.631 3.15608C154.631 3.15622 154.63 3.15667 154.63 3.15696C154.628 3.15754 154.627 3.15811 154.626 3.15867C154.623 3.1598 154.621 3.16088 154.618 3.16193C154.614 3.16402 154.609 3.16595 154.605 3.16775C154.597 3.17133 154.59 3.17432 154.584 3.17677C154.572 3.18167 154.565 3.18441 154.562 3.18541C154.557 3.18739 154.57 3.18237 154.601 3.17356C154.662 3.15603 154.796 3.12302 155.002 3.10083C155.407 3.05703 156.119 3.05209 157.128 3.32118L158.159 -0.543593C156.67 -0.940833 155.463 -0.972274 154.572 -0.876005C154.129 -0.828149 153.771 -0.749474 153.503 -0.672831C153.369 -0.634551 153.257 -0.596866 153.169 -0.563939C153.124 -0.547477 153.086 -0.532206 153.053 -0.518646C153.037 -0.511866 153.022 -0.505513 153.008 -0.499653C153.002 -0.496722 152.995 -0.493915 152.989 -0.491239C152.986 -0.489901 152.983 -0.488595 152.981 -0.487324C152.979 -0.486688 152.978 -0.48606 152.976 -0.485442C152.976 -0.485132 152.975 -0.484675 152.974 -0.48452C152.973 -0.484064 152.972 -0.483611 153.803 1.33579ZM158.361 3.25585L159.4 2.85685L157.966 -0.877266L156.927 -0.478267L158.361 3.25585ZM158.683 0.989794C159.011 -0.983071 159.011 -0.983076 159.011 -0.983082C159.011 -0.983085 159.011 -0.983092 159.011 -0.983098C159.011 -0.983111 159.011 -0.983128 159.01 -0.983149C159.01 -0.983191 159.01 -0.983248 159.009 -0.983321C159.008 -0.983467 159.007 -0.983675 159.006 -0.983943C159.002 -0.98448 158.998 -0.985257 158.992 -0.98626C158.98 -0.988267 158.962 -0.991179 158.939 -0.994877C158.895 -1.00227 158.83 -1.01283 158.752 -1.02559C158.595 -1.05108 158.38 -1.08558 158.15 -1.12143C157.727 -1.18745 157.141 -1.27576 156.825 -1.3024L156.489 2.68349C156.633 2.69561 157.06 2.75692 157.534 2.83084C157.753 2.86496 157.959 2.898 158.11 2.92257C158.185 2.93483 158.247 2.94493 158.289 2.95193C158.311 2.95543 158.327 2.95815 158.338 2.95998C158.344 2.96089 158.348 2.96158 158.35 2.96203C158.352 2.96226 158.353 2.96243 158.353 2.96253C158.354 2.96258 158.354 2.96262 158.354 2.96264C158.354 2.96265 158.354 2.96266 158.354 2.96266C158.354 2.96266 158.354 2.96266 158.354 2.96266C158.354 2.96266 158.354 2.96266 158.683 0.989794ZM156.825 -1.3024C156.711 -1.31198 156.884 -1.31627 157.15 -1.18036C157.298 -1.10547 157.506 -0.971454 157.702 -0.74346C157.8 -0.62872 157.891 -0.495172 157.967 -0.343015C158.004 -0.267521 158.037 -0.189429 158.065 -0.109209C158.079 -0.069195 158.091 -0.0289279 158.102 0.0115164C158.108 0.0317274 158.113 0.0519506 158.118 0.0721759C158.12 0.0822873 158.123 0.0923956 158.125 0.102499C158.126 0.107551 158.127 0.112601 158.128 0.11765C158.129 0.120173 158.13 0.123959 158.13 0.125221C158.131 0.129004 158.132 0.132789 156.174 0.542346C154.216 0.951903 154.217 0.955689 154.218 0.959474C154.218 0.960737 154.219 0.964526 154.22 0.967053C154.221 0.972108 154.222 0.977168 154.223 0.982233C154.225 0.992363 154.228 1.00251 154.23 1.01268C154.235 1.03301 154.24 1.05339 154.246 1.07381C154.257 1.11467 154.27 1.15555 154.284 1.19638C154.312 1.27822 154.346 1.3587 154.385 1.43726C154.464 1.59556 154.56 1.73796 154.668 1.86356C154.883 2.11329 155.125 2.27708 155.335 2.38418C155.729 2.5845 156.143 2.65431 156.489 2.68349L156.825 -1.3024ZM156.453 2.52282C157.138 2.42638 157.837 2.49485 158.465 2.71206L159.774 -1.06763C158.537 -1.49602 157.197 -1.62137 155.895 -1.43813L156.453 2.52282ZM159.119 0.822215C159.706 2.73407 159.706 2.73405 159.706 2.73403C159.706 2.73402 159.707 2.734 159.707 2.73398C159.707 2.73393 159.707 2.73388 159.707 2.73382C159.708 2.73369 159.708 2.73352 159.709 2.73331C159.71 2.7329 159.712 2.73231 159.714 2.73157C159.719 2.73009 159.726 2.72798 159.735 2.72526C159.752 2.71984 159.778 2.71202 159.809 2.70211C159.873 2.68231 159.963 2.65407 160.071 2.61985C160.285 2.55177 160.575 2.45839 160.866 2.35973C161.149 2.26384 161.467 2.15205 161.724 2.04841C161.842 2.00095 162.01 1.93049 162.168 1.84512C162.232 1.81062 162.4 1.71864 162.575 1.57071C162.656 1.50217 162.843 1.3354 163.006 1.06796C163.169 0.801324 163.451 0.18091 163.208 -0.587949L159.394 0.615859C159.153 -0.145127 159.434 -0.756581 159.59 -1.01324C159.747 -1.27072 159.924 -1.4265 159.991 -1.48313C160.138 -1.60723 160.262 -1.67162 160.269 -1.67541C160.313 -1.69936 160.314 -1.69585 160.229 -1.66163C160.081 -1.60191 159.851 -1.51951 159.584 -1.42908C159.325 -1.34143 159.061 -1.25636 158.86 -1.19257C158.76 -1.16086 158.677 -1.13481 158.62 -1.11681C158.591 -1.10781 158.568 -1.10085 158.553 -1.09622C158.546 -1.09391 158.54 -1.09218 158.537 -1.09107C158.535 -1.09051 158.533 -1.09011 158.533 -1.08987C158.532 -1.08975 158.532 -1.08968 158.532 -1.08964C158.532 -1.08962 158.532 -1.08961 158.532 -1.08961C158.532 -1.08961 158.532 -1.08962 158.532 -1.08962C158.532 -1.08963 158.532 -1.08964 159.119 0.822215Z" fill="#02846F" mask="url(#path-4-inside-1)"/>
<path d="M35.7629 155.71C35.7629 155.532 35.8509 155.408 35.9197 155.35C35.9863 155.294 36.0494 155.28 36.0891 155.28C36.1288 155.28 36.1919 155.294 36.2585 155.35C36.3272 155.408 36.4153 155.532 36.4153 155.71C36.4153 155.889 36.3272 156.013 36.2585 156.071C36.1919 156.127 36.1288 156.141 36.0891 156.141C36.0494 156.141 35.9863 156.127 35.9197 156.071C35.8509 156.013 35.7629 155.889 35.7629 155.71Z" fill="white" stroke="black" stroke-width="2"/>
<path d="M36.0954 156.002C36.2821 156.002 36.4335 155.874 36.4335 155.716C36.4335 155.558 36.2821 155.43 36.0954 155.43C35.9087 155.43 35.7573 155.558 35.7573 155.716C35.7573 155.874 35.9087 156.002 36.0954 156.002Z" stroke="black" stroke-width="2"/>
<path opacity="0.34" d="M46.351 42.0457C46.351 42.0457 18.8183 56.9381 19.0434 80.222C19.1599 92.2826 26.4828 81.6054 33.59 68.3706C40.0591 56.3247 46.351 42.0457 46.351 42.0457Z" fill="#02846F" stroke="black" stroke-width="2"/>
<path d="M117.651 75.4488C117.651 80.4671 114.001 84.356 109.71 84.356C105.418 84.356 101.768 80.4671 101.768 75.4488C101.768 70.4305 105.418 66.5416 109.71 66.5416C114.001 66.5416 117.651 70.4305 117.651 75.4488Z" fill="#02846F" stroke="black" stroke-width="2"/>
<path d="M69.1375 75.4488C69.1375 80.4671 65.488 84.356 61.1962 84.356C56.9043 84.356 53.2549 80.4671 53.2549 75.4488C53.2549 70.4305 56.9043 66.5416 61.1962 66.5416C65.488 66.5416 69.1375 70.4305 69.1375 75.4488Z" fill="#02846F" stroke="black" stroke-width="2"/>
<path d="M144.257 110.601C144.257 113.854 142.636 117.811 139.616 121.98C136.612 126.128 132.295 130.385 127.08 134.22C116.64 141.896 102.738 147.783 88.8355 147.783C74.9422 147.783 61.3151 141.769 51.1471 133.962C46.0683 130.063 41.8838 125.74 38.9778 121.542C36.0574 117.323 34.4932 113.326 34.4932 110.059C34.4932 108.435 34.8688 107.319 35.4752 106.535C36.082 105.751 37.0079 105.186 38.3245 104.834C41.0212 104.114 45.0174 104.367 50.1098 105.107C52.6796 105.48 55.5007 105.973 58.5156 106.5C67.2712 108.029 77.6613 109.844 88.2769 109.844C98.5368 109.844 108.881 108.217 117.815 106.812C121.294 106.265 124.559 105.751 127.523 105.38C132.884 104.71 137.168 104.516 140.084 105.292C141.517 105.673 142.534 106.267 143.199 107.076C143.856 107.876 144.257 108.995 144.257 110.601Z" fill="#02846F" stroke="black" stroke-width="2"/>
<path d="M133.493 120.609L133.492 120.609C125.422 124.099 95.1094 134.598 46.528 121.228L46.528 121.228L46.5203 121.225C45.1469 120.859 43.9163 120.215 42.9328 119.363C41.9527 118.514 41.2518 117.488 40.873 116.385C40.6192 115.588 40.6374 115.058 40.7941 114.753C40.91 114.526 41.2429 114.162 42.3658 114.04L42.3768 114.042C42.4763 114.06 42.6237 114.087 42.8173 114.121C43.2045 114.19 43.7764 114.289 44.5185 114.412C46.0029 114.657 48.1685 114.997 50.9 115.375C56.3625 116.131 64.0906 117.041 73.16 117.659C91.2507 118.892 114.736 118.967 136.232 114.305C136.248 114.306 136.267 114.307 136.287 114.308C136.395 114.316 136.549 114.332 136.724 114.364C137.094 114.433 137.464 114.556 137.718 114.744C137.925 114.898 138.058 115.089 138.052 115.445C138.045 115.877 137.828 116.639 136.982 117.849C136.168 119.011 134.964 119.975 133.493 120.609Z" fill="#F6F8FB" stroke="black" stroke-width="2"/>
</svg>
