<svg width="180" height="162" viewBox="0 0 180 162" fill="none" xmlns="http://www.w3.org/2000/svg">
<path d="M159.222 88.3551C160.135 88.3551 161.011 88.1447 161.693 87.7529C162.348 87.3769 163.013 86.7063 163.013 85.7524C163.013 84.7986 162.348 84.128 161.693 83.752C161.011 83.3602 160.135 83.1498 159.222 83.1498C158.308 83.1498 157.432 83.3602 156.75 83.752C156.095 84.128 155.431 84.7986 155.431 85.7524C155.431 86.7063 156.095 87.3769 156.75 87.7529C157.432 88.1447 158.308 88.3551 159.222 88.3551Z" fill="#575A89" stroke="black" stroke-width="2"/>
<path d="M82.5128 160.666C127.44 160.666 164.026 127.517 164.026 86.4311C164.026 45.3454 127.44 12.1964 82.5128 12.1964C37.5858 12.1964 1 45.3454 1 86.4311C1 127.517 37.5858 160.666 82.5128 160.666Z" fill="#EE968D" stroke="black" stroke-width="2"/>
<path d="M177.178 4.17668L177.133 5.06646C177.178 4.17668 177.178 4.17666 177.177 4.17663L177.176 4.17656L177.171 4.17633L177.155 4.17554L177.094 4.17289C177.041 4.17071 176.965 4.16779 176.866 4.1647C176.669 4.1585 176.382 4.1516 176.02 4.14846C175.296 4.14217 174.269 4.1509 173.047 4.21064C170.61 4.3298 167.367 4.65324 164.204 5.47938C161.06 6.30067 157.881 7.64752 155.681 9.89051C153.459 12.1562 152.315 15.2593 153.078 19.3572C153.064 19.4591 153.051 19.5912 153.044 19.7471C153.028 20.0953 153.046 20.5776 153.182 21.1141C153.463 22.2279 154.238 23.4924 156.025 24.2474L157.354 24.8094L157.404 23.587C157.554 23.5242 157.979 23.4135 158.947 23.5565L158.953 23.5573C159.155 23.586 159.358 23.6106 159.562 23.6311L159.596 23.8472L159.728 23.647C160.478 23.7142 161.233 23.7256 161.986 23.681C162.357 23.66 162.723 23.6131 163.083 23.5412L163.118 24.625L163.789 23.3652C164.541 23.1397 165.25 22.8007 165.879 22.3567C165.942 22.3317 166.024 22.2982 166.122 22.2553C166.353 22.1544 166.677 22.0017 167.071 21.7869C167.859 21.3576 168.927 20.6786 170.085 19.6682C172.374 17.6718 174.993 14.396 176.49 9.24445C176.54 9.19091 176.598 9.12709 176.664 9.05499C176.867 8.83163 177.139 8.52486 177.411 8.19677C177.678 7.87339 177.963 7.5081 178.181 7.17157C178.289 7.00496 178.397 6.81944 178.478 6.6325C178.542 6.48563 178.666 6.16928 178.612 5.80693L178.434 4.59642L178.036 4.74038L177.855 4.21122L177.178 4.17668ZM176.505 4.42676C176.505 4.42676 176.504 4.42744 176.502 4.42882C176.504 4.42745 176.505 4.42677 176.505 4.42676Z" fill="#EE968D" stroke="black" stroke-width="2"/>
<path d="M153.898 2.1054L153.88 2.04999L153.187 2.01441L153.168 2.36832L153.168 2.36835C153.186 2.0144 153.186 2.01439 153.186 2.01437L153.185 2.01432L153.182 2.01419L153.173 2.01377L153.143 2.01245C153.118 2.01138 153.081 2.00999 153.035 2.00852C152.942 2.00558 152.808 2.00234 152.641 2.00084C152.305 1.99785 151.831 2.00181 151.267 2.02928C150.146 2.08388 148.641 2.23277 147.162 2.61886C145.702 3.00013 144.155 3.6414 143.059 4.75758C141.942 5.89576 141.374 7.45017 141.714 9.42944C141.654 9.96275 141.772 10.4952 142.043 10.9603C142.347 11.4831 142.821 11.8816 143.368 12.1258L143.776 11.2126C144.24 11.2315 144.488 11.2419 144.621 11.2477L144.678 11.6052C144.633 11.6814 144.575 11.745 144.511 11.7906C144.454 11.8305 144.417 11.8402 144.417 11.8403C144.417 11.8403 144.498 11.8194 144.715 11.8438L144.885 12.9209L145.549 11.9278C145.784 11.9387 146.02 11.9384 146.255 11.927L146.318 13.8884L147.489 11.6776C147.774 11.5714 148.047 11.4325 148.298 11.2619C148.319 11.2534 148.341 11.2439 148.365 11.2334C148.483 11.1819 148.644 11.1058 148.837 11.0005C149.223 10.79 149.739 10.461 150.296 9.97452C151.381 9.02698 152.604 7.49623 153.319 5.12887C153.413 5.02505 153.54 4.88316 153.667 4.73039C153.794 4.5788 153.938 4.39663 154.054 4.22093C154.112 4.13461 154.178 4.02569 154.232 3.90684C154.254 3.85838 154.305 3.74636 154.334 3.59574L154.464 3.54555L154.345 3.52571C154.356 3.44662 154.359 3.35918 154.35 3.26631L154.225 1.98752L153.898 2.1054Z" fill="#EE968D" stroke="black" stroke-width="2"/>
<path d="M120.041 64.0533L120.202 64.0457C121.176 63.9996 123.976 63.8299 127.263 63.3192C130.564 62.8063 134.275 61.9611 137.114 60.5964C138.201 60.0585 139.419 59.7586 140.661 59.7157L140.671 59.7153L140.671 59.7154C141.662 59.6916 143.064 59.8291 143.983 60.7784C144.995 61.824 145.052 63.4185 144.307 65.4115C143.662 67.1513 142.287 68.8519 140.556 70.3976C138.81 71.956 136.636 73.4169 134.292 74.661C129.634 77.1341 124.139 78.8374 119.823 78.6352C111.819 78.261 102.17 75.527 95.8014 65.8179L95.8003 65.8163L95.8003 65.8163C95.1053 64.7523 94.7535 63.5337 94.8007 62.291L120.041 64.0533ZM120.041 64.0533C119.87 64.0573 119.699 64.0555 119.528 64.0478C118.47 63.9986 115.284 63.8076 111.67 63.1913C108.024 62.5696 104.078 61.5364 101.416 59.867L120.041 64.0533ZM96.2347 58.9969C97.5157 58.1328 99.2785 58.526 101.416 59.8668L96.2347 58.9969ZM96.2347 58.9969C95.6243 59.4086 95.2815 60.0177 95.0873 60.5876M96.2347 58.9969L95.0873 60.5876M95.0873 60.5876C94.8927 61.1584 94.8206 61.7652 94.8007 62.2907L95.0873 60.5876Z" fill="#444053" stroke="black" stroke-width="2"/>
<path d="M47.0011 64.0533L47.161 64.0457C48.1349 63.9996 50.9355 63.8299 54.222 63.3192C57.5236 62.8063 61.2336 61.9611 64.0733 60.5965C65.1599 60.0586 66.3774 59.7587 67.6193 59.7157L67.6299 59.7153C68.6205 59.6916 70.0228 59.8291 70.9415 60.7784C71.9532 61.8237 72.0102 63.4179 71.2657 65.4102C70.6209 67.1505 69.2455 68.8515 67.5141 70.3976C65.7689 71.956 63.5946 73.4169 61.2509 74.661C56.5922 77.1341 51.0972 78.8374 46.7811 78.6352C38.7766 78.261 29.1281 75.527 22.7592 65.8179L22.7582 65.8163L22.7582 65.8163C22.0632 64.7524 21.7114 63.5337 21.7586 62.291L47.0011 64.0533ZM47.0011 64.0533C46.8297 64.0573 46.6582 64.0555 46.487 64.0478C45.4282 63.9987 42.242 63.8076 38.6278 63.1913C34.982 62.5696 31.0361 61.5364 28.3736 59.867L47.0011 64.0533ZM23.1925 58.9969C24.4735 58.1328 26.2364 58.526 28.3734 59.8668L23.1925 58.9969ZM23.1925 58.9969C22.5822 59.4086 22.2394 60.0177 22.0452 60.5876M23.1925 58.9969L22.0452 60.5876M22.0452 60.5876C21.8506 61.1584 21.7784 61.7652 21.7586 62.2906L22.0452 60.5876Z" fill="#444053" stroke="black" stroke-width="2"/>
<path d="M82.4404 129.423C91.1493 129.423 99.6004 130.895 106.898 132.165C109.462 132.611 111.883 133.033 114.123 133.357C118.356 133.97 122.057 134.252 124.727 133.541C126.093 133.178 127.267 132.534 128.09 131.474C128.914 130.413 129.298 129.048 129.298 127.409C129.298 123.777 127.389 119.584 124.28 115.497C121.151 111.382 116.719 107.258 111.466 103.747C103.155 98.1851 92.6877 94.1025 81.9553 94.1025C71.5257 94.1025 61.1924 97.8711 52.8087 103.096C47.2419 106.564 42.4982 110.697 39.1347 114.849C35.7955 118.971 33.7156 123.238 33.7156 126.961C33.7156 128.618 34.1378 129.997 35.0218 131.068C35.8983 132.13 37.1403 132.783 38.5802 133.164C41.4107 133.913 45.332 133.693 49.8043 133.136C52.3905 132.813 55.1922 132.374 58.1487 131.91C65.5883 130.744 74.0081 129.423 82.4404 129.423Z" fill="#444053" stroke="black" stroke-width="2"/>
<path d="M114.187 107.138L114.869 105.315C105.139 98.8043 92.9015 94.0321 80.3626 94.0321C68.1727 94.0321 56.0869 98.4377 46.2764 104.552L46.9359 106.392C72.7821 102.987 99.4313 105.265 114.187 107.138Z" fill="#F6F8FB" stroke="black" stroke-width="2"/>
</svg>
